<svg data-v-423bf9ae="" xmlns="http://www.w3.org/2000/svg" viewBox="0 0 778 90" class="iconLeft"><!----><!----><!----><g data-v-423bf9ae="" id="8bae880e-e982-46ac-b143-0757e55135a5" fill="#ECEBE7" transform="matrix(4.897959232330322,0,0,4.897959232330322,100.07535552978516,15)"><path d="M3.50 12.25L0 12.25L0 3.50L1.75 3.50L1.75 1.75L3.50 1.75L3.50 0L8.75 0L8.75 1.75L10.50 1.75L10.50 3.50L12.25 3.50L12.25 12.25L8.75 12.25L8.75 8.75L3.50 8.75L3.50 12.25ZM3.50 3.50L3.50 7L8.75 7L8.75 3.50L7 3.50L7 1.75L5.25 1.75L5.25 3.50L3.50 3.50ZM26.25 12.25L15.75 12.25L15.75 10.50L14 10.50L14 3.50L17.50 3.50L17.50 10.50L22.75 10.50L22.75 3.50L26.25 3.50L26.25 12.25ZM36.75 12.25L33.25 12.25L33.25 5.25L29.75 5.25L29.75 3.50L33.25 3.50L33.25 0L36.75 0L36.75 3.50L40.25 3.50L40.25 5.25L36.75 5.25L36.75 12.25ZM45.50 12.25L42 12.25L42 0L45.50 0L45.50 3.50L52.50 3.50L52.50 5.25L54.25 5.25L54.25 12.25L50.75 12.25L50.75 5.25L45.50 5.25L45.50 12.25ZM59.50 12.25L56 12.25L56 0L66.50 0L66.50 1.75L68.25 1.75L68.25 7L66.50 7L66.50 8.75L59.50 8.75L59.50 12.25ZM59.50 1.75L59.50 7L64.75 7L64.75 1.75L59.50 1.75ZM80.50 12.25L71.75 12.25L71.75 10.50L70 10.50L70 5.25L71.75 5.25L71.75 3.50L80.50 3.50L80.50 5.25L82.25 5.25L82.25 10.50L80.50 10.50L80.50 12.25ZM73.50 5.25L73.50 10.50L78.75 10.50L78.75 5.25L73.50 5.25ZM89.25 3.50L89.25 5.25L91 5.25L91 7L89.25 7L89.25 12.25L85.75 12.25L85.75 3.50L89.25 3.50ZM91 3.50L96.25 3.50L96.25 5.25L91 5.25L91 3.50ZM106.75 12.25L103.25 12.25L103.25 5.25L99.75 5.25L99.75 3.50L103.25 3.50L103.25 0L106.75 0L106.75 3.50L110.25 3.50L110.25 5.25L106.75 5.25L106.75 12.25ZM124.25 12.25L113.75 12.25L113.75 10.50L112 10.50L112 8.75L113.75 8.75L113.75 7L120.75 7L120.75 5.25L113.75 5.25L113.75 3.50L122.50 3.50L122.50 5.25L124.25 5.25L124.25 12.25ZM115.50 8.75L115.50 10.50L120.75 10.50L120.75 8.75L115.50 8.75ZM138.25 12.25L127.75 12.25L127.75 10.50L131.25 10.50L131.25 1.75L129.50 1.75L129.50 0L134.75 0L134.75 10.50L138.25 10.50L138.25 12.25Z"></path></g><!----><g data-v-423bf9ae="" id="6458ce87-fb36-4a79-8481-79c29e6f3ff9" transform="matrix(1.1249995231628418,0,0,1.1249995231628418,-15.839019775390625,-10.249995231628418)" stroke="none" fill="#ECEBE7"><path d="M50.179 22.674c3.495 0 6.347-2.82 6.366-6.304a6.28 6.28 0 0 0-1.843-4.492A6.341 6.341 0 0 0 50.212 10h-.037a6.338 6.338 0 0 0-4.473 1.83 6.282 6.282 0 0 0-1.89 4.473 6.28 6.28 0 0 0 1.843 4.492 6.338 6.338 0 0 0 4.49 1.878h.034zm-4.367-6.36a4.295 4.295 0 0 1 1.293-3.058A4.351 4.351 0 0 1 50.175 12h.026a4.353 4.353 0 0 1 3.083 1.288 4.292 4.292 0 0 1 1.26 3.071c-.011 2.391-2.001 4.355-4.389 4.314a4.352 4.352 0 0 1-3.082-1.288 4.293 4.293 0 0 1-1.261-3.073zM29.301 29.288c.17 0 .342-.043.5-.134l12.681-7.322a1 1 0 0 0-1-1.732L28.8 27.422a1 1 0 0 0 .501 1.866zM15.465 29.816c-1.771 3.032-.757 6.932 2.259 8.695a6.279 6.279 0 0 0 4.812.65 6.34 6.34 0 0 0 3.87-2.95c1.772-3.03.759-6.93-2.257-8.693-3.019-1.765-6.913-.733-8.684 2.298zm5.505-1.16c.739 0 1.488.19 2.17.588 2.064 1.207 2.755 3.88 1.54 5.958a4.35 4.35 0 0 1-2.657 2.026c-1.12.298-2.29.14-3.29-.444-2.065-1.207-2.756-3.88-1.541-5.958a4.374 4.374 0 0 1 3.778-2.17zM19.847 42.427V57.07a1 1 0 1 0 2 0V42.427a1 1 0 1 0-2 0zM15.253 69.815a6.34 6.34 0 0 0 3.84 2.992 6.288 6.288 0 0 0 4.819-.599 6.284 6.284 0 0 0 2.969-3.843 6.34 6.34 0 0 0-.619-4.827 6.34 6.34 0 0 0-3.84-2.99 6.27 6.27 0 0 0-4.818.598 6.284 6.284 0 0 0-2.97 3.843 6.338 6.338 0 0 0 .62 4.826zm1.312-4.303a4.296 4.296 0 0 1 2.03-2.628 4.292 4.292 0 0 1 3.294-.41 4.357 4.357 0 0 1 2.636 2.054 4.354 4.354 0 0 1 .425 3.315 4.291 4.291 0 0 1-2.03 2.627 4.29 4.29 0 0 1-3.294.409 4.356 4.356 0 0 1-2.635-2.054 4.352 4.352 0 0 1-.426-3.313zM27.999 70.96a1 1 0 0 0 .366 1.367l12.682 7.321a1.001 1.001 0 0 0 1-1.732l-12.682-7.321a1 1 0 0 0-1.366.366zM49.821 77.326c-3.495 0-6.347 2.82-6.366 6.304a6.28 6.28 0 0 0 1.843 4.492A6.341 6.341 0 0 0 49.788 90h.037a6.338 6.338 0 0 0 4.473-1.83 6.282 6.282 0 0 0 1.89-4.473 6.28 6.28 0 0 0-1.843-4.492 6.338 6.338 0 0 0-4.49-1.878h-.034zm4.367 6.36a4.295 4.295 0 0 1-1.293 3.058A4.351 4.351 0 0 1 49.825 88h-.026a4.353 4.353 0 0 1-3.083-1.288 4.292 4.292 0 0 1-1.26-3.071c.012-2.383 1.968-4.314 4.365-4.314h.024a4.352 4.352 0 0 1 3.082 1.288 4.293 4.293 0 0 1 1.261 3.073zM58.019 80.034c.169 0 .341-.043.499-.134L71.2 72.578a1 1 0 0 0-1-1.732l-12.682 7.322a1 1 0 0 0 .5 1.866zM73.593 63.788c-1.77 3.031-.758 6.932 2.258 8.694a6.274 6.274 0 0 0 3.176.862 6.377 6.377 0 0 0 5.508-3.16c1.771-3.032.757-6.932-2.259-8.695a6.276 6.276 0 0 0-4.812-.65 6.34 6.34 0 0 0-3.87 2.95zm7.674-.572c2.065 1.207 2.756 3.88 1.541 5.958-1.215 2.079-3.882 2.789-5.947 1.582s-2.756-3.88-1.541-5.958a4.35 4.35 0 0 1 2.657-2.026 4.298 4.298 0 0 1 3.29.444zM80.153 57.573V42.93a1 1 0 1 0-2 0v14.643a1 1 0 1 0 2 0zM84.747 30.185a6.34 6.34 0 0 0-3.84-2.992 6.297 6.297 0 0 0-4.82.599 6.284 6.284 0 0 0-2.968 3.843 6.34 6.34 0 0 0 .619 4.827 6.34 6.34 0 0 0 3.84 2.99 6.279 6.279 0 0 0 4.82-.599 6.284 6.284 0 0 0 2.967-3.842 6.338 6.338 0 0 0-.618-4.826zm-1.312 4.303a4.296 4.296 0 0 1-2.03 2.628 4.294 4.294 0 0 1-3.294.41 4.357 4.357 0 0 1-2.636-2.054 4.354 4.354 0 0 1-.425-3.315 4.291 4.291 0 0 1 2.03-2.627 4.279 4.279 0 0 1 3.294-.409 4.356 4.356 0 0 1 2.635 2.054 4.352 4.352 0 0 1 .426 3.313zM72.001 29.04a1 1 0 0 0-.366-1.367l-12.682-7.321a1 1 0 1 0-1 1.732l12.682 7.321a1.001 1.001 0 0 0 1.366-.366zM66.544 50.065c0-9.123-7.421-16.544-16.544-16.544s-16.544 7.421-16.544 16.544S40.877 66.61 50 66.61s16.544-7.422 16.544-16.545zm-31.088 0c0-8.02 6.524-14.544 14.544-14.544s14.544 6.524 14.544 14.544c0 3.82-1.49 7.29-3.907 9.887a10.789 10.789 0 0 0-5.498-7.623 7.348 7.348 0 0 0 2.449-5.493c0-4.077-3.317-7.394-7.393-7.394S42.8 42.76 42.8 46.836c0 2.055.851 3.982 2.302 5.36-3.045 1.531-5.153 4.398-5.743 7.753-2.414-2.597-3.904-6.066-3.904-9.884zm5.73 11.543a8.766 8.766 0 0 1 6.247-8.197 1 1 0 0 0 .188-1.835 5.396 5.396 0 0 1-2.82-4.74 5.4 5.4 0 0 1 5.394-5.394 5.4 5.4 0 0 1 5.393 5.394 5.37 5.37 0 0 1-2.953 4.804 1 1 0 0 0 .139 1.84 8.805 8.805 0 0 1 6.04 8.128C56.367 63.483 53.317 64.61 50 64.61s-6.366-1.127-8.815-3.002z"></path></g><!----></svg>