<?xml version="1.0" encoding="UTF-8" standalone="no"?><!DOCTYPE svg PUBLIC "-//W3C//DTD SVG 1.1//EN" "http://www.w3.org/Graphics/SVG/1.1/DTD/svg11.dtd"><svg width="100%" height="100%" viewBox="0 0 100 100" version="1.1" xmlns="http://www.w3.org/2000/svg" xmlns:xlink="http://www.w3.org/1999/xlink" xml:space="preserve" xmlns:serif="http://www.serif.com/" style="fill-rule:evenodd;clip-rule:evenodd;stroke-linejoin:round;stroke-miterlimit:1.41421;"><g><path d="M77.52,89.475l-45.457,0l-0.008,0c-1.207,0 -2.325,-0.06 -3.39,-0.195c-0.083,-0.008 -0.165,-0.023 -0.24,-0.038c-0.27,-0.037 -0.532,-0.075 -0.795,-0.12c-0.15,-0.022 -0.285,-0.06 -0.435,-0.09c-0.188,-0.037 -0.382,-0.075 -0.57,-0.12c-0.203,-0.045 -0.398,-0.105 -0.6,-0.157c-0.127,-0.038 -0.255,-0.06 -0.375,-0.098c-0.233,-0.067 -0.45,-0.15 -0.675,-0.225c-0.09,-0.03 -0.18,-0.06 -0.27,-0.09c-0.255,-0.09 -0.51,-0.195 -0.758,-0.307c-0.052,-0.023 -0.112,-0.045 -0.164,-0.068c-0.271,-0.12 -0.541,-0.247 -0.811,-0.382c-0.03,-0.015 -0.06,-0.03 -0.097,-0.045c-0.293,-0.15 -0.585,-0.308 -0.878,-0.48c-0.007,0 -0.007,-0.008 -0.015,-0.008c-1.784,-1.042 -3.532,-2.467 -5.415,-4.342c-1.034,-1.035 -1.942,-2.153 -2.737,-3.353c-0.053,-0.082 -0.113,-0.157 -0.165,-0.24c-0.127,-0.202 -0.255,-0.412 -0.383,-0.622c-0.075,-0.12 -0.142,-0.24 -0.217,-0.36c-0.113,-0.195 -0.217,-0.398 -0.323,-0.593c-0.074,-0.142 -0.149,-0.277 -0.217,-0.42c-0.097,-0.195 -0.187,-0.39 -0.277,-0.585c-0.076,-0.157 -0.143,-0.307 -0.21,-0.465c-0.083,-0.195 -0.165,-0.39 -0.248,-0.585c-0.068,-0.165 -0.135,-0.337 -0.203,-0.502c-0.075,-0.195 -0.142,-0.39 -0.21,-0.585c-0.06,-0.18 -0.12,-0.36 -0.18,-0.54c-0.06,-0.195 -0.12,-0.39 -0.18,-0.593c-0.052,-0.187 -0.112,-0.382 -0.165,-0.577c-0.052,-0.195 -0.105,-0.39 -0.15,-0.593c-0.052,-0.202 -0.097,-0.405 -0.142,-0.615c-0.045,-0.195 -0.09,-0.397 -0.128,-0.592c-0.045,-0.218 -0.082,-0.435 -0.12,-0.66c-0.037,-0.195 -0.067,-0.39 -0.097,-0.593c-0.038,-0.232 -0.068,-0.472 -0.098,-0.712c-0.022,-0.195 -0.052,-0.383 -0.075,-0.578c-0.03,-0.255 -0.052,-0.517 -0.074,-0.78c-0.016,-0.18 -0.038,-0.367 -0.046,-0.547c-0.022,-0.3 -0.037,-0.6 -0.052,-0.9c-0.007,-0.158 -0.015,-0.308 -0.022,-0.465c-0.016,-0.465 -0.023,-0.93 -0.023,-1.41l0,-64.245l-9.825,0l0,64.237c0,10.471 3.24,19.02 9.623,25.403c6.307,6.307 15.105,9.645 25.425,9.645c0,0 40.365,0.007 40.665,0c8.595,-0.315 16.282,-5.138 20.527,-12.645c0.007,-0.008 0.007,-0.015 0.015,-0.023c0.142,-0.247 0.278,-0.502 0.412,-0.757c1.523,-2.925 2.438,-6.15 2.701,-9.435c-4.403,7.972 -12.721,13.05 -21.848,13.05Z" style="fill:#0a7f7a;fill-rule:nonzero;"/><path d="M29.19,78.48c0.015,4.02 3.27,7.305 7.29,7.312c13.44,0.015 40.845,0 40.897,0c8.206,0 15.323,-4.65 18.87,-11.46c1.53,-2.94 2.4,-6.27 2.4,-9.81c0,-11.745 -9.525,-21.27 -21.27,-21.27c-0.42,0 -0.832,0.015 -1.245,0.038l-4.627,0l0,-4.628c0.022,-0.412 0.037,-0.825 0.037,-1.245c0,-11.745 -9.525,-21.27 -21.27,-21.27c-11.745,0 -21.27,9.525 -21.27,21.27c0.008,0.053 0.128,27.585 0.188,41.063Z" style="fill:#ee3824;fill-rule:nonzero;"/><g><path d="M41.033,14.265l-0.001,-14.25l-11.917,0l0,24.412c2.76,-4.56 6.93,-8.152 11.917,-10.162Z" style="fill:#da6a27;fill-rule:nonzero;"/><path d="M56.887,13.365l0,-13.35l-11.917,0l0,13.035c1.71,-0.375 3.487,-0.578 5.31,-0.578c2.287,0 4.5,0.315 6.607,0.893Z" style="fill:#cf4627;fill-rule:nonzero;"/><path d="M25.823,61.335c-0.053,-14.565 0.007,-61.32 0.007,-61.32l-11.992,0l0,64.635c0,5.932 1.334,11.52 5.662,15.847c3.097,3.098 5.565,4.598 8.722,5.198c-1.484,-1.875 -2.384,-4.238 -2.399,-6.803c0,0 0,-8.377 0,-17.557Z" style="fill:#eaa621;fill-rule:nonzero;"/></g></g></svg>