<svg version="1.1" xmlns="http://www.w3.org/2000/svg" xmlns:xlink="http://www.w3.org/1999/xlink" viewBox="0 0 172 172"><defs><linearGradient x1="57.78125" y1="42.828" x2="57.78125" y2="75.38706" gradientUnits="userSpaceOnUse" id="color-1"><stop offset="0" stop-color="#fddca9"></stop><stop offset="1" stop-color="#5a5a5f"></stop></linearGradient><linearGradient x1="43" y1="21.328" x2="43" y2="144.90731" gradientUnits="userSpaceOnUse" id="color-2"><stop offset="0" stop-color="#fbb03b"></stop><stop offset="1" stop-color="#232325"></stop></linearGradient><linearGradient x1="40.3125" y1="21.328" x2="40.3125" y2="144.90731" gradientUnits="userSpaceOnUse" id="color-3"><stop offset="0" stop-color="#fbb03b"></stop><stop offset="1" stop-color="#232325"></stop></linearGradient><linearGradient x1="86" y1="21.328" x2="86" y2="144.90731" gradientUnits="userSpaceOnUse" id="color-4"><stop offset="0" stop-color="#fbb03b"></stop><stop offset="1" stop-color="#232325"></stop></linearGradient><linearGradient x1="118.25" y1="21.328" x2="118.25" y2="144.90731" gradientUnits="userSpaceOnUse" id="color-5"><stop offset="0" stop-color="#fbb03b"></stop><stop offset="1" stop-color="#232325"></stop></linearGradient><linearGradient x1="129" y1="21.328" x2="129" y2="144.90731" gradientUnits="userSpaceOnUse" id="color-6"><stop offset="0" stop-color="#fbb03b"></stop><stop offset="1" stop-color="#232325"></stop></linearGradient><linearGradient x1="139.75" y1="21.328" x2="139.75" y2="144.90731" gradientUnits="userSpaceOnUse" id="color-7"><stop offset="0" stop-color="#fbb03b"></stop><stop offset="1" stop-color="#232325"></stop></linearGradient><linearGradient x1="107.5" y1="21.328" x2="107.5" y2="144.90731" gradientUnits="userSpaceOnUse" id="color-8"><stop offset="0" stop-color="#fbb03b"></stop><stop offset="1" stop-color="#232325"></stop></linearGradient><linearGradient x1="103.46875" y1="21.328" x2="103.46875" y2="144.90731" gradientUnits="userSpaceOnUse" id="color-9"><stop offset="0" stop-color="#fbb03b"></stop><stop offset="1" stop-color="#232325"></stop></linearGradient><linearGradient x1="103.46875" y1="21.328" x2="103.46875" y2="144.90731" gradientUnits="userSpaceOnUse" id="color-10"><stop offset="0" stop-color="#fbb03b"></stop><stop offset="1" stop-color="#232325"></stop></linearGradient><linearGradient x1="103.46875" y1="21.328" x2="103.46875" y2="144.90731" gradientUnits="userSpaceOnUse" id="color-11"><stop offset="0" stop-color="#fbb03b"></stop><stop offset="1" stop-color="#232325"></stop></linearGradient><linearGradient x1="94.0625" y1="21.328" x2="94.0625" y2="144.90731" gradientUnits="userSpaceOnUse" id="color-12"><stop offset="0" stop-color="#fbb03b"></stop><stop offset="1" stop-color="#232325"></stop></linearGradient></defs><g fill="none" fill-rule="nonzero" stroke="none" stroke-width="1" stroke-linecap="butt" stroke-linejoin="miter" stroke-miterlimit="10" stroke-dasharray="" stroke-dashoffset="0" font-family="none" font-weight="none" font-size="none" text-anchor="none" style="mix-blend-mode: normal"><path d="M0,172v-172h172v172z" fill="none"></path><g id="Layer_1"><path d="M66.65,75.25h-18.00625c-1.6125,0 -3.225,-1.34375 -3.225,-3.225v-20.69375c0,-1.6125 1.34375,-3.225 3.225,-3.225h18.00625c1.6125,0 3.225,1.34375 3.225,3.225v20.69375c0,1.88125 -1.34375,3.225 -3.225,3.225z" fill="url(#color-1)"></path><rect x="11" y="51" transform="scale(2.6875,2.6875)" width="10" height="2" fill="url(#color-2)"></rect><rect x="11" y="47" transform="scale(2.6875,2.6875)" width="8" height="2" fill="url(#color-3)"></rect><path d="M149.9625,70.4125l-7.525,-8.6v-21.5c0,-4.56875 -3.49375,-8.0625 -8.0625,-8.0625h-26.60625l-12.9,-10.48125c-5.10625,-4.03125 -12.9,-4.03125 -18.00625,0l-12.63125,10.48125h-26.60625c-4.56875,0 -8.0625,3.49375 -8.0625,8.0625v23.91875l-6.45,5.9125c-2.6875,2.41875 -4.3,6.18125 -4.3,9.94375v59.6625c0,7.525 5.9125,13.4375 13.4375,13.4375h107.5c7.525,0 13.4375,-5.9125 13.4375,-13.4375v-60.46875c0,-3.225 -1.075,-6.45 -3.225,-8.86875zM142.4375,70.14375l3.49375,4.03125v0l-3.49375,2.15zM80.35625,26.06875c3.225,-2.41875 8.0625,-2.41875 11.2875,0l7.525,6.18125h-26.60625zM34.9375,40.3125c0,-1.6125 1.34375,-2.6875 2.6875,-2.6875h96.75c1.6125,0 2.6875,1.34375 2.6875,2.6875v39.2375l-46.7625,30.1c-2.6875,1.6125 -6.18125,1.6125 -8.6,0l-46.7625,-29.83125zM26.875,73.90625l2.6875,-2.41875v4.8375l-2.95625,-1.88125c0,-0.26875 0,-0.26875 0.26875,-0.5375zM147.8125,139.75c0,4.56875 -3.49375,8.0625 -8.0625,8.0625h-107.5c-4.56875,0 -8.0625,-3.49375 -8.0625,-8.0625v-59.6625c0,-0.26875 0,-0.5375 0,-0.5375l54.2875,34.66875c2.15,1.34375 4.8375,2.15 7.25625,2.15c2.41875,0 5.10625,-0.80625 7.25625,-2.15l54.825,-34.9375v0z" fill="url(#color-4)"></path><rect x="43" y="49" transform="scale(2.6875,2.6875)" width="2" height="4" fill="url(#color-5)"></rect><rect x="47" y="49" transform="scale(2.6875,2.6875)" width="2" height="4" fill="url(#color-6)"></rect><rect x="51" y="49" transform="scale(2.6875,2.6875)" width="2" height="4" fill="url(#color-7)"></rect><rect x="39" y="49" transform="scale(2.6875,2.6875)" width="2" height="4" fill="url(#color-8)"></rect><rect x="30" y="18" transform="scale(2.6875,2.6875)" width="17" height="2" fill="url(#color-9)"></rect><rect x="30" y="22" transform="scale(2.6875,2.6875)" width="17" height="2" fill="url(#color-10)"></rect><rect x="30" y="26" transform="scale(2.6875,2.6875)" width="17" height="2" fill="url(#color-11)"></rect><rect x="30" y="30" transform="scale(2.6875,2.6875)" width="10" height="2" fill="url(#color-12)"></rect></g></g></svg>