<?xml version="1.0" encoding="utf-8"?>
<!-- Generator: Adobe Illustrator 17.1.0, SVG Export Plug-In . SVG Version: 6.00 Build 0)  -->
<!DOCTYPE svg PUBLIC "-//W3C//DTD SVG 1.1//EN" "http://www.w3.org/Graphics/SVG/1.1/DTD/svg11.dtd">
<svg version="1.1" id="Layer_2" xmlns="http://www.w3.org/2000/svg" xmlns:xlink="http://www.w3.org/1999/xlink" x="0px" y="0px"
	 viewBox="0 0 438.7 150.7" enable-background="new 0 0 438.7 150.7" xml:space="preserve">
<path fill="#6597D0" d="M413.3,112.4h18.9c3.1,0,5.7-2.5,5.7-5.7V7.2c0-3.1-2.5-5.7-5.7-5.7H6.8C3.6,1.5,1.1,4,1.1,7.2v99.5
	c0,3.1,2.5,5.7,5.7,5.7h361.5c0,0,12.7,0,15.1,3.4s23.1,31.6,23.1,31.6s0-28.7,0-32S413.3,112.4,413.3,112.4z"/>
<g>
	<path fill="#FFFFFF" d="M33.2,36.7h30.2v6.5H40.4v11.1h20.5v6.5H40.4v16.5h-7.1V36.7z"/>
	<path fill="#FFFFFF" d="M67.9,62.1V62c0-8.8,6.2-16,15-16c9.7,0,14.7,7.7,14.7,16.5c0,0.6-0.1,1.3-0.1,2H74.9
		c0.8,5,4.3,7.8,8.8,7.8c3.4,0,5.9-1.3,8.3-3.7l4.1,3.7c-2.9,3.5-6.9,5.7-12.5,5.7C74.7,78,67.9,71.6,67.9,62.1z M90.6,59.9
		c-0.5-4.5-3.1-8.1-7.8-8.1c-4.3,0-7.3,3.3-7.9,8.1H90.6z"/>
	<path fill="#FFFFFF" d="M102.9,62.1V62c0-8.8,6.2-16,15-16c9.7,0,14.7,7.7,14.7,16.5c0,0.6-0.1,1.3-0.1,2H110
		c0.8,5,4.3,7.8,8.8,7.8c3.4,0,5.9-1.3,8.3-3.7l4.1,3.7c-2.9,3.5-6.9,5.7-12.5,5.7C109.8,78,102.9,71.6,102.9,62.1z M125.6,59.9
		c-0.5-4.5-3.1-8.1-7.8-8.1c-4.3,0-7.3,3.3-7.9,8.1H125.6z"/>
	<path fill="#FFFFFF" d="M138.1,62.1V62c0-10.1,6.9-15.9,14.2-15.9c5,0,8.2,2.5,10.4,5.4V35h7v42.3h-7v-5.1
		c-2.3,3.2-5.5,5.7-10.4,5.7C145.1,78,138.1,72.2,138.1,62.1z M162.8,62.1V62c0-5.9-4.2-9.8-8.9-9.8c-4.8,0-8.8,3.7-8.8,9.8v0.1
		c0,5.9,4.1,9.8,8.8,9.8C158.7,71.9,162.8,67.9,162.8,62.1z"/>
	<path fill="#FFFFFF" d="M185.6,72.6v4.8h-7V35h7v16.8c2.3-3.2,5.5-5.7,10.4-5.7c7.2,0,14.2,5.7,14.2,15.9v0.1
		c0,10.1-7,15.9-14.2,15.9C190.9,78,187.7,75.4,185.6,72.6z M203.1,62.1V62c0-5.9-4-9.8-8.8-9.8s-8.9,3.9-8.9,9.8v0.1
		c0,5.9,4.2,9.8,8.9,9.8C199.2,71.9,203.1,68.1,203.1,62.1z"/>
	<path fill="#FFFFFF" d="M215.5,68.5v-0.1c0-6.6,5.2-9.9,12.6-9.9c3.4,0,5.9,0.5,8.2,1.3v-0.8c0-4.3-2.7-6.7-7.6-6.7
		c-3.4,0-6,0.8-8.8,1.9l-1.9-5.5c3.4-1.5,6.7-2.5,11.5-2.5c4.6,0,8,1.2,10.1,3.4c2.3,2.2,3.3,5.5,3.3,9.5v18.2h-6.8v-3.8
		c-2.1,2.5-5.3,4.5-10,4.5C220.6,78,215.5,74.7,215.5,68.5z M236.4,66.3v-2.1c-1.8-0.7-4.2-1.2-7-1.2c-4.5,0-7.2,1.9-7.2,5.1v0.1
		c0,3,2.6,4.6,6,4.6C232.9,72.9,236.4,70.2,236.4,66.3z"/>
	<path fill="#FFFFFF" d="M249.8,62.2v-0.1c0-8.7,6.7-16,15.9-16c5.7,0,9.3,2.1,12.2,5.3l-4.4,4.7c-2.1-2.3-4.4-3.8-7.9-3.8
		c-5.1,0-8.9,4.4-8.9,9.7v0.1c0,5.5,3.8,9.8,9.2,9.8c3.3,0,5.7-1.5,7.9-3.8l4.2,4.2c-3,3.4-6.6,5.7-12.5,5.7
		C256.6,78,249.8,70.9,249.8,62.2z"/>
	<path fill="#FFFFFF" d="M284.6,35h7v25.3l12.7-13.6h8.5l-12.2,12.5l12.6,18.2h-8.2l-9-13.3l-4.4,4.5v8.8h-7L284.6,35L284.6,35z"/>
</g>
<g id="send_1_">
	<path fill="#FFFFFF" d="M401.3,21.1l-63.5,40.3c-2.9,1.8-2.2,3.7,1.2,3.7H359v22.3c0,3.4,2.5,4,4.7,1.4l15.7-19.2L401,82.7
		c2.9,1.8,5,0.4,5-3V24C406,20.6,404.1,19.3,401.3,21.1z M366,76.6V64.2L402.7,24L366,76.6z"/>
</g>
</svg>
