<svg width="80" height="80" viewBox="0 0 80 80" fill="none" xmlns="http://www.w3.org/2000/svg">
<path d="M62.5394 37.2609L21.5221 54.729C20.9833 54.9584 20.3585 54.7081 20.1295 54.1682L12.685 36.6882C12.4321 36.0938 12.7088 35.4075 13.302 35.1543L54.2206 17.7288C54.7593 17.4994 55.3841 17.7497 55.6131 18.2896L63.1003 35.8683C63.3296 36.407 63.0784 37.0303 62.5394 37.2609Z" fill="#52BF8D"/>
<path d="M17.1104 33.5338L25.4292 53.0659L58.6329 38.9245L50.314 19.3924L17.1104 33.5338ZM35.9002 45.1457C32.1247 46.7538 27.7601 44.9964 26.152 41.2209C24.5439 37.4453 26.3013 33.0808 30.0768 31.4726C33.8524 29.8645 38.2169 31.6219 39.8251 35.3975C41.4332 39.173 39.6758 43.5376 35.9002 45.1457ZM53.9664 37.4501C53.1576 37.7946 52.2227 37.4178 51.8782 36.609C51.5337 35.8001 51.9105 34.8652 52.7194 34.5207C53.5282 34.1763 54.4631 34.553 54.8076 35.3619C55.1521 36.1707 54.7765 37.1059 53.9664 37.4501ZM50.0608 39.1138C49.252 39.4583 48.317 39.0815 47.9726 38.2727C47.6281 37.4638 48.0049 36.5289 48.8137 36.1844C49.6225 35.84 50.5575 36.2167 50.902 37.0256C51.2464 37.8344 50.8696 38.7693 50.0608 39.1138Z" fill="#107C42"/>
<path d="M63.998 53.214L15.8827 58.0055C15.2498 58.0685 14.6866 57.6064 14.6234 56.9747L12.5732 36.3907C12.5085 35.7382 12.9844 35.1553 13.6381 35.091L61.7166 30.3033C62.3495 30.2404 62.9127 30.7025 62.9759 31.3342L65.0288 51.9547C65.093 52.5879 64.6309 53.151 63.998 53.214Z" fill="#59D19A"/>
<path d="M18.1846 34.6375L20.4657 57.5493L59.4156 53.6706L57.1346 30.7587L18.1846 34.6375ZM33.8712 52.7437C29.4422 53.1849 25.4945 49.9525 25.0533 45.5235C24.6122 41.0945 27.8445 37.1467 32.2736 36.7056C36.7026 36.2645 40.6503 39.4968 41.0915 43.9258C41.5326 48.3549 38.2991 52.3023 33.8712 52.7437ZM55.0643 50.6337C54.1151 50.7276 53.2695 50.0355 53.1744 49.086C53.0805 48.1368 53.7726 47.2912 54.7221 47.1961C55.6716 47.1011 56.5169 47.7944 56.612 48.7439C56.7059 49.6931 56.0138 50.5387 55.0643 50.6337ZM50.4816 51.0901C49.5324 51.184 48.6868 50.4919 48.5917 49.5424C48.4979 48.5932 49.19 47.7476 50.1395 47.6525C51.0889 47.5575 51.9343 48.2508 52.0293 49.2003C52.1232 50.1495 51.4311 50.9951 50.4816 51.0901Z" fill="#21A366"/>
<path opacity="0.05" d="M63.9904 45.9521L15.5463 34.1972C13.5069 35.0875 12.7549 35.3509 12.5867 36.0072L11.4042 40.8803L64.6488 53.8L65.8233 48.9596C66.1478 47.6224 65.3276 46.2766 63.9904 45.9521Z" fill="black"/>
<path opacity="0.07" d="M64.449 46.7039L14.8153 34.6604C13.4609 35.0249 12.7477 35.3606 12.5829 36.024L11.5514 40.2751L64.796 53.1949L65.8237 48.9595C66.0668 47.9576 65.4509 46.9471 64.449 46.7039Z" fill="black"/>
<path d="M59.0344 71.658L8.21004 59.3255C7.54206 59.1634 7.13148 58.4897 7.29357 57.8217L12.5789 36.0398C12.741 35.3719 13.4147 34.9613 14.0827 35.1234L64.9071 47.4559C65.575 47.618 65.9856 48.2916 65.8235 48.9596L60.5382 70.7415C60.3761 71.4095 59.7024 71.8201 59.0344 71.658Z" fill="#61E3A7"/>
<path d="M18.9229 36.2979L13.0502 60.5L54.1938 70.4835L60.0664 46.2814L18.9229 36.2979ZM28.4524 60.3933C23.7741 59.2581 20.9019 54.5454 22.0371 49.8671C23.1722 45.1889 27.8849 42.3167 32.5632 43.4518C37.2415 44.587 40.1137 49.2997 38.9785 53.978C37.8433 58.6562 33.1306 61.5285 28.4524 60.3933ZM50.8393 65.8255C49.8373 65.5823 49.2215 64.5718 49.4646 63.5699C49.7077 62.5679 50.7182 61.952 51.7202 62.1952C52.7222 62.4383 53.338 63.4488 53.0949 64.4508C52.8518 65.4527 51.8413 66.0686 50.8393 65.8255ZM45.9989 64.6509C44.9969 64.4078 44.3811 63.3973 44.6242 62.3953C44.8673 61.3934 45.8778 60.7775 46.8798 61.0206C47.8817 61.2638 48.4976 62.2743 48.2545 63.2762C48.0114 64.2782 47.0009 64.8941 45.9989 64.6509Z" fill="#33C481"/>
<path d="M28 8H4C1.79 8 0 9.79 0 12V76C0 78.21 1.79 80 4 80H28C30.21 80 32 78.21 32 76V12C32 9.79 30.21 8 28 8Z" fill="url(#paint0_linear)"/>
<path d="M16 72C19.3137 72 22 69.3137 22 66C22 62.6863 19.3137 60 16 60C12.6863 60 10 62.6863 10 66C10 69.3137 12.6863 72 16 72Z" fill="url(#paint1_radial)"/>
<path d="M16 70C18.2091 70 20 68.2091 20 66C20 63.7909 18.2091 62 16 62C13.7909 62 12 63.7909 12 66C12 68.2091 13.7909 70 16 70Z" fill="#FAD5D5"/>
<path d="M27 22H5C4.448 22 4 21.552 4 21V15C4 14.448 4.448 14 5 14H27C27.552 14 28 14.448 28 15V21C28 21.552 27.552 22 27 22Z" fill="#991E21"/>
<path d="M24 20C25.1046 20 26 19.1046 26 18C26 16.8954 25.1046 16 24 16C22.8954 16 22 16.8954 22 18C22 19.1046 22.8954 20 24 20Z" fill="#FAD5D5"/>
<path d="M27 34H5C4.448 34 4 33.552 4 33V27C4 26.448 4.448 26 5 26H27C27.552 26 28 26.448 28 27V33C28 33.552 27.552 34 27 34Z" fill="#991E21"/>
<path d="M24 32C25.1046 32 26 31.1046 26 30C26 28.8954 25.1046 28 24 28C22.8954 28 22 28.8954 22 30C22 31.1046 22.8954 32 24 32Z" fill="#FAD5D5"/>
<defs>
<linearGradient id="paint0_linear" x1="7.798" y1="9.888" x2="24.974" y2="81.324" gradientUnits="userSpaceOnUse">
<stop stop-color="#EE5356"/>
<stop offset="1" stop-color="#DE272D"/>
</linearGradient>
<radialGradient id="paint1_radial" cx="0" cy="0" r="1" gradientUnits="userSpaceOnUse" gradientTransform="translate(16 66) scale(6)">
<stop offset="0.582" stop-opacity="0.2"/>
<stop offset="1" stop-opacity="0"/>
</radialGradient>
</defs>
</svg>
