<svg width="522" height="558" viewBox="0 0 522 558" fill="none" xmlns="http://www.w3.org/2000/svg">
<circle opacity="0.2" cx="261" cy="297" r="261" fill="#4386F5"/>
<path d="M172.466 359.746L261.224 413.158V373.099L172.466 320.079V359.746Z" fill="#A4B3EA"/>
<path d="M349.981 359.746L261.223 413.158V373.099L349.981 320.079V359.746Z" fill="#516087"/>
<path d="M172.466 320.079L261.224 373.099L349.982 320.079L261.224 266.667L172.466 320.079Z" fill="#C3CCED"/>
<path d="M61.321 426.511L150.079 479.923V439.864L61.321 386.452V426.511Z" fill="#A4B3EA"/>
<path d="M239.231 426.511L150.08 479.923V439.864L239.231 386.452V426.511Z" fill="#4C5B81"/>
<path d="M61.321 386.452L150.079 439.864L239.23 386.452L150.079 333.432L61.321 386.452Z" fill="#303F68"/>
<path d="M283.61 426.511L372.368 479.923V439.864L283.61 386.452V426.511Z" fill="url(#paint0_linear)"/>
<path d="M461.125 426.511L372.367 479.923V439.864L461.125 386.452V426.511Z" fill="#516087"/>
<path d="M283.61 386.452L372.368 439.864L461.126 386.452L372.368 333.432L283.61 386.452Z" fill="#303F68"/>
<path d="M172.466 493.276L261.224 546.688V506.629L172.466 453.217V493.276Z" fill="#A4B3EA"/>
<path d="M349.981 493.276L261.223 546.688V506.629L349.981 453.217V493.276Z" fill="#516087"/>
<path d="M172.466 453.217L261.224 506.629L349.982 453.217L261.224 399.805L172.466 453.217Z" fill="#303F68"/>
<path d="M172.466 306.726L261.224 359.746V320.079L172.466 266.667V306.726Z" fill="#A4B3EA"/>
<path d="M349.981 306.726L261.223 359.746V320.079L349.981 266.667V306.726Z" fill="#516087"/>
<path d="M172.466 266.667L261.224 320.079L349.982 266.667L261.224 213.255L172.466 266.667Z" fill="#C3CCED"/>
<path d="M61.321 373.099L150.079 426.511V386.452L61.321 333.432V373.099Z" fill="#A4B3EA"/>
<path d="M239.231 373.099L150.08 426.511V386.452L239.231 333.432V373.099Z" fill="#4C5B81"/>
<path d="M61.321 333.432L150.079 386.452L239.23 333.432L150.079 280.02L61.321 333.432Z" fill="#303F68"/>
<path d="M283.61 373.099L372.368 426.511V386.452L283.61 333.432V373.099Z" fill="url(#paint1_linear)"/>
<path d="M461.125 373.099L372.367 426.511V386.452L461.125 333.432V373.099Z" fill="#516087"/>
<path d="M283.61 333.432L372.368 386.452L461.126 333.432L372.368 280.02L283.61 333.432Z" fill="#303F68"/>
<path d="M172.466 439.864L261.224 493.276V453.217L172.466 399.805V439.864Z" fill="#A4B3EA"/>
<path d="M349.981 439.864L261.223 493.276V453.217L349.981 399.805V439.864Z" fill="#516087"/>
<path d="M172.466 399.805L261.224 453.217L349.982 399.805L261.224 346.393L172.466 399.805Z" fill="#303F68"/>
<path d="M172.466 253.314L261.224 306.726V266.667L172.466 213.255V253.314Z" fill="#A4B3EA"/>
<path d="M349.981 253.314L261.223 306.726V266.667L349.981 213.255V253.314Z" fill="#516087"/>
<path d="M172.466 213.255L261.224 266.667L349.982 213.255L261.224 159.843L172.466 213.255Z" fill="#C3CCED"/>
<path d="M61.321 320.079L150.079 373.099V333.432L61.321 280.02V320.079Z" fill="#A4B3EA"/>
<path d="M239.231 320.079L150.08 373.099V333.432L239.231 280.02V320.079Z" fill="#4C5B81"/>
<path d="M61.321 280.02L150.079 333.432L239.23 280.02L150.079 226.608L61.321 280.02Z" fill="#303F68"/>
<path d="M283.61 320.079L372.368 373.099V333.432L283.61 280.02V320.079Z" fill="url(#paint2_linear)"/>
<path d="M461.125 320.079L372.367 373.099V333.432L461.125 280.02V320.079Z" fill="#516087"/>
<path d="M283.61 280.02L372.368 333.432L461.126 280.02L372.368 226.608L283.61 280.02Z" fill="#303F68"/>
<path d="M172.466 386.452L261.224 439.864V399.805L172.466 346.393V386.452Z" fill="#A4B3EA"/>
<path d="M349.981 386.452L261.223 439.864V399.805L349.981 346.393V386.452Z" fill="#516087"/>
<path d="M172.466 346.393L261.224 399.805L349.982 346.393L261.224 293.373L172.466 346.393Z" fill="#303F68"/>
<path d="M172.466 199.902L261.224 253.314V213.255L172.466 159.843V199.902Z" fill="#A4B3EA"/>
<path d="M349.981 199.902L261.223 253.314V213.255L349.981 159.843V199.902Z" fill="#516087"/>
<path d="M172.466 159.843L261.224 213.255L349.982 159.843L261.224 106.824L172.466 159.843Z" fill="#C3CCED"/>
<path d="M61.321 266.667L150.079 320.079V280.02L61.321 226.608V266.667Z" fill="#A4B3EA"/>
<path d="M239.231 266.667L150.08 320.079V280.02L239.231 226.608V266.667Z" fill="#4C5B81"/>
<path d="M61.321 226.608L150.079 280.02L239.23 226.608L150.079 173.196L61.321 226.608Z" fill="#303F68"/>
<path d="M283.61 266.667L372.368 320.079V280.02L283.61 226.608V266.667Z" fill="url(#paint3_linear)"/>
<path d="M461.125 266.667L372.367 320.079V280.02L461.125 226.608V266.667Z" fill="#516087"/>
<path d="M283.61 226.608L372.368 280.02L461.126 226.608L372.368 173.196L283.61 226.608Z" fill="#303F68"/>
<path d="M172.466 333.432L261.224 386.452V346.393L172.466 293.373V333.432Z" fill="#A4B3EA"/>
<path d="M349.981 333.432L261.223 386.452V346.393L349.981 293.373V333.432Z" fill="#516087"/>
<path d="M172.466 293.373L261.224 346.393L349.982 293.373L261.224 239.961L172.466 293.373Z" fill="#303F68"/>
<path d="M172.466 146.49L261.224 199.902V159.843L172.466 106.824V146.49Z" fill="#A4B3EA"/>
<path d="M349.981 146.49L261.223 199.902V159.843L349.981 106.824V146.49Z" fill="#516087"/>
<path d="M172.466 106.824L261.224 159.843L349.982 106.824L261.224 53.412L172.466 106.824Z" fill="#303F68"/>
<path d="M61.321 213.255L150.079 266.667V226.608L61.321 173.196V213.255Z" fill="#A4B3EA"/>
<path d="M239.231 213.255L150.08 266.667V226.608L239.231 173.196V213.255Z" fill="#4C5B81"/>
<path d="M61.321 173.196L150.079 226.608L239.23 173.196L150.079 119.784L61.321 173.196Z" fill="#303F68"/>
<path d="M283.61 213.255L372.368 266.667V226.608L283.61 173.196V213.255Z" fill="url(#paint4_linear)"/>
<path d="M461.125 213.255L372.367 266.667V226.608L461.125 173.196V213.255Z" fill="#516087"/>
<path d="M283.61 173.196L372.368 226.608L461.126 173.196L372.368 119.784L283.61 173.196Z" fill="#303F68"/>
<path d="M172.466 280.02L261.224 333.432V293.373L172.466 239.961V280.02Z" fill="#A4B3EA"/>
<path d="M349.981 280.02L261.223 333.432V293.373L349.981 239.961V280.02Z" fill="#516087"/>
<path d="M172.466 239.961L261.224 293.373L349.982 239.961L261.224 186.549L172.466 239.961Z" fill="#303F68"/>
<path d="M172.466 93.471L261.224 146.49V106.824L172.466 53.412V93.471Z" fill="#9DAADD"/>
<path d="M349.981 93.471L261.223 146.49V106.824L349.981 53.412V93.471Z" fill="#4C5B81"/>
<path d="M172.466 53.412L261.224 106.824L349.982 53.412L261.224 3.05176e-05L172.466 53.412Z" fill="#C3CCED"/>
<path d="M61.321 159.843L150.079 213.255V173.196L61.321 119.784V159.843Z" fill="#A4B3EA"/>
<path d="M239.231 159.843L150.08 213.255V173.196L239.231 119.784V159.843Z" fill="#4C5B81"/>
<path d="M61.321 119.784L150.079 173.196L239.23 119.784L150.079 66.765L61.321 119.784Z" fill="#C3CCED"/>
<path d="M283.61 159.843L372.368 213.255V173.196L283.61 119.784V159.843Z" fill="url(#paint5_linear)"/>
<path d="M461.125 159.843L372.367 213.255V173.196L461.125 119.784V159.843Z" fill="#516087"/>
<path d="M283.61 119.784L372.368 173.196L461.126 119.784L372.368 66.765L283.61 119.784Z" fill="#C3CCED"/>
<path d="M172.466 226.608L261.224 280.02V239.961L172.466 186.549V226.608Z" fill="#A4B3EA"/>
<path d="M349.981 226.608L261.223 280.02V239.961L349.981 186.549V226.608Z" fill="#516087"/>
<path d="M172.466 186.549L261.224 239.961L349.982 186.549L261.224 133.137L172.466 186.549Z" fill="#C3CCED"/>
<defs>
<linearGradient id="paint0_linear" x1="327.989" y1="386.452" x2="327.989" y2="479.923" gradientUnits="userSpaceOnUse">
<stop stop-color="#8997C8"/>
<stop offset="1" stop-color="#95A1CC"/>
</linearGradient>
<linearGradient id="paint1_linear" x1="327.989" y1="333.432" x2="327.989" y2="426.511" gradientUnits="userSpaceOnUse">
<stop stop-color="#8997C8"/>
<stop offset="1" stop-color="#95A1CC"/>
</linearGradient>
<linearGradient id="paint2_linear" x1="327.989" y1="280.02" x2="327.989" y2="373.099" gradientUnits="userSpaceOnUse">
<stop stop-color="#8997C8"/>
<stop offset="1" stop-color="#95A1CC"/>
</linearGradient>
<linearGradient id="paint3_linear" x1="327.989" y1="226.608" x2="327.989" y2="320.079" gradientUnits="userSpaceOnUse">
<stop stop-color="#8997C8"/>
<stop offset="1" stop-color="#95A1CC"/>
</linearGradient>
<linearGradient id="paint4_linear" x1="327.989" y1="173.196" x2="327.989" y2="266.667" gradientUnits="userSpaceOnUse">
<stop stop-color="#8997C8"/>
<stop offset="1" stop-color="#95A1CC"/>
</linearGradient>
<linearGradient id="paint5_linear" x1="327.989" y1="119.784" x2="327.989" y2="213.255" gradientUnits="userSpaceOnUse">
<stop stop-color="#8997C8"/>
<stop offset="1" stop-color="#95A1CC"/>
</linearGradient>
</defs>
</svg>
