<svg width="48" height="48" viewBox="0 0 48 48" fill="none" xmlns="http://www.w3.org/2000/svg">
<path d="M24 43C35.0457 43 44 34.0457 44 23C44 11.9543 35.0457 3 24 3C12.9543 3 4 11.9543 4 23C4 34.0457 12.9543 43 24 43Z" fill="#0078D4"/>
<path d="M24 38C32.2843 38 39 31.2843 39 23C39 14.7157 32.2843 8 24 8C15.7157 8 9 14.7157 9 23C9 31.2843 15.7157 38 24 38Z" fill="#199BE2"/>
<path d="M24 33C29.5228 33 34 28.5228 34 23C34 17.4772 29.5228 13 24 13C18.4772 13 14 17.4772 14 23C14 28.5228 18.4772 33 24 33Z" fill="#35C1F1"/>
<path d="M24 30C27.866 30 31 26.866 31 23C31 19.134 27.866 16 24 16C20.134 16 17 19.134 17 23C17 26.866 20.134 30 24 30Z" fill="url(#paint0_radial)"/>
<path opacity="0.07" d="M22 42.899C22.658 42.964 23.325 43 24 43C24.675 43 25.342 42.964 26 42.899V26H22V42.899Z" fill="black"/>
<path opacity="0.05" d="M21 42.751C21.981 42.899 22.978 43 24 43C25.022 43 26.019 42.899 27 42.751V24H21V42.751Z" fill="black"/>
<path d="M24 28C26.7614 28 29 25.7614 29 23C29 20.2386 26.7614 18 24 18C21.2386 18 19 20.2386 19 23C19 25.7614 21.2386 28 24 28Z" fill="#50E6FF"/>
<path d="M24 45C23.448 45 23 44.553 23 44V27C23 26.447 23.448 26 24 26C24.552 26 25 26.447 25 27V44C25 44.553 24.552 45 24 45Z" fill="#50E6FF"/>
<defs>
<radialGradient id="paint0_radial" cx="0" cy="0" r="1" gradientUnits="userSpaceOnUse" gradientTransform="translate(24 23) scale(7)">
<stop/>
<stop offset="0.011" stop-opacity="0.989"/>
<stop offset="1" stop-opacity="0"/>
</radialGradient>
</defs>
</svg>
