<svg width="24" height="24" viewBox="0 0 24 24" fill="none" xmlns="http://www.w3.org/2000/svg">
<path d="M21 22.739C21 22.947 20.7605 23.064 20.5965 22.9365L16.5 19.4995L16.8905 20.671C16.9445 20.833 16.824 21 16.653 21H5C3.6195 21 2.5 19.8805 2.5 18.5V5.5C2.5 4.1195 3.6195 3 5 3H18.5C19.8805 3 21 4.1195 21 5.5V22.739Z" fill="#8C9EFF"/>
<path d="M16.3135 8.6475C16.3 8.627 16.2885 8.6145 16.269 8.6C16.0775 8.459 14.8675 7.605 13.4555 7.5L13.3205 7.775C14.7105 8.11 15.3455 8.595 16.0105 9.19C14.865 8.605 13.73 8 11.75 8C9.77002 8 8.63502 8.605 7.49002 9.19C8.15502 8.595 8.91502 8.055 10.18 7.775L10.045 7.5C8.56652 7.642 7.41452 8.463 7.23052 8.6005C7.21152 8.615 7.20002 8.627 7.18702 8.647C7.02052 8.9015 5.75402 10.9505 5.50602 14.7195C5.50252 14.776 5.52202 14.8355 5.56052 14.8775C6.83802 16.2795 8.64052 16.47 9.09052 16.496C9.15752 16.5 9.21852 16.4695 9.25852 16.4155L9.65552 15.885C8.87052 15.615 7.97552 15.13 7.20552 14.25C8.12552 14.94 9.51052 15.5 11.7505 15.5C13.9905 15.5 15.3755 14.94 16.2955 14.25C15.5255 15.13 14.6305 15.615 13.8455 15.885L14.2425 16.4155C14.2825 16.469 14.3435 16.4995 14.4105 16.496C14.8605 16.47 16.663 16.279 17.9405 14.8775C17.9785 14.8355 17.9985 14.776 17.995 14.7195C17.7465 10.9535 16.481 8.904 16.3135 8.6475ZM10 14C9.45002 14 9.00002 13.44 9.00002 12.75C9.00002 12.06 9.45002 11.5 10 11.5C10.55 11.5 11 12.06 11 12.75C11 13.44 10.55 14 10 14ZM13.5 14C12.95 14 12.5 13.44 12.5 12.75C12.5 12.06 12.95 11.5 13.5 11.5C14.05 11.5 14.5 12.06 14.5 12.75C14.5 13.44 14.05 14 13.5 14Z" fill="white"/>
<path opacity="0.07" d="M13.455 7.49988C14.867 7.60538 16.077 8.45888 16.2685 8.59988C16.288 8.61438 16.3 8.62688 16.313 8.64738C16.4805 8.90388 17.746 10.9534 17.994 14.7194C17.9975 14.7759 17.978 14.8354 17.9395 14.8774C16.662 16.2794 14.8595 16.4699 14.4095 16.4959C14.4055 16.4959 14.402 16.4964 14.398 16.4964C14.3355 16.4964 14.279 16.4664 14.2415 16.4159L13.845 15.8849C14.63 15.6149 15.525 15.1299 16.295 14.2499C15.375 14.9399 13.99 15.4999 11.75 15.4999C9.50998 15.4999 8.12498 14.9399 7.20498 14.2499C7.97498 15.1299 8.86998 15.6149 9.65498 15.8849L9.25798 16.4154C9.21998 16.4659 9.16348 16.4959 9.10148 16.4959C9.09748 16.4959 9.09398 16.4959 9.08998 16.4954C8.63998 16.4694 6.83748 16.2784 5.55998 14.8769C5.52198 14.8349 5.50198 14.7754 5.50548 14.7189C5.75348 10.9499 7.02048 8.90087 7.18648 8.64637C7.19948 8.62637 7.21098 8.61438 7.22998 8.59988C7.41398 8.46238 8.56548 7.64137 10.0445 7.49937L10.1795 7.77438C8.91448 8.05438 8.15448 8.59438 7.48948 9.18938C8.63498 8.60488 9.76998 7.99988 11.75 7.99988C13.73 7.99988 14.865 8.60487 16.01 9.18987C15.345 8.59487 14.71 8.10988 13.32 7.77488L13.455 7.49988ZM13.5 13.9999C14.05 13.9999 14.5 13.4399 14.5 12.7499C14.5 12.0599 14.05 11.4999 13.5 11.4999C12.95 11.4999 12.5 12.0599 12.5 12.7499C12.5 13.4399 12.95 13.9999 13.5 13.9999ZM9.99998 13.9999C10.55 13.9999 11 13.4399 11 12.7499C11 12.0599 10.55 11.4999 9.99998 11.4999C9.44998 11.4999 8.99998 12.0599 8.99998 12.7499C8.99998 13.4399 9.44998 13.9999 9.99998 13.9999ZM10.193 7.23438L10.021 7.25087C8.48798 7.39788 7.30298 8.23387 7.08098 8.39987C7.03848 8.43137 7.00698 8.46538 6.97798 8.50988C6.82848 8.73838 5.50998 10.8554 5.25648 14.7029C5.24798 14.8284 5.29148 14.9534 5.37548 15.0454C6.70198 16.5014 8.54298 16.7144 9.07598 16.7454L9.08298 16.7459L9.10148 16.7464C9.24248 16.7464 9.37248 16.6804 9.45848 16.5654L9.85548 16.0349L10.061 15.7604L9.73648 15.6489C9.59398 15.5999 9.45498 15.5459 9.31898 15.4874C10.0415 15.6634 10.849 15.7504 11.7505 15.7504C12.652 15.7504 13.4595 15.6634 14.182 15.4874C14.046 15.5464 13.907 15.5999 13.7645 15.6489L13.44 15.7604L13.6455 16.0349L14.0425 16.5654C14.1285 16.6804 14.2585 16.7464 14.3995 16.7464H14.4065L14.425 16.7459C14.9575 16.7154 16.799 16.5019 18.1255 15.0459C18.2095 14.9539 18.253 14.8289 18.2445 14.7034C17.9915 10.8574 16.673 8.73988 16.5235 8.51138C16.494 8.46638 16.4615 8.43187 16.418 8.39987C16.184 8.22737 14.9425 7.36138 13.4745 7.25138L13.306 7.23887L13.2315 7.39038L13.0965 7.66538L13.0115 7.83888C12.628 7.78188 12.211 7.74988 11.75 7.74988C11.289 7.74988 10.872 7.78188 10.4895 7.83838L10.4045 7.66488L10.2695 7.38987L10.193 7.23438ZM13.5 13.7499C13.0935 13.7499 12.75 13.2919 12.75 12.7499C12.75 12.2079 13.0935 11.7499 13.5 11.7499C13.9065 11.7499 14.25 12.2079 14.25 12.7499C14.25 13.2919 13.9065 13.7499 13.5 13.7499ZM9.99998 13.7499C9.59348 13.7499 9.24998 13.2919 9.24998 12.7499C9.24998 12.2079 9.59348 11.7499 9.99998 11.7499C10.4065 11.7499 10.75 12.2079 10.75 12.7499C10.75 13.2919 10.4065 13.7499 9.99998 13.7499Z" fill="black"/>
<path opacity="0.05" d="M13.455 7.50024C14.867 7.60574 16.077 8.45924 16.2685 8.60024C16.288 8.61474 16.3 8.62724 16.313 8.64774C16.4805 8.90424 17.746 10.9537 17.994 14.7197C17.9975 14.7762 17.978 14.8357 17.9395 14.8777C16.662 16.2797 14.8595 16.4702 14.4095 16.4962C14.4055 16.4962 14.402 16.4967 14.398 16.4967C14.3355 16.4967 14.279 16.4667 14.2415 16.4162L13.845 15.8852C14.63 15.6152 15.525 15.1302 16.295 14.2502C15.375 14.9402 13.99 15.5002 11.75 15.5002C9.51 15.5002 8.125 14.9402 7.205 14.2502C7.975 15.1302 8.87 15.6152 9.655 15.8852L9.258 16.4157C9.22 16.4662 9.1635 16.4962 9.1015 16.4962C9.0975 16.4962 9.094 16.4962 9.09 16.4957C8.64 16.4697 6.8375 16.2787 5.56 14.8772C5.522 14.8352 5.502 14.7757 5.5055 14.7192C5.7535 10.9502 7.0205 8.90124 7.1865 8.64674C7.1995 8.62674 7.211 8.61474 7.23 8.60024C7.414 8.46274 8.5655 7.64174 10.0445 7.49974L10.1795 7.77474C8.9145 8.05474 8.1545 8.59474 7.4895 9.18974C8.635 8.60524 9.77 8.00024 11.75 8.00024C13.73 8.00024 14.865 8.60524 16.01 9.19024C15.345 8.59524 14.71 8.11024 13.32 7.77524L13.455 7.50024ZM13.5 14.0002C14.05 14.0002 14.5 13.4402 14.5 12.7502C14.5 12.0602 14.05 11.5002 13.5 11.5002C12.95 11.5002 12.5 12.0602 12.5 12.7502C12.5 13.4402 12.95 14.0002 13.5 14.0002ZM10 14.0002C10.55 14.0002 11 13.4402 11 12.7502C11 12.0602 10.55 11.5002 10 11.5002C9.45 11.5002 9 12.0602 9 12.7502C9 13.4402 9.45 14.0002 10 14.0002ZM10.3415 6.96924L9.9975 7.00224C8.398 7.15574 7.163 8.02674 6.9315 8.20024C6.8655 8.24974 6.814 8.30474 6.769 8.37374C6.519 8.75624 5.2595 10.8567 5.0075 14.6872C4.995 14.8802 5.0615 15.0727 5.191 15.2147C6.581 16.7402 8.505 16.9637 9.062 16.9957L9.0765 16.9967L9.102 16.9972C9.3225 16.9972 9.5255 16.8947 9.659 16.7162L10.056 16.1857L10.26 15.9132C10.7265 15.9712 11.223 16.0002 11.75 16.0002C12.277 16.0002 12.7735 15.9712 13.2405 15.9122L13.4445 16.1847L13.8415 16.7152C13.975 16.8937 14.178 16.9962 14.3985 16.9962H14.413L14.439 16.9952C14.9955 16.9632 16.9195 16.7397 18.3095 15.2142C18.439 15.0722 18.506 14.8797 18.493 14.6867C18.241 10.8582 16.9815 8.75674 16.732 8.37424C16.686 8.30374 16.633 8.24774 16.5655 8.19824C16.322 8.01874 15.029 7.11674 13.4925 7.00174L13.1555 6.97674L13.0065 7.28024L12.8715 7.55524L12.866 7.56624C12.5225 7.52374 12.153 7.50024 11.75 7.50024C11.347 7.50024 10.9775 7.52374 10.6345 7.56624L10.629 7.55524L10.494 7.28024L10.3415 6.96924ZM13.5 13.5002C13.2635 13.5002 13 13.1922 13 12.7502C13 12.3082 13.2635 12.0002 13.5 12.0002C13.7365 12.0002 14 12.3082 14 12.7502C14 13.1922 13.7365 13.5002 13.5 13.5002ZM10 13.5002C9.7635 13.5002 9.5 13.1922 9.5 12.7502C9.5 12.3082 9.7635 12.0002 10 12.0002C10.2365 12.0002 10.5 12.3082 10.5 12.7502C10.5 13.1922 10.2365 13.5002 10 13.5002Z" fill="black"/>
</svg>
