<svg width="76" height="78" viewBox="0 0 76 78" fill="none" xmlns="http://www.w3.org/2000/svg">
<ellipse cx="37.9753" cy="39" rx="37.9753" ry="38.2197" fill="#FBB03B" fill-opacity="0.1"/>
<path d="M8.98223 26.8961H24.9822C25.2474 26.8961 25.5018 26.7901 25.6893 26.6013C25.8769 26.4126 25.9822 26.1566 25.9822 25.8897V9.78677C25.9822 9.51984 25.8769 9.26385 25.6893 9.07511C25.5018 8.88637 25.2474 8.78033 24.9822 8.78033H8.98223C8.71702 8.78033 8.46266 8.88637 8.27513 9.07511C8.08759 9.26385 7.98224 9.51984 7.98224 9.78677V25.8897C7.98224 26.1566 8.08759 26.4126 8.27513 26.6013C8.46266 26.7901 8.71702 26.8961 8.98223 26.8961ZM9.98223 10.7932H23.9822V24.8833H9.98223V10.7932Z" fill="#FBB03B"/>
<path d="M64.9821 26.091L66.9821 16.0266C67.0147 15.835 66.9914 15.638 66.9151 15.4594C66.8388 15.2808 66.7127 15.1282 66.5521 15.0202L57.5522 8.98162C57.3889 8.8734 57.1977 8.81573 57.0022 8.81573C56.8067 8.81573 56.6154 8.8734 56.4522 8.98162L47.4522 15.0202C47.2916 15.1282 47.1655 15.2808 47.0892 15.4594C47.0129 15.638 46.9896 15.835 47.0222 16.0266L49.0222 26.091C49.0689 26.3217 49.1946 26.5287 49.3773 26.6758C49.56 26.8229 49.7882 26.9009 50.0222 26.8961H63.9821C64.2161 26.9009 64.4443 26.8229 64.627 26.6758C64.8097 26.5287 64.9354 26.3217 64.9821 26.091ZM50.8022 24.8833L49.0922 16.2883L56.9822 10.9945L64.8721 16.2883L63.1621 24.8833H50.8022Z" fill="#FBB03B"/>
<path d="M8.98223 69.1663H26.9822C27.1567 69.1652 27.3279 69.1182 27.4788 69.0299C27.6297 68.9417 27.7549 68.8152 27.8422 68.6631C27.93 68.5101 27.9762 68.3365 27.9762 68.1598C27.9762 67.9832 27.93 67.8096 27.8422 67.6566L18.8422 51.5537C18.755 51.3988 18.6285 51.27 18.4757 51.1804C18.3228 51.0907 18.1491 51.0435 17.9722 51.0435C17.7953 51.0435 17.6216 51.0907 17.4688 51.1804C17.3159 51.27 17.1894 51.3988 17.1022 51.5537L8.10224 67.6566C8.01447 67.8096 7.96826 67.9832 7.96826 68.1598C7.96826 68.3365 8.01447 68.5101 8.10224 68.6631C8.19118 68.8181 8.31962 68.9465 8.47431 69.035C8.629 69.1235 8.80434 69.1688 8.98223 69.1663ZM17.9822 54.0698L25.2722 67.1534H10.6922L17.9822 54.0698Z" fill="#FBB03B"/>
<path d="M57.9822 49.0376C56.0043 49.0376 54.0709 49.6279 52.4265 50.7338C50.782 51.8397 49.5002 53.4115 48.7434 55.2505C47.9865 57.0895 47.7885 59.1131 48.1743 61.0654C48.5602 63.0177 49.5126 64.811 50.9111 66.2185C52.3096 67.626 54.0914 68.5846 56.0312 68.9729C57.9711 69.3612 59.9817 69.1619 61.809 68.4002C63.6362 67.6384 65.198 66.3485 66.2968 64.6934C67.3956 63.0383 67.9821 61.0925 67.9821 59.102C67.9821 56.4327 66.9286 53.8728 65.0532 51.9854C63.1778 50.098 60.6343 49.0376 57.9822 49.0376ZM57.9822 67.1534C56.3999 67.1534 54.8532 66.6812 53.5376 65.7965C52.222 64.9118 51.1966 63.6543 50.5911 62.1831C49.9856 60.7119 49.8272 59.093 50.1359 57.5312C50.4446 55.9694 51.2065 54.5347 52.3253 53.4087C53.4441 52.2827 54.8696 51.5159 56.4214 51.2052C57.9733 50.8945 59.5818 51.054 61.0436 51.6634C62.5054 52.2728 63.7548 53.3047 64.6339 54.6288C65.5129 55.9529 65.9821 57.5095 65.9821 59.102C65.9821 61.2373 65.1393 63.2853 63.639 64.7952C62.1387 66.3051 60.1039 67.1534 57.9822 67.1534Z" fill="#FBB03B"/>
<path d="M32.2722 13.0979L28.2722 17.1237C28.1785 17.2172 28.1041 17.3285 28.0533 17.4512C28.0025 17.5738 27.9764 17.7054 27.9764 17.8382C27.9764 17.9711 28.0025 18.1026 28.0533 18.2253C28.1041 18.3479 28.1785 18.4592 28.2722 18.5528L32.2722 22.5785L33.6922 21.1494L31.3922 18.8447H44.9822V16.8318H31.3922L33.6922 14.5271L32.2722 13.0979Z" fill="#FBB03B"/>
<path d="M28.2722 60.823L32.2722 64.8487L33.6922 63.4196L31.3922 61.1148H44.9822V59.102H31.3922L33.6922 56.7972L32.2722 55.3681L28.2722 59.3938C28.1785 59.4874 28.1041 59.5987 28.0533 59.7213C28.0025 59.844 27.9764 59.9755 27.9764 60.1084C27.9764 60.2412 28.0025 60.3728 28.0533 60.4954C28.1041 60.6181 28.1785 60.7294 28.2722 60.823Z" fill="#FBB03B"/>
<path d="M58.9821 47.0248V33.3473L61.2721 35.6621L62.6921 34.233L58.6921 30.2073C58.5992 30.1129 58.4886 30.0381 58.3667 29.987C58.2449 29.9359 58.1142 29.9096 57.9821 29.9096C57.8501 29.9096 57.7194 29.9359 57.5976 29.987C57.4757 30.0381 57.3651 30.1129 57.2722 30.2073L53.2722 34.233L54.6922 35.6621L56.9822 33.3473V47.0248H58.9821Z" fill="#FBB03B"/>
<path d="M16.9822 47.0248V33.3473L19.2722 35.6621L20.6922 34.233L16.6922 30.2073C16.5993 30.1129 16.4887 30.0381 16.3668 29.987C16.2449 29.9359 16.1142 29.9096 15.9822 29.9096C15.8502 29.9096 15.7195 29.9359 15.5976 29.987C15.4758 30.0381 15.3652 30.1129 15.2722 30.2073L11.2722 34.233L12.6922 35.6621L14.9822 33.3473V47.0248H16.9822Z" fill="#FBB03B"/>
</svg>
