<?xml version="1.0" encoding="utf-8"?>
<!DOCTYPE svg PUBLIC "-//W3C//DTD SVG 1.1//EN" "http://www.w3.org/Graphics/SVG/1.1/DTD/svg11.dtd">
<svg version="1.1" xmlns="http://www.w3.org/2000/svg" xmlns:xlink="http://www.w3.org/1999/xlink" x="0px" y="0px" viewBox="0 0 1000 1000" enable-background="new 0 0 1000 1000" xml:space="preserve">
<g><g transform="translate(0.000000,511.000000) scale(0.100000,-0.100000)"><path d="M3703,4851.1c-183.8-92.9-340-172-343.9-175.9c-9.9-7.9,118.6-284.6,130.5-284.6c4,0,94.9,45.5,203.6,98.8l197.7,98.8v-978.5v-978.5h158.1h158.1v978.5v978.5l197.7-98.8c108.7-53.4,199.7-98.8,203.6-98.8c11.9,0,140.3,276.7,130.5,284.6c-9.9,9.9-687.9,347.9-693.8,345.9C4041,5021.1,3888.8,4944,3703,4851.1z" fill="#EFA340"/><path d="M6262.9,3422v-158.1H6421h158.1V3422v158.1H6421h-158.1V3422z" fill="#EFA340"/><path d="M6262.9,1969.1V990.6l-197.7,98.8c-108.7,53.4-199.7,98.8-203.6,98.8c-11.9,0-140.4-276.7-130.5-284.6c4-4,162.1-85,349.9-177.9l340-170l342,170c185.8,92.9,344,174,347.9,177.9c9.9,7.9-118.6,284.6-130.5,284.6c-4,0-94.9-45.5-203.6-98.8l-197.7-98.8v978.5v978.5H6421h-158.1V1969.1z" fill="#EFA340"/><path d="M9295.1,2605.6c-229.3-87-383.5-334.1-330.1-531.7c17.8-65.2,17.8-90.9,0-106.7c-13.8-13.8-537.7-415.1-1166.3-895.4L6654.2,198l-98.8,33.6c-110.7,35.6-211.5,29.6-320.2-21.7l-71.2-33.6l-134.4,69.2c-73.1,39.5-442.8,239.2-824.3,444.8l-691.9,373.6l5.9,85c11.9,148.3-31.6,255-152.2,375.6c-211.5,211.5-425,211.5-636.5,0c-146.3-146.3-189.8-300.5-126.5-458.6c9.9-25.7-286.6-272.8-1397.5-1160.3c-919.2-737.3-1419.3-1124.8-1439-1116.8c-15.8,5.9-67.2,19.8-112.7,33.6c-288.6,77.1-620.7-262.9-543.6-555.4c43.5-162.1,201.6-320.2,365.7-363.7c294.5-77.1,630.6,255,551.5,549.5c-13.8,51.4-21.7,94.9-19.8,96.8c3.9,2,628.6,500.1,1389.6,1109c761,608.8,1393.6,1112.9,1405.4,1120.8c11.9,7.9,65.2-2,116.6-17.8c104.8-37.6,205.6-29.6,314.3,21.7l71.2,33.6l134.4-69.2c73.1-39.5,444.8-239.2,824.3-444.8l691.9-373.6l-5.9-85c-11.9-148.3,31.6-255,152.2-375.6c211.5-211.5,425-211.5,636.5,0C6885.5-385.2,6929-231,6865.8-74.8c-7.9,23.7,262.9,243.1,1156.4,925.1l1170.2,893.5l90.9-29.6c49.4-17.8,112.7-31.6,138.4-31.6c221.4,0,478.4,255,478.4,474.4c0,108.7-51.4,209.5-158.1,316.3C9595.6,2621.4,9449.3,2662.9,9295.1,2605.6z M9544.2,2275.5c25.7-25.7,39.5-65.2,39.5-118.6c0-53.4-13.8-92.9-39.5-118.6s-65.2-39.5-118.6-39.5s-92.9,13.8-118.6,39.5s-39.5,65.2-39.5,118.6c0,53.4,13.8,92.9,39.5,118.6s65.2,39.5,118.6,39.5S9518.5,2301.2,9544.2,2275.5z M4167.5,1326.7c25.7-25.7,39.5-65.2,39.5-118.6c0-104.8-53.4-158.1-158.1-158.1c-104.8,0-158.1,53.4-158.1,158.1c0,53.4,13.8,92.9,39.5,118.6s65.2,39.5,118.6,39.5S4141.8,1352.4,4167.5,1326.7z M6539.6-96.6c25.7-25.7,39.5-65.2,39.5-118.6c0-104.8-53.4-158.1-158.1-158.1c-104.8,0-158.1,53.4-158.1,158.1c0,53.4,13.8,92.9,39.5,118.6S6367.6-57,6421-57C6474.4-57,6513.9-70.9,6539.6-96.6z M688.5-1519.8c25.7-25.7,39.5-65.2,39.5-118.6c0-104.8-53.4-158.1-158.1-158.1c-104.8,0-158.1,53.4-158.1,158.1s53.4,158.1,158.1,158.1C623.3-1480.3,662.8-1494.1,688.5-1519.8z" fill="#EFA340"/><path d="M3890.8,2156.9v-158.1h158.1h158.1v158.1V2315h-158.1h-158.1V2156.9z" fill="#EFA340"/><path d="M8318.6-2033.7v-2767.4h632.5h632.5v2767.4V733.6h-632.5h-632.5V-2033.7z M9267.5-2033.7v-2451.1h-316.3h-316.3v2451.1V417.4h316.3h316.3V-2033.7z" fill="#EFA340"/><path d="M3574.5-2270.9v-2530.2h632.5h632.5v2530.2V259.2h-632.5h-632.5V-2270.9z M4523.3-2270.9v-2213.9h-316.3h-316.3v2213.9V-57h316.3h316.3V-2270.9z" fill="#EFA340"/><path d="M6737.3-2824.4v-1976.7h632.5h632.5v1976.7v1976.7h-632.5h-632.5V-2824.4z M7686.1-2824.4v-1660.4h-316.3h-316.3v1660.4V-1164h316.3h316.3V-2824.4z" fill="#EFA340"/><path d="M1993.1-2903.5v-1897.6h632.5h632.5v1897.6v1897.6h-632.5h-632.5V-2903.5z M2942-2903.5v-1581.4h-316.3h-316.3v1581.4v1581.4h316.3H2942V-2903.5z" fill="#EFA340"/><path d="M5155.9-3061.6v-1739.5h632.5H6421v1739.5v1739.5h-632.5h-632.5V-3061.6z M6104.7-3061.6v-1423.2h-316.3h-316.3v1423.2v1423.2h316.3h316.3V-3061.6z" fill="#EFA340"/><path d="M411.8-3536v-1265.1h632.5h632.5V-3536v1265.1h-632.5H411.8V-3536z M1360.6-3536v-948.8h-316.3H728v948.8v948.8h316.3h316.3V-3536z" fill="#EFA340"/></g></g>
</svg>