<svg enable-background="new 0 0 700 2412.8" viewBox="0 0 700 2412.8" xmlns="http://www.w3.org/2000/svg"><g fill="none" opacity=".5" stroke="#007ee5" stroke-miterlimit="10"><path d="m359.6 1391.5c24.9-10.4 36.6-39 26.2-63.8-10.4-24.9-39-36.6-63.8-26.2-24.9 10.4-36.6 38.9-26.3 63.8 10.5 24.8 39.1 36.6 63.9 26.2z"/><path d="m550.2 1204.7c20.6-8.6 30.4-32.3 21.8-52.9s-32.3-30.3-52.9-21.7-30.3 32.3-21.7 52.9c8.5 20.6 32.2 30.3 52.8 21.7z"/><path d="m368.7 1750.4c20.6-8.6 30.4-32.3 21.7-52.9-8.6-20.6-32.3-30.3-52.9-21.7s-30.3 32.3-21.7 52.9 32.4 30.3 52.9 21.7z"/><path d="m277.5 769.2c16-6.7 23.6-25.1 16.9-41.2-6.7-16-25.2-23.6-41.2-16.9s-23.6 25.2-16.9 41.2 25.2 23.5 41.2 16.9z"/><path d="m521.3 939.9c11-4.6 16.3-17.3 11.7-28.4s-17.3-16.3-28.4-11.7c-11 4.6-16.3 17.3-11.7 28.4s17.3 16.3 28.4 11.7z"/><path d="m555.7 1388.2c11-4.6 16.3-17.3 11.7-28.4s-17.3-16.3-28.4-11.7c-11 4.6-16.3 17.3-11.7 28.4 4.7 11.1 17.4 16.3 28.4 11.7z"/><path d="m483.9 1554.5c21.6-9 31.8-33.9 22.8-55.5-9.1-21.6-33.8-31.8-55.5-22.8-21.6 9-31.8 33.9-22.8 55.5s33.9 31.8 55.5 22.8z"/><path d="m388 616.2c19.5-8.2 28.8-30.6 20.6-50.1s-30.6-28.8-50.1-20.6-28.8 30.6-20.6 50.1c8.1 19.5 30.6 28.7 50.1 20.6z"/><path d="m537.8 1751.1c16.1-6.7 23.6-25.1 16.9-41.2s-25.1-23.7-41.2-16.9c-16 6.7-23.6 25.1-16.9 41.2 6.7 16 25.1 23.6 41.2 16.9z"/><path d="m356.8 1139.8c11.1-4.6 16.3-17.3 11.7-28.4s-17.3-16.3-28.4-11.7c-11 4.6-16.3 17.3-11.7 28.4 4.7 11.1 17.4 16.3 28.4 11.7z"/><path d="m230.4 1675.4c11.1-4.6 16.3-17.3 11.7-28.4-4.6-11-17.3-16.3-28.4-11.7-11 4.6-16.3 17.3-11.7 28.4s17.4 16.3 28.4 11.7z"/><path d="m408.4 916.1c24.9-10.4 36.6-39 26.2-63.8-10.4-24.9-38.9-36.6-63.8-26.2s-36.6 39-26.2 63.9c10.4 24.8 39 36.5 63.8 26.1z"/><path d="m207 1238.6c20.6-8.6 30.3-32.3 21.8-52.9-8.6-20.6-32.3-30.4-52.9-21.8s-30.4 32.3-21.8 52.9c8.6 20.7 32.2 30.4 52.9 21.8z"/><path d="m235.4 1008.1c24.9-10.4 36.6-39 26.2-63.8-10.4-24.9-39-36.6-63.8-26.3-24.9 10.4-36.6 39-26.3 63.8 10.4 24.9 39 36.7 63.9 26.3z"/><path d="m172 1512.9c16.1-6.7 23.6-25.2 17-41.2-6.7-16.1-25.2-23.7-41.2-16.9-16 6.7-23.7 25.1-16.9 41.2 6.6 16 25.1 23.6 41.1 16.9z"/><path d="m426.2 1934.6c16.1-6.7 23.6-25.2 17-41.2-6.7-16.1-25.2-23.7-41.2-16.9-16 6.7-23.6 25.1-16.9 41.2 6.6 16.1 25 23.6 41.1 16.9z"/></g><g opacity=".25"><path d="m421.6 1968.2-46 26.6-46.1-26.6v-53.2l46.1-26.6 46 26.6z" fill="#0ff" opacity=".9"/><path d="m469.3 1885.7-46.1 26.5-46-26.5v-53.2l46-26.6 46.1 26.6z" fill="#0ff" opacity=".6"/><path d="m421.6 1472.8-46 26.6-46.1-26.6v-53.2l46.1-26.6 46 26.6z" fill="#0ff" opacity=".9"/><path d="m374 1885.7-46.1 26.5-46.1-26.5v-53.2l46.1-26.6 46.1 26.6z" opacity=".4"/><path d="m421.6 1803.1-46 26.6-46.1-26.6v-53.2l46.1-26.6 46 26.6z" fill="#0ff" opacity=".9"/><path d="m326.3 1803.1-46.1 26.6-46.1-26.6v-53.2l46.1-26.6 46.1 26.6z" fill="#0ff" opacity=".9"/><path d="m469.3 1720.5-46.1 26.6-46-26.6v-53.2l46-26.6 46.1 26.6z" opacity=".4"/><path d="m517 1637.9-46.1 26.6-46.1-26.6v-53.1l46.1-26.6 46.1 26.6z" fill="#0ff" opacity=".9"/><path d="m517 1472.8-46.1 26.6-46.1-26.6v-53.2l46.1-26.6 46.1 26.6z" fill="#0ff" opacity=".6"/><path d="m374 1720.5-46.1 26.6-46.1-26.6v-53.2l46.1-26.6 46.1 26.6z" fill="#0ff" opacity=".6"/><path d="m469.3 1555.4-46.1 26.6-46-26.6v-53.2l46-26.6 46.1 26.6z" opacity=".4"/><path d="m326.3 1637.9-46.1 26.6-46.1-26.6v-53.1l46.1-26.6 46.1 26.6z" opacity=".4"/><path d="m374 1555.4-46.1 26.6-46.1-26.6v-53.2l46.1-26.6 46.1 26.6z" fill="#0ff" opacity=".6"/><path d="m278.6 1555.4-46.1 26.6-46-26.6v-53.2l46-26.6 46.1 26.6z" fill="#0ff" opacity=".9"/><path d="m230.9 1472.8-46 26.6-46.1-26.6v-53.2l46.1-26.6 46 26.6z" opacity=".4"/><path d="m278.6 1390.2-46.1 26.6-46-26.6v-53.2l46-26.6 46.1 26.6z" fill="#0ff" opacity=".9"/><path d="m374 1390.2-46.1 26.6-46.1-26.6v-53.2l46.1-26.6 46.1 26.6z" opacity=".4"/><path d="m517 1307.7-46.1 26.6-46.1-26.6v-53.2l46.1-26.6 46.1 26.6z" opacity=".4"/><g fill="#0ff"><path d="m564.6 1390.2-46 26.6-46.1-26.6v-53.2l46.1-26.6 46 26.6z" opacity=".9"/><path d="m326.3 1307.7-46.1 26.6-46.1-26.6v-53.2l46.1-26.6 46.1 26.6z" opacity=".6"/><path d="m421.6 1307.7-46 26.6-46.1-26.6v-53.2l46.1-26.6 46 26.6z" opacity=".9"/><path d="m374 564.5-46.1 26.6-46.1-26.6v-53.2l46.1-26.6 46.1 26.6z" opacity=".9"/><path d="m326.3 647.1-46.1 26.6-46.1-26.6v-53.2l46.1-26.6 46.1 26.6z" opacity=".6"/><path d="m374 1059.9-46.1 26.6-46.1-26.6v-53.1l46.1-26.7 46.1 26.7z" opacity=".9"/></g><path d="m421.6 647.1-46 26.6-46.1-26.6v-53.2l46.1-26.6 46 26.6z" opacity=".4"/><path d="m374 729.7-46.1 26.6-46.1-26.6v-53.2l46.1-26.6 46.1 26.6z" fill="#0ff" opacity=".9"/><path d="m469.3 729.7-46.1 26.6-46-26.6v-53.2l46-26.6 46.1 26.6z" fill="#0ff" opacity=".9"/><path d="m326.3 812.2-46.1 26.6-46.1-26.6v-53.1l46.1-26.7 46.1 26.7z" opacity=".4"/><path d="m278.6 894.8-46.1 26.6-46-26.6v-53.2l46-26.6 46.1 26.6z" fill="#0ff" opacity=".9"/><path d="m278.6 1059.9-46.1 26.6-46-26.6v-53.1l46-26.7 46.1 26.7z" fill="#0ff" opacity=".6"/><path d="m421.6 812.2-46 26.6-46.1-26.6v-53.1l46.1-26.7 46 26.7z" fill="#0ff" opacity=".6"/><path d="m326.3 977.4-46.1 26.6-46.1-26.6v-53.2l46.1-26.6 46.1 26.6z" opacity=".4"/><path d="m469.3 894.8-46.1 26.6-46-26.6v-53.2l46-26.6 46.1 26.6z" opacity=".4"/><path d="m421.6 977.4-46 26.6-46.1-26.6v-53.2l46.1-26.6 46 26.6z" fill="#0ff" opacity=".6"/><path d="m517 977.4-46.1 26.6-46.1-26.6v-53.2l46.1-26.6 46.1 26.6z" fill="#0ff" opacity=".9"/><path d="m564.6 1059.9-46 26.6-46.1-26.6v-53.1l46.1-26.7 46 26.7z" opacity=".4"/><path d="m517 1142.5-46.1 26.6-46.1-26.6v-53.2l46.1-26.6 46.1 26.6z" fill="#0ff" opacity=".9"/><path d="m421.6 1142.5-46 26.6-46.1-26.6v-53.2l46.1-26.6 46 26.6z" opacity=".4"/><path d="m278.6 1225.1-46.1 26.6-46-26.6v-53.2l46-26.6 46.1 26.6z" opacity=".4"/><path d="m230.9 1142.5-46 26.6-46.1-26.6v-53.2l46.1-26.6 46 26.6z" fill="#0ff" opacity=".9"/><path d="m469.3 1225.1-46.1 26.6-46-26.6v-53.2l46-26.6 46.1 26.6z" fill="#0ff" opacity=".6"/><path d="m374 1225.1-46.1 26.6-46.1-26.6v-53.2l46.1-26.6 46.1 26.6z" fill="#0ff" opacity=".9"/></g><g fill="#007ee5"><g opacity=".35"><path d="m294.3 2408.7 57.5-33.2 57.5 33.2.4-.6-57.5-33.2v-66.4l57.5-33.2.4-.6v-66.4l57.5-33.2 57.5 33.2.4-.6-57.5-33.2v-66.4l57.5-33.2-.4-.6-57.5 33.2-57.5-33.2v-66.3l-.4-.6-57.5-33.2v-66.4l57.5-33.2 57.5 33.2.4-.6-57.5-33.2v-66.4l57.5-33.2.4-.6v-66.4l-.4-.6-57.5-33.2v-66.4l57.5-33.2 57.5 33.2.4-.6-57.5-33.2v-66.4l57.5-33.2-.4-.6-57.5 33.2-57.5-33.2v-66.2l57.5-33.2.4-.6v-66.4l-.4-.6-57.5-33.2v-66.4l57.5-33.2 57.5 33.2.4-.6-57.5-33.2v-66.4l57.5-33.2-.4-.6-57.5 33.2-57.5-33.2v-66.4l57.5-33.2.4-.6v-66.4l57.5-33.2 57.5 33.2.4-.6-57.5-33.2v-66.2l57.5-33.2-.4-.6-57.5 33.2-57.5-33.2v-66.4l-.4-.6-57.7-33.2v-66.4l57.5-33.2 57.5 33.2.4-.6-57.5-33.2v-66.4l-.4-.6-57.5-33.2v-66.4l57.5-33.2 57.5 33.2.4-.6-57.5-33.2v-66.4l57.5-33.2-.4-.6-57.5 33.2-57.5-33.2v-66.2l-.4-.6-57.5-33.2v-66.4l57.5-33.2-.4-.6-57.5 33.2-57.3-33.2v-66.3h-.7v66.3l-57.6 33.2-57.4-33.2-.4.6 57.5 33.2v66.4l-57.5 33.2-.4.6v66.4l-57.5 33.2.4.6 57.5-33.2 57.5 33.2v66.4l.4.6 57.5 33.2v66.4l-57.6 33.1-57.5-33.2-.4.6 57.5 33.2v66.4l-57.4 33.1.4.6 57.5-33.2 57.5 33.2v66.4l-57.6 33.2-.4.6v66.4l-57.5 33.2-57.5-33.2-.4.6 57.5 33.2v66.4l-57.5 33.2.4.6 57.5-33.2 57.5 33.2v66.4l-57.5 33.2-.4.6v66.4l-57.5 33.2.4.6 57.5-33.2 57.5 33.2v66.4l-57.5 33.2-.4.6v66.4l.4.6 57.5 33.2v66.4l-57.5 33.2-57.5-33.2-.4.6 57.5 33.2v66.4l-57.5 33.2.4.6 57.5-33.2 57.5 33.2v66.4l-57.5 33.2-.4.6v66.4l-57.5 33.2.4.6 57.5-33.2 57.5 33.2v66.4l-57.5 33.2-.4.6v66.4l.4.6 57.5 33.2v66.4l-57.5 33.2-57.5-33.2-.4.6 57.5 33.2v66.4l-57.5 33.2.4.6 57.5-33.2 57.5 33.2v66.4l-57.5 33.2-.4.6v66.4l.4.6 57.5 33.2v66.4l-57.5 33.2.4.6 57.5-33.2 57.5 33.2m115.7-2137.8-57.5 33.2-57.5-33.2v-66.4l57.5-33.2 57.5 33.2zm.4 133.3-57.5-33.2v-66.4l57.5-33.2 57.5 33.2v66.4zm0 200.3-57.5-33.2v-66.4l57.5-33.2 57.5 33.2v66.4zm57.4 167.2-57.5 33.2-57.5-33.2v-66.4l57.5-33.2 57.5 33.2zm-57.8 33.8v66.4l-57.5 33.2-57.5-33.2v-66.4l57.5-33.2zm58.2 99.6-57.5-33.2v-66.4l57.5-33.2 57.5 33.2v66.4zm-57.8 100.1-57.5-33.2v-66.4l57.5-33.2 57.5 33.2v66.4zm-.4 67-57.5 33.2-57.5-33.2v-66.4l57.5-33.2 57.5 33.2zm.4 133.4-57.5-33.2v-66.4l57.5-33.2 57.5 33.2v66.4zm-.4 66.9-57.5 33.2-57.5-33.2v-66.4l57.5-33.2 57.5 33.2zm.4 133.4-57.5-33.2v-66.4l57.5-33.2 57.5 33.2v66.4zm-.4 67-57.5 33.2-57.5-33.2v-66.4l57.5-33.2 57.5 33.2zm.4 133.3-57.5-33.2v-66.4l57.5-33.2 57.5 33.2v66.4zm-.4 67-57.5 33.2-57.5-33.2v-66.4l57.5-33.2 57.5 33.2zm.4 133.4-57.5-33.2v-66.4l57.5-33.2 57.5 33.2v66.4zm-57.9 100.1-57.5-33.2v-66.4l57.5-33.2 57.5 33.2v66.4zm57.5 167.2-57.5 33.2-57.5-33.2v-66.4l57.5-33.2 57.5 33.2zm.4 133.4-57.5-33.2v-66.4l57.5-33.2 57.5 33.2v66.4zm-57.9 100.1-57.5-33.2v-66.4l57.5-33.2 57.5 33.2v66.4zm-115.3.7 57.5-33.2 57.5 33.2v66.4l-57.5 33.2-57.5-33.2zm-.4-133.4 57.5 33.2v66.4l-57.5 33.2-57.5-33.2v-66.4zm.4-67 57.5-33.2 57.5 33.2v66.4l-57.5 33.2-57.5-33.2zm-.4-133.3 57.5 33.2v66.4l-57.5 33.2-57.5-33.2v-66.5zm.4-67 57.5-33.2 57.5 33.2v66.4l-57.5 33.2-57.5-33.2zm-.4-133.4 57.5 33.2v66.4l-57.5 33.2-57.5-33.2v-66.4zm.4-67 57.5-33.2 57.5 33.2v66.4l-57.5 33.2-57.5-33.2zm-.4-133.3 57.5 33.2v66.4l-57.5 33.2-57.5-33.2v-66.4zm.4-67 57.5-33.2 57.5 33.2v66.4l-57.5 33.2-57.5-33.2zm-.4-133.4 57.5 33.2v66.4l-57.5 33.2-57.5-33.2v-66.4zm.4-66.9 57.5-33.2 57.5 33.2v66.4l-57.5 33.2-57.5-33.2zm-.4-133.4 57.5 33.2v66.4l-57.5 33.2-57.5-33.2v-66.4zm.4-67 57.5-33.2 57.5 33.2v66.4l-57.5 33.2-57.5-33.2zm-.4-133.3 57.5 33.2v66.4l-57.5 33.2-57.5-33.2v-66.4zm.4-67 57.5-33.2 57.5 33.2v66.4l-57.5 33.2-57.5-33.2zm-.4-133.4 57.5 33.2v66.4l-57.5 33.2-57.5-33.2v-66.4zm57.9-100.1 57.5 33.2v66.4l-57.5 33.2-57.5-33.2v-66.4zm.4-67 57.5-33.2 57.5 33.2v66.3l-57.5 33.2-57.5-33.2zm-.4-133.4 57.5 33.2v66.4l-57.5 33.1-57.5-33.2v-66.4zm.4-67 57.5-33.2 57.5 33.2v66.4l-57.5 33.2-57.5-33.2zm-57.9-100.1 57.5-33.2 57.5 33.2v66.4l-57.5 33.2-57.5-33.2zm-.4-133.4 57.5 33.2v66.4l-57.5 33.1-57.5-33.2v-66.3zm57.9-100.2 57.5 33.2v66.4l-57.5 33.2-57.5-33.2v-66.4z"/><path d="m525.2 2203.8c-2.4 0-4.4 2-4.4 4.4s2 4.4 4.4 4.4 4.4-1.9 4.4-4.4c0-2.4-2-4.4-4.4-4.4z"/><path d="m525.2 2070.3c-2.4 0-4.4 2-4.4 4.4s2 4.4 4.4 4.4 4.4-1.9 4.4-4.4-2-4.4-4.4-4.4z"/><path d="m525.2 1602.8c-2.4 0-4.4 1.9-4.4 4.4 0 2.4 2 4.4 4.4 4.4s4.4-1.9 4.4-4.4-2-4.4-4.4-4.4z"/><path d="m525.2 1469.2c-2.4 0-4.4 1.9-4.4 4.3s2 4.4 4.4 4.4 4.4-1.9 4.4-4.4c0-2.3-2-4.3-4.4-4.3z"/><path d="m525.2 1202.1c-2.4 0-4.4 2-4.4 4.4s2 4.3 4.4 4.3 4.4-2 4.4-4.3c0-2.4-2-4.4-4.4-4.4z"/><path d="m525.2 1068.6c-2.4 0-4.4 1.9-4.4 4.4 0 2.4 2 4.4 4.4 4.4s4.4-2 4.4-4.4c0-2.5-2-4.4-4.4-4.4z"/><path d="m525.2 868.2c-2.4 0-4.4 1.9-4.4 4.4 0 2.4 2 4.3 4.4 4.3s4.4-1.9 4.4-4.3-2-4.4-4.4-4.4z"/><path d="m525.2 801.4c-2.4 0-4.4 2-4.4 4.4s2 4.4 4.4 4.4 4.4-2 4.4-4.4-2-4.4-4.4-4.4z"/><path d="m525.2 601.1c-2.4 0-4.4 1.9-4.4 4.4 0 2.4 2 4.3 4.4 4.3s4.4-1.9 4.4-4.3-2-4.4-4.4-4.4z"/><path d="m525.2 400.8c-2.4 0-4.4 2-4.4 4.4s2 4.4 4.4 4.4 4.4-2 4.4-4.4c0-2.5-2-4.4-4.4-4.4z"/><path d="m525.2 267.2c-2.4 0-4.4 2-4.4 4.4s2 4.3 4.4 4.3 4.4-1.9 4.4-4.3-2-4.4-4.4-4.4z"/><path d="m409.6 2404.1c-2.4 0-4.4 2-4.4 4.4s1.9 4.3 4.4 4.3c2.4 0 4.4-1.9 4.4-4.3-.1-2.4-2-4.4-4.4-4.4z"/><path d="m409.6 2270.6c-2.4 0-4.4 1.9-4.4 4.4 0 2.4 1.9 4.4 4.4 4.4 2.4 0 4.4-2 4.4-4.4-.1-2.5-2-4.4-4.4-4.4z"/><path d="m409.6 2203.8c-2.4 0-4.4 1.9-4.4 4.4s1.9 4.4 4.4 4.4c2.4 0 4.4-1.9 4.4-4.4s-2-4.4-4.4-4.4z"/><path d="m409.6 2070.2c-2.4 0-4.4 2-4.4 4.4s1.9 4.3 4.4 4.3c2.4 0 4.4-1.9 4.4-4.3-.1-2.4-2-4.4-4.4-4.4z"/><path d="m409.6 2003.4c-2.4 0-4.4 2-4.4 4.4s1.9 4.4 4.4 4.4c2.4 0 4.4-2 4.4-4.4-.1-2.4-2-4.4-4.4-4.4z"/><path d="m409.6 1869.9c-2.4 0-4.4 1.9-4.4 4.4 0 2.4 1.9 4.3 4.4 4.3 2.4 0 4.4-1.9 4.4-4.3-.1-2.5-2-4.4-4.4-4.4z"/><path d="m409.6 1803.1c-2.4 0-4.4 1.9-4.4 4.4 0 2.4 1.9 4.4 4.4 4.4 2.4 0 4.4-2 4.4-4.4-.1-2.5-2-4.4-4.4-4.4z"/><path d="m409.6 1669.5c-2.4 0-4.4 1.9-4.4 4.4 0 2.4 1.9 4.3 4.4 4.3 2.4 0 4.4-2 4.4-4.3-.1-2.4-2-4.4-4.4-4.4z"/><path d="m409.6 1602.8c-2.4 0-4.4 1.9-4.4 4.4 0 2.4 1.9 4.4 4.4 4.4 2.4 0 4.4-1.9 4.4-4.4-.1-2.5-2-4.4-4.4-4.4z"/><path d="m409.6 1469.2c-2.4 0-4.4 2-4.4 4.4s1.9 4.4 4.4 4.4c2.4 0 4.4-2 4.4-4.4-.1-2.5-2-4.4-4.4-4.4z"/><path d="m409.6 1402.4c-2.4 0-4.4 1.9-4.4 4.4 0 2.4 1.9 4.4 4.4 4.4 2.4 0 4.4-1.9 4.4-4.4-.1-2.4-2-4.4-4.4-4.4z"/><path d="m409.6 1268.9c-2.4 0-4.4 2-4.4 4.4s1.9 4.4 4.4 4.4c2.4 0 4.4-1.9 4.4-4.4-.1-2.5-2-4.4-4.4-4.4z"/><path d="m409.6 1202.1c-2.4 0-4.4 2-4.4 4.3 0 2.4 1.9 4.4 4.4 4.4 2.4 0 4.4-2 4.4-4.4-.1-2.4-2-4.3-4.4-4.3z"/><path d="m409.6 1068.5c-2.4 0-4.4 2-4.4 4.4s1.9 4.4 4.4 4.4c2.4 0 4.4-2 4.4-4.4-.1-2.4-2-4.4-4.4-4.4z"/><path d="m409.6 1001.8c-2.4 0-4.4 1.9-4.4 4.3s1.9 4.4 4.4 4.4c2.4 0 4.4-1.9 4.4-4.4-.1-2.4-2-4.3-4.4-4.3z"/><path d="m409.6 868.2c-2.4 0-4.4 1.9-4.4 4.4 0 2.4 1.9 4.3 4.4 4.3 2.4 0 4.4-1.9 4.4-4.3-.1-2.5-2-4.4-4.4-4.4z"/><path d="m409.6 801.4c-2.4 0-4.4 2-4.4 4.4s1.9 4.4 4.4 4.4c2.4 0 4.4-1.9 4.4-4.4-.1-2.4-2-4.4-4.4-4.4z"/><path d="m409.6 667.8c-2.4 0-4.4 1.9-4.4 4.3s1.9 4.4 4.4 4.4c2.4 0 4.4-2 4.4-4.4-.1-2.3-2-4.3-4.4-4.3z"/><path d="m409.6 601.1c-2.4 0-4.4 1.9-4.4 4.3s1.9 4.4 4.4 4.4c2.4 0 4.4-1.9 4.4-4.4-.1-2.4-2-4.3-4.4-4.3z"/><path d="m409.6 467.5c-2.4 0-4.4 1.9-4.4 4.4 0 2.4 1.9 4.3 4.4 4.3 2.4 0 4.4-1.9 4.4-4.3-.1-2.4-2-4.4-4.4-4.4z"/><path d="m409.6 400.7c-2.4 0-4.4 2-4.4 4.4s1.9 4.4 4.4 4.4c2.4 0 4.4-2 4.4-4.4-.1-2.4-2-4.4-4.4-4.4z"/><path d="m409.6 267.2c-2.4 0-4.4 2-4.4 4.4s1.9 4.4 4.4 4.4c2.4 0 4.4-2 4.4-4.4-.1-2.5-2-4.4-4.4-4.4z"/><path d="m409.6 200.4c-2.4 0-4.4 1.9-4.4 4.4 0 2.4 1.9 4.3 4.4 4.3 2.4 0 4.4-1.9 4.4-4.3-.1-2.5-2-4.4-4.4-4.4z"/><path d="m409.6 66.8c-2.4 0-4.4 1.9-4.4 4.3s1.9 4.4 4.4 4.4c2.4 0 4.4-1.9 4.4-4.4-.1-2.3-2-4.3-4.4-4.3z"/><path d="m293.9 2404.1c-2.4 0-4.3 1.9-4.3 4.3s1.9 4.4 4.3 4.4 4.4-2 4.4-4.4-2-4.3-4.4-4.3z"/><path d="m293.9 2270.5c-2.4 0-4.3 1.9-4.3 4.4 0 2.4 1.9 4.4 4.3 4.4s4.4-1.9 4.4-4.4c-.1-2.4-2-4.4-4.4-4.4z"/><path d="m293.9 2203.7c-2.4 0-4.3 2-4.3 4.4s1.9 4.4 4.3 4.4 4.4-1.9 4.4-4.4c-.1-2.4-2-4.4-4.4-4.4z"/><path d="m293.9 2070.2c-2.4 0-4.3 1.9-4.3 4.3s1.9 4.4 4.3 4.4 4.4-2 4.4-4.4c-.1-2.4-2-4.3-4.4-4.3z"/><path d="m293.9 2003.4c-2.4 0-4.3 2-4.3 4.4s1.9 4.4 4.3 4.4 4.4-1.9 4.4-4.4c-.1-2.5-2-4.4-4.4-4.4z"/><path d="m293.9 1869.8c-2.4 0-4.3 1.9-4.3 4.3s1.9 4.4 4.3 4.4 4.4-1.9 4.4-4.4c-.1-2.3-2-4.3-4.4-4.3z"/><path d="m293.9 1803.1c-2.4 0-4.3 1.9-4.3 4.4 0 2.4 1.9 4.3 4.3 4.3s4.4-1.9 4.4-4.3c-.1-2.5-2-4.4-4.4-4.4z"/><path d="m293.9 1669.5c-2.4 0-4.3 1.9-4.3 4.3s1.9 4.3 4.3 4.3 4.4-1.9 4.4-4.3-2-4.3-4.4-4.3z"/><path d="m293.9 1602.7c-2.4 0-4.3 2-4.3 4.4s1.9 4.4 4.3 4.4 4.4-2 4.4-4.4c-.1-2.4-2-4.4-4.4-4.4z"/><path d="m293.9 1469.1c-2.4 0-4.3 1.9-4.3 4.4 0 2.4 1.9 4.3 4.3 4.3s4.4-1.9 4.4-4.3c-.1-2.4-2-4.4-4.4-4.4z"/><path d="m293.9 1402.4c-2.4 0-4.3 2-4.3 4.4s1.9 4.4 4.3 4.4 4.4-2 4.4-4.4c-.1-2.5-2-4.4-4.4-4.4z"/><path d="m293.9 1268.8c-2.4 0-4.3 2-4.3 4.4s1.9 4.3 4.3 4.3 4.4-2 4.4-4.3c-.1-2.4-2-4.4-4.4-4.4z"/><path d="m293.9 1202c-2.4 0-4.3 1.9-4.3 4.3s1.9 4.4 4.3 4.4 4.4-1.9 4.4-4.4c-.1-2.3-2-4.3-4.4-4.3z"/><path d="m293.9 1068.5c-2.4 0-4.3 1.9-4.3 4.4 0 2.4 1.9 4.4 4.3 4.4s4.4-2 4.4-4.4c-.1-2.5-2-4.4-4.4-4.4z"/><path d="m293.9 1001.7c-2.4 0-4.3 2-4.3 4.4s1.9 4.3 4.3 4.3 4.4-1.9 4.4-4.3c-.1-2.5-2-4.4-4.4-4.4z"/><path d="m293.9 868.1c-2.4 0-4.3 1.9-4.3 4.4 0 2.4 1.9 4.4 4.3 4.4s4.4-1.9 4.4-4.4c-.1-2.4-2-4.4-4.4-4.4z"/><path d="m293.9 801.4c-2.4 0-4.3 1.9-4.3 4.3s1.9 4.4 4.3 4.4 4.4-2 4.4-4.4c-.1-2.4-2-4.3-4.4-4.3z"/><path d="m293.9 667.8c-2.4 0-4.3 1.9-4.3 4.4 0 2.4 1.9 4.4 4.3 4.4s4.4-2 4.4-4.4c-.1-2.5-2-4.4-4.4-4.4z"/><path d="m293.9 601c-2.4 0-4.3 2-4.3 4.4s1.9 4.4 4.3 4.4 4.4-1.9 4.4-4.4c-.1-2.4-2-4.4-4.4-4.4z"/><path d="m293.9 467.5c-2.4 0-4.3 2-4.3 4.4s1.9 4.3 4.3 4.3 4.4-1.9 4.4-4.3c-.1-2.5-2-4.4-4.4-4.4z"/><path d="m293.9 400.7c-2.4 0-4.3 2-4.3 4.4s1.9 4.4 4.3 4.4 4.4-1.9 4.4-4.4c-.1-2.5-2-4.4-4.4-4.4z"/><path d="m293.9 267.1c-2.4 0-4.3 1.9-4.3 4.3s1.9 4.4 4.3 4.4 4.4-2 4.4-4.4c-.1-2.3-2-4.3-4.4-4.3z"/><path d="m293.9 200.3c-2.4 0-4.3 2-4.3 4.4s1.9 4.4 4.3 4.4 4.4-1.9 4.4-4.4c-.1-2.4-2-4.4-4.4-4.4z"/><path d="m293.9 66.8c-2.4 0-4.3 2-4.3 4.4s1.9 4.3 4.3 4.3 4.4-1.9 4.4-4.3c-.1-2.5-2-4.4-4.4-4.4z"/><path d="m293.9 0c-2.4 0-4.3 1.9-4.3 4.4s1.9 4.4 4.3 4.4 4.4-2 4.4-4.4-2-4.4-4.4-4.4z"/><path d="m178.2 2404c-2.4 0-4.4 2-4.4 4.4s2 4.4 4.4 4.4 4.4-2 4.4-4.4-2-4.4-4.4-4.4z"/><path d="m178.2 2270.5c-2.4 0-4.4 1.9-4.4 4.3s2 4.4 4.4 4.4 4.4-1.9 4.4-4.4c0-2.4-2-4.3-4.4-4.3z"/><path d="m178.2 2203.7c-2.4 0-4.4 2-4.4 4.4s2 4.4 4.4 4.4 4.4-1.9 4.4-4.4-2-4.4-4.4-4.4z"/><path d="m178.2 2070.1c-2.4 0-4.4 1.9-4.4 4.3s2 4.4 4.4 4.4 4.4-2 4.4-4.4c0-2.3-2-4.3-4.4-4.3z"/><path d="m178.2 2003.3c-2.4 0-4.4 1.9-4.4 4.3s2 4.4 4.4 4.4 4.4-2 4.4-4.4c0-2.3-2-4.3-4.4-4.3z"/><path d="m178.2 1869.8c-2.4 0-4.4 2-4.4 4.4s2 4.4 4.4 4.4 4.4-2 4.4-4.4c0-2.5-2-4.4-4.4-4.4z"/><path d="m178.2 1803c-2.4 0-4.4 1.9-4.4 4.3s2 4.4 4.4 4.4 4.4-1.9 4.4-4.4c0-2.3-2-4.3-4.4-4.3z"/><path d="m178.2 1669.4c-2.4 0-4.4 1.9-4.4 4.3s2 4.4 4.4 4.4 4.4-2 4.4-4.4c0-2.3-2-4.3-4.4-4.3z"/><path d="m178.2 1602.7c-2.4 0-4.4 1.9-4.4 4.3s2 4.4 4.4 4.4 4.4-1.9 4.4-4.4c0-2.4-2-4.3-4.4-4.3z"/><path d="m178.2 1469.1c-2.4 0-4.4 1.9-4.4 4.3s2 4.4 4.4 4.4 4.4-1.9 4.4-4.4c0-2.3-2-4.3-4.4-4.3z"/><path d="m178.2 1402.3c-2.4 0-4.4 1.9-4.4 4.4 0 2.4 2 4.4 4.4 4.4s4.4-1.9 4.4-4.4c0-2.4-2-4.4-4.4-4.4z"/><path d="m178.2 1268.8c-2.4 0-4.4 1.9-4.4 4.3s2 4.4 4.4 4.4 4.4-1.9 4.4-4.4c0-2.4-2-4.3-4.4-4.3z"/><path d="m178.2 1202c-2.4 0-4.4 1.9-4.4 4.4 0 2.4 2 4.3 4.4 4.3s4.4-1.9 4.4-4.3c0-2.5-2-4.4-4.4-4.4z"/><path d="m178.2 1068.4c-2.4 0-4.4 1.9-4.4 4.3s2 4.4 4.4 4.4 4.4-1.9 4.4-4.4c0-2.3-2-4.3-4.4-4.3z"/><path d="m178.2 1001.7c-2.4 0-4.4 2-4.4 4.4s2 4.3 4.4 4.3 4.4-2 4.4-4.3c0-2.5-2-4.4-4.4-4.4z"/><path d="m178.2 868.1c-2.4 0-4.4 2-4.4 4.4s2 4.4 4.4 4.4 4.4-2 4.4-4.4c0-2.5-2-4.4-4.4-4.4z"/><path d="m178.2 801.3c-2.4 0-4.4 1.9-4.4 4.3s2 4.4 4.4 4.4 4.4-2 4.4-4.4c0-2.3-2-4.3-4.4-4.3z"/><path d="m178.2 601c-2.4 0-4.4 2-4.4 4.4s2 4.4 4.4 4.4 4.4-2 4.4-4.4c0-2.5-2-4.4-4.4-4.4z"/><path d="m178.2 467.4c-2.4 0-4.4 1.9-4.4 4.4 0 2.4 2 4.4 4.4 4.4s4.4-2 4.4-4.4-2-4.4-4.4-4.4z"/><path d="m178.2 267.1c-2.4 0-4.4 2-4.4 4.4s2 4.4 4.4 4.4 4.4-1.9 4.4-4.4-2-4.4-4.4-4.4z"/><path d="m178.2 200.3c-2.4 0-4.4 1.9-4.4 4.4 0 2.4 2 4.4 4.4 4.4s4.4-2 4.4-4.4c0-2.5-2-4.4-4.4-4.4z"/><path d="m178.2 66.7c-2.4 0-4.4 2-4.4 4.4s2 4.3 4.4 4.3 4.4-2 4.4-4.3c0-2.4-2-4.4-4.4-4.4z"/><path d="m583.1 901.6c-2.4 0-4.4 2-4.4 4.4s2 4.4 4.4 4.4 4.4-1.9 4.4-4.4-2-4.4-4.4-4.4z"/><path d="m583.1 768.1c-2.4 0-4.4 2-4.4 4.4s2 4.3 4.4 4.3 4.4-1.9 4.4-4.3c-.1-2.5-2-4.4-4.4-4.4z"/><path d="m467.4 2170.4c-2.4 0-4.4 1.9-4.4 4.3s2 4.4 4.4 4.4 4.4-2 4.4-4.4c-.1-2.3-2-4.3-4.4-4.3z"/><path d="m467.4 2103.7c-2.4 0-4.4 1.9-4.4 4.3s2 4.4 4.4 4.4 4.4-2 4.4-4.4c-.1-2.4-2-4.3-4.4-4.3z"/><path d="m467.4 1903.3c-2.4 0-4.4 1.9-4.4 4.3s2 4.4 4.4 4.4 4.4-1.9 4.4-4.4c-.1-2.3-2-4.3-4.4-4.3z"/><path d="m467.4 1769.7c-2.4 0-4.4 2-4.4 4.4s2 4.4 4.4 4.4 4.4-2 4.4-4.4c-.1-2.4-2-4.4-4.4-4.4z"/><path d="m467.4 1703c-2.4 0-4.4 1.9-4.4 4.4 0 2.4 2 4.3 4.4 4.3s4.4-1.9 4.4-4.3c-.1-2.5-2-4.4-4.4-4.4z"/><path d="m467.4 1569.4c-2.4 0-4.4 1.9-4.4 4.3s2 4.4 4.4 4.4 4.4-1.9 4.4-4.4c-.1-2.3-2-4.3-4.4-4.3z"/><path d="m467.4 1502.6c-2.4 0-4.4 1.9-4.4 4.4 0 2.4 2 4.3 4.4 4.3s4.4-1.9 4.4-4.3c-.1-2.4-2-4.4-4.4-4.4z"/><path d="m467.4 1369.1c-2.4 0-4.4 1.9-4.4 4.3s2 4.3 4.4 4.3 4.4-1.9 4.4-4.3c-.1-2.4-2-4.3-4.4-4.3z"/><path d="m467.4 1302.3c-2.4 0-4.4 2-4.4 4.4s2 4.3 4.4 4.3 4.4-2 4.4-4.3c-.1-2.5-2-4.4-4.4-4.4z"/><path d="m467.4 1168.7c-2.4 0-4.4 2-4.4 4.4s2 4.4 4.4 4.4 4.4-1.9 4.4-4.4c-.1-2.4-2-4.4-4.4-4.4z"/><path d="m467.4 1102c-2.4 0-4.4 2-4.4 4.4s2 4.4 4.4 4.4 4.4-2 4.4-4.4c-.1-2.5-2-4.4-4.4-4.4z"/><path d="m467.4 968.4c-2.4 0-4.4 1.9-4.4 4.4 0 2.4 2 4.4 4.4 4.4s4.4-2 4.4-4.4c-.1-2.5-2-4.4-4.4-4.4z"/><path d="m467.4 901.6c-2.4 0-4.4 2-4.4 4.4s2 4.4 4.4 4.4 4.4-1.9 4.4-4.4-2-4.4-4.4-4.4z"/><path d="m467.4 768.1c-2.4 0-4.4 2-4.4 4.4s2 4.3 4.4 4.3 4.4-1.9 4.4-4.3c-.1-2.5-2-4.4-4.4-4.4z"/><path d="m467.4 701.3c-2.4 0-4.4 1.9-4.4 4.4 0 2.4 2 4.4 4.4 4.4s4.4-2 4.4-4.4c-.1-2.5-2-4.4-4.4-4.4z"/><path d="m467.4 567.7c-2.4 0-4.4 1.9-4.4 4.3s2 4.4 4.4 4.4 4.4-2 4.4-4.4c-.1-2.3-2-4.3-4.4-4.3z"/><path d="m467.4 500.9c-2.4 0-4.4 2-4.4 4.4s2 4.3 4.4 4.3 4.4-1.9 4.4-4.3c-.1-2.4-2-4.4-4.4-4.4z"/><path d="m467.4 367.4c-2.4 0-4.4 2-4.4 4.4s2 4.4 4.4 4.4 4.4-2 4.4-4.4c-.1-2.5-2-4.4-4.4-4.4z"/><path d="m467.4 300.6c-2.4 0-4.4 1.9-4.4 4.3s2 4.4 4.4 4.4 4.4-2 4.4-4.4c-.1-2.4-2-4.3-4.4-4.3z"/><path d="m351.7 2370.8c-2.4 0-4.3 2-4.3 4.4s1.9 4.3 4.3 4.3 4.4-1.9 4.4-4.3c0-2.5-2-4.4-4.4-4.4z"/><path d="m351.7 2304c-2.4 0-4.3 2-4.3 4.4s1.9 4.3 4.3 4.3 4.4-1.9 4.4-4.3c0-2.5-2-4.4-4.4-4.4z"/><path d="m351.7 2170.4c-2.4 0-4.3 1.9-4.3 4.3s1.9 4.4 4.3 4.4 4.4-2 4.4-4.4c0-2.3-2-4.3-4.4-4.3z"/><path d="m351.7 2103.7c-2.4 0-4.3 1.9-4.3 4.3s1.9 4.4 4.3 4.4 4.4-2 4.4-4.4-2-4.3-4.4-4.3z"/><path d="m351.7 1970.1c-2.4 0-4.3 1.9-4.3 4.4 0 2.4 1.9 4.4 4.3 4.4s4.4-2 4.4-4.4c0-2.5-2-4.4-4.4-4.4z"/><path d="m351.7 1903.3c-2.4 0-4.3 1.9-4.3 4.3s1.9 4.4 4.3 4.4 4.4-1.9 4.4-4.4c0-2.3-2-4.3-4.4-4.3z"/><path d="m351.7 1769.7c-2.4 0-4.3 2-4.3 4.4s1.9 4.4 4.3 4.4 4.4-2 4.4-4.4-2-4.4-4.4-4.4z"/><path d="m351.7 1703c-2.4 0-4.3 1.9-4.3 4.4 0 2.4 1.9 4.3 4.3 4.3s4.4-1.9 4.4-4.3c0-2.5-2-4.4-4.4-4.4z"/><path d="m351.7 1569.4c-2.4 0-4.3 1.9-4.3 4.3s1.9 4.4 4.3 4.4 4.4-1.9 4.4-4.4c0-2.3-2-4.3-4.4-4.3z"/><path d="m351.7 1502.6c-2.4 0-4.3 1.9-4.3 4.4 0 2.4 1.9 4.3 4.3 4.3s4.4-1.9 4.4-4.3-2-4.4-4.4-4.4z"/><path d="m351.7 1369.1c-2.4 0-4.3 1.9-4.3 4.3s1.9 4.3 4.3 4.3 4.4-1.9 4.4-4.3-2-4.3-4.4-4.3z"/><path d="m351.7 1302.3c-2.4 0-4.3 2-4.3 4.4s1.9 4.3 4.3 4.3 4.4-2 4.4-4.3c0-2.5-2-4.4-4.4-4.4z"/><path d="m351.7 1168.7c-2.4 0-4.3 2-4.3 4.4s1.9 4.4 4.3 4.4 4.4-1.9 4.4-4.4c0-2.4-2-4.4-4.4-4.4z"/><path d="m351.7 1102c-2.4 0-4.3 2-4.3 4.4s1.9 4.4 4.3 4.4 4.4-2 4.4-4.4c0-2.5-2-4.4-4.4-4.4z"/><path d="m351.7 968.4c-2.4 0-4.3 1.9-4.3 4.4 0 2.4 1.9 4.4 4.3 4.4s4.4-2 4.4-4.4c0-2.5-2-4.4-4.4-4.4z"/><path d="m351.7 901.6c-2.4 0-4.3 2-4.3 4.4s1.9 4.4 4.3 4.4 4.4-1.9 4.4-4.4-2-4.4-4.4-4.4z"/><path d="m351.7 768.1c-2.4 0-4.3 2-4.3 4.4s1.9 4.3 4.3 4.3 4.4-1.9 4.4-4.3c0-2.5-2-4.4-4.4-4.4z"/><path d="m351.7 701.3c-2.4 0-4.3 1.9-4.3 4.4 0 2.4 1.9 4.4 4.3 4.4s4.4-2 4.4-4.4c0-2.5-2-4.4-4.4-4.4z"/><path d="m351.7 567.7c-2.4 0-4.3 1.9-4.3 4.3s1.9 4.4 4.3 4.4 4.4-2 4.4-4.4c0-2.3-2-4.3-4.4-4.3z"/><path d="m351.7 500.9c-2.4 0-4.3 2-4.3 4.4s1.9 4.3 4.3 4.3 4.4-1.9 4.4-4.3-2-4.4-4.4-4.4z"/><path d="m351.7 367.4c-2.4 0-4.3 2-4.3 4.4s1.9 4.4 4.3 4.4 4.4-2 4.4-4.4c0-2.5-2-4.4-4.4-4.4z"/><path d="m351.7 300.6c-2.4 0-4.3 1.9-4.3 4.3s1.9 4.4 4.3 4.4 4.4-2 4.4-4.4-2-4.3-4.4-4.3z"/><path d="m351.7 167c-2.4 0-4.3 1.9-4.3 4.4 0 2.4 1.9 4.4 4.3 4.4s4.4-2 4.4-4.4-2-4.4-4.4-4.4z"/><path d="m351.7 100.3c-2.4 0-4.3 2-4.3 4.4s1.9 4.3 4.3 4.3 4.4-1.9 4.4-4.3c0-2.5-2-4.4-4.4-4.4z"/><path d="m236 2370.8c-2.4 0-4.4 2-4.4 4.4s2 4.3 4.4 4.3 4.3-1.9 4.3-4.3c.1-2.5-1.8-4.4-4.3-4.4z"/><path d="m236 2304c-2.4 0-4.4 2-4.4 4.4s2 4.3 4.4 4.3 4.3-1.9 4.3-4.3c.1-2.5-1.8-4.4-4.3-4.4z"/><path d="m236 2170.4c-2.4 0-4.4 1.9-4.4 4.3s2 4.4 4.4 4.4 4.3-2 4.3-4.4c.1-2.3-1.8-4.3-4.3-4.3z"/><path d="m236 2103.7c-2.4 0-4.4 1.9-4.4 4.3s2 4.4 4.4 4.4 4.3-2 4.3-4.4c.1-2.4-1.8-4.3-4.3-4.3z"/><path d="m236 1970.1c-2.4 0-4.4 1.9-4.4 4.4 0 2.4 2 4.4 4.4 4.4s4.3-2 4.3-4.4c.1-2.5-1.8-4.4-4.3-4.4z"/><path d="m236 1903.3c-2.4 0-4.4 1.9-4.4 4.3s2 4.4 4.4 4.4 4.3-1.9 4.3-4.4c.1-2.3-1.8-4.3-4.3-4.3z"/><path d="m236 1769.7c-2.4 0-4.4 2-4.4 4.4s2 4.4 4.4 4.4 4.3-2 4.3-4.4c.1-2.4-1.8-4.4-4.3-4.4z"/><path d="m236 1703c-2.4 0-4.4 1.9-4.4 4.4 0 2.4 2 4.3 4.4 4.3s4.3-1.9 4.3-4.3c.1-2.5-1.8-4.4-4.3-4.4z"/><path d="m236 1569.4c-2.4 0-4.4 1.9-4.4 4.3s2 4.4 4.4 4.4 4.3-1.9 4.3-4.4c.1-2.3-1.8-4.3-4.3-4.3z"/><path d="m236 1502.6c-2.4 0-4.4 1.9-4.4 4.4 0 2.4 2 4.3 4.4 4.3s4.3-1.9 4.3-4.3c.1-2.4-1.8-4.4-4.3-4.4z"/><path d="m236 1369.1c-2.4 0-4.4 1.9-4.4 4.3s2 4.3 4.4 4.3 4.3-1.9 4.3-4.3c.1-2.4-1.8-4.3-4.3-4.3z"/><path d="m236 1302.3c-2.4 0-4.4 2-4.4 4.4s2 4.3 4.4 4.3 4.3-2 4.3-4.3c.1-2.5-1.8-4.4-4.3-4.4z"/><path d="m236 1168.7c-2.4 0-4.4 2-4.4 4.4s2 4.4 4.4 4.4 4.3-1.9 4.3-4.4c.1-2.4-1.8-4.4-4.3-4.4z"/><path d="m236 1102c-2.4 0-4.4 2-4.4 4.4s2 4.4 4.4 4.4 4.3-2 4.3-4.4c.1-2.5-1.8-4.4-4.3-4.4z"/><path d="m236 968.4c-2.4 0-4.4 1.9-4.4 4.4 0 2.4 2 4.4 4.4 4.4s4.3-2 4.3-4.4c.1-2.5-1.8-4.4-4.3-4.4z"/><path d="m236 901.6c-2.4 0-4.4 2-4.4 4.4s2 4.4 4.4 4.4 4.3-1.9 4.3-4.4-1.8-4.4-4.3-4.4z"/><path d="m236 768.1c-2.4 0-4.4 2-4.4 4.4s2 4.3 4.4 4.3 4.3-1.9 4.3-4.3c.1-2.5-1.8-4.4-4.3-4.4z"/><path d="m236 701.3c-2.4 0-4.4 1.9-4.4 4.4 0 2.4 2 4.4 4.4 4.4s4.3-2 4.3-4.4c.1-2.5-1.8-4.4-4.3-4.4z"/><path d="m236 567.7c-2.4 0-4.4 1.9-4.4 4.3s2 4.4 4.4 4.4 4.3-2 4.3-4.4c.1-2.3-1.8-4.3-4.3-4.3z"/><path d="m236 500.9c-2.4 0-4.4 2-4.4 4.4s2 4.3 4.4 4.3 4.3-1.9 4.3-4.3c.1-2.4-1.8-4.4-4.3-4.4z"/><path d="m236 367.4c-2.4 0-4.4 2-4.4 4.4s2 4.4 4.4 4.4 4.3-2 4.3-4.4c.1-2.5-1.8-4.4-4.3-4.4z"/><path d="m236 300.6c-2.4 0-4.4 1.9-4.4 4.3s2 4.4 4.4 4.4 4.3-2 4.3-4.4c.1-2.4-1.8-4.3-4.3-4.3z"/><path d="m236 167c-2.4 0-4.4 1.9-4.4 4.4 0 2.4 2 4.4 4.4 4.4s4.3-2 4.3-4.4c.1-2.4-1.8-4.4-4.3-4.4z"/><path d="m236 100.3c-2.4 0-4.4 2-4.4 4.4s2 4.3 4.4 4.3 4.3-1.9 4.3-4.3c.1-2.5-1.8-4.4-4.3-4.4z"/><path d="m120.4 2103.7c-2.4 0-4.4 1.9-4.4 4.3s2 4.4 4.4 4.4 4.4-2 4.4-4.4c-.1-2.4-2-4.3-4.4-4.3z"/><path d="m120.4 1970.1c-2.4 0-4.4 1.9-4.4 4.4 0 2.4 2 4.4 4.4 4.4s4.4-2 4.4-4.4c-.1-2.5-2-4.4-4.4-4.4z"/><path d="m120.4 1703c-2.4 0-4.4 1.9-4.4 4.4 0 2.4 2 4.3 4.4 4.3s4.4-1.9 4.4-4.3c-.1-2.5-2-4.4-4.4-4.4z"/><path d="m120.4 1502.6c-2.4 0-4.4 1.9-4.4 4.4 0 2.4 2 4.3 4.4 4.3s4.4-1.9 4.4-4.3c-.1-2.4-2-4.4-4.4-4.4z"/><path d="m120.4 1369.1c-2.4 0-4.4 1.9-4.4 4.3s2 4.3 4.4 4.3 4.4-1.9 4.4-4.3c-.1-2.4-2-4.3-4.4-4.3z"/><path d="m120.4 1102c-2.4 0-4.4 2-4.4 4.4s2 4.4 4.4 4.4 4.4-2 4.4-4.4c-.1-2.5-2-4.4-4.4-4.4z"/><path d="m120.4 901.6c-2.4 0-4.4 2-4.4 4.4s2 4.4 4.4 4.4 4.4-1.9 4.4-4.4-2-4.4-4.4-4.4z"/><path d="m120.4 768.1c-2.4 0-4.4 2-4.4 4.4s2 4.3 4.4 4.3 4.4-1.9 4.4-4.3c-.1-2.5-2-4.4-4.4-4.4z"/><path d="m120.4 300.6c-2.4 0-4.4 1.9-4.4 4.3s2 4.4 4.4 4.4 4.4-2 4.4-4.4c-.1-2.4-2-4.3-4.4-4.3z"/></g><path d="m392 420.6-40.3 23.3-40.3-23.3-.3.4 40.3 23.3v46.5l-40.3 23.3-.3.4v46.5l-40.3 23.3-40.1-23.3-.3.4 40.3 23.3v46.5l-40.3 23.3.3.4 40.3-23.3 40.3 23.3v46.5l-40.3 23.3-.3.4v46.5l-40.3 23.3.3.4 40.3-23.3 40.3 23.3v46.5l-40.3 23.3-.3.4v46.5l-40.3 23.3-40.3-23.3-.3.4 40.3 23.3v46.5l-40.3 23.3.3.4 40.3-23.3 40.3 23.3v46.5l.3.4 40.3 23.3v46.5l-40.3 23.3-40.3-23.3-.3.4 40.3 23.3v46.5l-40.3 23.3.3.4 40.3-23.3 40.3 23.3v46.5l-40.3 23.3-.3.4v46.5l.3.4 40.3 23.3v46.5l-40.3 23.3-40.3-23.3-.3.4 40.3 23.3v46.5l-40.3 23.3.3.4 40.3-23.3 40.3 23.3v46.5l-40.3 23.3-.3.4v46.5l.3.4 40.3 23.3v46.5l-40.3 23.3.3.4 40.3-23.3 40.3 23.3v46.5l-40.3 23.3-.3.4v46.5l-40.3 23.3-40.3-23.3-.3.4 40.3 23.3v46.5l-40.3 23.3.3.4 40.3-23.3 40.3 23.3v46.5l.3.4 40.3 23.3v46.5l-40.3 23.3.3.4 40.3-23.3 40.3 23.3v46.5h.5v-46.5l40.3-23.3 40.3 23.3.3-.4-40.3-23.3v-46.5l40.3-23.3.3-.4v-46.5l-.3-.4-40.3-23.3v-46.5l40.3-23.3 40.3 23.3.3-.4-40.3-23.3v-46.5l40.3-23.3-.3-.4-40.3 23.3-40.3-23.3v-46.4l40.3-23.3.3-.4v-46.5l-.3-.4-40.3-23.3v-46.5l40.3-23.3 40.3 23.3.3-.4-40.3-23.3v-46.5l-.3-.4-40.3-23.3v-46.5l40.3-23.3 40.3 23.3.3-.4-40.3-23.3v-46.5l40.3-23.3-.3-.4-40.3 23.3-40.3-23.3v-46.5l40.3-23.3.3-.4v-46.5l-.3-.4-40.3-23.3v-46.5l40.3-23.3 40.3 23.3.3-.4-40.3-23.3v-46.5l-.3-.4-40.3-23.3v-46.5l40.3-23.3 40.3 23.3.3-.4-40.3-23.3v-46.5l40.3-23.3-.3-.4-40.3 23.3-40.6-23.3v-46.5l-.3-.4-40.3-23.3v-46.5l40.3-23.3 40.3 23.3.3-.4-40.3-23.3v-46.5l40.3-23.3-.3-.4-40.3 23.3-40.3-23.3v-46.5l40.3-23.3.3-.4v-46.5l40.3-23.3 40.3 23.3.3-.4-40.3-23.4v-46.5l-.3-.4-40.3-23.3v-46.5l40.3-23.3-.3-.4-40.3 23.3-40.3-23.3v-46.5h-.4zm-80.6 93.9 40.3-23.3 40.3 23.3v46.5l-40.3 23.3-40.3-23.3zm-40.5 116.7v-46.5l40.3-23.3 40.3 23.3v46.5l-40.3 23.3zm0 140.5v-46.5l40.3-23.3 40.3 23.3v46.5l-40.3 23.3zm0 93.9 40.3-23.3 40.3 23.3v46.5l-40.3 23.3-40.3-23.3zm80.8 46.9 40.3 23.3v46.5l-40.3 23.3-40.3-23.3v-46.5zm-121.3 69.8v-46.5l40.3-23.3 40.3 23.3v46.5l-40.3 23.3zm40.5 70.2v-46.5l40.3-23.3 40.3 23.3v46.5l-40.3 23.3zm40.5 23.7 40.3-23.3 40.3 23.3v46.5l-40.3 23.3-40.3-23.3zm-40.5 116.7v-46.5l40.3-23.3 40.3 23.3v46.5l-40.3 23.3zm40.5 23.7 40.3-23.3 40.3 23.3v46.5l-40.3 23.3-40.3-23.3zm-40.5 116.7v-46.5l40.3-23.3 40.3 23.3v46.5l-40.3 23.3zm40.5 23.7 40.3-23.3 40.3 23.3v46.5l-40.3 23.3-40.3-23.3zm-40.5 116.7v-46.5l40.3-23.3 40.3 23.3v46.5l-40.3 23.3zm40.5 23.7 40.3-23.3 40.3 23.3v46.5l-40.3 23.3-40.3-23.3zm-40.5 116.7v-46.5l40.3-23.3 40.3 23.3v46.5l-40.3 23.3zm40.5 70.2v-46.5l40.3-23.3 40.3 23.3v46.5l-40.3 23.3zm0 93.9 40.3-23.3 40.3 23.3v46.5l-40.3 23.3-40.3-23.3zm-40.5 116.7v-46.5l40.3-23.3 40.3 23.3v46.5l-40.3 23.3zm40.5 70.3v-46.5l40.3-23.3 40.3 23.3v46.5l-40.3 23.3zm121.1 70.2-40.3 23.3-40.3-23.3v-46.5l40.3-23.3 40.3 23.3zm40.6-116.8v46.5l-40.3 23.3-40.3-23.3v-46.5l40.3-23.3zm-40.6-23.7-40.3 23.3-40.3-23.3v-46.5l40.3-23.3 40.3 23.3zm40.6-116.7v46.5l-40.3 23.3-40.3-23.3v-46.5l40.3-23.3zm-40.6-23.7-40.3 23.3-40.3-23.3v-46.5l40.3-23.3 40.3 23.3zm40.6-116.7v46.5l-40.3 23.3-40.3-23.3v-46.5l40.3-23.3zm-40.6-23.7-40.3 23.3-40.3-23.3v-46.5l40.3-23.3 40.3 23.3zm40.6-116.7v46.5l-40.3 23.3-40.3-23.3v-46.5l40.3-23.3zm-40.6-23.7-40.3 23.3-40.3-23.3v-46.5l40.3-23.3 40.3 23.3zm40.6-116.7v46.5l-40.3 23.3-40.3-23.3v-46.5l40.3-23.3zm-40.6-23.7-40.3 23.3-40.3-23.3v-46.5l40.3-23.3 40.3 23.3zm40.6-116.7v46.5l-40.3 23.3-40.3-23.3v-46.5l40.3-23.3zm-40.6-23.7-40.3 23.3-40.3-23.3v-46.5l40.3-23.3 40.3 23.3zm40.6-116.7v46.5l-40.3 23.3-40.3-23.3v-46.5l40.3-23.3zm-40.6-23.7-40.3 23.3-40.3-23.3v-46.5l40.3-23.3 40.3 23.3zm40.6-116.7v46.5l-40.3 23.3-40.3-23.3v-46.5l40.3-23.3zm-40.6-70.2v46.5l-40.3 23.3-40.2-23.3v-46.5l40.3-23.3zm-40.5-23.7-40.3 23.3-40.3-23.3v-46.5l40.3-23.3 40.3 23.3zm40.5-116.8v46.5l-40.3 23.3-40.2-23.2v-46.5l40.3-23.3zm-40.5-23.6-40.3 23.3-40.3-23.3v-46.5l40.3-23.3 40.3 23.3zm40.5-70.3-40.3 23.3-40.2-23.3v-46.5l40.3-23.3 40.3 23.3v46.5zm40.6-116.7v46.5l-40.3 23.3-40.3-23.3v-46.5l40.3-23.3zm-40.6-70.2v46.5l-40.3 23.3-40.2-23.3v-46.5l40.3-23.3z"/><path d="m230.1 1915.4c1.7 0 3.1 1.4 3.1 3.1s-1.4 3.1-3.1 3.1-3.1-1.4-3.1-3.1 1.4-3.1 3.1-3.1z"/><path d="m230.1 1821.8c1.7 0 3.1 1.4 3.1 3.1s-1.4 3.1-3.1 3.1-3.1-1.4-3.1-3.1c.1-1.7 1.4-3.1 3.1-3.1z"/><path d="m230.1 1494.2c1.7 0 3.1 1.4 3.1 3.1s-1.4 3.1-3.1 3.1-3.1-1.4-3.1-3.1c.1-1.7 1.4-3.1 3.1-3.1z"/><path d="m230.1 1400.6c1.7 0 3.1 1.4 3.1 3.1s-1.4 3.1-3.1 3.1-3.1-1.4-3.1-3.1c.1-1.7 1.4-3.1 3.1-3.1z"/><path d="m230.1 1213.4c1.7 0 3.1 1.4 3.1 3.1s-1.4 3-3.1 3-3.1-1.4-3.1-3c.1-1.7 1.4-3.1 3.1-3.1z"/><path d="m230.1 1119.8c1.7 0 3.1 1.4 3.1 3.1s-1.4 3.1-3.1 3.1-3.1-1.4-3.1-3.1c.1-1.8 1.4-3.1 3.1-3.1z"/><path d="m230.1 979.4c1.7 0 3.1 1.4 3.1 3.1s-1.4 3-3.1 3-3.1-1.4-3.1-3c.1-1.8 1.4-3.1 3.1-3.1z"/><path d="m230.1 932.6c1.7 0 3.1 1.4 3.1 3.1s-1.4 3.1-3.1 3.1-3.1-1.4-3.1-3.1c.1-1.8 1.4-3.1 3.1-3.1z"/><path d="m230.1 792.2c1.7 0 3.1 1.4 3.1 3.1s-1.4 3-3.1 3-3.1-1.4-3.1-3c.1-1.8 1.4-3.1 3.1-3.1z"/><path d="m230.1 651.7c1.7 0 3.1 1.4 3.1 3.1s-1.4 3.1-3.1 3.1-3.1-1.4-3.1-3.1c.1-1.7 1.4-3.1 3.1-3.1z"/><path d="m230.1 558.1c1.7 0 3.1 1.4 3.1 3.1s-1.4 3-3.1 3-3.1-1.4-3.1-3c.1-1.7 1.4-3.1 3.1-3.1z"/><path d="m311.2 2055.8c1.7 0 3.1 1.4 3.1 3.1s-1.4 3-3.1 3-3.1-1.4-3.1-3c0-1.7 1.4-3.1 3.1-3.1z"/><path d="m311.2 1962.2c1.7 0 3.1 1.4 3.1 3.1s-1.4 3.1-3.1 3.1-3.1-1.4-3.1-3.1 1.4-3.1 3.1-3.1z"/><path d="m311.2 1915.4c1.7 0 3.1 1.4 3.1 3.1s-1.4 3.1-3.1 3.1-3.1-1.4-3.1-3.1 1.4-3.1 3.1-3.1z"/><path d="m311.2 1821.8c1.7 0 3.1 1.4 3.1 3.1s-1.4 3-3.1 3-3.1-1.4-3.1-3c0-1.7 1.4-3.1 3.1-3.1z"/><path d="m311.2 1775c1.7 0 3.1 1.4 3.1 3.1s-1.4 3.1-3.1 3.1-3.1-1.4-3.1-3.1 1.4-3.1 3.1-3.1z"/><path d="m311.2 1681.4c1.7 0 3.1 1.4 3.1 3.1s-1.4 3-3.1 3-3.1-1.4-3.1-3c0-1.7 1.4-3.1 3.1-3.1z"/><path d="m311.2 1634.6c1.7 0 3.1 1.4 3.1 3.1s-1.4 3.1-3.1 3.1-3.1-1.4-3.1-3.1 1.4-3.1 3.1-3.1z"/><path d="m311.2 1541c1.7 0 3.1 1.4 3.1 3.1s-1.4 3-3.1 3-3.1-1.4-3.1-3c0-1.8 1.4-3.1 3.1-3.1z"/><path d="m311.2 1494.2c1.7 0 3.1 1.4 3.1 3.1s-1.4 3.1-3.1 3.1-3.1-1.4-3.1-3.1c0-1.8 1.4-3.1 3.1-3.1z"/><path d="m311.2 1400.6c1.7 0 3.1 1.4 3.1 3.1s-1.4 3.1-3.1 3.1-3.1-1.4-3.1-3.1c0-1.8 1.4-3.1 3.1-3.1z"/><path d="m311.2 1353.8c1.7 0 3.1 1.4 3.1 3.1s-1.4 3.1-3.1 3.1-3.1-1.4-3.1-3.1c0-1.8 1.4-3.1 3.1-3.1z"/><path d="m311.2 1260.2c1.7 0 3.1 1.4 3.1 3.1s-1.4 3.1-3.1 3.1-3.1-1.4-3.1-3.1c0-1.8 1.4-3.1 3.1-3.1z"/><path d="m311.2 1213.4c1.7 0 3.1 1.4 3.1 3 0 1.7-1.4 3.1-3.1 3.1s-3.1-1.4-3.1-3.1 1.4-3 3.1-3z"/><path d="m311.2 1119.7c1.7 0 3.1 1.4 3.1 3.1s-1.4 3.1-3.1 3.1-3.1-1.4-3.1-3.1 1.4-3.1 3.1-3.1z"/><path d="m311.2 1073c1.7 0 3.1 1.4 3.1 3 0 1.7-1.4 3.1-3.1 3.1s-3.1-1.4-3.1-3.1 1.4-3 3.1-3z"/><path d="m311.2 979.3c1.7 0 3.1 1.4 3.1 3.1s-1.4 3-3.1 3-3.1-1.4-3.1-3c0-1.7 1.4-3.1 3.1-3.1z"/><circle cx="311.2" cy="935.6" r="3.1"/><path d="m311.2 838.9c1.7 0 3.1 1.4 3.1 3 0 1.7-1.4 3.1-3.1 3.1s-3.1-1.4-3.1-3.1c0-1.6 1.4-3 3.1-3z"/><path d="m311.2 792.1c1.7 0 3.1 1.4 3.1 3 0 1.7-1.4 3.1-3.1 3.1s-3.1-1.4-3.1-3.1c0-1.6 1.4-3 3.1-3z"/><path d="m311.2 698.5c1.7 0 3.1 1.4 3.1 3.1s-1.4 3-3.1 3-3.1-1.4-3.1-3 1.4-3.1 3.1-3.1z"/><path d="m311.2 651.7c1.7 0 3.1 1.4 3.1 3.1s-1.4 3.1-3.1 3.1-3.1-1.4-3.1-3.1 1.4-3.1 3.1-3.1z"/><circle cx="311.2" cy="561.2" r="3.1"/><path d="m311.2 511.3c1.7 0 3.1 1.4 3.1 3.1s-1.4 3-3.1 3-3.1-1.4-3.1-3 1.4-3.1 3.1-3.1z"/><path d="m311.2 417.7c1.7 0 3.1 1.4 3.1 3 0 1.7-1.4 3.1-3.1 3.1s-3.1-1.4-3.1-3.1c0-1.6 1.4-3 3.1-3z"/><path d="m392.2 2102.6c1.7 0 3 1.4 3 3 0 1.7-1.4 3.1-3 3.1-1.7 0-3.1-1.4-3.1-3.1.1-1.6 1.5-3 3.1-3z"/><path d="m392.2 2055.8c1.7 0 3 1.4 3 3 0 1.7-1.4 3.1-3 3.1-1.7 0-3.1-1.4-3.1-3.1.1-1.6 1.5-3 3.1-3z"/><path d="m392.2 1962.2c1.7 0 3 1.4 3 3.1s-1.4 3.1-3 3.1c-1.7 0-3.1-1.4-3.1-3.1.1-1.8 1.5-3.1 3.1-3.1z"/><path d="m392.2 1915.4c1.7 0 3 1.4 3 3.1s-1.4 3.1-3 3.1c-1.7 0-3.1-1.4-3.1-3.1.1-1.8 1.5-3.1 3.1-3.1z"/><path d="m392.2 1821.8c1.7 0 3 1.4 3 3 0 1.7-1.4 3.1-3 3.1-1.7 0-3.1-1.4-3.1-3.1.1-1.7 1.5-3 3.1-3z"/><path d="m392.2 1775c1.7 0 3 1.4 3 3.1s-1.4 3.1-3 3.1c-1.7 0-3.1-1.4-3.1-3.1.1-1.8 1.5-3.1 3.1-3.1z"/><path d="m392.2 1681.4c1.7 0 3 1.4 3 3 0 1.7-1.4 3.1-3 3.1-1.7 0-3.1-1.4-3.1-3.1.1-1.7 1.5-3 3.1-3z"/><path d="m392.2 1634.6c1.7 0 3 1.4 3 3.1s-1.4 3-3 3c-1.7 0-3.1-1.4-3.1-3 .1-1.8 1.5-3.1 3.1-3.1z"/><path d="m392.2 1541c1.7 0 3 1.4 3 3 0 1.7-1.4 3.1-3 3.1-1.7 0-3.1-1.4-3.1-3.1.1-1.7 1.5-3 3.1-3z"/><path d="m392.2 1494.1c1.7 0 3 1.4 3 3.1s-1.4 3.1-3 3.1c-1.7 0-3.1-1.4-3.1-3.1.1-1.7 1.5-3.1 3.1-3.1z"/><path d="m392.2 1400.5c1.7 0 3 1.4 3 3.1s-1.4 3.1-3 3.1c-1.7 0-3.1-1.4-3.1-3.1.1-1.7 1.5-3.1 3.1-3.1z"/><path d="m392.2 1353.7c1.7 0 3 1.4 3 3.1s-1.4 3.1-3 3.1c-1.7 0-3.1-1.4-3.1-3.1.1-1.7 1.5-3.1 3.1-3.1z"/><path d="m392.2 1260.1c1.7 0 3 1.4 3 3.1s-1.4 3-3 3c-1.7 0-3.1-1.4-3.1-3 .1-1.7 1.5-3.1 3.1-3.1z"/><path d="m392.2 1213.3c1.7 0 3 1.4 3 3 0 1.7-1.4 3.1-3 3.1-1.7 0-3.1-1.4-3.1-3.1.1-1.6 1.5-3 3.1-3z"/><path d="m392.2 1119.7c1.7 0 3 1.4 3 3.1s-1.4 3.1-3 3.1c-1.7 0-3.1-1.4-3.1-3.1.1-1.7 1.5-3.1 3.1-3.1z"/><path d="m392.2 1072.9c1.7 0 3 1.4 3 3.1s-1.4 3-3 3c-1.7 0-3.1-1.4-3.1-3 .1-1.7 1.5-3.1 3.1-3.1z"/><path d="m392.2 979.3c1.7 0 3 1.4 3 3.1s-1.4 3.1-3 3.1c-1.7 0-3.1-1.4-3.1-3.1.1-1.7 1.5-3.1 3.1-3.1z"/><path d="m392.2 932.5c1.7 0 3 1.4 3 3 0 1.7-1.4 3.1-3 3.1-1.7 0-3.1-1.4-3.1-3.1.1-1.6 1.5-3 3.1-3z"/><path d="m392.2 838.9c1.7 0 3 1.4 3 3.1s-1.4 3.1-3 3.1c-1.7 0-3.1-1.4-3.1-3.1s1.5-3.1 3.1-3.1z"/><path d="m392.2 792.1c1.7 0 3 1.4 3 3.1s-1.4 3.1-3 3.1c-1.7 0-3.1-1.4-3.1-3.1.1-1.7 1.5-3.1 3.1-3.1z"/><path d="m392.2 698.5c1.7 0 3 1.4 3 3.1s-1.4 3-3 3c-1.7 0-3.1-1.4-3.1-3 .1-1.7 1.5-3.1 3.1-3.1z"/><path d="m392.2 651.7c1.7 0 3 1.4 3 3.1s-1.4 3.1-3 3.1c-1.7 0-3.1-1.4-3.1-3.1.1-1.8 1.5-3.1 3.1-3.1z"/><path d="m392.2 558.1c1.7 0 3 1.4 3 3 0 1.7-1.4 3.1-3 3.1-1.7 0-3.1-1.4-3.1-3.1.1-1.7 1.5-3 3.1-3z"/><path d="m392.2 511.3c1.7 0 3 1.4 3 3.1s-1.4 3.1-3 3.1c-1.7 0-3.1-1.4-3.1-3.1.1-1.8 1.5-3.1 3.1-3.1z"/><path d="m392.2 417.7c1.7 0 3 1.4 3 3.1s-1.4 3-3 3c-1.7 0-3.1-1.4-3.1-3 .1-1.8 1.5-3.1 3.1-3.1z"/><path d="m392.2 370.9c1.7 0 3 1.4 3 3.1s-1.4 3.1-3 3.1c-1.7 0-3.1-1.4-3.1-3.1.1-1.8 1.5-3.1 3.1-3.1z"/><path d="m473.3 2055.8c1.7 0 3.1 1.4 3.1 3.1s-1.4 3.1-3.1 3.1-3.1-1.4-3.1-3.1c.1-1.8 1.4-3.1 3.1-3.1z"/><path d="m473.3 1962.2c1.7 0 3.1 1.4 3.1 3 0 1.7-1.4 3.1-3.1 3.1s-3.1-1.4-3.1-3.1c.1-1.7 1.4-3 3.1-3z"/><path d="m473.3 1915.3c1.7 0 3.1 1.4 3.1 3.1s-1.4 3.1-3.1 3.1-3.1-1.4-3.1-3.1c.1-1.7 1.4-3.1 3.1-3.1z"/><path d="m473.3 1821.7c1.7 0 3.1 1.4 3.1 3 0 1.7-1.4 3.1-3.1 3.1s-3.1-1.4-3.1-3.1c.1-1.6 1.4-3 3.1-3z"/><path d="m473.3 1774.9c1.7 0 3.1 1.4 3.1 3 0 1.7-1.4 3.1-3.1 3.1s-3.1-1.4-3.1-3.1c.1-1.6 1.4-3 3.1-3z"/><path d="m473.3 1681.3c1.7 0 3.1 1.4 3.1 3.1s-1.4 3.1-3.1 3.1-3.1-1.4-3.1-3.1c.1-1.7 1.4-3.1 3.1-3.1z"/><path d="m473.3 1634.5c1.7 0 3.1 1.4 3.1 3 0 1.7-1.4 3.1-3.1 3.1s-3.1-1.4-3.1-3.1c.1-1.6 1.4-3 3.1-3z"/><path d="m473.3 1540.9c1.7 0 3.1 1.4 3.1 3 0 1.7-1.4 3.1-3.1 3.1s-3.1-1.4-3.1-3.1c.1-1.6 1.4-3 3.1-3z"/><path d="m473.3 1494.1c1.7 0 3.1 1.4 3.1 3 0 1.7-1.4 3.1-3.1 3.1s-3.1-1.4-3.1-3.1c.1-1.6 1.4-3 3.1-3z"/><path d="m473.3 1400.5c1.7 0 3.1 1.4 3.1 3 0 1.7-1.4 3.1-3.1 3.1s-3.1-1.4-3.1-3.1c.1-1.6 1.4-3 3.1-3z"/><path d="m473.3 1353.7c1.7 0 3.1 1.4 3.1 3.1s-1.4 3.1-3.1 3.1-3.1-1.4-3.1-3.1c.1-1.7 1.4-3.1 3.1-3.1z"/><path d="m473.3 1260.1c1.7 0 3.1 1.4 3.1 3 0 1.7-1.4 3.1-3.1 3.1s-3.1-1.4-3.1-3.1c.1-1.6 1.4-3 3.1-3z"/><path d="m473.3 1213.3c1.7 0 3.1 1.4 3.1 3.1s-1.4 3-3.1 3-3.1-1.4-3.1-3c.1-1.7 1.4-3.1 3.1-3.1z"/><path d="m473.3 1119.7c1.7 0 3.1 1.4 3.1 3 0 1.7-1.4 3.1-3.1 3.1s-3.1-1.4-3.1-3.1c.1-1.6 1.4-3 3.1-3z"/><path d="m473.3 1072.9c1.7 0 3.1 1.4 3.1 3.1s-1.4 3-3.1 3-3.1-1.4-3.1-3c.1-1.7 1.4-3.1 3.1-3.1z"/><path d="m473.3 979.3c1.7 0 3.1 1.4 3.1 3.1s-1.4 3.1-3.1 3.1-3.1-1.4-3.1-3.1c.1-1.8 1.4-3.1 3.1-3.1z"/><path d="m473.3 932.5c1.7 0 3.1 1.4 3.1 3 0 1.7-1.4 3.1-3.1 3.1s-3.1-1.4-3.1-3.1c.1-1.7 1.4-3 3.1-3z"/><path d="m473.3 792.1c1.7 0 3.1 1.4 3.1 3.1s-1.4 3.1-3.1 3.1-3.1-1.4-3.1-3.1c.1-1.8 1.4-3.1 3.1-3.1z"/><path d="m473.3 698.5c1.7 0 3.1 1.4 3.1 3.1s-1.4 3.1-3.1 3.1-3.1-1.4-3.1-3.1c.1-1.8 1.4-3.1 3.1-3.1z"/><path d="m473.3 558c1.7 0 3.1 1.4 3.1 3.1s-1.4 3.1-3.1 3.1-3.1-1.4-3.1-3.1c.1-1.7 1.4-3.1 3.1-3.1z"/><path d="m473.3 511.2c1.7 0 3.1 1.4 3.1 3.1s-1.4 3.1-3.1 3.1-3.1-1.4-3.1-3.1c.1-1.7 1.4-3.1 3.1-3.1z"/><path d="m473.3 417.6c1.7 0 3.1 1.4 3.1 3.1s-1.4 3-3.1 3-3.1-1.4-3.1-3c.1-1.7 1.4-3.1 3.1-3.1z"/><circle cx="189.6" cy="1005.8" r="3.1"/><path d="m189.6 909.2c1.7 0 3.1 1.4 3.1 3.1s-1.4 3-3.1 3-3.1-1.4-3.1-3c0-1.8 1.4-3.1 3.1-3.1z"/><path d="m270.6 1892c1.7 0 3.1 1.4 3.1 3 0 1.7-1.4 3.1-3.1 3.1s-3.1-1.4-3.1-3.1c.1-1.6 1.5-3 3.1-3z"/><path d="m270.6 1845.2c1.7 0 3.1 1.4 3.1 3 0 1.7-1.4 3.1-3.1 3.1s-3.1-1.4-3.1-3.1c.1-1.6 1.5-3 3.1-3z"/><path d="m270.6 1704.8c1.7 0 3.1 1.4 3.1 3 0 1.7-1.4 3.1-3.1 3.1s-3.1-1.4-3.1-3.1c.1-1.6 1.5-3 3.1-3z"/><path d="m270.6 1611.2c1.7 0 3.1 1.4 3.1 3.1s-1.4 3.1-3.1 3.1-3.1-1.4-3.1-3.1c.1-1.7 1.5-3.1 3.1-3.1z"/><path d="m270.6 1564.4c1.7 0 3.1 1.4 3.1 3.1s-1.4 3-3.1 3-3.1-1.4-3.1-3c.1-1.7 1.5-3.1 3.1-3.1z"/><path d="m270.6 1470.8c1.7 0 3.1 1.4 3.1 3 0 1.7-1.4 3.1-3.1 3.1s-3.1-1.4-3.1-3.1c.1-1.6 1.5-3 3.1-3z"/><path d="m270.6 1424c1.7 0 3.1 1.4 3.1 3.1s-1.4 3-3.1 3-3.1-1.4-3.1-3c.1-1.7 1.5-3.1 3.1-3.1z"/><path d="m270.6 1330.4c1.7 0 3.1 1.4 3.1 3 0 1.7-1.4 3.1-3.1 3.1s-3.1-1.4-3.1-3.1c.1-1.6 1.5-3 3.1-3z"/><path d="m270.6 1283.6c1.7 0 3.1 1.4 3.1 3.1s-1.4 3-3.1 3-3.1-1.4-3.1-3c.1-1.7 1.5-3.1 3.1-3.1z"/><path d="m270.6 1190c1.7 0 3.1 1.4 3.1 3.1s-1.4 3.1-3.1 3.1-3.1-1.4-3.1-3.1c.1-1.7 1.5-3.1 3.1-3.1z"/><path d="m270.6 1143.2c1.7 0 3.1 1.4 3.1 3.1s-1.4 3.1-3.1 3.1-3.1-1.4-3.1-3.1c.1-1.7 1.5-3.1 3.1-3.1z"/><path d="m270.6 1049.6c1.7 0 3.1 1.4 3.1 3.1s-1.4 3.1-3.1 3.1-3.1-1.4-3.1-3.1c.1-1.8 1.5-3.1 3.1-3.1z"/><path d="m270.6 1002.8c1.7 0 3.1 1.4 3.1 3.1s-1.4 3.1-3.1 3.1-3.1-1.4-3.1-3.1c.1-1.8 1.5-3.1 3.1-3.1z"/><path d="m270.6 909.2c1.7 0 3.1 1.4 3.1 3.1s-1.4 3-3.1 3-3.1-1.4-3.1-3c.1-1.8 1.5-3.1 3.1-3.1z"/><path d="m270.6 862.4c1.7 0 3.1 1.4 3.1 3.1s-1.4 3.1-3.1 3.1-3.1-1.4-3.1-3.1c.1-1.8 1.5-3.1 3.1-3.1z"/><path d="m270.6 768.8c1.7 0 3.1 1.4 3.1 3 0 1.7-1.4 3.1-3.1 3.1s-3.1-1.4-3.1-3.1c.1-1.7 1.5-3 3.1-3z"/><path d="m270.6 721.9c1.7 0 3.1 1.4 3.1 3.1s-1.4 3-3.1 3-3.1-1.4-3.1-3c.1-1.7 1.5-3.1 3.1-3.1z"/><path d="m270.6 628.3c1.7 0 3.1 1.4 3.1 3.1s-1.4 3.1-3.1 3.1-3.1-1.4-3.1-3.1c.1-1.7 1.5-3.1 3.1-3.1z"/><path d="m270.6 581.5c1.7 0 3.1 1.4 3.1 3 0 1.7-1.4 3.1-3.1 3.1s-3.1-1.4-3.1-3.1c.1-1.6 1.5-3 3.1-3z"/><path d="m351.7 2032.5c1.7 0 3 1.4 3 3.1s-1.4 3-3 3c-1.7 0-3.1-1.4-3.1-3 .1-1.8 1.4-3.1 3.1-3.1z"/><path d="m351.7 1985.6c1.7 0 3 1.4 3 3.1s-1.4 3-3 3c-1.7 0-3.1-1.4-3.1-3 .1-1.7 1.4-3.1 3.1-3.1z"/><path d="m351.7 1892c1.7 0 3 1.4 3 3 0 1.7-1.4 3.1-3 3.1-1.7 0-3.1-1.4-3.1-3.1.1-1.6 1.4-3 3.1-3z"/><path d="m351.7 1845.2c1.7 0 3 1.4 3 3 0 1.7-1.4 3.1-3 3.1-1.7 0-3.1-1.4-3.1-3.1.1-1.6 1.4-3 3.1-3z"/><path d="m351.7 1751.6c1.7 0 3 1.4 3 3.1s-1.4 3.1-3 3.1c-1.7 0-3.1-1.4-3.1-3.1.1-1.7 1.4-3.1 3.1-3.1z"/><path d="m351.7 1704.8c1.7 0 3 1.4 3 3 0 1.7-1.4 3.1-3 3.1-1.7 0-3.1-1.4-3.1-3.1.1-1.6 1.4-3 3.1-3z"/><path d="m351.7 1611.2c1.7 0 3 1.4 3 3.1s-1.4 3.1-3 3.1c-1.7 0-3.1-1.4-3.1-3.1.1-1.7 1.4-3.1 3.1-3.1z"/><path d="m351.7 1564.4c1.7 0 3 1.4 3 3.1s-1.4 3-3 3c-1.7 0-3.1-1.4-3.1-3 .1-1.7 1.4-3.1 3.1-3.1z"/><path d="m351.7 1470.8c1.7 0 3 1.4 3 3 0 1.7-1.4 3.1-3 3.1-1.7 0-3.1-1.4-3.1-3.1.1-1.6 1.4-3 3.1-3z"/><path d="m351.7 1424c1.7 0 3 1.4 3 3.1s-1.4 3-3 3c-1.7 0-3.1-1.4-3.1-3 .1-1.7 1.4-3.1 3.1-3.1z"/><path d="m351.7 1330.4c1.7 0 3 1.4 3 3 0 1.7-1.4 3.1-3 3.1-1.7 0-3.1-1.4-3.1-3.1.1-1.6 1.4-3 3.1-3z"/><path d="m351.7 1283.6c1.7 0 3 1.4 3 3.1s-1.4 3-3 3c-1.7 0-3.1-1.4-3.1-3 .1-1.7 1.4-3.1 3.1-3.1z"/><path d="m351.7 1190c1.7 0 3 1.4 3 3.1s-1.4 3.1-3 3.1c-1.7 0-3.1-1.4-3.1-3.1.1-1.7 1.4-3.1 3.1-3.1z"/><path d="m351.7 1143.2c1.7 0 3 1.4 3 3.1s-1.4 3.1-3 3.1c-1.7 0-3.1-1.4-3.1-3.1.1-1.7 1.4-3.1 3.1-3.1z"/><path d="m351.7 1049.6c1.7 0 3 1.4 3 3.1s-1.4 3.1-3 3.1c-1.7 0-3.1-1.4-3.1-3.1.1-1.8 1.4-3.1 3.1-3.1z"/><path d="m351.7 1002.8c1.7 0 3 1.4 3 3.1s-1.4 3.1-3 3.1c-1.7 0-3.1-1.4-3.1-3.1.1-1.8 1.4-3.1 3.1-3.1z"/><path d="m351.7 909.2c1.7 0 3 1.4 3 3.1s-1.4 3-3 3c-1.7 0-3.1-1.4-3.1-3 .1-1.8 1.4-3.1 3.1-3.1z"/><path d="m351.7 862.4c1.7 0 3 1.4 3 3.1s-1.4 3.1-3 3.1c-1.7 0-3.1-1.4-3.1-3.1.1-1.8 1.4-3.1 3.1-3.1z"/><path d="m351.7 768.8c1.7 0 3 1.4 3 3 0 1.7-1.4 3.1-3 3.1-1.7 0-3.1-1.4-3.1-3.1.1-1.7 1.4-3 3.1-3z"/><path d="m351.7 721.9c1.7 0 3 1.4 3 3.1s-1.4 3-3 3c-1.7 0-3.1-1.4-3.1-3 .1-1.7 1.4-3.1 3.1-3.1z"/><path d="m351.7 628.3c1.7 0 3 1.4 3 3.1s-1.4 3.1-3 3.1c-1.7 0-3.1-1.4-3.1-3.1.1-1.7 1.4-3.1 3.1-3.1z"/><path d="m351.7 581.5c1.7 0 3 1.4 3 3 0 1.7-1.4 3.1-3 3.1-1.7 0-3.1-1.4-3.1-3.1.1-1.6 1.4-3 3.1-3z"/><path d="m351.7 487.9c1.7 0 3 1.4 3 3.1s-1.4 3.1-3 3.1c-1.7 0-3.1-1.4-3.1-3.1.1-1.7 1.4-3.1 3.1-3.1z"/><path d="m351.7 441.1c1.7 0 3 1.4 3 3.1s-1.4 3-3 3c-1.7 0-3.1-1.4-3.1-3 .1-1.7 1.4-3.1 3.1-3.1z"/><path d="m432.8 2032.5c1.7 0 3.1 1.4 3.1 3.1s-1.4 3-3.1 3-3-1.4-3-3c-.1-1.8 1.3-3.1 3-3.1z"/><path d="m432.8 1985.6c1.7 0 3.1 1.4 3.1 3.1s-1.4 3-3.1 3-3-1.4-3-3c-.1-1.7 1.3-3.1 3-3.1z"/><path d="m432.8 1892c1.7 0 3.1 1.4 3.1 3 0 1.7-1.4 3.1-3.1 3.1s-3-1.4-3-3.1c-.1-1.6 1.3-3 3-3z"/><path d="m432.8 1845.2c1.7 0 3.1 1.4 3.1 3 0 1.7-1.4 3.1-3.1 3.1s-3-1.4-3-3.1c-.1-1.6 1.3-3 3-3z"/><path d="m432.8 1751.6c1.7 0 3.1 1.4 3.1 3.1s-1.4 3.1-3.1 3.1-3-1.4-3-3.1c-.1-1.7 1.3-3.1 3-3.1z"/><path d="m432.8 1704.8c1.7 0 3.1 1.4 3.1 3 0 1.7-1.4 3.1-3.1 3.1s-3-1.4-3-3.1c-.1-1.6 1.3-3 3-3z"/><path d="m432.8 1611.2c1.7 0 3.1 1.4 3.1 3.1s-1.4 3.1-3.1 3.1-3-1.4-3-3.1c-.1-1.7 1.3-3.1 3-3.1z"/><path d="m432.8 1564.4c1.7 0 3.1 1.4 3.1 3.1s-1.4 3-3.1 3-3-1.4-3-3c-.1-1.7 1.3-3.1 3-3.1z"/><path d="m432.8 1470.8c1.7 0 3.1 1.4 3.1 3 0 1.7-1.4 3.1-3.1 3.1s-3-1.4-3-3.1c-.1-1.6 1.3-3 3-3z"/><path d="m432.8 1424c1.7 0 3.1 1.4 3.1 3.1s-1.4 3-3.1 3-3-1.4-3-3c-.1-1.7 1.3-3.1 3-3.1z"/><path d="m432.8 1330.4c1.7 0 3.1 1.4 3.1 3 0 1.7-1.4 3.1-3.1 3.1s-3-1.4-3-3.1c-.1-1.6 1.3-3 3-3z"/><path d="m432.8 1283.6c1.7 0 3.1 1.4 3.1 3.1s-1.4 3-3.1 3-3-1.4-3-3c-.1-1.7 1.3-3.1 3-3.1z"/><path d="m432.8 1190c1.7 0 3.1 1.4 3.1 3.1s-1.4 3.1-3.1 3.1-3-1.4-3-3.1c-.1-1.7 1.3-3.1 3-3.1z"/><path d="m432.8 1143.2c1.7 0 3.1 1.4 3.1 3.1s-1.4 3.1-3.1 3.1-3-1.4-3-3.1c-.1-1.7 1.3-3.1 3-3.1z"/><path d="m432.8 1049.6c1.7 0 3.1 1.4 3.1 3.1s-1.4 3.1-3.1 3.1-3-1.4-3-3.1c-.1-1.8 1.3-3.1 3-3.1z"/><path d="m432.8 1002.8c1.7 0 3.1 1.4 3.1 3.1s-1.4 3.1-3.1 3.1-3-1.4-3-3.1c-.1-1.8 1.3-3.1 3-3.1z"/><path d="m432.8 909.2c1.7 0 3.1 1.4 3.1 3.1s-1.4 3-3.1 3-3-1.4-3-3c-.1-1.8 1.3-3.1 3-3.1z"/><path d="m432.8 862.4c1.7 0 3.1 1.4 3.1 3.1s-1.4 3.1-3.1 3.1-3-1.4-3-3.1c-.1-1.8 1.3-3.1 3-3.1z"/><path d="m432.8 768.8c1.7 0 3.1 1.4 3.1 3 0 1.7-1.4 3.1-3.1 3.1s-3-1.4-3-3.1c-.1-1.7 1.3-3 3-3z"/><path d="m432.8 721.9c1.7 0 3.1 1.4 3.1 3.1s-1.4 3-3.1 3-3-1.4-3-3c-.1-1.7 1.3-3.1 3-3.1z"/><path d="m432.8 628.3c1.7 0 3.1 1.4 3.1 3.1s-1.4 3.1-3.1 3.1-3-1.4-3-3.1c-.1-1.7 1.3-3.1 3-3.1z"/><path d="m432.8 581.5c1.7 0 3.1 1.4 3.1 3 0 1.7-1.4 3.1-3.1 3.1s-3-1.4-3-3.1c-.1-1.6 1.3-3 3-3z"/><path d="m432.8 487.9c1.7 0 3.1 1.4 3.1 3.1s-1.4 3.1-3.1 3.1-3-1.4-3-3.1c-.1-1.7 1.3-3.1 3-3.1z"/><path d="m432.8 441.1c1.7 0 3.1 1.4 3.1 3.1s-1.4 3-3.1 3-3-1.4-3-3c-.1-1.7 1.3-3.1 3-3.1z"/><path d="m513.9 1845.2c1.7 0 3.1 1.4 3.1 3 0 1.7-1.4 3.1-3.1 3.1s-3.1-1.4-3.1-3.1c0-1.6 1.4-3 3.1-3z"/><path d="m513.9 1751.6c1.7 0 3.1 1.4 3.1 3.1s-1.4 3.1-3.1 3.1-3.1-1.4-3.1-3.1 1.4-3.1 3.1-3.1z"/><path d="m513.9 1564.4c1.7 0 3.1 1.4 3.1 3.1s-1.4 3-3.1 3-3.1-1.4-3.1-3c0-1.7 1.4-3.1 3.1-3.1z"/><path d="m513.9 1424c1.7 0 3.1 1.4 3.1 3.1s-1.4 3-3.1 3-3.1-1.4-3.1-3c0-1.7 1.4-3.1 3.1-3.1z"/><path d="m513.9 1330.4c1.7 0 3.1 1.4 3.1 3 0 1.7-1.4 3.1-3.1 3.1s-3.1-1.4-3.1-3.1c0-1.6 1.4-3 3.1-3z"/><path d="m513.9 1143.2c1.7 0 3.1 1.4 3.1 3.1s-1.4 3.1-3.1 3.1-3.1-1.4-3.1-3.1 1.4-3.1 3.1-3.1z"/><path d="m513.9 1002.8c1.7 0 3.1 1.4 3.1 3.1s-1.4 3.1-3.1 3.1-3.1-1.4-3.1-3.1c0-1.8 1.4-3.1 3.1-3.1z"/><path d="m513.9 909.2c1.7 0 3.1 1.4 3.1 3.1s-1.4 3-3.1 3-3.1-1.4-3.1-3c0-1.8 1.4-3.1 3.1-3.1z"/><path d="m513.9 581.5c1.7 0 3.1 1.4 3.1 3 0 1.7-1.4 3.1-3.1 3.1s-3.1-1.4-3.1-3.1c0-1.6 1.4-3 3.1-3z"/></g></svg>