<svg width="522" height="542" viewBox="0 0 522 542" fill="none" xmlns="http://www.w3.org/2000/svg">
<circle opacity="0.2" cx="261" cy="271" r="261" fill="#9067F5"/>
<path d="M67.2095 14.91L428.926 232.181V538.526L67.2095 321.256V14.91Z" fill="#4A2493"/>
<path d="M88.2744 53.4289L131.006 78.707V104.286L88.2744 78.707V53.4289Z" fill="#F6F5FF"/>
<path d="M173.437 104.286L237.233 142.805V168.083L173.437 129.865V104.286Z" fill="#AC96F7"/>
<path d="M258.6 155.444V181.023L322.397 219.241V193.662L258.6 155.444Z" fill="#AC96F7"/>
<path d="M386.194 232.181V257.459L407.56 270.399V244.82L386.194 232.181Z" fill="#CAC0FB"/>
<path d="M88.2744 104.286L322.397 244.82V397.992L88.2744 257.459V104.286Z" fill="#CAC0FB"/>
<path d="M407.56 295.978L343.763 257.459V283.038L407.56 321.256V295.978Z" fill="#AC96F7"/>
<path d="M343.763 308.617L407.56 346.835V397.992L343.763 359.774V308.617Z" fill="#AC96F7"/>
<path d="M343.763 385.353L407.56 423.571V500.007L343.763 461.789V385.353Z" fill="#AC96F7"/>
<path d="M88.2744 283.038L216.169 359.774V385.353L88.2744 308.617V283.038Z" fill="#9067F5"/>
<path d="M237.234 372.413L322.397 423.571V449.15L237.234 397.992V372.413Z" fill="#9067F5"/>
<path d="M67.2095 14.9101L88.2745 2.27104L450.292 219.241L428.926 232.181L67.2095 14.9101Z" fill="#DCD7FD"/>
<path d="M450.292 219.241V525.586L428.926 538.526V232.181L450.292 219.241Z" fill="#6C35D6"/>
<path d="M218.276 447.947V412.136L260.707 437.715V473.225L218.276 447.947Z" fill="#9067F5"/>
<path d="M260.706 473.225L267.026 469.613V441.326L260.706 437.715V473.225Z" fill="#6C35D6"/>
<path d="M301.331 487.368L258.599 512.947L152.372 449.15L194.803 423.571L218.275 437.715V447.947L260.706 473.225L267.025 469.613V466.905L301.331 487.368Z" fill="#AC96F7"/>
<path d="M152.372 449.15V456.674L258.599 520.47V512.947L152.372 449.15Z" fill="#9067F5"/>
<path d="M258.6 520.47L301.332 494.891V487.368L258.6 512.947V520.47Z" fill="#6C35D6"/>
</svg>
