<svg width="523" height="577" viewBox="0 0 523 577" fill="none" xmlns="http://www.w3.org/2000/svg">
<circle cx="261.5" cy="316" r="261" fill="#ACCB41" fill-opacity="0.2"/>
<path d="M488.597 402.371V392.27L262.357 527.994V538.196L488.597 402.371Z" fill="#739525"/>
<path d="M262.357 527.994L36.0165 392.27V402.371L262.357 538.196V527.994Z" fill="#87A42E"/>
<path d="M488.597 402.371V426.176L262.357 562V538.196L488.597 402.371Z" fill="#724C41"/>
<path d="M36.0165 402.371V426.176L262.357 562V538.196L36.0165 402.371Z" fill="#816051"/>
<path d="M36.0165 392.27L262.357 256.446L488.597 392.27L262.357 527.994L36.0165 392.27Z" fill="#ACCB41"/>
<path d="M234.152 401.971L262.357 418.774V310.755L252.955 305.154L234.152 316.356V401.971Z" fill="#834B32"/>
<path d="M290.462 401.971L262.357 418.774V310.755L271.758 305.154L290.462 316.356V401.971Z" fill="#5B2E17"/>
<path opacity="0.2" d="M262.357 348.362L290.462 333.159V316.356L271.758 305.054L262.357 310.655V348.362Z" fill="black"/>
<path opacity="0.1" d="M262.357 348.362L234.152 333.159V316.356L252.955 305.054L262.357 310.655V348.362Z" fill="black"/>
<path d="M252.955 254.345V305.054L206.047 333.159V282.55L252.955 254.345Z" fill="#769329"/>
<path d="M206.047 282.55L112.23 226.24V276.949L206.047 333.159V282.55Z" fill="#9AAD44"/>
<path d="M154.438 195.235V234.642L187.243 254.345V214.938L154.438 195.235Z" fill="#9AAD44"/>
<path d="M220.149 195.235V234.642L187.243 254.345V214.938L220.149 195.235Z" fill="#769329"/>
<path d="M187.243 175.531L154.438 195.235L187.243 214.938L220.149 195.235L187.243 175.531Z" fill="#B4C867"/>
<path d="M112.23 226.24L154.437 200.936V234.642L187.243 254.345L220.149 234.642L252.955 254.345L206.047 282.55L112.23 226.24Z" fill="#B4C867"/>
<path d="M252.955 305.054L262.357 310.655V175.531L145.036 105.119V172.731L126.232 161.429V217.739L154.437 200.936V195.235L187.243 175.531L220.149 195.235V234.642L252.955 254.345V305.054Z" fill="#9AAD44"/>
<path d="M126.232 161.429L145.036 172.731V150.227L126.232 161.429Z" fill="#B4C867"/>
<path d="M262.357 153.027V108.019L182.543 60.1107V105.119L262.357 153.027Z" fill="#9AAD44"/>
<path d="M229.451 20.7037V60.1107L262.357 79.8142V40.4072L229.451 20.7037Z" fill="#9AAD44"/>
<path d="M271.758 254.345V305.054L318.667 333.159V282.55L271.758 254.345Z" fill="#769329"/>
<path d="M318.667 282.55L412.483 226.24V276.949L318.667 333.159V282.55Z" fill="#759228"/>
<path d="M370.276 195.235V234.642L337.37 254.345V214.938L370.276 195.235Z" fill="#759228"/>
<path d="M304.564 195.235V234.642L337.37 254.345V214.938L304.564 195.235Z" fill="#769329"/>
<path d="M337.37 175.531L370.276 195.235L337.37 214.938L304.564 195.235L337.37 175.531Z" fill="#B4C867"/>
<path d="M412.483 226.24L370.276 200.936V234.642L337.37 254.345L304.564 234.642L271.758 254.345L318.667 282.55L412.483 226.24Z" fill="#B4C867"/>
<path d="M271.758 305.054L262.357 310.655V175.531L379.678 105.119V172.731L398.381 161.429V217.739L370.276 200.936V195.235L337.37 175.531L304.564 195.235V234.642L271.758 254.345V305.054Z" fill="#759228"/>
<path d="M398.381 161.429L379.677 172.731V150.227L398.381 161.429Z" fill="#B4C867"/>
<path d="M342.071 82.6147V105.119L262.357 153.027L182.543 105.119V82.6147L145.036 105.119L262.357 175.531L379.678 105.119L342.071 82.6147Z" fill="#B4C867"/>
<path d="M262.357 153.027V108.019L342.071 60.1107V105.119L262.357 153.027Z" fill="#759228"/>
<path d="M295.163 32.0057V60.1107L262.357 79.8142L229.451 60.1107V32.0057L182.543 60.1107L262.357 108.019L342.071 60.1107L295.163 32.0057Z" fill="#B4C867"/>
<path d="M295.163 20.7037V60.1107L262.357 79.8142V40.4072L295.163 20.7037Z" fill="#759228"/>
<path d="M262.357 1.00021L229.451 20.7037L262.357 40.4072L295.163 20.7037L262.357 1.00021Z" fill="#B4C867"/>
<path opacity="0.15" d="M262.357 153.027L281.06 164.329L346.772 124.922L328.068 113.62L262.357 153.027Z" fill="url(#paint0_linear)"/>
<path opacity="0.15" d="M262.357 79.8142L285.761 93.9167L318.667 74.2132L295.163 60.1107L262.357 79.8142Z" fill="url(#paint1_linear)"/>
<path opacity="0.15" d="M337.37 254.345L351.473 262.847L384.278 243.143L370.276 234.642L337.37 254.345Z" fill="url(#paint2_linear)"/>
<path d="M259.456 421.075V400.671L231.251 417.674V438.078L259.456 421.075Z" fill="#9D5F36"/>
<g style="mix-blend-mode:overlay">
<path d="M259.456 421.075V400.671L231.251 417.674V438.078L259.456 421.075Z" fill="white" fill-opacity="0.2"/>
</g>
<path d="M202.946 421.075V400.671L231.251 417.674V438.078L202.946 421.075Z" fill="#D8A585"/>
<g style="mix-blend-mode:overlay">
<path d="M202.946 421.075V400.671L231.251 417.674V438.078L202.946 421.075Z" fill="white" fill-opacity="0.2"/>
</g>
<path d="M231.251 404.072L202.946 387.169L231.251 370.166L259.456 387.169L231.251 404.072Z" fill="#F3C3A1"/>
<path d="M259.456 400.671V387.169L231.251 404.072V417.674L259.456 400.671Z" fill="#9D5F36"/>
<path d="M202.946 400.671V387.169L231.251 404.072V417.674L202.946 400.671Z" fill="#D8A585"/>
<path d="M218.449 413.473L215.648 415.174V404.972L218.449 403.272V413.473Z" fill="#CBB3B3"/>
<path d="M215.649 404.972L212.848 403.272L215.649 401.571L218.449 403.272L215.649 404.972Z" fill="#F1EDED"/>
<path d="M212.848 403.272V413.473L215.649 415.174V404.972L212.848 403.272Z" fill="#E2D9D9"/>
<path opacity="0.1" d="M231.251 438.078L259.456 454.981L287.761 438.078L259.456 421.075L231.251 438.078Z" fill="url(#paint3_linear)"/>
<path opacity="0.15" d="M262.357 418.774L352.873 473.684L381.178 456.681L290.162 402.171L262.357 418.774Z" fill="url(#paint4_linear)"/>
<defs>
<linearGradient id="paint0_linear" x1="262" y1="152.5" x2="270.5" y2="167.5" gradientUnits="userSpaceOnUse">
<stop/>
<stop offset="1" stop-opacity="0"/>
</linearGradient>
<linearGradient id="paint1_linear" x1="262" y1="80" x2="271.5" y2="100.5" gradientUnits="userSpaceOnUse">
<stop/>
<stop offset="1" stop-opacity="0"/>
</linearGradient>
<linearGradient id="paint2_linear" x1="337" y1="253.5" x2="342.5" y2="265.5" gradientUnits="userSpaceOnUse">
<stop/>
<stop offset="1" stop-opacity="0"/>
</linearGradient>
<linearGradient id="paint3_linear" x1="238.285" y1="425.805" x2="266.74" y2="450.867" gradientUnits="userSpaceOnUse">
<stop/>
<stop offset="1" stop-opacity="0"/>
</linearGradient>
<linearGradient id="paint4_linear" x1="268.856" y1="407.518" x2="374.381" y2="468.443" gradientUnits="userSpaceOnUse">
<stop stop-opacity="0.7"/>
<stop offset="1" stop-opacity="0.1"/>
</linearGradient>
</defs>
</svg>
