<svg width="195" height="134" viewBox="0 0 195 134" fill="none" xmlns="http://www.w3.org/2000/svg">
<path opacity="0.4" d="M97.1691 121.733C77.5693 121.733 57.9695 117.358 43.0941 108.543C28.6017 99.9899 20.6213 88.5633 20.6213 76.4186C20.6213 64.2738 28.6017 52.8473 43.0941 44.2937C72.9088 26.6642 121.493 26.6642 151.308 44.2937C165.8 52.8473 173.781 64.2738 173.781 76.4186C173.781 88.5633 165.8 99.9899 151.308 108.543C136.369 117.358 116.769 121.733 97.1691 121.733ZM97.1691 31.6918C77.697 31.6918 58.2249 36.0666 43.4133 44.816C29.1124 53.239 21.1959 64.4697 21.1959 76.4186C21.1959 88.3022 29.0486 99.5328 43.4133 108.021C73.1003 125.52 121.366 125.52 150.989 108.021C165.29 99.5981 173.206 88.3675 173.206 76.4186C173.206 64.535 165.353 53.3043 150.989 44.816C136.113 36.0666 116.641 31.6918 97.1691 31.6918Z" fill="#1E232D"/>
<path opacity="0.2" d="M97.1692 133.878C72.3342 133.878 47.4354 128.262 28.5379 117.097C10.1511 106.258 0 91.7627 0 76.3532C0 60.9436 10.1511 46.5136 28.5379 35.6094C66.3968 13.2786 128.005 13.2786 165.864 35.6094C184.251 46.4483 194.402 60.9436 194.402 76.3532C194.402 91.7627 184.251 106.193 165.864 117.097C146.903 128.328 122.004 133.878 97.1692 133.878ZM97.1692 19.5469C72.398 19.5469 47.6908 25.097 28.8571 36.2623C10.6618 47.0359 0.638431 61.2701 0.638431 76.4184C0.638431 91.5668 10.6618 105.866 28.8571 116.575C66.5245 138.84 127.878 138.84 165.545 116.575C183.74 105.801 193.764 91.5668 193.764 76.4184C193.764 61.2701 183.74 46.9706 165.545 36.2623C146.648 25.097 121.94 19.5469 97.1692 19.5469Z" fill="#1E232D"/>
<path d="M97.1691 112.2C81.719 112.2 66.269 108.739 54.5219 101.818C43.094 95.0275 36.7736 86.0821 36.7736 76.4838C36.7736 66.8855 43.094 57.8749 54.5219 51.1496C78.0162 37.2418 116.258 37.2418 139.816 51.1496C151.244 57.9402 157.565 66.9508 157.565 76.4838C157.565 86.0821 151.244 95.0928 139.816 101.818C128.069 108.739 112.619 112.2 97.1691 112.2ZM97.1691 41.2248C81.8467 41.2248 66.5244 44.6854 54.8411 51.5413C43.6048 58.2014 37.412 67.0161 37.412 76.3532C37.412 85.6904 43.6048 94.5051 54.8411 101.165C78.2077 114.942 116.13 114.942 139.497 101.165L139.625 101.426L139.497 101.165C150.733 94.5051 156.926 85.6904 156.926 76.3532C156.926 67.0161 150.733 58.2014 139.497 51.5413C127.814 44.6854 112.491 41.2248 97.1691 41.2248Z" fill="#1E232D"/>
<path d="M96.9647 44.8445L59.2784 22.4224V67.2667L96.9647 89.6889L134.651 67.2667V22.4224L96.9647 44.8445Z" fill="#FFE1B3"/>
<path d="M96.9648 89.6889L59.2784 67.2667V22.4224L96.9648 44.8445V89.6889Z" fill="#2D343E"/>
<path d="M134.651 67.2667L96.9649 89.6889V44.8445L134.651 22.4224V67.2667Z" fill="#1E232D"/>
<path d="M96.9647 44.8443L59.2784 22.4222L96.9647 0L134.651 22.4222L96.9647 44.8443Z" fill="#353D48"/>
<path d="M96.9647 44.8445L59.2784 22.4224V24.3395L96.9647 46.7617L134.651 24.3395V22.4224L96.9647 44.8445Z" fill="#3F4650"/>
</svg>
