<svg xmlns="http://www.w3.org/2000/svg" width="110" height="110"><defs><style>.a,.d{fill:#fff}.a,.b,.d{stroke:#000;stroke-linecap:round;stroke-linejoin:round}.a,.b{stroke-width:.75px}.b{fill:none}</style></defs><path class="a" d="M79.964 86.584a3.568 3.568 0 01-2.523-6.091 6.974 6.974 0 000-9.852c-1.224-1.224-3.113-1.864-5.945-2.013-2.395-.127-5.965 0-6.001.003a3.568 3.568 0 11-.26-7.132c.159-.006 3.929-.141 6.637.002 4.633.245 8.105 1.583 10.615 4.093a14.12 14.12 0 010 19.945 3.558 3.558 0 01-2.523 1.045z"/><path class="b" d="M79.964 83.016a10.535 10.535 0 000-14.899c-2.268-2.268-5.424-2.902-8.28-3.053-2.582-.136-6.32 0-6.32 0"/><path fill="none" stroke="#000" stroke-linecap="round" stroke-linejoin="round" d="M60.234 38.389v-7"/><circle class="d" cx="60.234" cy="28.389" r="5"/><circle cx="90.734" cy="81.889" r="5"/><path class="b" d="M47.694 70.442l12.115 16.142 4.063-3.496M17.66 86.584l-3.551-4.016 11.749-11.825"/><g><path class="d" d="M59.693 38.389h-14.46v33h14.46a16.5 16.5 0 0016.5-16.5 16.5 16.5 0 00-16.5-16.5z"/><path d="M30.605 38.389a16.5 16.5 0 00-16.5 16.5h0a16.5 16.5 0 0016.5 16.5h14.629v-33z" stroke="#000" stroke-linecap="round" stroke-linejoin="round"/></g><g><path class="a" d="M73.69 55.142s-5.4 5.837-12.063 5.837-12.064-5.837-12.064-5.837 5.4-5.838 12.064-5.838 12.064 5.838 12.064 5.838z"/><circle cx="64.234" cy="57.389" r="3.5"/><path class="b" d="M61.566 43.475a22.146 22.146 0 00-11.62 4.065"/></g></svg>