<svg width="24" height="24" viewBox="0 0 24 24" fill="none" xmlns="http://www.w3.org/2000/svg">
<path d="M23.0525 5.51C22.277 5.8535 21.443 6.0825 20.563 6.191C21.4575 5.66 22.146 4.813 22.469 3.812C21.632 4.3025 20.7045 4.663 19.718 4.853C18.93 4.018 17.806 3.5 16.561 3.5C14.1695 3.5 12.2305 5.4215 12.2305 7.791C12.2305 8.1265 12.27 8.453 12.3435 8.77C8.74547 8.5895 5.55397 6.879 3.41897 4.283C3.04397 4.9175 2.83297 5.66 2.83297 6.444C2.83297 7.9335 3.59547 9.245 4.75847 10.0175C4.04847 9.996 3.38047 9.7985 2.79547 9.4815C2.79547 9.4945 2.79547 9.5135 2.79547 9.532C2.79547 11.6135 4.28847 13.347 6.26747 13.7415C5.90597 13.8405 5.52347 13.8955 5.12947 13.8955C4.84997 13.8955 4.57747 13.864 4.31347 13.8165C4.86447 15.5175 6.46297 16.761 8.35697 16.798C6.87497 17.947 5.00847 18.635 2.97897 18.635C2.62847 18.635 2.28547 18.615 1.94647 18.574C3.86497 19.7885 6.14147 20.5 8.58547 20.5C16.549 20.5 20.906 13.9605 20.906 8.287C20.906 8.101 20.9 7.916 20.8915 7.733C21.7415 7.1325 22.474 6.3755 23.0525 5.51Z" fill="url(#paint0_linear)"/>
<defs>
<linearGradient id="paint0_linear" x1="5.17047" y1="4.156" x2="20.399" y2="19.3845" gradientUnits="userSpaceOnUse">
<stop stop-color="#2AA4F4"/>
<stop offset="1" stop-color="#007AD9"/>
</linearGradient>
</defs>
</svg>
