<svg width="620" height="143" viewBox="0 0 620 143" fill="none" xmlns="http://www.w3.org/2000/svg">
<path d="M0.272727 13.5682H14.5227V52H24.25V13.5682H38.5V5.45454H0.272727V13.5682ZM52.8655 31.8182C52.8882 27.3182 55.6382 24.6818 59.5927 24.6818C63.5245 24.6818 65.8427 27.2045 65.82 31.5V52H75.5018V29.7727C75.5245 21.5909 70.7064 16.6364 63.4336 16.6364C58.1382 16.6364 54.5927 19.1364 53.0018 23.25H52.5927V5.45454H43.1836V52H52.8655V31.8182ZM97.6002 52.6818C106.237 52.6818 112.055 48.4773 113.418 42L104.464 41.4091C103.487 44.0682 100.987 45.4545 97.7593 45.4545C92.9184 45.4545 89.8502 42.25 89.8502 37.0455V37.0227H113.623V34.3636C113.623 22.5 106.441 16.6364 97.2139 16.6364C86.9411 16.6364 80.282 23.9318 80.282 34.7045C80.282 45.7727 86.8502 52.6818 97.6002 52.6818ZM89.8502 31.0227C90.0548 27.0455 93.0775 23.8636 97.373 23.8636C101.577 23.8636 104.487 26.8636 104.509 31.0227H89.8502ZM131.894 52H141.575V31.0455C141.575 27.1818 144.03 24.6136 147.257 24.6136C150.439 24.6136 152.575 26.7955 152.575 30.2273V52H161.962V30.6818C161.962 27.0682 164.03 24.6136 167.553 24.6136C170.644 24.6136 172.962 26.5455 172.962 30.4318V52H182.621V28.5227C182.621 20.9545 178.121 16.6364 171.621 16.6364C166.507 16.6364 162.53 19.25 161.098 23.25H160.735C159.621 19.2045 156.053 16.6364 151.257 16.6364C146.553 16.6364 142.985 19.1364 141.53 23.25H141.121V17.0909H131.894V52ZM204.611 52.6818C215.202 52.6818 221.793 45.4318 221.793 34.6818C221.793 23.8636 215.202 16.6364 204.611 16.6364C194.02 16.6364 187.43 23.8636 187.43 34.6818C187.43 45.4318 194.02 52.6818 204.611 52.6818ZM204.657 45.1818C199.77 45.1818 197.27 40.7045 197.27 34.6136C197.27 28.5227 199.77 24.0227 204.657 24.0227C209.452 24.0227 211.952 28.5227 211.952 34.6136C211.952 40.7045 209.452 45.1818 204.657 45.1818ZM255.704 27.0455C254.84 20.6136 249.659 16.6364 240.84 16.6364C231.909 16.6364 226.022 20.7727 226.045 27.5C226.022 32.7273 229.318 36.1136 236.136 37.4773L242.181 38.6818C245.227 39.2955 246.613 40.4091 246.659 42.1591C246.613 44.2273 244.363 45.7045 240.977 45.7045C237.522 45.7045 235.227 44.2273 234.636 41.3864L225.113 41.8864C226.022 48.5682 231.704 52.6818 240.954 52.6818C250 52.6818 256.477 48.0682 256.5 41.1818C256.477 36.1364 253.181 33.1136 246.409 31.7273L240.09 30.4545C236.84 29.75 235.636 28.6364 235.659 26.9545C235.636 24.8636 238 23.5 241 23.5C244.363 23.5 246.363 25.3409 246.84 27.5909L255.704 27.0455ZM279.734 17.0909H273.166V8.72727H263.484V17.0909H258.712V24.3636H263.484V42.5455C263.439 49.3864 268.098 52.7727 275.121 52.4773C277.621 52.3864 279.393 51.8864 280.371 51.5682L278.848 44.3636C278.371 44.4545 277.348 44.6818 276.439 44.6818C274.507 44.6818 273.166 43.9545 273.166 41.2727V24.3636H279.734V17.0909ZM11.5455 108.818C11.5682 104.318 14.3182 101.682 18.2727 101.682C22.2045 101.682 24.5227 104.205 24.5 108.5V129H34.1818V106.773C34.2045 98.5909 29.3864 93.6364 22.1136 93.6364C16.8182 93.6364 13.2727 96.1364 11.6818 100.25H11.2727V82.4545H1.86364V129H11.5455V108.818ZM56.1439 129.682C66.7348 129.682 73.3257 122.432 73.3257 111.682C73.3257 100.864 66.7348 93.6364 56.1439 93.6364C45.553 93.6364 38.962 100.864 38.962 111.682C38.962 122.432 45.553 129.682 56.1439 129.682ZM56.1893 122.182C51.303 122.182 48.803 117.705 48.803 111.614C48.803 105.523 51.303 101.023 56.1893 101.023C60.9848 101.023 63.4848 105.523 63.4848 111.614C63.4848 117.705 60.9848 122.182 56.1893 122.182ZM107.237 104.045C106.373 97.6136 101.191 93.6364 92.373 93.6364C83.4411 93.6364 77.5548 97.7727 77.5775 104.5C77.5548 109.727 80.8502 113.114 87.6684 114.477L93.7139 115.682C96.7593 116.295 98.1457 117.409 98.1911 119.159C98.1457 121.227 95.8957 122.705 92.5093 122.705C89.0548 122.705 86.7593 121.227 86.1684 118.386L76.6457 118.886C77.5548 125.568 83.2366 129.682 92.4866 129.682C101.532 129.682 108.009 125.068 108.032 118.182C108.009 113.136 104.714 110.114 97.9411 108.727L91.623 107.455C88.373 106.75 87.1684 105.636 87.1911 103.955C87.1684 101.864 89.532 100.5 92.532 100.5C95.8957 100.5 97.8957 102.341 98.373 104.591L107.237 104.045ZM131.267 94.0909H124.699V85.7273H115.017V94.0909H110.244V101.364H115.017V119.545C114.971 126.386 119.63 129.773 126.653 129.477C129.153 129.386 130.926 128.886 131.903 128.568L130.38 121.364C129.903 121.455 128.88 121.682 127.971 121.682C126.04 121.682 124.699 120.955 124.699 118.273V101.364H131.267V94.0909ZM136.144 129H145.825V94.0909H136.144V129ZM141.007 89.5909C143.894 89.5909 146.257 87.3864 146.257 84.6818C146.257 82 143.894 79.7955 141.007 79.7955C138.144 79.7955 135.78 82 135.78 84.6818C135.78 87.3864 138.144 89.5909 141.007 89.5909ZM161.833 108.818C161.856 104.318 164.538 101.682 168.447 101.682C172.333 101.682 174.674 104.227 174.651 108.5V129H184.333V106.773C184.333 98.6364 179.56 93.6364 172.288 93.6364C167.106 93.6364 163.356 96.1818 161.788 100.25H161.378V94.0909H152.151V129H161.833V108.818ZM206.261 142.591C216.238 142.591 223.329 138.045 223.329 129.341V94.0909H213.715V99.9545H213.352C212.056 97.1136 209.215 93.6364 203.375 93.6364C195.715 93.6364 189.238 99.5909 189.238 111.477C189.238 123.091 195.534 128.5 203.397 128.5C208.965 128.5 212.079 125.705 213.352 122.818H213.761V129.205C213.761 133.773 210.693 135.636 206.488 135.636C202.215 135.636 200.056 133.773 199.261 131.886L190.306 133.091C191.465 138.364 196.852 142.591 206.261 142.591ZM206.465 121.227C201.715 121.227 199.125 117.455 199.125 111.432C199.125 105.5 201.67 101.341 206.465 101.341C211.17 101.341 213.806 105.318 213.806 111.432C213.806 117.591 211.125 121.227 206.465 121.227ZM248.963 142.023C256.168 142.023 260.009 138.364 261.963 132.773L275.532 94.1364L265.282 94.0909L257.986 119.727H257.622L250.395 94.0909H240.213L252.736 130L252.168 131.477C250.804 134.636 248.463 134.864 245.054 133.795L242.872 141.045C244.259 141.614 246.509 142.023 248.963 142.023ZM293.641 129.682C304.232 129.682 310.823 122.432 310.823 111.682C310.823 100.864 304.232 93.6364 293.641 93.6364C283.05 93.6364 276.46 100.864 276.46 111.682C276.46 122.432 283.05 129.682 293.641 129.682ZM293.687 122.182C288.8 122.182 286.3 117.705 286.3 111.614C286.3 105.523 288.8 101.023 293.687 101.023C298.482 101.023 300.982 105.523 300.982 111.614C300.982 117.705 298.482 122.182 293.687 122.182ZM338.075 114.136C338.098 118.818 334.893 121.273 331.416 121.273C327.757 121.273 325.393 118.705 325.37 114.591V94.0909H315.689V116.318C315.711 124.477 320.484 129.455 327.507 129.455C332.757 129.455 336.53 126.75 338.098 122.659H338.461V129H347.757V94.0909H338.075V114.136ZM383.226 129.682C392.522 129.682 398.363 124.227 398.817 116.205H389.681C389.113 119.932 386.658 122.023 383.34 122.023C378.817 122.023 375.885 118.227 375.885 111.545C375.885 104.955 378.84 101.182 383.34 101.182C386.885 101.182 389.158 103.523 389.681 107H398.817C398.408 98.9318 392.295 93.6364 383.181 93.6364C372.59 93.6364 366.045 100.977 366.045 111.682C366.045 122.295 372.476 129.682 383.226 129.682ZM413.541 129.659C418.7 129.659 422.041 127.409 423.745 124.159H424.018V129H433.2V105.455C433.2 97.1364 426.154 93.6364 418.382 93.6364C410.018 93.6364 404.518 97.6364 403.177 104L412.132 104.727C412.791 102.409 414.859 100.705 418.336 100.705C421.632 100.705 423.518 102.364 423.518 105.227V105.364C423.518 107.614 421.132 107.909 415.063 108.5C408.154 109.136 401.95 111.455 401.95 119.25C401.95 126.159 406.882 129.659 413.541 129.659ZM416.313 122.977C413.336 122.977 411.2 121.591 411.2 118.932C411.2 116.205 413.45 114.864 416.859 114.386C418.973 114.091 422.427 113.591 423.586 112.818V116.523C423.586 120.182 420.563 122.977 416.313 122.977ZM448.963 108.818C448.986 104.318 451.668 101.682 455.577 101.682C459.463 101.682 461.804 104.227 461.781 108.5V129H471.463V106.773C471.463 98.6364 466.69 93.6364 459.418 93.6364C454.236 93.6364 450.486 96.1818 448.918 100.25H448.508V94.0909H439.281V129H448.963V108.818ZM509.819 94.0909H502.887V91.75C502.887 89.3864 503.842 88 506.682 88C507.842 88 509.023 88.25 509.796 88.5L511.501 81.2273C510.296 80.8636 507.637 80.2727 504.66 80.2727C498.092 80.2727 493.205 83.9773 493.205 91.5682V94.0909H488.273V101.364H493.205V129H502.887V101.364H509.819V94.0909ZM514.304 129H523.985V94.0909H514.304V129ZM519.167 89.5909C522.054 89.5909 524.417 87.3864 524.417 84.6818C524.417 82 522.054 79.7955 519.167 79.7955C516.304 79.7955 513.94 82 513.94 84.6818C513.94 87.3864 516.304 89.5909 519.167 89.5909ZM539.993 108.818C540.016 104.318 542.698 101.682 546.607 101.682C550.493 101.682 552.834 104.227 552.811 108.5V129H562.493V106.773C562.493 98.6364 557.72 93.6364 550.448 93.6364C545.266 93.6364 541.516 96.1818 539.948 100.25H539.538V94.0909H530.311V129H539.993V108.818ZM581.557 129.568C587.194 129.568 590.125 126.318 591.466 123.409H591.875V129H601.421V82.4545H591.762V99.9545H591.466C590.171 97.1136 587.375 93.6364 581.535 93.6364C573.875 93.6364 567.398 99.5909 567.398 111.591C567.398 123.273 573.603 129.568 581.557 129.568ZM584.625 121.864C579.875 121.864 577.285 117.636 577.285 111.545C577.285 105.5 579.83 101.341 584.625 101.341C589.33 101.341 591.966 105.318 591.966 111.545C591.966 117.773 589.285 121.864 584.625 121.864ZM613.61 129.591C616.519 129.591 619.042 127.159 619.065 124.136C619.042 121.159 616.519 118.727 613.61 118.727C610.61 118.727 608.133 121.159 608.156 124.136C608.133 127.159 610.61 129.591 613.61 129.591Z" fill="#EFA340"/>
<mask id="path-2-outside-1" maskUnits="userSpaceOnUse" x="293.221" y="0.795441" width="261" height="54" fill="black">
<rect fill="white" x="293.221" y="0.795441" width="261" height="54"/>
<path d="M330.539 17.0909H320.289L313.062 42.0682H312.698L305.448 17.0909H295.221L307.425 52H318.335L330.539 17.0909Z"/>
<path d="M348.785 52.6818C357.422 52.6818 363.24 48.4773 364.603 42L355.649 41.4091C354.672 44.0682 352.172 45.4545 348.944 45.4545C344.103 45.4545 341.035 42.25 341.035 37.0454V37.0227H364.808V34.3636C364.808 22.5 357.626 16.6364 348.399 16.6364C338.126 16.6364 331.467 23.9318 331.467 34.7045C331.467 45.7727 338.035 52.6818 348.785 52.6818ZM341.035 31.0227C341.24 27.0454 344.263 23.8636 348.558 23.8636C352.763 23.8636 355.672 26.8636 355.694 31.0227H341.035Z"/>
<path d="M369.696 52H379.378V32.25C379.378 27.9545 382.514 25 386.787 25C388.128 25 389.969 25.2273 390.878 25.5227V16.9318C390.014 16.7273 388.81 16.5909 387.832 16.5909C383.923 16.5909 380.719 18.8636 379.446 23.1818H379.082V17.0909H369.696V52Z"/>
<path d="M423.499 27.0454C422.635 20.6136 417.454 16.6364 408.635 16.6364C399.704 16.6364 393.817 20.7727 393.84 27.5C393.817 32.7273 397.113 36.1136 403.931 37.4773L409.976 38.6818C413.022 39.2954 414.408 40.4091 414.454 42.1591C414.408 44.2273 412.158 45.7045 408.772 45.7045C405.317 45.7045 403.022 44.2273 402.431 41.3864L392.908 41.8864C393.817 48.5682 399.499 52.6818 408.749 52.6818C417.795 52.6818 424.272 48.0682 424.295 41.1818C424.272 36.1363 420.976 33.1136 414.204 31.7273L407.885 30.4545C404.635 29.75 403.431 28.6364 403.454 26.9545C403.431 24.8636 405.795 23.5 408.795 23.5C412.158 23.5 414.158 25.3409 414.635 27.5909L423.499 27.0454Z"/>
<path d="M438.916 52.6591C444.075 52.6591 447.416 50.4091 449.12 47.1591H449.393V52H458.575V28.4545C458.575 20.1364 451.529 16.6364 443.757 16.6364C435.393 16.6364 429.893 20.6364 428.552 27L437.507 27.7273C438.166 25.4091 440.234 23.7045 443.711 23.7045C447.007 23.7045 448.893 25.3636 448.893 28.2273V28.3636C448.893 30.6136 446.507 30.9091 440.438 31.5C433.529 32.1364 427.325 34.4545 427.325 42.25C427.325 49.1591 432.257 52.6591 438.916 52.6591ZM441.688 45.9773C438.711 45.9773 436.575 44.5909 436.575 41.9318C436.575 39.2045 438.825 37.8636 442.234 37.3864C444.347 37.0909 447.802 36.5909 448.961 35.8182V39.5227C448.961 43.1818 445.938 45.9773 441.688 45.9773Z"/>
<path d="M483.224 17.0909H476.656V8.72726H466.974V17.0909H462.202V24.3636H466.974V42.5454C466.929 49.3864 471.588 52.7727 478.611 52.4773C481.111 52.3864 482.883 51.8863 483.861 51.5682L482.338 44.3636C481.861 44.4545 480.838 44.6818 479.929 44.6818C477.997 44.6818 476.656 43.9545 476.656 41.2727V24.3636H483.224V17.0909Z"/>
<path d="M488.101 52H497.783V17.0909H488.101V52ZM492.965 12.5909C495.851 12.5909 498.215 10.3864 498.215 7.6818C498.215 4.99999 495.851 2.79544 492.965 2.79544C490.101 2.79544 487.737 4.99999 487.737 7.6818C487.737 10.3864 490.101 12.5909 492.965 12.5909Z"/>
<path d="M513.79 5.45453H504.109V52H513.79V5.45453Z"/>
<path d="M536.025 52.6818C544.662 52.6818 550.48 48.4773 551.843 42L542.889 41.4091C541.912 44.0682 539.412 45.4545 536.184 45.4545C531.343 45.4545 528.275 42.25 528.275 37.0454V37.0227H552.048V34.3636C552.048 22.5 544.866 16.6364 535.639 16.6364C525.366 16.6364 518.707 23.9318 518.707 34.7045C518.707 45.7727 525.275 52.6818 536.025 52.6818ZM528.275 31.0227C528.48 27.0454 531.503 23.8636 535.798 23.8636C540.003 23.8636 542.912 26.8636 542.934 31.0227H528.275Z"/>
</mask>
<path d="M330.539 17.0909H320.289L313.062 42.0682H312.698L305.448 17.0909H295.221L307.425 52H318.335L330.539 17.0909Z" stroke="#EFA340" stroke-width="4" stroke-linecap="round" stroke-linejoin="round" mask="url(#path-2-outside-1)"/>
<path d="M348.785 52.6818C357.422 52.6818 363.24 48.4773 364.603 42L355.649 41.4091C354.672 44.0682 352.172 45.4545 348.944 45.4545C344.103 45.4545 341.035 42.25 341.035 37.0454V37.0227H364.808V34.3636C364.808 22.5 357.626 16.6364 348.399 16.6364C338.126 16.6364 331.467 23.9318 331.467 34.7045C331.467 45.7727 338.035 52.6818 348.785 52.6818ZM341.035 31.0227C341.24 27.0454 344.263 23.8636 348.558 23.8636C352.763 23.8636 355.672 26.8636 355.694 31.0227H341.035Z" stroke="#EFA340" stroke-width="4" stroke-linecap="round" stroke-linejoin="round" mask="url(#path-2-outside-1)"/>
<path d="M369.696 52H379.378V32.25C379.378 27.9545 382.514 25 386.787 25C388.128 25 389.969 25.2273 390.878 25.5227V16.9318C390.014 16.7273 388.81 16.5909 387.832 16.5909C383.923 16.5909 380.719 18.8636 379.446 23.1818H379.082V17.0909H369.696V52Z" stroke="#EFA340" stroke-width="4" stroke-linecap="round" stroke-linejoin="round" mask="url(#path-2-outside-1)"/>
<path d="M423.499 27.0454C422.635 20.6136 417.454 16.6364 408.635 16.6364C399.704 16.6364 393.817 20.7727 393.84 27.5C393.817 32.7273 397.113 36.1136 403.931 37.4773L409.976 38.6818C413.022 39.2954 414.408 40.4091 414.454 42.1591C414.408 44.2273 412.158 45.7045 408.772 45.7045C405.317 45.7045 403.022 44.2273 402.431 41.3864L392.908 41.8864C393.817 48.5682 399.499 52.6818 408.749 52.6818C417.795 52.6818 424.272 48.0682 424.295 41.1818C424.272 36.1363 420.976 33.1136 414.204 31.7273L407.885 30.4545C404.635 29.75 403.431 28.6364 403.454 26.9545C403.431 24.8636 405.795 23.5 408.795 23.5C412.158 23.5 414.158 25.3409 414.635 27.5909L423.499 27.0454Z" stroke="#EFA340" stroke-width="4" stroke-linecap="round" stroke-linejoin="round" mask="url(#path-2-outside-1)"/>
<path d="M438.916 52.6591C444.075 52.6591 447.416 50.4091 449.12 47.1591H449.393V52H458.575V28.4545C458.575 20.1364 451.529 16.6364 443.757 16.6364C435.393 16.6364 429.893 20.6364 428.552 27L437.507 27.7273C438.166 25.4091 440.234 23.7045 443.711 23.7045C447.007 23.7045 448.893 25.3636 448.893 28.2273V28.3636C448.893 30.6136 446.507 30.9091 440.438 31.5C433.529 32.1364 427.325 34.4545 427.325 42.25C427.325 49.1591 432.257 52.6591 438.916 52.6591ZM441.688 45.9773C438.711 45.9773 436.575 44.5909 436.575 41.9318C436.575 39.2045 438.825 37.8636 442.234 37.3864C444.347 37.0909 447.802 36.5909 448.961 35.8182V39.5227C448.961 43.1818 445.938 45.9773 441.688 45.9773Z" stroke="#EFA340" stroke-width="4" stroke-linecap="round" stroke-linejoin="round" mask="url(#path-2-outside-1)"/>
<path d="M483.224 17.0909H476.656V8.72726H466.974V17.0909H462.202V24.3636H466.974V42.5454C466.929 49.3864 471.588 52.7727 478.611 52.4773C481.111 52.3864 482.883 51.8863 483.861 51.5682L482.338 44.3636C481.861 44.4545 480.838 44.6818 479.929 44.6818C477.997 44.6818 476.656 43.9545 476.656 41.2727V24.3636H483.224V17.0909Z" stroke="#EFA340" stroke-width="4" stroke-linecap="round" stroke-linejoin="round" mask="url(#path-2-outside-1)"/>
<path d="M488.101 52H497.783V17.0909H488.101V52ZM492.965 12.5909C495.851 12.5909 498.215 10.3864 498.215 7.6818C498.215 4.99999 495.851 2.79544 492.965 2.79544C490.101 2.79544 487.737 4.99999 487.737 7.6818C487.737 10.3864 490.101 12.5909 492.965 12.5909Z" stroke="#EFA340" stroke-width="4" stroke-linecap="round" stroke-linejoin="round" mask="url(#path-2-outside-1)"/>
<path d="M513.79 5.45453H504.109V52H513.79V5.45453Z" stroke="#EFA340" stroke-width="4" stroke-linecap="round" stroke-linejoin="round" mask="url(#path-2-outside-1)"/>
<path d="M536.025 52.6818C544.662 52.6818 550.48 48.4773 551.843 42L542.889 41.4091C541.912 44.0682 539.412 45.4545 536.184 45.4545C531.343 45.4545 528.275 42.25 528.275 37.0454V37.0227H552.048V34.3636C552.048 22.5 544.866 16.6364 535.639 16.6364C525.366 16.6364 518.707 23.9318 518.707 34.7045C518.707 45.7727 525.275 52.6818 536.025 52.6818ZM528.275 31.0227C528.48 27.0454 531.503 23.8636 535.798 23.8636C540.003 23.8636 542.912 26.8636 542.934 31.0227H528.275Z" stroke="#EFA340" stroke-width="4" stroke-linecap="round" stroke-linejoin="round" mask="url(#path-2-outside-1)"/>
</svg>
