<svg width="76" height="76" viewBox="0 0 76 76" fill="none" xmlns="http://www.w3.org/2000/svg">
<circle cx="37.9753" cy="38" r="37.9753" fill="#FBB03B" fill-opacity="0.1"/>
<g clip-path="url(#clip0)">
<path d="M18.4756 14.5247C15.9946 14.5247 13.9756 16.5437 13.9756 19.0247C13.9756 21.5057 15.9946 23.5247 18.4756 23.5247C20.9566 23.5247 22.9756 21.5057 22.9756 19.0247C22.9756 16.5437 20.9566 14.5247 18.4756 14.5247ZM18.4756 21.5247C17.0976 21.5247 15.9756 20.4037 15.9756 19.0247C15.9756 17.6457 17.0976 16.5247 18.4756 16.5247C19.8536 16.5247 20.9756 17.6457 20.9756 19.0247C20.9756 20.4037 19.8536 21.5247 18.4756 21.5247Z" fill="#FBB03B"/>
<path d="M57.9756 18.5247C58.5279 18.5247 58.9756 18.0769 58.9756 17.5247C58.9756 16.9724 58.5279 16.5247 57.9756 16.5247C57.4233 16.5247 56.9756 16.9724 56.9756 17.5247C56.9756 18.0769 57.4233 18.5247 57.9756 18.5247Z" fill="#FBB03B"/>
<path d="M53.9756 18.5247C54.5279 18.5247 54.9756 18.0769 54.9756 17.5247C54.9756 16.9724 54.5279 16.5247 53.9756 16.5247C53.4233 16.5247 52.9756 16.9724 52.9756 17.5247C52.9756 18.0769 53.4233 18.5247 53.9756 18.5247Z" fill="#FBB03B"/>
<path d="M59.9756 21.5247C60.5279 21.5247 60.9756 21.0769 60.9756 20.5247C60.9756 19.9724 60.5279 19.5247 59.9756 19.5247C59.4233 19.5247 58.9756 19.9724 58.9756 20.5247C58.9756 21.0769 59.4233 21.5247 59.9756 21.5247Z" fill="#FBB03B"/>
<path d="M55.9756 21.5247C56.5279 21.5247 56.9756 21.0769 56.9756 20.5247C56.9756 19.9724 56.5279 19.5247 55.9756 19.5247C55.4233 19.5247 54.9756 19.9724 54.9756 20.5247C54.9756 21.0769 55.4233 21.5247 55.9756 21.5247Z" fill="#FBB03B"/>
<path d="M49.9756 18.5247C50.5279 18.5247 50.9756 18.0769 50.9756 17.5247C50.9756 16.9724 50.5279 16.5247 49.9756 16.5247C49.4233 16.5247 48.9756 16.9724 48.9756 17.5247C48.9756 18.0769 49.4233 18.5247 49.9756 18.5247Z" fill="#FBB03B"/>
<path d="M51.9756 21.5247C52.5279 21.5247 52.9756 21.0769 52.9756 20.5247C52.9756 19.9724 52.5279 19.5247 51.9756 19.5247C51.4233 19.5247 50.9756 19.9724 50.9756 20.5247C50.9756 21.0769 51.4233 21.5247 51.9756 21.5247Z" fill="#FBB03B"/>
<path d="M45.9756 18.5247C46.5279 18.5247 46.9756 18.0769 46.9756 17.5247C46.9756 16.9724 46.5279 16.5247 45.9756 16.5247C45.4233 16.5247 44.9756 16.9724 44.9756 17.5247C44.9756 18.0769 45.4233 18.5247 45.9756 18.5247Z" fill="#FBB03B"/>
<path d="M47.9756 21.5247C48.5279 21.5247 48.9756 21.0769 48.9756 20.5247C48.9756 19.9724 48.5279 19.5247 47.9756 19.5247C47.4233 19.5247 46.9756 19.9724 46.9756 20.5247C46.9756 21.0769 47.4233 21.5247 47.9756 21.5247Z" fill="#FBB03B"/>
<path d="M41.9756 18.5247C42.5279 18.5247 42.9756 18.0769 42.9756 17.5247C42.9756 16.9724 42.5279 16.5247 41.9756 16.5247C41.4233 16.5247 40.9756 16.9724 40.9756 17.5247C40.9756 18.0769 41.4233 18.5247 41.9756 18.5247Z" fill="#FBB03B"/>
<path d="M43.9756 21.5247C44.5279 21.5247 44.9756 21.0769 44.9756 20.5247C44.9756 19.9724 44.5279 19.5247 43.9756 19.5247C43.4233 19.5247 42.9756 19.9724 42.9756 20.5247C42.9756 21.0769 43.4233 21.5247 43.9756 21.5247Z" fill="#FBB03B"/>
<path d="M67.9756 24.9167V13.1327C67.9756 10.5917 65.9086 8.52466 63.3676 8.52466H12.5836C10.0426 8.52466 7.97559 10.5917 7.97559 13.1327V24.9157C7.97559 26.3847 8.67859 27.6797 9.75259 28.5237C8.67859 29.3687 7.97559 30.6647 7.97559 32.1327V43.9157C7.97559 45.3847 8.67859 46.6797 9.75259 47.5237C8.67859 48.3687 7.97559 49.6647 7.97559 51.1327V62.9157C7.97559 65.4577 10.0426 67.5247 12.5836 67.5247H63.3666C65.9076 67.5247 67.9746 65.4577 67.9746 62.9167V51.1327C67.9746 49.6637 67.2716 48.3687 66.1976 47.5247C67.2726 46.6807 67.9756 45.3847 67.9756 43.9167V32.1327C67.9756 30.6637 67.2726 29.3687 66.1986 28.5247C67.2726 27.6807 67.9756 26.3847 67.9756 24.9167ZM65.9756 51.1327V62.9157C65.9756 64.3537 64.8056 65.5237 63.3676 65.5237H12.5836C11.1456 65.5247 9.97559 64.3547 9.97559 62.9167V51.1327C9.97559 49.6947 11.1456 48.5247 12.5836 48.5247H63.3666C64.8056 48.5247 65.9756 49.6947 65.9756 51.1327ZM65.9756 32.1327V43.9157C65.9756 45.3537 64.8056 46.5237 63.3676 46.5237H12.5836C11.1456 46.5247 9.97559 45.3547 9.97559 43.9167V32.1327C9.97559 30.6947 11.1456 29.5247 12.5836 29.5247H63.3666C64.8056 29.5247 65.9756 30.6947 65.9756 32.1327ZM12.5836 27.5247C11.1456 27.5247 9.97559 26.3547 9.97559 24.9167V13.1327C9.97559 11.6947 11.1456 10.5247 12.5836 10.5247H63.3666C64.8056 10.5247 65.9756 11.6947 65.9756 13.1327V24.9157C65.9756 26.3537 64.8056 27.5237 63.3676 27.5237H12.5836V27.5247Z" fill="#FBB03B"/>
<path d="M18.4756 42.5247C20.9566 42.5247 22.9756 40.5057 22.9756 38.0247C22.9756 35.5437 20.9566 33.5247 18.4756 33.5247C15.9946 33.5247 13.9756 35.5437 13.9756 38.0247C13.9756 40.5057 15.9946 42.5247 18.4756 42.5247ZM18.4756 35.5247C19.8536 35.5247 20.9756 36.6457 20.9756 38.0247C20.9756 39.4037 19.8536 40.5247 18.4756 40.5247C17.0976 40.5247 15.9756 39.4037 15.9756 38.0247C15.9756 36.6457 17.0976 35.5247 18.4756 35.5247Z" fill="#FBB03B"/>
<path d="M57.9756 37.5247C58.5279 37.5247 58.9756 37.0769 58.9756 36.5247C58.9756 35.9724 58.5279 35.5247 57.9756 35.5247C57.4233 35.5247 56.9756 35.9724 56.9756 36.5247C56.9756 37.0769 57.4233 37.5247 57.9756 37.5247Z" fill="#FBB03B"/>
<path d="M53.9756 37.5247C54.5279 37.5247 54.9756 37.0769 54.9756 36.5247C54.9756 35.9724 54.5279 35.5247 53.9756 35.5247C53.4233 35.5247 52.9756 35.9724 52.9756 36.5247C52.9756 37.0769 53.4233 37.5247 53.9756 37.5247Z" fill="#FBB03B"/>
<path d="M59.9756 40.5247C60.5279 40.5247 60.9756 40.0769 60.9756 39.5247C60.9756 38.9724 60.5279 38.5247 59.9756 38.5247C59.4233 38.5247 58.9756 38.9724 58.9756 39.5247C58.9756 40.0769 59.4233 40.5247 59.9756 40.5247Z" fill="#FBB03B"/>
<path d="M55.9756 40.5247C56.5279 40.5247 56.9756 40.0769 56.9756 39.5247C56.9756 38.9724 56.5279 38.5247 55.9756 38.5247C55.4233 38.5247 54.9756 38.9724 54.9756 39.5247C54.9756 40.0769 55.4233 40.5247 55.9756 40.5247Z" fill="#FBB03B"/>
<path d="M49.9756 37.5247C50.5279 37.5247 50.9756 37.0769 50.9756 36.5247C50.9756 35.9724 50.5279 35.5247 49.9756 35.5247C49.4233 35.5247 48.9756 35.9724 48.9756 36.5247C48.9756 37.0769 49.4233 37.5247 49.9756 37.5247Z" fill="#FBB03B"/>
<path d="M51.9756 40.5247C52.5279 40.5247 52.9756 40.0769 52.9756 39.5247C52.9756 38.9724 52.5279 38.5247 51.9756 38.5247C51.4233 38.5247 50.9756 38.9724 50.9756 39.5247C50.9756 40.0769 51.4233 40.5247 51.9756 40.5247Z" fill="#FBB03B"/>
<path d="M45.9756 37.5247C46.5279 37.5247 46.9756 37.0769 46.9756 36.5247C46.9756 35.9724 46.5279 35.5247 45.9756 35.5247C45.4233 35.5247 44.9756 35.9724 44.9756 36.5247C44.9756 37.0769 45.4233 37.5247 45.9756 37.5247Z" fill="#FBB03B"/>
<path d="M47.9756 40.5247C48.5279 40.5247 48.9756 40.0769 48.9756 39.5247C48.9756 38.9724 48.5279 38.5247 47.9756 38.5247C47.4233 38.5247 46.9756 38.9724 46.9756 39.5247C46.9756 40.0769 47.4233 40.5247 47.9756 40.5247Z" fill="#FBB03B"/>
<path d="M41.9756 37.5247C42.5279 37.5247 42.9756 37.0769 42.9756 36.5247C42.9756 35.9724 42.5279 35.5247 41.9756 35.5247C41.4233 35.5247 40.9756 35.9724 40.9756 36.5247C40.9756 37.0769 41.4233 37.5247 41.9756 37.5247Z" fill="#FBB03B"/>
<path d="M43.9756 40.5247C44.5279 40.5247 44.9756 40.0769 44.9756 39.5247C44.9756 38.9724 44.5279 38.5247 43.9756 38.5247C43.4233 38.5247 42.9756 38.9724 42.9756 39.5247C42.9756 40.0769 43.4233 40.5247 43.9756 40.5247Z" fill="#FBB03B"/>
<path d="M18.4756 61.5247C20.9566 61.5247 22.9756 59.5057 22.9756 57.0247C22.9756 54.5437 20.9566 52.5247 18.4756 52.5247C15.9946 52.5247 13.9756 54.5437 13.9756 57.0247C13.9756 59.5057 15.9946 61.5247 18.4756 61.5247ZM18.4756 54.5247C19.8536 54.5247 20.9756 55.6457 20.9756 57.0247C20.9756 58.4037 19.8536 59.5247 18.4756 59.5247C17.0976 59.5247 15.9756 58.4037 15.9756 57.0247C15.9756 55.6457 17.0976 54.5247 18.4756 54.5247Z" fill="#FBB03B"/>
<path d="M57.9756 56.5247C58.5279 56.5247 58.9756 56.0769 58.9756 55.5247C58.9756 54.9724 58.5279 54.5247 57.9756 54.5247C57.4233 54.5247 56.9756 54.9724 56.9756 55.5247C56.9756 56.0769 57.4233 56.5247 57.9756 56.5247Z" fill="#FBB03B"/>
<path d="M53.9756 56.5247C54.5279 56.5247 54.9756 56.0769 54.9756 55.5247C54.9756 54.9724 54.5279 54.5247 53.9756 54.5247C53.4233 54.5247 52.9756 54.9724 52.9756 55.5247C52.9756 56.0769 53.4233 56.5247 53.9756 56.5247Z" fill="#FBB03B"/>
<path d="M59.9756 59.5247C60.5279 59.5247 60.9756 59.0769 60.9756 58.5247C60.9756 57.9724 60.5279 57.5247 59.9756 57.5247C59.4233 57.5247 58.9756 57.9724 58.9756 58.5247C58.9756 59.0769 59.4233 59.5247 59.9756 59.5247Z" fill="#FBB03B"/>
<path d="M55.9756 59.5247C56.5279 59.5247 56.9756 59.0769 56.9756 58.5247C56.9756 57.9724 56.5279 57.5247 55.9756 57.5247C55.4233 57.5247 54.9756 57.9724 54.9756 58.5247C54.9756 59.0769 55.4233 59.5247 55.9756 59.5247Z" fill="#FBB03B"/>
<path d="M49.9756 56.5247C50.5279 56.5247 50.9756 56.0769 50.9756 55.5247C50.9756 54.9724 50.5279 54.5247 49.9756 54.5247C49.4233 54.5247 48.9756 54.9724 48.9756 55.5247C48.9756 56.0769 49.4233 56.5247 49.9756 56.5247Z" fill="#FBB03B"/>
<path d="M51.9756 59.5247C52.5279 59.5247 52.9756 59.0769 52.9756 58.5247C52.9756 57.9724 52.5279 57.5247 51.9756 57.5247C51.4233 57.5247 50.9756 57.9724 50.9756 58.5247C50.9756 59.0769 51.4233 59.5247 51.9756 59.5247Z" fill="#FBB03B"/>
<path d="M45.9756 56.5247C46.5279 56.5247 46.9756 56.0769 46.9756 55.5247C46.9756 54.9724 46.5279 54.5247 45.9756 54.5247C45.4233 54.5247 44.9756 54.9724 44.9756 55.5247C44.9756 56.0769 45.4233 56.5247 45.9756 56.5247Z" fill="#FBB03B"/>
<path d="M47.9756 59.5247C48.5279 59.5247 48.9756 59.0769 48.9756 58.5247C48.9756 57.9724 48.5279 57.5247 47.9756 57.5247C47.4233 57.5247 46.9756 57.9724 46.9756 58.5247C46.9756 59.0769 47.4233 59.5247 47.9756 59.5247Z" fill="#FBB03B"/>
<path d="M41.9756 56.5247C42.5279 56.5247 42.9756 56.0769 42.9756 55.5247C42.9756 54.9724 42.5279 54.5247 41.9756 54.5247C41.4233 54.5247 40.9756 54.9724 40.9756 55.5247C40.9756 56.0769 41.4233 56.5247 41.9756 56.5247Z" fill="#FBB03B"/>
<path d="M43.9756 59.5247C44.5279 59.5247 44.9756 59.0769 44.9756 58.5247C44.9756 57.9724 44.5279 57.5247 43.9756 57.5247C43.4233 57.5247 42.9756 57.9724 42.9756 58.5247C42.9756 59.0769 43.4233 59.5247 43.9756 59.5247Z" fill="#FBB03B"/>
</g>
<defs>
<clipPath id="clip0">
<rect width="60" height="60" fill="white" transform="translate(7.97559 8.02466)"/>
</clipPath>
</defs>
</svg>
