<svg width="76" height="76" viewBox="0 0 76 76" fill="none" xmlns="http://www.w3.org/2000/svg">
<circle cx="37.9753" cy="38" r="37.9753" fill="#FBB03B" fill-opacity="0.1"/>
<g clip-path="url(#clip0)">
<path d="M62.0506 18.3585L43.7334 8.4397C41.9958 7.4985 39.6066 8.2225 38.6654 9.96009L27.9503 29.87H14.9183C13.2531 29.87 11.95 31.1732 11.95 32.8384V38.0512V65.0563C11.95 66.7215 13.2531 68.0247 14.9183 68.0247H56.5482C58.2134 68.0247 59.5166 66.7215 59.5166 65.0563V57.5267H60.7474C61.399 57.5267 61.9058 57.0199 61.9058 56.3683V47.7527C61.9058 47.1011 61.399 46.5943 60.7474 46.5943H59.5166V38.1236C59.5166 36.748 58.503 35.5172 57.1998 35.2276L63.571 23.4264C64.5121 21.6164 63.8605 19.3721 62.0506 18.3585ZM49.0186 13.9421L37.5795 35.1552H34.3215L46.557 12.6389L49.0186 13.9421ZM40.765 11.0461C41.127 10.3945 41.9958 10.1049 42.6474 10.4669L44.4574 11.4805L31.7151 35.1552H27.7331L40.765 11.0461ZM14.1943 32.766C14.1943 32.5488 14.4839 32.1868 14.8459 32.1868H26.6471L25.0543 35.0828H14.8459C14.6287 35.0828 14.4115 35.0828 14.1943 35.1552V32.766ZM57.1274 65.0563C57.1274 65.4183 56.8378 65.7079 56.4758 65.7079H14.8459C14.4839 65.7079 14.1943 65.4183 14.1943 65.0563V38.1236C14.1943 37.7616 14.4839 37.472 14.8459 37.472H25.7783H30.4119H38.8826H55.1726H56.4034C56.7654 37.472 57.055 37.7616 57.055 38.1236V46.5943H52.6386C50.6838 46.5943 49.1634 48.1871 49.1634 50.0695V54.0515C49.1634 56.0063 50.7562 57.5267 52.6386 57.5267H57.1274V65.0563ZM59.4442 48.9111H59.5166V55.2099H59.4442H52.6386C51.987 55.2099 51.4802 54.7031 51.4802 54.0515V50.0695C51.4802 49.4179 51.987 48.9111 52.6386 48.9111H59.4442ZM61.4714 22.268L54.521 35.1552H40.1858L51.0458 15.1005L60.8922 20.458C61.6162 20.7476 61.8334 21.6164 61.4714 22.268Z" fill="#FBB03B"/>
<path d="M57.0551 21.182L56.4759 20.8924C55.0279 20.096 53.0731 20.6752 52.2767 22.1232L51.5527 23.4988C51.1907 24.2228 51.0459 25.0916 51.3355 25.888C51.5527 26.6844 52.1319 27.336 52.8559 27.698L53.4351 27.9876C53.8695 28.2048 54.3763 28.3496 54.8831 28.3496C56.0415 28.3496 57.0551 27.698 57.6343 26.7568L58.3583 25.3812C59.0823 23.8608 58.5031 21.9784 57.0551 21.182ZM56.2587 24.2952L55.5347 25.6708C55.3175 26.0328 54.8107 26.1776 54.4487 25.9604L53.8695 25.5984C53.7247 25.526 53.5799 25.3088 53.5075 25.164C53.4351 24.9468 53.4351 24.7296 53.5799 24.5848L54.3039 23.2092C54.4487 22.992 54.7383 22.7748 55.0279 22.7748C55.1727 22.7748 55.2451 22.7748 55.3899 22.8472L55.9691 23.1368C56.2587 23.4264 56.4035 23.8608 56.2587 24.2952Z" fill="#FBB03B"/>
</g>
<defs>
<clipPath id="clip0">
<rect width="60" height="60" fill="white" transform="translate(7.9751 8.02466)"/>
</clipPath>
</defs>
</svg>
