<svg width="48" height="48" viewBox="0 0 48 48" fill="none" xmlns="http://www.w3.org/2000/svg">
<path d="M40 42H8C6.9 42 6 41.1 6 40V8C6 6.9 6.9 6 8 6H40C41.1 6 42 6.9 42 8V40C42 41.1 41.1 42 40 42Z" fill="url(#paint0_linear)"/>
<path d="M36 15H12C11.448 15 11 15.448 11 16V30C11 30.552 11.448 31 12 31H15V33C15 33.552 15.448 34 16 34H19V36C19 36.552 19.448 37 20 37H28C28.552 37 29 36.552 29 36V34H32C32.552 34 33 33.552 33 33V31H36C36.552 31 37 30.552 37 30V16C37 15.448 36.552 15 36 15Z" fill="url(#paint1_linear)"/>
<path d="M24.5 19H23.5C23.224 19 23 18.776 23 18.5V15H25V18.5C25 18.776 24.776 19 24.5 19Z" fill="#2D7FC2"/>
<path d="M28.5 19H27.5C27.224 19 27 18.776 27 18.5V15H29V18.5C29 18.776 28.776 19 28.5 19Z" fill="#2D7FC2"/>
<path d="M32.5 19H31.5C31.224 19 31 18.776 31 18.5V15H33V18.5C33 18.776 32.776 19 32.5 19Z" fill="#2D7FC2"/>
<path d="M20.5 19H19.5C19.224 19 19 18.776 19 18.5V15H21V18.5C21 18.776 20.776 19 20.5 19Z" fill="#2D7FC2"/>
<path d="M16.5 19H15.5C15.224 19 15 18.776 15 18.5V15H17V18.5C17 18.776 16.776 19 16.5 19Z" fill="#2D7FC2"/>
<defs>
<linearGradient id="paint0_linear" x1="24" y1="6.121" x2="24" y2="42.039" gradientUnits="userSpaceOnUse">
<stop stop-color="#75DAFF"/>
<stop offset="1" stop-color="#1EA2E4"/>
</linearGradient>
<linearGradient id="paint1_linear" x1="24" y1="37.056" x2="24" y2="14.787" gradientUnits="userSpaceOnUse">
<stop stop-color="#0D61A9"/>
<stop offset="1" stop-color="#16528C"/>
</linearGradient>
</defs>
</svg>
