<svg width="217" height="144" viewBox="0 0 217 144" fill="none" xmlns="http://www.w3.org/2000/svg">
<path d="M104.349 41.8936L103.349 2.76494L70.7868 23.4081L71.8575 62.5415L105.419 81.027L137.916 60.3063L104.349 41.8936Z" fill="#FFE1B3"/>
<path d="M71.8389 62.5014L70.7648 23.3935L103.31 2.76099L104.313 41.8641L71.8389 62.5014Z" fill="#FFE1B3"/>
<path d="M105.443 81.0245L71.8622 62.5107L104.371 41.8293L137.957 60.2702L105.443 81.0245Z" fill="#FFD99E"/>
<path d="M104.359 41.9456L103.358 2.83179L136.918 21.2365L137.919 60.3503L104.359 41.9456Z" fill="#FFE1B3"/>
<path d="M104.358 41.9436L103.357 2.82902L101.945 3.68205L102.946 42.7966L136.506 61.2017L137.918 60.3487L104.358 41.9436Z" fill="white"/>
<path opacity="0.4" d="M108.187 129.713C86.3649 129.713 64.5426 124.842 47.9805 115.028C31.8448 105.504 22.9596 92.782 22.9596 79.2602C22.9596 65.7383 31.8448 53.0161 47.9805 43.4926C81.1759 23.8641 135.269 23.8641 168.465 43.4926C184.6 53.0161 193.486 65.7383 193.486 79.2602C193.486 92.782 184.6 105.504 168.465 115.028C151.832 124.842 130.009 129.713 108.187 129.713ZM108.187 29.4619C86.507 29.4619 64.827 34.3327 48.3359 44.0742C32.4135 53.4523 23.5993 65.9564 23.5993 79.2602C23.5993 92.4912 32.3424 104.995 48.3359 114.446C81.3891 133.929 135.127 133.929 168.109 114.446C184.032 105.068 192.846 92.5639 192.846 79.2602C192.846 66.0291 184.103 53.525 168.109 44.0742C151.547 34.3327 129.867 29.4619 108.187 29.4619Z" fill="#FFE1B3"/>
<path opacity="0.2" d="M108.187 143.234C80.5361 143.234 52.8141 136.982 31.7738 124.551C11.3021 112.483 0 96.3441 0 79.1873C0 62.0305 11.3021 45.9642 31.7738 33.8236C73.9255 8.96081 142.52 8.96081 184.672 33.8236C205.143 45.8915 216.445 62.0305 216.445 79.1873C216.445 96.3441 205.143 112.41 184.672 124.551C163.56 137.055 135.838 143.234 108.187 143.234ZM108.187 15.9398C80.6072 15.9398 53.0984 22.1192 32.1292 34.5506C11.8707 46.5458 0.710822 62.394 0.710822 79.26C0.710822 96.126 11.8707 112.047 32.1292 123.969C74.0677 148.76 142.378 148.76 184.316 123.969C204.575 111.974 215.734 96.126 215.734 79.26C215.734 62.394 204.575 46.4731 184.316 34.5506C163.276 22.1192 135.767 15.9398 108.187 15.9398Z" fill="#FFE1B3"/>
<path d="M108.187 119.099C90.9852 119.099 73.7833 115.246 60.7042 107.54C47.9805 99.9792 40.9434 90.0196 40.9434 79.3329C40.9434 68.6463 47.9805 58.6139 60.7042 51.126C86.8624 35.6413 129.441 35.6413 155.67 51.126C168.394 58.6866 175.431 68.719 175.431 79.3329C175.431 90.0196 168.394 100.052 155.67 107.54C142.591 115.246 125.389 119.099 108.187 119.099ZM108.187 40.0759C91.1274 40.0759 74.0676 43.9289 61.0596 51.5622C48.5491 58.9774 41.6542 68.7917 41.6542 79.1875C41.6542 89.5834 48.5491 99.3976 61.0596 106.813C87.0757 122.152 129.298 122.152 155.315 106.813L155.457 107.104L155.315 106.813C167.825 99.3976 174.72 89.5834 174.72 79.1875C174.72 68.7917 167.825 58.9774 155.315 51.5622C142.307 43.9289 125.247 40.0759 108.187 40.0759Z" fill="#FFE1B3"/>
</svg>
