<svg width="48" height="48" viewBox="0 0 48 48" fill="none" xmlns="http://www.w3.org/2000/svg">
<path d="M39.497 6.273C39.197 5.505 38.457 5 37.633 5H10.367C9.54298 5 8.80298 5.505 8.50298 6.273L6.26398 12.014L24 13L41.736 12.015L39.497 6.273Z" fill="url(#paint0_linear)"/>
<path d="M8 21H40C41.1 21 42 20.1 42 19V13C42 11.9 41.1 11 40 11H8C6.9 11 6 11.9 6 13V19C6 20.1 6.9 21 8 21Z" fill="url(#paint1_linear)"/>
<path d="M38 16C38 17.104 37.104 18 36 18C34.896 18 34 17.104 34 16C34 14.896 34.896 14 36 14C37.104 14 38 14.896 38 16Z" fill="url(#paint2_linear)"/>
<path d="M37 16C37 16.552 36.552 17 36 17C35.448 17 35 16.552 35 16C35 15.448 35.448 15 36 15C36.552 15 37 15.448 37 16Z" fill="url(#paint3_linear)"/>
<path d="M40 31H8C6.9 31 6 30.1 6 29V23C6 21.9 6.9 21 8 21H40C41.1 21 42 21.9 42 23V29C42 30.1 41.1 31 40 31Z" fill="url(#paint4_linear)"/>
<path d="M40 41H8C6.9 41 6 40.1 6 39V33C6 31.9 6.9 31 8 31H40C41.1 31 42 31.9 42 33V39C42 40.1 41.1 41 40 41Z" fill="url(#paint5_linear)"/>
<path d="M38 26C38 27.104 37.104 28 36 28C34.896 28 34 27.104 34 26C34 24.896 34.896 24 36 24C37.104 24 38 24.896 38 26Z" fill="url(#paint6_linear)"/>
<path d="M37 26C37 26.552 36.552 27 36 27C35.448 27 35 26.552 35 26C35 25.448 35.448 25 36 25C36.552 25 37 25.448 37 26Z" fill="url(#paint7_radial)"/>
<path d="M38 36C38 37.104 37.104 38 36 38C34.896 38 34 37.104 34 36C34 34.896 34.896 34 36 34C37.104 34 38 34.896 38 36Z" fill="url(#paint8_linear)"/>
<path d="M37 36C37 36.552 36.552 37 36 37C35.448 37 35 36.552 35 36C35 35.448 35.448 35 36 35C36.552 35 37 35.448 37 36Z" fill="url(#paint9_linear)"/>
<path d="M10.5 15H29.5C29.776 15 30 15.224 30 15.5V16.5C30 16.776 29.776 17 29.5 17H10.5C10.224 17 10 16.776 10 16.5V15.5C10 15.224 10.224 15 10.5 15Z" fill="#737B80"/>
<path d="M10.5 25H29.5C29.776 25 30 25.224 30 25.5V26.5C30 26.776 29.776 27 29.5 27H10.5C10.224 27 10 26.776 10 26.5V25.5C10 25.224 10.224 25 10.5 25Z" fill="#737B80"/>
<path d="M10.5 35H29.5C29.776 35 30 35.224 30 35.5V36.5C30 36.776 29.776 37 29.5 37H10.5C10.224 37 10 36.776 10 36.5V35.5C10 35.224 10.224 35 10.5 35Z" fill="#737B80"/>
<defs>
<linearGradient id="paint0_linear" x1="24" y1="13.493" x2="24" y2="6.429" gradientUnits="userSpaceOnUse">
<stop stop-color="#737B80"/>
<stop offset="1" stop-color="#575C61"/>
</linearGradient>
<linearGradient id="paint1_linear" x1="24" y1="11.034" x2="24" y2="21.011" gradientUnits="userSpaceOnUse">
<stop stop-color="#899198"/>
<stop offset="1" stop-color="#787E85"/>
</linearGradient>
<linearGradient id="paint2_linear" x1="37.418" y1="17.418" x2="34.536" y2="14.536" gradientUnits="userSpaceOnUse">
<stop stop-color="white"/>
<stop offset="0.242" stop-color="#F2F2F2"/>
<stop offset="1" stop-color="#CCCCCC"/>
</linearGradient>
<linearGradient id="paint3_linear" x1="35.293" y1="15.293" x2="36.707" y2="16.707" gradientUnits="userSpaceOnUse">
<stop stop-color="#21AD64"/>
<stop offset="1" stop-color="#088242"/>
</linearGradient>
<linearGradient id="paint4_linear" x1="24" y1="21.034" x2="24" y2="31.011" gradientUnits="userSpaceOnUse">
<stop stop-color="#899198"/>
<stop offset="1" stop-color="#787E85"/>
</linearGradient>
<linearGradient id="paint5_linear" x1="24" y1="31.034" x2="24" y2="41.011" gradientUnits="userSpaceOnUse">
<stop stop-color="#899198"/>
<stop offset="1" stop-color="#787E85"/>
</linearGradient>
<linearGradient id="paint6_linear" x1="37.418" y1="27.418" x2="34.536" y2="24.536" gradientUnits="userSpaceOnUse">
<stop stop-color="white"/>
<stop offset="0.242" stop-color="#F2F2F2"/>
<stop offset="1" stop-color="#CCCCCC"/>
</linearGradient>
<radialGradient id="paint7_radial" cx="0" cy="0" r="1" gradientUnits="userSpaceOnUse" gradientTransform="translate(35.374 25.323) scale(1.919)">
<stop stop-color="#FEE100"/>
<stop offset="1" stop-color="#F7A511"/>
</radialGradient>
<linearGradient id="paint8_linear" x1="37.418" y1="37.418" x2="34.536" y2="34.536" gradientUnits="userSpaceOnUse">
<stop stop-color="white"/>
<stop offset="0.242" stop-color="#F2F2F2"/>
<stop offset="1" stop-color="#CCCCCC"/>
</linearGradient>
<linearGradient id="paint9_linear" x1="35.293" y1="35.293" x2="36.707" y2="36.707" gradientUnits="userSpaceOnUse">
<stop stop-color="#21AD64"/>
<stop offset="1" stop-color="#088242"/>
</linearGradient>
</defs>
</svg>
