<?xml version="1.0" encoding="utf-8"?>
<!-- Generator: Adobe Illustrator 16.0.0, SVG Export Plug-In . SVG Version: 6.00 Build 0)  -->
<!DOCTYPE svg PUBLIC "-//W3C//DTD SVG 1.0//EN" "http://www.w3.org/TR/2001/REC-SVG-20010904/DTD/svg10.dtd"><svg data-v-423bf9ae="" xmlns="http://www.w3.org/2000/svg" viewBox="0 0 382 90" class="iconLeft"><!----><!----><!----><g data-v-423bf9ae="" id="7b4f71e7-71b8-43d0-9b5e-ade27aa63591" fill="#ffffff" transform="matrix(4.942339234199546,0,0,4.942339234199546,87.03581810978716,5.807248834478827)"><path d="M8.68 6.06C8.68 3.42 7.10 1.86 4.24 1.86L0.60 1.86L0.94 3.16L0.94 10.26L4.24 10.26C7.10 10.26 8.68 8.71 8.68 6.06ZM6.62 6.06C6.62 7.87 5.88 8.68 4.24 8.68L2.80 8.68L2.80 3.44L4.24 3.44C5.88 3.44 6.62 4.26 6.62 6.06ZM14.84 6.13L14.84 3.84C14.36 3.68 13.64 3.54 13.08 3.54C12.05 3.54 10.96 3.71 9.95 3.99L9.72 4.06L10.08 5.36L10.08 10.26L11.96 10.26L11.96 5.26C12.26 5.18 12.67 5.12 13.08 5.12C13.22 5.12 13.37 5.14 13.54 5.15L14.24 6.13ZM22.26 7C22.26 4.96 21.03 3.54 18.90 3.54C16.79 3.54 15.54 4.96 15.54 7C15.54 9.03 16.79 10.44 18.90 10.44C21.03 10.44 22.26 9.03 22.26 7ZM20.30 7C20.30 8.22 19.80 8.86 18.90 8.86C18.02 8.86 17.50 8.22 17.50 7C17.50 5.77 18.02 5.12 18.90 5.12C19.80 5.12 20.30 5.77 20.30 7ZM30.11 7C30.11 4.96 28.87 3.54 26.75 3.54C25.73 3.54 24.64 3.71 23.63 3.99L23.39 4.06L23.76 5.36L23.76 14L25.63 14L25.63 10.26C25.97 10.36 26.39 10.44 26.75 10.44C28.87 10.44 30.11 9.03 30.11 7ZM28.15 7C28.15 8.22 27.64 8.86 26.75 8.86C26.35 8.86 25.94 8.81 25.63 8.74L25.63 5.26C25.94 5.18 26.35 5.12 26.75 5.12C27.64 5.12 28.15 5.77 28.15 7ZM33.84 9.32C33.84 8.71 33.35 8.20 32.72 8.20C32.10 8.20 31.60 8.71 31.60 9.32C31.60 9.95 32.10 10.44 32.72 10.44C33.35 10.44 33.84 9.95 33.84 9.32ZM44.55 10.26L43.76 1.86L41.99 1.86L39.98 4.66L38.00 1.86L35.77 1.86L36.09 3.16L35.43 10.26L37.39 10.26L37.83 4.62L39.54 6.86L40.45 6.86L42.15 4.62L42.59 10.26ZM52.29 7C52.29 4.96 51.06 3.54 48.93 3.54C46.82 3.54 45.57 4.96 45.57 7C45.57 9.03 46.82 10.44 48.93 10.44C51.06 10.44 52.29 9.03 52.29 7ZM50.33 7C50.33 8.22 49.83 8.86 48.93 8.86C48.05 8.86 47.53 8.22 47.53 7C47.53 5.77 48.05 5.12 48.93 5.12C49.83 5.12 50.33 5.77 50.33 7ZM59.58 7C59.58 4.93 58.46 3.54 56.45 3.54C54.47 3.54 53.23 4.93 53.23 7C53.23 9.14 54.66 10.44 57.06 10.44C57.71 10.44 58.44 10.30 59.02 10.09L59.02 8.51C58.42 8.71 57.76 8.86 57.06 8.86C56.07 8.86 55.33 8.50 55.16 7.64L59.54 7.64C59.57 7.43 59.58 7.22 59.58 7ZM57.74 6.16L55.19 6.16C55.30 5.45 55.80 5.01 56.45 5.01C57.11 5.01 57.61 5.38 57.74 6.16Z"></path></g><!----><g data-v-423bf9ae="" id="ff1ba699-7bf1-4334-8b58-ec563e409b2c" transform="matrix(3.3333333333333335,0,0,3.3333333333333335,-8.999757528305054,-3.3333333333333357)" stroke="none" fill="#C93A5F"><g><path d="M15 28c-6.114 0-9-6-9-12 0-4.549 2.31-12 9-12 5.69 0 9 5.528 9 12 0 6.594-2.886 12-9 12zm0-2c3.961 0 7-4.059 7-10S18.961 6 15 6s-7 4.059-7 10 3.039 10 7 10z"></path><ellipse cx="16" cy="17" rx="3" ry="4"></ellipse><path d="M9.295 18.797C9.104 17.917 9 16.977 9 16c0-4.97 2.686-9 6-9 2.338 0 4.363 2.006 5.354 4.932a24 24 0 0 0-11.059 6.865zM13 15c1.105 0 2-1.12 2-2.5s-.895-2.5-2-2.5-2 1.12-2 2.5.895 2.5 2 2.5z"></path><ellipse cx="16" cy="17" rx="3" ry="4"></ellipse><path d="M14.5 1C8.73 1 4.62 5.33 3.022 12.79a1 1 0 1 0 1.956.42C6.398 6.586 9.8 3 14.5 3a1 1 0 0 0 0-2z"></path></g></g><!----></svg>