<svg width="656" height="612" viewBox="0 0 656 612" fill="none" xmlns="http://www.w3.org/2000/svg">
<path d="M216 76.6924H858" stroke="#494740" stroke-width="0.902937"/>
<g opacity="0.1">
<g opacity="0.1">
<path opacity="0.1" d="M409.267 429.22L367.397 404.255V454.185L409.267 479.056L451.226 454.185V404.255L409.267 429.22Z" fill="#FFE1B3"/>
<path opacity="0.1" d="M409.267 479.056L367.397 454.185V404.255L409.267 429.22V479.056Z" fill="#FFE1B3"/>
<path opacity="0.1" d="M451.226 454.185L409.267 479.056V429.22L451.226 404.255V454.185Z" fill="#FFD99E"/>
<path opacity="0.1" d="M409.267 429.22L367.398 404.255L409.267 379.291L451.227 404.255L409.267 429.22Z" fill="#FFE1B3"/>
<path opacity="0.1" d="M409.267 429.22L369.198 405.369L367.397 406.39L409.267 431.355L451.226 406.39L449.426 405.369L409.267 429.22Z" fill="white"/>
</g>
<g opacity="0.1">
<path opacity="0.1" d="M463.742 461.238L421.873 436.273V486.202L463.742 511.074L505.702 486.202V436.273L463.742 461.238Z" fill="#FFE1B3"/>
<path opacity="0.1" d="M463.742 511.074L421.873 486.202V436.273L463.742 461.238V511.074Z" fill="#FFE1B3"/>
<path opacity="0.1" d="M505.702 486.202L463.742 511.074V461.238L505.702 436.273V486.202Z" fill="#FFD99E"/>
<path opacity="0.1" d="M463.742 461.238L421.873 436.273L463.742 411.309L505.702 436.273L463.742 461.238Z" fill="#FFE1B3"/>
<path opacity="0.1" d="M463.742 461.238L423.674 437.387L421.873 438.408L463.742 463.372L505.702 438.408L503.901 437.387L463.742 461.238Z" fill="white"/>
</g>
<g opacity="0.1">
<path opacity="0.1" d="M518.218 493.256L476.258 468.291V518.22L518.218 543.185L560.177 518.22V468.291L518.218 493.256Z" fill="#FFE1B3"/>
<path opacity="0.1" d="M518.218 543.185L476.258 518.22V468.291L518.218 493.256V543.185Z" fill="#FFE1B3"/>
<path opacity="0.1" d="M560.177 518.22L518.218 543.185V493.256L560.177 468.291V518.22Z" fill="#FFD99E"/>
<path opacity="0.1" d="M518.218 493.256L476.258 468.291L518.218 443.327L560.177 468.291L518.218 493.256Z" fill="#FFE1B3"/>
<path opacity="0.1" d="M518.218 493.256L478.149 469.405L476.258 470.426L518.218 495.39L560.177 470.426V468.291L518.218 493.256Z" fill="white"/>
</g>
<g opacity="0.1">
<path opacity="0.1" d="M354.881 463.372L312.922 438.408V488.337L354.881 513.302L396.751 488.337V438.408L354.881 463.372Z" fill="#FFE1B3"/>
<path opacity="0.1" d="M354.881 513.302L312.922 488.337V438.408L354.881 463.372V513.302Z" fill="#FFE1B3"/>
<path opacity="0.1" d="M396.751 488.337L354.881 513.302V463.372L396.751 438.408V488.337Z" fill="#FFD99E"/>
<path opacity="0.1" d="M354.881 463.372L312.922 438.408L354.881 413.536L396.751 438.408L354.881 463.372Z" fill="#FFE1B3"/>
<path opacity="0.1" d="M354.881 463.372L314.723 439.521L312.922 440.635L354.881 465.6L396.751 440.635L394.95 439.521L354.881 463.372Z" fill="white"/>
</g>
<g opacity="0.1">
<path opacity="0.1" d="M409.267 495.39L367.397 470.425V520.355L409.267 545.319L451.226 520.355V470.425L409.267 495.39Z" fill="#FFE1B3"/>
<path opacity="0.1" d="M409.267 545.319L367.397 520.355V470.425L409.267 495.39V545.319Z" fill="#FFE1B3"/>
<path opacity="0.1" d="M451.226 520.355L409.267 545.319V495.39L451.226 470.425V520.355Z" fill="#FFD99E"/>
<path opacity="0.1" d="M409.267 495.39L367.398 470.426L409.267 445.554L451.227 470.426L409.267 495.39Z" fill="#FFE1B3"/>
<path opacity="0.1" d="M409.267 495.39L369.198 471.539L367.397 472.653L409.267 497.618L451.226 472.653L449.426 471.539L409.267 495.39Z" fill="white"/>
</g>
<g opacity="0.1">
<path opacity="0.1" d="M463.742 527.408L421.873 502.536V552.372L463.742 577.337L505.702 552.372V502.536L463.742 527.408Z" fill="#FFE1B3"/>
<path opacity="0.1" d="M463.742 577.337L421.873 552.372V502.536L463.742 527.408V577.337Z" fill="#FFE1B3"/>
<path opacity="0.1" d="M505.702 552.372L463.742 577.337V527.408L505.702 502.536V552.372Z" fill="#FFD99E"/>
<path opacity="0.1" d="M463.742 527.408L421.873 502.536L463.742 477.572L505.702 502.536L463.742 527.408Z" fill="#FFE1B3"/>
<path opacity="0.1" d="M463.742 527.408L423.674 503.557L421.873 504.671L463.742 529.635L505.702 504.671V502.536L463.742 527.408Z" fill="white"/>
</g>
<g opacity="0.1">
<path opacity="0.1" d="M300.406 497.618L258.447 472.653V522.489L300.406 547.454L342.276 522.489V472.653L300.406 497.618Z" fill="#FFE1B3"/>
<path opacity="0.1" d="M300.406 547.454L258.447 522.489V472.653L300.406 497.618V547.454Z" fill="#FFE1B3"/>
<path opacity="0.1" d="M342.275 522.489L300.406 547.454V497.618L342.275 472.653V522.489Z" fill="#FFD99E"/>
<path opacity="0.1" d="M300.406 497.617L258.447 472.653L300.406 447.688L342.276 472.653L300.406 497.617Z" fill="#FFE1B3"/>
<path opacity="0.1" d="M300.406 497.618L258.447 472.653V474.788L300.406 499.752L342.276 474.788L340.475 473.674L300.406 497.618Z" fill="white"/>
</g>
<g opacity="0.1">
<path opacity="0.1" d="M354.881 529.635L312.922 504.671V554.507L354.881 579.472L396.751 554.507V504.671L354.881 529.635Z" fill="#FFE1B3"/>
<path opacity="0.1" d="M354.881 579.472L312.922 554.507V504.671L354.881 529.635V579.472Z" fill="#FFE1B3"/>
<path opacity="0.1" d="M396.751 554.507L354.881 579.472V529.635L396.751 504.671V554.507Z" fill="#FFD99E"/>
<path opacity="0.1" d="M354.881 529.635L312.922 504.671L354.881 479.706L396.751 504.671L354.881 529.635Z" fill="#FFE1B3"/>
<path opacity="0.1" d="M354.881 529.635L312.922 504.671V506.805L354.881 531.77L396.751 506.805L394.95 505.784L354.881 529.635Z" fill="white"/>
</g>
<g opacity="0.1">
<path opacity="0.1" d="M409.267 561.653L367.397 536.689V586.618L409.267 611.49L451.226 586.618V536.689L409.267 561.653Z" fill="#FFE1B3"/>
<path opacity="0.1" d="M409.267 611.49L367.397 586.618V536.689L409.267 561.653V611.49Z" fill="#FFE1B3"/>
<path opacity="0.1" d="M451.226 586.618L409.267 611.49V561.653L451.226 536.689V586.618Z" fill="#FFD99E"/>
<path opacity="0.1" d="M409.267 561.653L367.398 536.688L409.267 511.724L451.227 536.688L409.267 561.653Z" fill="#FFE1B3"/>
<path opacity="0.1" d="M409.267 561.653L367.397 536.689V538.823L409.267 563.788L451.226 538.823V536.689L409.267 561.653Z" fill="white"/>
</g>
<g opacity="0.1">
<path opacity="0.1" d="M409.267 362.957L367.397 337.992V387.922L409.267 412.886L451.226 387.922V337.992L409.267 362.957Z" fill="#FFE1B3"/>
<path opacity="0.1" d="M409.267 412.886L367.397 387.922V337.992L409.267 362.957V412.886Z" fill="#FFE1B3"/>
<path opacity="0.1" d="M451.226 387.922L409.267 412.886V362.957L451.226 337.992V387.922Z" fill="#FFD99E"/>
<path opacity="0.1" d="M409.267 362.957L367.398 337.992L409.267 313.121L451.227 337.992L409.267 362.957Z" fill="#FFE1B3"/>
<path opacity="0.1" d="M409.267 362.957L369.198 339.106L367.397 340.22L409.267 365.184L451.226 340.22L449.426 339.106L409.267 362.957Z" fill="white"/>
</g>
<g opacity="0.1">
<path opacity="0.7" d="M409.267 553.486L380.723 536.503L409.267 519.427L437.9 536.503L409.267 553.486Z" fill="#FFCD80"/>
<path opacity="0.7" d="M354.881 521.469L326.248 504.485L354.881 487.409L383.424 504.485L354.881 521.469Z" fill="#FFCD80"/>
<path opacity="0.7" d="M463.742 519.334L435.199 502.258L463.742 485.274L492.375 502.258L463.742 519.334Z" fill="#FFCD80"/>
<path opacity="0.7" d="M518.307 485.553L489.764 468.477L518.307 451.493L546.941 468.477L518.307 485.553Z" fill="#FFCD80"/>
<path opacity="0.7" d="M300.406 489.45L271.773 472.466L300.406 455.39L328.949 472.466L300.406 489.45Z" fill="#FFCD80"/>
</g>
<g opacity="0.1">
<path opacity="0.1" d="M463.742 394.975L421.873 370.103V419.94L463.742 444.904L505.702 419.94V370.103L463.742 394.975Z" fill="#FFE1B3"/>
<path opacity="0.1" d="M463.742 444.904L421.873 419.94V370.103L463.742 394.975V444.904Z" fill="#FFE1B3"/>
<path opacity="0.1" d="M505.702 419.94L463.742 444.904V394.975L505.702 370.103V419.94Z" fill="#FFD99E"/>
<path opacity="0.1" d="M463.742 394.975L421.873 370.103L463.742 345.138L505.702 370.103L463.742 394.975Z" fill="#FFE1B3"/>
<path opacity="0.1" d="M463.742 394.975L423.674 371.124L421.873 372.238L463.742 397.202L505.702 372.238L503.901 371.124L463.742 394.975Z" fill="white"/>
</g>
<g opacity="0.1">
<path opacity="0.1" d="M518.218 426.993L476.258 402.121V451.957L518.218 476.922L560.177 451.957V402.121L518.218 426.993Z" fill="#FFE1B3"/>
<path opacity="0.1" d="M518.218 476.922L476.258 451.957V402.121L518.218 426.993V476.922Z" fill="#FFE1B3"/>
<path opacity="0.1" d="M560.177 451.957L518.218 476.922V426.993L560.177 402.121V451.957Z" fill="#FFD99E"/>
<path opacity="0.1" d="M518.218 426.993L476.258 402.121L518.218 377.156L560.177 402.121L518.218 426.993Z" fill="#FFE1B3"/>
<path opacity="0.1" d="M518.218 426.993L478.149 403.142L476.258 404.255L518.218 429.22L560.177 404.255V402.121L518.218 426.993Z" fill="white"/>
</g>
<g opacity="0.1">
<path opacity="0.1" d="M354.881 397.202L312.922 372.237V422.074L354.881 447.039L396.751 422.074V372.237L354.881 397.202Z" fill="#FFE1B3"/>
<path opacity="0.1" d="M354.881 447.039L312.922 422.074V372.237L354.881 397.202V447.039Z" fill="#FFE1B3"/>
<path opacity="0.1" d="M396.751 422.074L354.881 447.039V397.202L396.751 372.237V422.074Z" fill="#FFD99E"/>
<path opacity="0.1" d="M354.881 397.202L312.922 372.238L354.881 347.273L396.751 372.238L354.881 397.202Z" fill="#FFE1B3"/>
<path opacity="0.1" d="M354.881 397.202L314.723 373.351L312.922 374.372L354.881 399.337L396.751 374.372L394.95 373.351L354.881 397.202Z" fill="white"/>
</g>
<g opacity="0.1">
<path opacity="0.1" d="M409.267 429.22L367.397 404.255V454.185L409.267 479.056L451.226 454.185V404.255L409.267 429.22Z" fill="#FFE1B3"/>
<path opacity="0.1" d="M409.267 479.056L367.397 454.185V404.255L409.267 429.22V479.056Z" fill="#FFE1B3"/>
<path opacity="0.1" d="M451.226 454.185L409.267 479.056V429.22L451.226 404.255V454.185Z" fill="#FFD99E"/>
<path opacity="0.1" d="M409.267 429.22L367.398 404.255L409.267 379.291L451.227 404.255L409.267 429.22Z" fill="#FFE1B3"/>
<path opacity="0.1" d="M409.267 429.22L369.198 405.369L367.397 406.39L409.267 431.355L451.226 406.39L449.426 405.369L409.267 429.22Z" fill="white"/>
</g>
<g opacity="0.1">
<path opacity="0.1" d="M463.742 461.238L421.873 436.273V486.202L463.742 511.074L505.702 486.202V436.273L463.742 461.238Z" fill="#FFE1B3"/>
<path opacity="0.1" d="M463.742 511.167L421.873 486.202V436.273L463.742 461.238V511.167Z" fill="#FFE1B3"/>
<path opacity="0.1" d="M505.702 486.202L463.742 511.167V461.238L505.702 436.273V486.202Z" fill="#FFD99E"/>
<path opacity="0.1" d="M463.742 461.238L421.873 436.273L463.742 411.309L505.702 436.273L463.742 461.238Z" fill="#FFE1B3"/>
<path opacity="0.1" d="M463.742 461.238L423.674 437.387L421.873 438.408L463.742 463.372L505.702 438.408V436.273L463.742 461.238Z" fill="white"/>
</g>
<g opacity="0.1">
<path opacity="0.1" d="M300.406 431.355L258.447 406.39V456.319L300.406 481.284L342.276 456.319V406.39L300.406 431.355Z" fill="#FFE1B3"/>
<path opacity="0.1" d="M300.406 481.284L258.447 456.319V406.39L300.406 431.355V481.284Z" fill="#FFE1B3"/>
<path opacity="0.1" d="M342.275 456.319L300.406 481.284V431.355L342.275 406.39V456.319Z" fill="#FFD99E"/>
<path opacity="0.1" d="M300.406 431.355L258.447 406.39L300.406 381.425L342.276 406.39L300.406 431.355Z" fill="#FFE1B3"/>
<path opacity="0.1" d="M300.406 431.354L260.247 407.503L258.447 408.617L300.406 433.489L342.276 408.617L340.475 407.503L300.406 431.354Z" fill="white"/>
</g>
<g opacity="0.1">
<path opacity="0.1" d="M354.881 463.372L312.922 438.408V488.337L354.881 513.302L396.751 488.337V438.408L354.881 463.372Z" fill="#FFE1B3"/>
<path opacity="0.1" d="M354.881 513.302L312.922 488.337V438.408L354.881 463.372V513.302Z" fill="#FFE1B3"/>
<path opacity="0.1" d="M396.751 488.337L354.881 513.302V463.372L396.751 438.408V488.337Z" fill="#FFD99E"/>
<path opacity="0.1" d="M354.881 463.372L312.922 438.408L354.881 413.536L396.751 438.408L354.881 463.372Z" fill="#FFE1B3"/>
<path opacity="0.1" d="M354.881 463.372L312.922 438.408V440.635L354.881 465.6L396.751 440.635L394.95 439.521L354.881 463.372Z" fill="white"/>
</g>
<g opacity="0.1">
<path opacity="0.1" d="M409.267 495.39L367.397 470.425V520.355L409.267 545.319L451.226 520.355V470.425L409.267 495.39Z" fill="#FFE1B3"/>
<path opacity="0.1" d="M409.267 545.319L367.397 520.355V470.425L409.267 495.39V545.319Z" fill="#FFE1B3"/>
<path opacity="0.1" d="M451.226 520.355L409.267 545.319V495.39L451.226 470.425V520.355Z" fill="#FFD99E"/>
<path opacity="0.1" d="M409.267 495.39L367.398 470.426L409.267 445.554L451.227 470.426L409.267 495.39Z" fill="#FFE1B3"/>
<path opacity="0.1" d="M409.267 495.39L367.397 470.425V472.653L409.267 497.618L451.226 472.653V470.425L409.267 495.39Z" fill="white"/>
</g>
<g opacity="0.1">
<path opacity="0.7" d="M518.307 419.568L489.764 402.585L518.307 385.602L546.941 402.585L518.307 419.568Z" fill="#FFCD80"/>
<path opacity="0.7" d="M300.406 423.558L271.773 406.482L300.406 389.498L328.949 406.482L300.406 423.558Z" fill="#FFCD80"/>
</g>
<g opacity="0.1">
<path opacity="0.1" d="M409.267 296.787L367.397 271.822V321.752L409.267 346.623L451.226 321.752V271.822L409.267 296.787Z" fill="#FFE1B3"/>
<path opacity="0.1" d="M409.267 346.623L367.397 321.752V271.822L409.267 296.787V346.623Z" fill="#FFE1B3"/>
<path opacity="0.1" d="M451.226 321.752L409.267 346.623V296.787L451.226 271.822V321.752Z" fill="#FFD99E"/>
<path opacity="0.1" d="M409.267 296.787L367.397 271.822L409.267 246.858L451.226 271.822L409.267 296.787Z" fill="#FFE1B3"/>
<path opacity="0.1" d="M409.267 296.787L367.397 271.822V273.957L409.267 298.921L451.226 273.957V271.822L409.267 296.787Z" fill="white"/>
</g>
<g opacity="0.1">
<path opacity="0.1" d="M463.742 328.805L421.873 303.84V353.769L463.742 378.734L505.702 353.769V303.84L463.742 328.805Z" fill="#FFE1B3"/>
<path opacity="0.1" d="M463.742 378.734L421.873 353.769V303.84L463.742 328.805V378.734Z" fill="#FFE1B3"/>
<path opacity="0.1" d="M505.702 353.769L463.742 378.734V328.805L505.702 303.84V353.769Z" fill="#FFD99E"/>
<path opacity="0.1" d="M463.742 328.805L421.873 303.84L463.742 278.875L505.702 303.84L463.742 328.805Z" fill="#FFE1B3"/>
<path opacity="0.1" d="M463.742 328.805L421.873 303.84V305.975L463.742 330.939L505.702 305.975V303.84L463.742 328.805Z" fill="white"/>
</g>
<g opacity="0.1">
<path opacity="0.1" d="M518.218 360.823L476.258 335.858V385.787L518.218 410.752L560.177 385.787V335.858L518.218 360.823Z" fill="#FFE1B3"/>
<path opacity="0.1" d="M518.218 410.752L476.258 385.787V335.858L518.218 360.823V410.752Z" fill="#FFE1B3"/>
<path opacity="0.1" d="M560.177 385.787L518.218 410.752V360.823L560.177 335.858V385.787Z" fill="#FFD99E"/>
<path opacity="0.1" d="M518.218 360.823L476.258 335.858L518.218 310.893L560.177 335.858L518.218 360.823Z" fill="#FFE1B3"/>
<path opacity="0.1" d="M518.218 360.822L476.258 335.858V337.992L518.218 362.957L560.177 337.992V335.858L518.218 360.822Z" fill="white"/>
</g>
<g opacity="0.1">
<path opacity="0.1" d="M354.881 330.939L312.922 305.975V355.904L354.881 380.868L396.751 355.904V305.975L354.881 330.939Z" fill="#FFE1B3"/>
<path opacity="0.1" d="M354.881 380.868L312.922 355.904V305.975L354.881 330.939V380.868Z" fill="#FFE1B3"/>
<path opacity="0.1" d="M396.751 355.904L354.881 380.868V330.939L396.751 305.975V355.904Z" fill="#FFD99E"/>
<path opacity="0.1" d="M354.881 330.939L312.922 305.975L354.881 281.103L396.751 305.975L354.881 330.939Z" fill="#FFE1B3"/>
<path opacity="0.1" d="M354.881 330.939L312.922 305.975V308.202L354.881 333.167L396.751 308.202V305.975L354.881 330.939Z" fill="white"/>
</g>
<g opacity="0.1">
<path opacity="0.1" d="M300.406 365.184L258.447 340.22V390.056L300.406 415.021L342.276 390.056V340.22L300.406 365.184Z" fill="#FFE1B3"/>
<path opacity="0.1" d="M300.406 415.021L258.447 390.056V340.22L300.406 365.184V415.021Z" fill="#FFE1B3"/>
<path opacity="0.1" d="M342.275 390.056L300.406 415.021V365.184L342.275 340.22V390.056Z" fill="#FFD99E"/>
<path opacity="0.1" d="M300.406 365.184L258.447 340.22L300.406 315.255L342.276 340.22L300.406 365.184Z" fill="#FFE1B3"/>
<path opacity="0.1" d="M300.406 365.184L258.447 340.22V342.354L300.406 367.319L342.276 342.354V340.22L300.406 365.184Z" fill="white"/>
</g>
</g>
<g opacity="0.2">
<g opacity="0.2">
<path opacity="0.2" d="M465.543 492.42L436.279 474.973C431.237 472.003 427.185 464.672 427.185 458.732V451.493C427.185 445.832 423.313 438.872 418.541 435.995L412.418 432.375L412.868 431.633L418.991 435.252C424.033 438.222 428.085 445.554 428.085 451.493V458.732C428.085 464.393 431.957 471.354 436.729 474.231L465.993 491.678L465.543 492.42Z" fill="#FFE1B3"/>
<path opacity="0.2" d="M476.888 485.646L447.625 468.198C442.582 465.229 438.53 457.897 438.53 451.957V444.719C438.53 439.057 434.659 432.097 429.886 429.22L423.763 425.601L424.214 424.858L430.337 428.478C435.379 431.447 439.431 438.779 439.431 444.719V451.957C439.431 457.619 443.303 464.579 448.075 467.456L477.338 484.903L476.888 485.646Z" fill="#FFE1B3"/>
<path opacity="0.2" d="M488.234 478.964L458.97 461.516C453.927 458.547 449.875 451.215 449.875 445.276V438.037C449.875 432.376 446.004 425.415 441.231 422.538L435.109 418.919L435.559 418.176L441.682 421.796C446.724 424.766 450.776 432.097 450.776 438.037V445.276C450.776 450.937 454.648 457.897 459.42 460.774L488.684 478.221L488.234 478.964Z" fill="#FFE1B3"/>
<path opacity="0.2" d="M499.669 472.189L470.405 454.742C465.363 451.772 461.311 444.44 461.311 438.501V431.262C461.311 425.601 457.439 418.64 452.667 415.763L446.544 412.144L446.994 411.402L453.117 415.021C458.16 417.991 462.211 425.322 462.211 431.262V438.501C462.211 444.162 466.083 451.122 470.855 453.999L500.119 471.446L499.669 472.189Z" fill="#FFE1B3"/>
<path opacity="0.2" d="M511.014 465.414L481.75 447.967C476.708 444.997 472.656 437.665 472.656 431.726V424.487C472.656 418.826 468.784 411.866 464.012 408.989L457.889 405.369L458.339 404.627L464.462 408.246C469.505 411.216 473.557 418.548 473.557 424.487V431.726C473.557 437.387 477.428 444.347 482.201 447.224L511.464 464.672L511.014 465.414Z" fill="#FFE1B3"/>
<path opacity="0.2" d="M522.359 458.639L493.095 441.192C488.053 438.222 484.001 430.891 484.001 424.951V417.712C484.001 412.051 480.129 405.091 475.357 402.214L469.234 398.594L469.685 397.852L475.807 401.471C480.85 404.441 484.902 411.773 484.902 417.712V424.951C484.902 430.612 488.773 437.573 493.546 440.45L522.809 457.897L522.359 458.639Z" fill="#FFE1B3"/>
<path opacity="0.2" d="M533.795 451.865L504.531 434.417C499.489 431.447 495.437 424.116 495.437 418.176V410.937C495.437 405.276 491.565 398.316 486.793 395.439L480.67 391.82L481.12 391.077L487.243 394.697C492.285 397.666 496.337 404.998 496.337 410.937V418.176C496.337 423.837 500.209 430.798 504.981 433.675L534.245 451.122L533.795 451.865Z" fill="#FFE1B3"/>
<path opacity="0.2" d="M545.14 445.183L515.876 427.735C510.834 424.765 506.782 417.434 506.782 411.494V404.255C506.782 398.594 502.91 391.634 498.138 388.757L492.015 385.138L492.465 384.395L498.588 388.015C503.631 390.984 507.683 398.316 507.683 404.255V411.494C507.683 417.155 511.554 424.116 516.327 426.993L545.59 444.44L545.14 445.183Z" fill="#FFE1B3"/>
<path opacity="0.2" d="M556.485 438.408L527.222 420.96C522.179 417.991 518.127 410.659 518.127 404.72V397.481C518.127 391.82 514.256 384.859 509.483 381.982L503.361 378.363L503.811 377.62L509.934 381.24C514.976 384.21 519.028 391.541 519.028 397.481V404.72C519.028 410.381 522.9 417.341 527.672 420.218L556.936 437.665L556.485 438.408Z" fill="#FFE1B3"/>
<path opacity="0.2" d="M567.921 431.633L538.657 414.186C533.615 411.216 529.563 403.884 529.563 397.945V390.706C529.563 385.045 525.691 378.084 520.919 375.207L514.796 371.588L515.246 370.846L521.369 374.465C526.411 377.435 530.463 384.766 530.463 390.706V397.945C530.463 403.606 534.335 410.566 539.107 413.443L568.371 430.891L567.921 431.633Z" fill="#FFE1B3"/>
<path opacity="0.2" d="M579.266 424.858L550.002 407.504C544.96 404.534 540.908 397.202 540.908 391.263V383.931C540.908 378.27 537.036 371.31 532.264 368.433L526.141 364.813L526.591 364.071L532.714 367.69C537.756 370.66 541.808 377.992 541.808 383.931V391.17C541.808 396.831 545.68 403.791 550.452 406.668L579.716 424.116L579.266 424.858Z" fill="#FFE1B3"/>
<path opacity="0.2" d="M590.611 418.083L561.348 400.636C556.305 397.666 552.253 390.335 552.253 384.395V377.156C552.253 371.495 548.382 364.535 543.609 361.658L537.486 358.039L537.937 357.296L544.06 360.916C549.102 363.885 553.154 371.217 553.154 377.156V384.395C553.154 390.056 557.026 397.017 561.798 399.894L591.061 417.341L590.611 418.083Z" fill="#FFE1B3"/>
<path opacity="0.2" d="M602.046 411.402L572.783 393.954C567.74 390.984 563.689 383.653 563.689 377.713V370.474C563.689 364.813 559.817 357.853 555.044 354.976L548.922 351.357L549.372 350.614L555.495 354.233C560.537 357.203 564.589 364.535 564.589 370.474V377.713C564.589 383.374 568.461 390.335 573.233 393.212L602.497 410.659L602.046 411.402Z" fill="#FFE1B3"/>
<path opacity="0.2" d="M613.392 404.627L584.128 387.179C579.086 384.21 575.034 376.878 575.034 370.939V363.7C575.034 358.039 571.162 351.078 566.39 348.201L560.267 344.582L560.717 343.839L566.84 347.459C571.882 350.429 575.934 357.76 575.934 363.7V370.939C575.934 376.6 579.806 383.56 584.578 386.437L613.842 403.884L613.392 404.627Z" fill="#FFE1B3"/>
<path opacity="0.2" d="M624.737 397.852L595.473 380.405C590.431 377.435 586.379 370.103 586.379 364.164V356.925C586.379 351.264 582.507 344.303 577.735 341.426L571.612 337.807L572.063 337.064L578.185 340.684C583.228 343.654 587.28 350.985 587.28 356.925V364.164C587.28 369.825 591.151 376.785 595.924 379.662L625.187 397.11L624.737 397.852Z" fill="#FFE1B3"/>
<path opacity="0.2" d="M636.173 391.077L606.909 373.723C601.867 370.753 597.815 363.421 597.815 357.482V350.243C597.815 344.582 593.943 337.621 589.171 334.744L583.048 331.125L583.498 330.382L589.621 334.002C594.663 336.972 598.715 344.303 598.715 350.243V357.482C598.715 363.143 602.587 370.103 607.359 372.98L636.623 390.427L636.173 391.077Z" fill="#FFE1B3"/>
<path opacity="0.2" d="M647.517 384.302L618.254 366.855C613.211 363.885 609.16 356.554 609.16 350.614V343.375C609.16 337.714 605.288 330.754 600.516 327.877L594.393 324.257L594.843 323.515L600.966 327.134C606.008 330.104 610.06 337.436 610.06 343.375V350.614C610.06 356.275 613.932 363.236 618.704 366.113L647.968 383.56L647.517 384.302Z" fill="#FFE1B3"/>
<path opacity="0.2" d="M658.863 377.62L629.599 360.173C624.557 357.203 620.505 349.872 620.505 343.932V336.693C620.505 331.032 616.633 324.072 611.861 321.195L605.738 317.575L606.188 316.833L612.311 320.452C617.353 323.422 621.405 330.754 621.405 336.693V343.932C621.405 349.593 625.277 356.554 630.049 359.431L659.313 376.878L658.863 377.62Z" fill="#FFE1B3"/>
<path opacity="0.2" d="M670.298 370.846L641.035 353.398C635.992 350.428 631.94 343.097 631.94 337.157V329.918C631.94 324.257 628.068 317.297 623.296 314.42L617.173 310.801L617.624 310.058L623.746 313.678C628.789 316.647 632.841 323.979 632.841 329.918V337.157C632.841 342.818 636.712 349.779 641.485 352.656L670.658 370.01L670.298 370.846Z" fill="#FFE1B3"/>
<path opacity="0.2" d="M681.644 364.071L652.38 346.623C647.338 343.654 643.286 336.322 643.286 330.382V323.144C643.286 317.483 639.414 310.522 634.642 307.645L628.519 304.026L628.969 303.283L635.092 306.903C640.134 309.872 644.186 317.204 644.186 323.144V330.382C644.186 336.044 648.058 343.004 652.83 345.881L682.094 363.328L681.644 364.071Z" fill="#FFE1B3"/>
</g>
<g opacity="0.2">
<path opacity="0.2" d="M352.27 492.42L351.82 491.678L381.083 474.231C385.856 471.354 389.727 464.486 389.727 458.732V451.493C389.727 445.554 393.779 438.222 398.822 435.252L404.945 431.633L405.395 432.375L399.272 435.995C394.5 438.872 390.628 445.739 390.628 451.493V458.732C390.628 464.672 386.576 472.003 381.534 474.973L352.27 492.42Z" fill="#FFE1B3"/>
<path opacity="0.2" d="M340.925 485.646L340.475 484.903L369.738 467.456C374.511 464.579 378.382 457.711 378.382 451.957V444.719C378.382 438.779 382.434 431.447 387.477 428.478L393.599 424.858L394.05 425.601L387.927 429.22C383.155 432.097 379.283 438.965 379.283 444.719V451.957C379.283 457.897 375.231 465.229 370.189 468.198L340.925 485.646Z" fill="#FFE1B3"/>
<path opacity="0.2" d="M329.579 478.964L329.129 478.221L358.393 460.774C363.165 457.897 367.037 451.029 367.037 445.276V438.037C367.037 432.097 371.089 424.766 376.131 421.796L382.254 418.176L382.704 418.919L376.581 422.538C371.809 425.415 367.937 432.283 367.937 438.037V445.276C367.937 451.215 363.885 458.547 358.843 461.516L329.579 478.964Z" fill="#FFE1B3"/>
<path opacity="0.2" d="M318.144 472.189L317.694 471.446L346.958 453.999C351.73 451.122 355.602 444.255 355.602 438.501V431.262C355.602 425.322 359.654 417.991 364.696 415.021L370.819 411.402L371.269 412.144L365.146 415.763C360.374 418.64 356.502 425.508 356.502 431.262V438.501C356.502 444.44 352.45 451.772 347.408 454.742L318.144 472.189Z" fill="#FFE1B3"/>
<path opacity="0.2" d="M306.799 465.414L306.349 464.672L335.612 447.224C340.385 444.347 344.257 437.48 344.257 431.726V424.487C344.257 418.548 348.308 411.216 353.351 408.246L359.474 404.627L359.924 405.369L353.801 408.989C349.029 411.866 345.157 418.733 345.157 424.487V431.726C345.157 437.665 341.105 444.997 336.063 447.967L306.799 465.414Z" fill="#FFE1B3"/>
<path opacity="0.2" d="M295.454 458.639L295.003 457.897L324.267 440.45C329.039 437.573 332.911 430.705 332.911 424.951V417.712C332.911 411.773 336.963 404.441 342.005 401.471L348.128 397.852L348.578 398.594L342.456 402.214C337.683 405.091 333.811 411.958 333.811 417.712V424.951C333.811 430.891 329.76 438.222 324.717 441.192L295.454 458.639Z" fill="#FFE1B3"/>
<path opacity="0.2" d="M284.018 451.865L283.568 451.122L312.832 433.675C317.604 430.798 321.476 423.93 321.476 418.176V410.937C321.476 404.998 325.528 397.666 330.57 394.697L336.693 391.077L337.143 391.82L331.02 395.439C326.248 398.316 322.376 405.184 322.376 410.937V418.176C322.376 424.116 318.324 431.447 313.282 434.417L284.018 451.865Z" fill="#FFE1B3"/>
<path opacity="0.2" d="M272.673 445.183L272.223 444.44L301.486 426.993C306.259 424.116 310.13 417.248 310.13 411.494V404.255C310.13 398.316 314.182 390.984 319.225 388.015L325.347 384.395L325.798 385.138L319.675 388.757C314.903 391.634 311.031 398.502 311.031 404.255V411.494C311.031 417.434 306.979 424.765 301.936 427.735L272.673 445.183Z" fill="#FFE1B3"/>
<path opacity="0.2" d="M261.328 438.408L260.878 437.665L290.141 420.218C294.913 417.341 298.785 410.473 298.785 404.72V397.481C298.785 391.541 302.837 384.21 307.879 381.24L314.002 377.62L314.453 378.363L308.33 381.982C303.557 384.859 299.686 391.727 299.686 397.481V404.72C299.686 410.659 295.634 417.991 290.591 420.96L261.328 438.408Z" fill="#FFE1B3"/>
<path opacity="0.2" d="M249.892 431.633L249.442 430.891L278.706 413.443C283.478 410.566 287.35 403.699 287.35 397.945V390.706C287.35 384.766 291.402 377.435 296.444 374.465L302.567 370.846L303.017 371.588L296.894 375.207C292.122 378.084 288.25 384.952 288.25 390.706V397.945C288.25 403.884 284.198 411.216 279.156 414.186L249.892 431.633Z" fill="#FFE1B3"/>
<path opacity="0.2" d="M238.547 424.858L238.097 424.116L267.36 406.668C272.133 403.791 276.005 396.924 276.005 391.17V383.931C276.005 377.992 280.056 370.66 285.099 367.69L291.222 364.071L291.672 364.813L285.549 368.433C280.777 371.31 276.905 378.177 276.905 383.931V391.17C276.905 397.109 272.853 404.441 267.811 407.411L238.547 424.858Z" fill="#FFE1B3"/>
<path opacity="0.2" d="M227.202 418.083L226.751 417.341L256.015 399.894C260.787 397.017 264.659 390.149 264.659 384.395V377.156C264.659 371.217 268.711 363.885 273.753 360.916L279.876 357.296L280.326 358.039L274.204 361.658C269.431 364.535 265.559 371.402 265.559 377.156V384.395C265.559 390.335 261.508 397.666 256.465 400.636L227.202 418.083Z" fill="#FFE1B3"/>
<path opacity="0.2" d="M215.767 411.402L215.316 410.659L244.58 393.212C249.352 390.335 253.224 383.467 253.224 377.713V370.474C253.224 364.535 257.276 357.203 262.318 354.233L268.441 350.614L268.891 351.357L262.769 354.976C257.996 357.853 254.125 364.72 254.125 370.474V377.713C254.125 383.653 250.073 390.984 245.03 393.954L215.767 411.402Z" fill="#FFE1B3"/>
<path opacity="0.2" d="M204.421 404.627L203.971 403.884L233.235 386.437C238.007 383.56 241.879 376.692 241.879 370.939V363.7C241.879 357.76 245.93 350.429 250.973 347.459L257.096 343.839L257.546 344.582L251.423 348.201C246.651 351.078 242.779 357.946 242.779 363.7V370.939C242.779 376.878 238.727 384.21 233.685 387.179L204.421 404.627Z" fill="#FFE1B3"/>
<path opacity="0.2" d="M193.076 397.852L192.626 397.11L221.889 379.662C226.662 376.785 230.533 369.918 230.533 364.164V356.925C230.533 350.985 234.585 343.654 239.628 340.684L245.751 337.064L246.201 337.807L240.078 341.426C235.306 344.303 231.434 351.171 231.434 356.925V364.164C231.434 370.103 227.382 377.435 222.34 380.405L193.076 397.852Z" fill="#FFE1B3"/>
<path opacity="0.2" d="M181.641 391.077L181.19 390.335L210.454 372.887C215.226 370.01 219.098 363.143 219.098 357.389V350.15C219.098 344.211 223.15 336.879 228.192 333.909L234.315 330.29L234.765 331.032L228.642 334.652C223.87 337.529 219.998 344.396 219.998 350.15V357.389C219.998 363.328 215.947 370.66 210.904 373.63L181.641 391.077Z" fill="#FFE1B3"/>
<path opacity="0.2" d="M170.295 384.302L169.845 383.56L199.109 366.113C203.881 363.236 207.753 356.368 207.753 350.614V343.375C207.753 337.436 211.805 330.104 216.847 327.134L222.97 323.515L223.42 324.257L217.297 327.877C212.525 330.754 208.653 337.621 208.653 343.375V350.614C208.653 356.554 204.601 363.885 199.559 366.855L170.295 384.302Z" fill="#FFE1B3"/>
<path opacity="0.2" d="M158.95 377.62L158.5 376.878L187.763 359.431C192.536 356.554 196.407 349.686 196.407 343.932V336.693C196.407 330.754 200.459 323.422 205.502 320.452L211.624 316.833L212.075 317.575L205.952 321.195C201.18 324.072 197.308 330.939 197.308 336.693V343.932C197.308 349.872 193.256 357.203 188.214 360.173L158.95 377.62Z" fill="#FFE1B3"/>
<path opacity="0.2" d="M147.515 370.846L147.064 370.103L176.328 352.656C181.1 349.779 184.972 342.911 184.972 337.157V329.918C184.972 323.979 189.024 316.647 194.066 313.678L200.189 310.058L200.639 310.801L194.516 314.42C189.744 317.297 185.872 324.164 185.872 329.918V337.157C185.872 343.097 181.821 350.428 176.778 353.398L147.515 370.846Z" fill="#FFE1B3"/>
<path opacity="0.2" d="M136.169 364.071L135.719 363.328L164.983 345.881C169.755 343.004 173.627 336.136 173.627 330.382V323.144C173.627 317.204 177.679 309.872 182.721 306.903L188.844 303.283L189.294 304.026L183.171 307.645C178.399 310.522 174.527 317.39 174.527 323.144V330.382C174.527 336.322 170.475 343.654 165.433 346.623L136.169 364.071Z" fill="#FFE1B3"/>
</g>
<g opacity="0.2">
<g opacity="0.2">
<path opacity="0.2" d="M634.011 314.791V341.612L409.267 475.344L184.522 341.519V314.791H634.011Z" fill="url(#paint0_linear)"/>
<path opacity="0.2" d="M409.267 448.524L184.522 314.791L409.267 181.059L634.011 314.791L409.267 448.524Z" fill="#FFE8C4"/>
<path opacity="0.2" d="M409.267 445.368L187.223 313.214L184.522 314.791L409.267 448.524L634.011 314.791L631.4 313.214L409.267 445.368Z" fill="white"/>
</g>
</g>
</g>
<path d="M387.811 213.983C386.55 213.983 385.109 213.519 383.579 212.684L354.315 195.236L354.765 194.494L384.029 211.941C386.28 213.24 388.351 213.519 389.882 212.591C391.412 211.663 392.223 209.714 392.223 207.022V199.784C392.223 196.814 393.213 194.587 395.014 193.473C396.815 192.359 399.246 192.638 401.767 194.123L407.89 197.742L407.44 198.484L401.317 194.865C399.066 193.566 396.995 193.287 395.464 194.215C393.933 195.143 393.123 197.092 393.123 199.784V207.022C393.123 209.992 392.133 212.22 390.332 213.333C389.611 213.797 388.801 213.983 387.811 213.983Z" fill="#FFE1B3"/>
<path d="M376.465 220.758C375.205 220.758 373.764 220.294 372.233 219.458L343.06 202.011L343.51 201.268L372.774 218.716C375.025 220.015 377.096 220.294 378.626 219.366C380.157 218.438 380.967 216.489 380.967 213.797V206.558C380.967 203.589 381.958 201.361 383.759 200.248C385.56 199.134 387.991 199.412 390.512 200.897L396.635 204.517L396.185 205.259L390.062 201.64C387.811 200.34 385.74 200.062 384.209 200.99C382.678 201.918 381.868 203.867 381.868 206.558V213.797C381.868 216.767 380.877 218.994 379.077 220.108C378.266 220.572 377.366 220.758 376.465 220.758Z" fill="#FFE1B3"/>
<path d="M365.12 227.532C363.859 227.532 362.419 227.068 360.888 226.233L331.624 208.786L332.075 208.043L361.338 225.491C363.589 226.79 365.66 227.068 367.191 226.14C368.722 225.212 369.532 223.263 369.532 220.572V213.333C369.532 210.363 370.523 208.136 372.323 207.022C374.124 205.909 376.555 206.187 379.076 207.672L385.199 211.291L384.749 212.034L378.626 208.415C376.375 207.115 374.304 206.837 372.774 207.765C371.243 208.693 370.432 210.642 370.432 213.333V220.572C370.432 223.542 369.442 225.769 367.641 226.883C366.921 227.254 366.02 227.532 365.12 227.532Z" fill="#FFE1B3"/>
<path d="M353.685 234.214C352.424 234.214 350.983 233.75 349.453 232.915L320.189 215.468L320.639 214.725L349.903 232.173C352.154 233.472 354.225 233.75 355.756 232.822C357.286 231.894 358.097 229.945 358.097 227.254V220.015C358.097 217.045 359.087 214.818 360.888 213.704C362.689 212.591 365.12 212.869 367.641 214.354L373.764 217.973L373.314 218.716L367.191 215.096C364.94 213.797 362.869 213.519 361.338 214.447C359.807 215.375 358.997 217.324 358.997 220.015V227.254C358.997 230.224 358.007 232.451 356.206 233.565C355.485 234.029 354.675 234.214 353.685 234.214Z" fill="#FFE1B3"/>
<path d="M342.34 240.989C341.079 240.989 339.638 240.525 338.108 239.69L308.844 222.335L309.294 221.593L338.558 238.855C340.809 240.154 342.88 240.432 344.411 239.504C345.941 238.576 346.752 236.627 346.752 233.936V226.697C346.752 223.727 347.742 221.5 349.543 220.386C351.344 219.273 353.775 219.551 356.296 221.036L362.419 224.655L361.969 225.398L355.846 221.778C353.595 220.479 351.524 220.201 349.993 221.129C348.462 222.057 347.652 224.006 347.652 226.697V233.936C347.652 236.906 346.662 239.133 344.861 240.247C344.14 240.804 343.24 240.989 342.34 240.989Z" fill="#FFE1B3"/>
<path d="M330.994 247.764C329.734 247.764 328.293 247.3 326.762 246.465L297.499 229.017L297.949 228.275L327.212 245.722C329.464 247.021 331.535 247.3 333.065 246.372C334.596 245.444 335.406 243.495 335.406 240.804V233.565C335.406 230.595 336.397 228.368 338.198 227.254C339.998 226.14 342.43 226.419 344.951 227.904L351.074 231.523L350.623 232.265L344.501 228.646C342.25 227.347 340.179 227.068 338.648 227.996C337.117 228.924 336.307 230.873 336.307 233.565V240.804C336.307 243.773 335.316 246.001 333.515 247.114C332.795 247.486 331.895 247.764 330.994 247.764Z" fill="#FFE1B3"/>
<path d="M319.559 254.446C318.298 254.446 316.858 253.982 315.327 253.147L286.063 235.699L286.513 234.957L315.777 252.404C318.028 253.703 320.099 253.982 321.63 253.054C323.161 252.126 323.971 250.177 323.971 247.485V240.247C323.971 237.277 324.961 235.05 326.762 233.936C328.563 232.822 330.994 233.101 333.515 234.586L339.638 238.205L339.188 238.947L333.065 235.328C330.814 234.029 328.743 233.75 327.212 234.678C325.682 235.606 324.871 237.555 324.871 240.247V247.485C324.871 250.455 323.881 252.683 322.08 253.796C321.36 254.26 320.549 254.446 319.559 254.446Z" fill="#FFE1B3"/>
<path d="M308.213 261.221C306.953 261.221 305.512 260.757 303.982 259.921L274.718 242.474L275.168 241.732L304.432 259.179C306.683 260.478 308.754 260.757 310.284 259.829C311.815 258.901 312.626 256.952 312.626 254.26V247.022C312.626 244.052 313.616 241.824 315.417 240.711C317.218 239.597 319.649 239.876 322.17 241.36L328.293 244.98L327.843 245.722L321.72 242.103C319.469 240.804 317.398 240.525 315.867 241.453C314.336 242.381 313.526 244.33 313.526 247.022V254.26C313.526 257.23 312.535 259.457 310.735 260.571C310.014 261.035 309.114 261.221 308.213 261.221Z" fill="#FFE1B3"/>
<path d="M296.868 267.995C295.608 267.995 294.167 267.531 292.636 266.696L263.373 249.249L263.823 248.506L293.086 265.954C295.337 267.253 297.408 267.531 298.939 266.603C300.47 265.675 301.28 263.726 301.28 261.035V253.703C301.28 250.734 302.271 248.506 304.072 247.393C305.872 246.279 308.303 246.557 310.825 248.042L316.947 251.662L316.497 252.404L310.374 248.785C308.123 247.486 306.052 247.207 304.522 248.135C302.991 249.063 302.181 251.012 302.181 253.703V260.942C302.181 263.912 301.19 266.139 299.389 267.253C298.669 267.717 297.769 267.995 296.868 267.995Z" fill="#FFE1B3"/>
<path d="M285.433 274.678C284.172 274.678 282.732 274.213 281.201 273.378L251.937 255.931L252.387 255.188L281.651 272.636C283.902 273.935 285.973 274.213 287.504 273.285C289.035 272.357 289.845 270.408 289.845 267.717V260.478C289.845 257.508 290.835 255.281 292.636 254.167C294.437 253.054 296.868 253.332 299.389 254.817L305.512 258.437L305.062 259.179L298.939 255.56C296.688 254.26 294.617 253.982 293.086 254.91C291.556 255.838 290.745 257.787 290.745 260.478V267.717C290.745 270.687 289.755 272.914 287.954 274.028C287.234 274.492 286.423 274.678 285.433 274.678Z" fill="#FFE1B3"/>
<path d="M274.088 281.452C272.827 281.452 271.386 280.988 269.856 280.153L240.592 262.706L241.042 261.963L270.306 279.411C272.557 280.71 274.628 280.988 276.159 280.06C277.689 279.132 278.5 277.183 278.5 274.492V267.253C278.5 264.283 279.49 262.056 281.291 260.942C283.092 259.829 285.523 260.107 288.044 261.592L294.167 265.211L293.717 265.954L287.594 262.334C285.343 261.035 283.272 260.757 281.741 261.685C280.21 262.613 279.4 264.562 279.4 267.253V274.492C279.4 277.462 278.41 279.689 276.609 280.803C275.888 281.267 274.988 281.452 274.088 281.452Z" fill="#FFE1B3"/>
<path d="M262.742 288.227C261.482 288.227 260.041 287.763 258.51 286.928L229.247 269.48L229.697 268.738L258.96 286.185C261.212 287.485 263.282 287.763 264.813 286.835C266.344 285.907 267.154 283.958 267.154 281.267V274.028C267.154 271.058 268.145 268.831 269.946 267.717C271.746 266.603 274.178 266.882 276.699 268.367L282.822 271.986L282.371 272.729L276.249 269.109C273.997 267.81 271.926 267.531 270.396 268.46C268.865 269.388 268.055 271.337 268.055 274.028V281.267C268.055 284.236 267.064 286.464 265.263 287.577C264.543 287.949 263.643 288.227 262.742 288.227Z" fill="#FFE1B3"/>
<path d="M251.307 294.909C250.046 294.909 248.606 294.445 247.075 293.61L217.901 276.255L218.352 275.513L247.615 292.96C249.866 294.259 251.937 294.538 253.468 293.61C254.999 292.682 255.809 290.733 255.809 288.041V280.803C255.809 277.833 256.8 275.606 258.6 274.492C260.401 273.378 262.832 273.657 265.354 275.142L271.476 278.761L271.026 279.503L264.903 275.884C262.652 274.585 260.581 274.306 259.051 275.234C257.52 276.162 256.71 278.111 256.71 280.803V288.041C256.71 291.011 255.719 293.239 253.918 294.352C253.108 294.723 252.298 294.909 251.307 294.909Z" fill="#FFE1B3"/>
<path d="M239.962 301.684C238.701 301.684 237.26 301.22 235.73 300.384L206.466 282.937L206.916 282.195L236.18 299.642C238.431 300.941 240.502 301.22 242.032 300.292C243.563 299.364 244.374 297.415 244.374 294.723V287.485C244.374 284.515 245.364 282.287 247.165 281.174C248.966 280.06 251.397 280.339 253.918 281.823L260.041 285.443L259.591 286.185L253.468 282.566C251.217 281.267 249.146 280.988 247.615 281.916C246.084 282.844 245.274 284.793 245.274 287.485V294.723C245.274 297.693 244.284 299.92 242.483 301.034C241.762 301.498 240.862 301.684 239.962 301.684Z" fill="#FFE1B3"/>
<path d="M228.616 308.459C227.356 308.459 225.915 307.995 224.384 307.159L195.121 289.712L195.571 288.969L224.835 306.417C227.086 307.716 229.157 307.995 230.687 307.066C232.218 306.138 233.028 304.19 233.028 301.498V294.259C233.028 291.29 234.019 289.062 235.82 287.949C237.621 286.835 240.052 287.113 242.573 288.598L248.696 292.218L248.246 292.96L242.123 289.341C239.872 288.041 237.801 287.763 236.27 288.691C234.739 289.619 233.929 291.568 233.929 294.259V301.498C233.929 304.468 232.938 306.695 231.138 307.809C230.417 308.18 229.517 308.459 228.616 308.459Z" fill="#FFE1B3"/>
<path d="M217.181 315.141C215.92 315.141 214.48 314.677 212.949 313.841L183.685 296.394L184.136 295.651L213.399 313.099C215.65 314.398 217.721 314.677 219.252 313.749C220.783 312.821 221.593 310.872 221.593 308.18V300.941C221.593 297.972 222.584 295.744 224.384 294.631C226.185 293.517 228.616 293.795 231.138 295.28L237.26 298.9L236.81 299.642L230.687 296.023C228.436 294.723 226.365 294.445 224.835 295.373C223.304 296.301 222.494 298.25 222.494 300.941V308.18C222.494 311.15 221.503 313.377 219.702 314.491C218.982 314.955 218.172 315.141 217.181 315.141Z" fill="#FFE1B3"/>
<path d="M205.836 321.915C204.575 321.915 203.135 321.451 201.604 320.616L172.34 303.169L172.79 302.426L202.054 319.874C204.305 321.173 206.376 321.451 207.907 320.523C209.438 319.595 210.248 317.646 210.248 314.955V307.716C210.248 304.746 211.238 302.519 213.039 301.405C214.84 300.292 217.271 300.57 219.792 302.055L225.915 305.674L225.465 306.417L219.342 302.797C217.091 301.498 215.02 301.22 213.489 302.148C211.959 303.076 211.148 305.025 211.148 307.716V314.955C211.148 317.925 210.158 320.152 208.357 321.266C207.637 321.73 206.736 321.915 205.836 321.915Z" fill="#FFE1B3"/>
<path d="M194.49 328.69C193.23 328.69 191.789 328.226 190.258 327.391L160.995 309.943L161.445 309.201L190.709 326.648C192.96 327.948 195.031 328.226 196.561 327.298C198.092 326.37 198.902 324.421 198.902 321.73V314.491C198.902 311.521 199.893 309.294 201.694 308.18C203.494 307.067 205.926 307.345 208.447 308.83L214.57 312.449L214.119 313.192L207.997 309.572C205.746 308.273 203.675 307.995 202.144 308.923C200.613 309.851 199.803 311.8 199.803 314.491V321.73C199.803 324.699 198.812 326.927 197.011 328.04C196.291 328.412 195.391 328.69 194.49 328.69Z" fill="#FFE1B3"/>
<path d="M183.055 335.372C181.794 335.372 180.354 334.908 178.823 334.073L149.559 316.625L150.01 315.883L179.273 333.33C181.524 334.63 183.595 334.908 185.126 333.98C186.657 333.052 187.467 331.103 187.467 328.412V321.173C187.467 318.203 188.458 315.976 190.258 314.862C192.059 313.748 194.49 314.027 197.011 315.512L203.134 319.131L202.684 319.874L196.561 316.254C194.31 314.955 192.239 314.677 190.709 315.605C189.178 316.533 188.367 318.482 188.367 321.173V328.412C188.367 331.381 187.377 333.609 185.576 334.722C184.856 335.186 184.045 335.372 183.055 335.372Z" fill="#FFE1B3"/>
<path d="M171.71 342.147C170.449 342.147 169.009 341.683 167.478 340.848L138.214 323.4L138.664 322.658L167.928 340.105C170.179 341.404 172.25 341.683 173.781 340.755C175.311 339.827 176.122 337.878 176.122 335.187V327.948C176.122 324.978 177.112 322.751 178.913 321.637C180.714 320.523 183.145 320.802 185.666 322.287L191.789 325.906L191.339 326.648L185.216 323.029C182.965 321.73 180.894 321.451 179.363 322.379C177.833 323.307 177.022 325.256 177.022 327.948V335.187C177.022 338.156 176.032 340.384 174.231 341.497C173.511 341.961 172.61 342.147 171.71 342.147Z" fill="#FFE1B3"/>
<path d="M434.452 214.539C433.552 214.539 432.651 214.353 431.931 213.889C430.13 212.775 429.14 210.548 429.14 207.578V200.339C429.14 197.648 428.329 195.699 426.798 194.771C425.268 193.843 423.197 194.121 420.946 195.421L414.823 199.04L414.373 198.298L420.496 194.678C423.017 193.193 425.358 192.915 427.249 194.029C429.05 195.142 430.04 197.37 430.04 200.339V207.578C430.04 210.27 430.85 212.218 432.381 213.146C433.912 214.075 435.983 213.796 438.234 212.497L467.497 195.049L467.948 195.792L438.684 213.239C437.153 214.167 435.803 214.539 434.452 214.539Z" fill="#FFE1B3"/>
<path d="M445.797 221.314C444.897 221.314 443.997 221.129 443.276 220.665C441.475 219.551 440.485 217.324 440.485 214.354V207.115C440.485 204.424 439.675 202.475 438.144 201.547C436.613 200.619 434.542 200.897 432.291 202.197L426.168 205.816L425.718 205.074L431.841 201.454C434.362 199.969 436.703 199.691 438.594 200.804C440.395 201.918 441.385 204.145 441.385 207.115V214.354C441.385 217.045 442.196 218.994 443.726 219.922C445.257 220.85 447.328 220.572 449.579 219.273L478.843 201.825L479.293 202.568L450.029 220.015C448.589 220.85 447.148 221.314 445.797 221.314Z" fill="#FFE1B3"/>
<path d="M457.233 228.089C456.332 228.089 455.432 227.904 454.711 227.44C452.911 226.326 451.92 224.099 451.92 221.129V213.797C451.92 211.106 451.11 209.157 449.579 208.229C448.048 207.301 445.977 207.579 443.726 208.879L437.603 212.498L437.153 211.756L443.276 208.136C445.797 206.651 448.138 206.373 450.029 207.487C451.83 208.6 452.82 210.828 452.82 213.797V221.036C452.82 223.728 453.631 225.676 455.162 226.605C456.692 227.533 458.763 227.254 461.014 225.955L490.278 208.507L490.728 209.25L461.465 226.697C459.934 227.625 458.493 228.089 457.233 228.089Z" fill="#FFE1B3"/>
<path d="M468.578 234.771C467.678 234.771 466.777 234.586 466.057 234.122C464.256 233.008 463.266 230.781 463.266 227.811V220.572C463.266 217.881 462.455 215.932 460.924 215.004C459.394 214.076 457.323 214.354 455.072 215.653L448.949 219.273L448.499 218.53L454.621 214.911C457.143 213.426 459.484 213.148 461.375 214.261C463.176 215.375 464.166 217.602 464.166 220.572V227.811C464.166 230.502 464.976 232.451 466.507 233.379C468.038 234.307 470.109 234.029 472.36 232.73L501.623 215.282L502.074 216.025L472.81 233.472C471.279 234.4 469.839 234.771 468.578 234.771Z" fill="#FFE1B3"/>
<path d="M479.923 241.546C479.023 241.546 478.123 241.36 477.402 240.896C475.601 239.783 474.611 237.555 474.611 234.586V227.347C474.611 224.655 473.8 222.706 472.27 221.778C470.739 220.85 468.668 221.129 466.417 222.428L460.294 226.047L459.844 225.305L465.967 221.686C468.488 220.201 470.829 219.922 472.72 221.036C474.521 222.15 475.511 224.377 475.511 227.347V234.586C475.511 237.277 476.322 239.226 477.852 240.154C479.383 241.082 481.454 240.803 483.705 239.504L512.969 222.057L513.419 222.799L484.155 240.247C482.715 241.082 481.274 241.546 479.923 241.546Z" fill="#FFE1B3"/>
<path d="M491.359 248.321C490.458 248.321 489.558 248.135 488.837 247.671C487.037 246.558 486.046 244.33 486.046 241.36V234.122C486.046 231.43 485.236 229.481 483.705 228.553C482.174 227.625 480.103 227.904 477.852 229.203L471.73 232.822L471.279 232.08L477.402 228.461C479.923 226.976 482.264 226.697 484.155 227.811C485.956 228.925 486.947 231.152 486.947 234.122V241.36C486.947 244.052 487.757 246.001 489.288 246.929C490.818 247.857 492.889 247.578 495.14 246.279L524.404 228.832L524.854 229.574L495.591 247.022C494.06 247.857 492.619 248.321 491.359 248.321Z" fill="#FFE1B3"/>
<path d="M502.704 255.003C501.803 255.003 500.903 254.817 500.183 254.353C498.382 253.239 497.391 251.012 497.391 248.042V240.804C497.391 238.112 496.581 236.163 495.05 235.235C493.52 234.307 491.449 234.586 489.198 235.885L483.075 239.504L482.625 238.762L488.747 235.142C491.269 233.658 493.61 233.379 495.5 234.493C497.301 235.606 498.292 237.834 498.292 240.804V248.042C498.292 250.734 499.102 252.683 500.633 253.611C502.164 254.539 504.235 254.26 506.486 252.961L535.749 235.514L536.199 236.256L506.936 253.703C505.405 254.632 503.964 255.003 502.704 255.003Z" fill="#FFE1B3"/>
<path d="M514.049 261.778C513.149 261.778 512.248 261.592 511.528 261.128C509.727 260.014 508.737 257.787 508.737 254.817V247.578C508.737 244.887 507.926 242.938 506.396 242.01C504.865 241.082 502.794 241.36 500.543 242.66L494.42 246.279L493.97 245.537L500.093 241.917C502.614 240.432 504.955 240.154 506.846 241.268C508.647 242.381 509.637 244.609 509.637 247.578V254.817C509.637 257.509 510.448 259.457 511.978 260.385C513.509 261.314 515.58 261.035 517.831 259.736L547.095 242.288L547.545 243.031L518.281 260.478C516.84 261.314 515.4 261.778 514.049 261.778Z" fill="#FFE1B3"/>
<path d="M525.485 268.552C524.584 268.552 523.684 268.367 522.963 267.903C521.163 266.789 520.172 264.562 520.172 261.592V254.353C520.172 251.662 519.362 249.713 517.831 248.785C516.3 247.857 514.229 248.135 511.978 249.434L505.855 253.054L505.405 252.311L511.528 248.692C514.049 247.207 516.39 246.929 518.281 248.042C520.172 249.156 521.073 251.383 521.073 254.353V261.592C521.073 264.283 521.883 266.232 523.414 267.16C524.944 268.088 527.015 267.81 529.266 266.511L558.53 249.063L558.98 249.806L529.717 267.253C528.186 268.088 526.745 268.552 525.485 268.552Z" fill="#FFE1B3"/>
<path d="M536.83 275.234C535.929 275.234 535.029 275.049 534.309 274.585C532.508 273.471 531.517 271.244 531.517 268.274V261.035C531.517 258.344 530.707 256.395 529.176 255.467C527.645 254.539 525.574 254.817 523.323 256.116L517.201 259.736L516.75 258.993L522.873 255.374C525.394 253.889 527.735 253.611 529.626 254.724C531.427 255.838 532.418 258.065 532.418 261.035V268.274C532.418 270.965 533.228 272.914 534.759 273.842C536.289 274.77 538.36 274.492 540.611 273.193L569.875 255.745L570.325 256.488L541.062 273.935C539.531 274.863 538.09 275.234 536.83 275.234Z" fill="#FFE1B3"/>
<path d="M548.175 282.009C547.274 282.009 546.374 281.824 545.654 281.359C543.853 280.246 542.862 278.019 542.862 275.049V267.81C542.862 265.119 542.052 263.17 540.521 262.242C538.991 261.314 536.92 261.592 534.669 262.891L528.546 266.511L528.095 265.768L534.218 262.149C536.739 260.664 539.081 260.386 540.971 261.499C542.772 262.613 543.763 264.84 543.763 267.81V275.049C543.763 277.74 544.573 279.689 546.104 280.617C547.635 281.545 549.706 281.267 551.957 279.967L581.22 262.52L581.67 263.262L552.407 280.71C550.966 281.545 549.525 282.009 548.175 282.009Z" fill="#FFE1B3"/>
<path d="M559.61 288.784C558.71 288.784 557.81 288.598 557.089 288.134C555.288 287.021 554.298 284.793 554.298 281.824V274.585C554.298 271.893 553.487 269.944 551.957 269.016C550.426 268.088 548.355 268.367 546.104 269.666L539.981 273.285L539.531 272.543L545.654 268.924C548.175 267.439 550.516 267.16 552.407 268.274C554.208 269.388 555.198 271.615 555.198 274.585V281.824C555.198 284.515 556.009 286.464 557.539 287.392C559.07 288.32 561.141 288.042 563.392 286.742L592.656 269.295L593.106 270.037L563.842 287.485C562.312 288.32 560.871 288.784 559.61 288.784Z" fill="#FFE1B3"/>
<path d="M570.956 295.466C570.055 295.466 569.155 295.28 568.435 294.816C566.634 293.703 565.643 291.475 565.643 288.505V281.267C565.643 278.575 564.833 276.626 563.302 275.698C561.771 274.77 559.701 275.049 557.449 276.348L551.327 279.967L550.876 279.225L556.999 275.606C559.52 274.121 561.862 273.842 563.752 274.956C565.553 276.07 566.544 278.297 566.544 281.267V288.505C566.544 291.197 567.354 293.146 568.885 294.074C570.415 295.002 572.486 294.723 574.737 293.424L604.001 275.977L604.451 276.719L575.188 294.167C573.657 295.095 572.216 295.466 570.956 295.466Z" fill="#FFE1B3"/>
<path d="M582.301 302.241C581.401 302.241 580.5 302.055 579.78 301.591C577.979 300.477 576.989 298.25 576.989 295.28V288.041C576.989 285.35 576.178 283.401 574.647 282.473C573.117 281.545 571.046 281.824 568.795 283.123L562.672 286.742L562.222 286L568.345 282.38C570.866 280.895 573.207 280.617 575.098 281.731C576.899 282.844 577.889 285.072 577.889 288.041V295.28C577.889 297.972 578.699 299.921 580.23 300.849C581.761 301.777 583.832 301.498 586.083 300.199L615.346 282.752L615.797 283.494L586.533 300.941C585.092 301.777 583.652 302.241 582.301 302.241Z" fill="#FFE1B3"/>
<path d="M593.736 309.015C592.836 309.015 591.935 308.83 591.215 308.366C589.414 307.252 588.424 305.025 588.424 302.055V294.816C588.424 292.125 587.613 290.176 586.083 289.248C584.552 288.32 582.481 288.598 580.23 289.898L574.107 293.517L573.567 292.682L579.69 289.062C582.211 287.577 584.552 287.299 586.443 288.413C588.244 289.526 589.234 291.754 589.234 294.723V301.962C589.234 304.654 590.044 306.603 591.575 307.531C593.106 308.459 595.177 308.18 597.428 306.881L626.692 289.434L627.142 290.176L597.878 307.623C596.437 308.551 594.997 309.015 593.736 309.015Z" fill="#FFE1B3"/>
<path d="M605.082 315.697C604.181 315.697 603.281 315.512 602.56 315.048C600.76 313.934 599.769 311.707 599.769 308.737V301.498C599.769 298.807 598.959 296.858 597.428 295.93C595.897 295.002 593.826 295.28 591.575 296.58L585.453 300.199L585.002 299.457L591.125 295.837C593.646 294.352 595.987 294.074 597.878 295.187C599.679 296.301 600.67 298.528 600.67 301.498V308.737C600.67 311.428 601.48 313.377 603.011 314.305C604.541 315.233 606.612 314.955 608.863 313.656L638.127 296.208L638.577 296.951L609.314 314.398C607.783 315.326 606.342 315.697 605.082 315.697Z" fill="#FFE1B3"/>
<path d="M616.427 322.472C615.526 322.472 614.626 322.287 613.906 321.822C612.105 320.709 611.114 318.482 611.114 315.512V308.273C611.114 305.582 610.304 303.633 608.773 302.705C607.242 301.777 605.172 302.055 602.92 303.354L596.798 306.974L596.347 306.231L602.47 302.612C604.991 301.127 607.333 300.849 609.223 301.962C611.024 303.076 612.015 305.303 612.015 308.273V315.512C612.015 318.203 612.825 320.152 614.356 321.08C615.887 322.008 617.957 321.73 620.209 320.43L649.472 302.983L649.922 303.725L620.659 321.173C619.218 322.008 617.777 322.472 616.427 322.472Z" fill="#FFE1B3"/>
<path d="M627.862 329.247C626.962 329.247 626.061 329.062 625.341 328.597C623.54 327.484 622.55 325.256 622.55 322.287V314.955C622.55 312.264 621.739 310.315 620.209 309.387C618.678 308.459 616.607 308.737 614.356 310.036L608.233 313.656L607.783 312.913L613.906 309.294C616.427 307.809 618.768 307.531 620.659 308.644C622.46 309.758 623.45 311.985 623.45 314.955V322.194C623.45 324.885 624.261 326.834 625.791 327.762C627.322 328.69 629.393 328.412 631.644 327.113L660.908 309.665L661.358 310.408L632.004 327.948C630.563 328.783 629.123 329.247 627.862 329.247Z" fill="#FFE1B3"/>
<path d="M639.208 335.929C638.307 335.929 637.407 335.743 636.686 335.279C634.886 334.166 633.895 331.938 633.895 328.969V321.73C633.895 319.038 633.085 317.089 631.554 316.161C630.023 315.233 627.952 315.512 625.701 316.811L619.579 320.43L619.128 319.688L625.251 316.069C627.772 314.584 630.113 314.305 632.004 315.419C633.805 316.533 634.796 318.76 634.796 321.73V328.969C634.796 331.66 635.606 333.609 637.137 334.537C638.667 335.465 640.738 335.187 642.989 333.887L672.253 316.44L672.703 317.182L643.44 334.63C641.909 335.558 640.468 335.929 639.208 335.929Z" fill="#FFE1B3"/>
<path d="M650.553 342.704C649.652 342.704 648.752 342.518 648.032 342.054C646.231 340.941 645.24 338.713 645.24 335.743V328.505C645.24 325.813 644.43 323.864 642.899 322.936C641.368 322.008 639.297 322.287 637.046 323.586L630.924 327.205L630.473 326.463L636.596 322.843C639.117 321.359 641.458 321.08 643.349 322.194C645.15 323.307 646.141 325.535 646.141 328.505V335.743C646.141 338.435 646.951 340.384 648.482 341.312C650.012 342.24 652.083 341.961 654.334 340.662L683.598 323.215L684.048 323.957L654.785 341.405C653.344 342.24 651.903 342.704 650.553 342.704Z" fill="#FFE1B3"/>
<path d="M635.966 329.433V356.16L411.221 489.893L186.477 356.16V329.433H635.966Z" fill="url(#paint1_linear)"/>
<path d="M411.221 463.164L186.477 329.432L411.221 195.699L635.966 329.432L411.221 463.164Z" fill="#FFE8C4"/>
<path d="M411.221 460.01L189.178 327.855L186.477 329.433L411.221 463.165L635.966 329.433L633.355 327.855L411.221 460.01Z" fill="white"/>
<path d="M411.221 432.261L238.431 329.433L411.221 226.604L584.102 329.433L411.221 432.261Z" fill="#FF9F0A"/>
<path opacity="0.5" d="M411.221 432.261L238.431 329.433L411.221 226.604L584.102 329.433L411.221 432.261Z" fill="url(#paint2_linear)"/>
<path opacity="0.5" d="M411.221 200.619L584.102 303.54V329.433L411.221 226.604V200.619Z" fill="url(#paint3_linear)"/>
<path opacity="0.5" d="M411.221 226.604L238.431 329.433V303.447L411.221 200.619V226.604Z" fill="url(#paint4_linear)"/>
<path opacity="0.5" d="M411.221 406.368L238.431 303.447L411.221 200.619L584.102 303.54L411.221 406.368Z" fill="url(#paint5_linear)"/>
<path opacity="0.5" d="M411.221 344.56L342.159 303.447L411.221 262.427L480.284 303.54L411.221 344.56Z" fill="#FFE1B3"/>
<path opacity="0.5" d="M411.221 266.139L477.132 305.396L480.284 303.54L411.221 262.427L342.159 303.54L345.401 305.396L411.221 266.139Z" fill="#FFE1B3"/>
<path opacity="0.5" d="M411.222 406.368V432.261L584.102 329.433V303.54L411.222 406.368Z" fill="url(#paint6_linear)"/>
<path opacity="0.5" d="M238.431 303.447V329.433L411.221 432.261V406.368L238.431 303.447Z" fill="url(#paint7_linear)"/>
<path opacity="0.8" d="M411.221 403.491L240.772 302.055L238.431 303.447L411.221 406.368L584.102 303.54L581.761 302.055L411.221 403.491Z" fill="#FFE1B3"/>
<path d="M467.497 521.354L438.234 503.906C433.191 500.937 429.14 493.605 429.14 487.666V480.427C429.14 474.766 425.268 467.805 420.496 464.928L414.373 461.309L414.823 460.566L420.946 464.186C425.988 467.156 430.04 474.487 430.04 480.427V487.666C430.04 493.327 433.912 500.287 438.684 503.164L467.948 520.611L467.497 521.354Z" fill="#FFE1B3"/>
<path d="M478.843 514.579L449.579 497.132C444.537 494.162 440.485 486.83 440.485 480.891V473.652C440.485 467.991 436.613 461.03 431.841 458.153L425.718 454.534L426.168 453.792L432.291 457.411C437.333 460.381 441.385 467.712 441.385 473.652V480.891C441.385 486.552 445.257 493.512 450.029 496.389L479.293 513.837L478.843 514.579Z" fill="#FFE1B3"/>
<path d="M490.188 507.804L460.924 490.357C455.882 487.387 451.83 480.056 451.83 474.116V466.877C451.83 461.216 447.958 454.256 443.186 451.379L437.063 447.759L437.513 447.017L443.636 450.636C448.678 453.606 452.73 460.938 452.73 466.877V474.116C452.73 479.777 456.602 486.738 461.374 489.615L490.638 507.062L490.188 507.804Z" fill="#FFE1B3"/>
<path d="M501.623 501.122L472.36 483.675C467.317 480.705 463.266 473.373 463.266 467.434V460.195C463.266 454.534 459.394 447.574 454.621 444.697L448.499 441.077L448.949 440.335L455.072 443.954C460.114 446.924 464.166 454.256 464.166 460.195V467.434C464.166 473.095 468.038 480.055 472.81 482.932L502.074 500.38L501.623 501.122Z" fill="#FFE1B3"/>
<path d="M512.969 494.347L483.705 476.9C478.663 473.93 474.611 466.599 474.611 460.659V453.42C474.611 447.759 470.739 440.799 465.967 437.922L459.844 434.302L460.294 433.56L466.417 437.179C471.459 440.149 475.511 447.481 475.511 453.42V460.659C475.511 466.32 479.383 473.281 484.155 476.158L513.419 493.605L512.969 494.347Z" fill="#FFE1B3"/>
<path d="M524.314 487.573L495.05 470.218C490.008 467.248 485.956 459.917 485.956 453.977V446.738C485.956 441.077 482.084 434.117 477.312 431.24L471.189 427.621L471.639 426.878L477.762 430.498C482.804 433.467 486.856 440.799 486.856 446.738V453.977C486.856 459.638 490.728 466.599 495.5 469.476L524.764 486.83L524.314 487.573Z" fill="#FFE1B3"/>
<path d="M535.749 480.798L506.486 463.443C501.443 460.474 497.391 453.142 497.391 447.202V439.964C497.391 434.302 493.52 427.342 488.747 424.465L482.625 420.753L483.075 420.01L489.198 423.63C494.24 426.6 498.292 433.931 498.292 439.871V447.11C498.292 452.771 502.164 459.731 506.936 462.608L536.199 480.055L535.749 480.798Z" fill="#FFE1B3"/>
<path d="M547.095 474.023L517.831 456.576C512.789 453.606 508.737 446.274 508.737 440.335V433.096C508.737 427.435 504.865 420.475 500.093 417.598L493.97 413.978L494.42 413.236L500.543 416.855C505.585 419.825 509.637 427.157 509.637 433.096V440.335C509.637 445.996 513.509 452.956 518.281 455.833L547.545 473.281L547.095 474.023Z" fill="#FFE1B3"/>
<path d="M558.44 467.341L529.176 449.987C524.134 447.017 520.082 439.685 520.082 433.746V426.507C520.082 420.846 516.21 413.885 511.438 411.008L505.315 407.389L505.765 406.647L511.888 410.266C516.93 413.236 520.982 420.567 520.982 426.507V433.746C520.982 439.407 524.854 446.367 529.626 449.244L558.89 466.599L558.44 467.341Z" fill="#FFE1B3"/>
<path d="M569.875 460.566L540.611 443.119C535.569 440.149 531.517 432.818 531.517 426.878V419.639C531.517 413.978 527.645 407.018 522.873 404.141L516.75 400.521L517.2 399.779L523.323 403.398C528.366 406.368 532.418 413.7 532.418 419.639V426.878C532.418 432.539 536.289 439.5 541.062 442.377L570.325 459.824L569.875 460.566Z" fill="#FFE1B3"/>
<path d="M581.22 453.792L551.957 436.344C546.914 433.374 542.862 426.043 542.862 420.103V412.865C542.862 407.203 538.991 400.243 534.218 397.366L528.095 393.747L528.546 393.004L534.669 396.624C539.711 399.593 543.763 406.925 543.763 412.865V420.103C543.763 425.764 547.635 432.725 552.407 435.602L581.67 453.049L581.22 453.792Z" fill="#FFE1B3"/>
<path d="M592.566 447.017L563.302 429.569C558.26 426.6 554.208 419.268 554.208 413.329V406.09C554.208 400.429 550.336 393.468 545.564 390.591L539.441 386.972L539.891 386.229L546.014 389.849C551.057 392.819 555.108 400.15 555.108 406.09V413.329C555.108 418.99 558.98 425.95 563.752 428.827L593.016 446.274L592.566 447.017Z" fill="#FFE1B3"/>
<path d="M604.001 440.242L574.737 422.795C569.695 419.825 565.643 412.493 565.643 406.554V399.315C565.643 393.654 561.771 386.693 556.999 383.816L550.876 380.197L551.327 379.455L557.449 383.074C562.492 386.044 566.544 393.375 566.544 399.315V406.554C566.544 412.215 570.415 419.175 575.188 422.052L604.451 439.5L604.001 440.242Z" fill="#FFE1B3"/>
<path d="M615.346 433.56L586.083 416.113C581.04 413.143 576.989 405.811 576.989 399.872V392.633C576.989 386.972 573.117 380.011 568.345 377.135L562.222 373.515L562.672 372.773L568.795 376.392C573.837 379.362 577.889 386.693 577.889 392.633V399.872C577.889 405.533 581.761 412.493 586.533 415.37L615.797 432.818L615.346 433.56Z" fill="#FFE1B3"/>
<path d="M626.692 426.785L597.428 409.338C592.386 406.368 588.334 399.036 588.334 393.097V385.858C588.334 380.197 584.462 373.237 579.69 370.36L573.567 366.74L574.017 365.998L580.14 369.617C585.182 372.587 589.234 379.919 589.234 385.858V393.097C589.234 398.758 593.106 405.718 597.878 408.595L627.142 426.043L626.692 426.785Z" fill="#FFE1B3"/>
<path d="M638.127 420.011L608.863 402.563C603.821 399.593 599.769 392.262 599.769 386.322V379.083C599.769 373.422 595.897 366.462 591.125 363.585L585.002 359.966L585.453 359.223L591.575 362.842C596.618 365.812 600.67 373.144 600.67 379.083V386.322C600.67 391.983 604.541 398.944 609.314 401.821L638.577 419.268L638.127 420.011Z" fill="#FFE1B3"/>
<path d="M649.472 413.236L620.209 395.788C615.166 392.819 611.114 385.487 611.114 379.547V372.309C611.114 366.647 607.242 359.687 602.47 356.81L596.347 353.191L596.798 352.448L602.92 356.068C607.963 359.037 612.015 366.369 612.015 372.309V379.547C612.015 385.209 615.887 392.169 620.659 395.046L649.922 412.493L649.472 413.236Z" fill="#FFE1B3"/>
<path d="M660.818 406.461L631.554 389.014C626.512 386.044 622.46 378.712 622.46 372.773V365.534C622.46 359.873 618.588 352.912 613.816 350.035L607.693 346.416L608.143 345.673L614.266 349.293C619.308 352.263 623.36 359.594 623.36 365.534V372.773C623.36 378.434 627.232 385.394 632.004 388.271L661.268 405.718L660.818 406.461Z" fill="#FFE1B3"/>
<path d="M672.253 399.779L642.989 382.332C637.947 379.362 633.895 372.03 633.895 366.091V358.852C633.895 353.191 630.023 346.23 625.251 343.353L619.128 339.734L619.578 338.992L625.701 342.611C630.744 345.581 634.795 352.912 634.795 358.852V366.091C634.795 371.752 638.667 378.712 643.439 381.589L672.703 399.036L672.253 399.779Z" fill="#FFE1B3"/>
<path d="M683.598 393.004L654.335 375.557C649.293 372.587 645.241 365.255 645.241 359.316V352.077C645.241 346.416 641.369 339.455 636.597 336.579L630.474 332.959L630.924 332.217L637.047 335.836C642.089 338.806 646.141 346.137 646.141 352.077V359.316C646.141 364.977 650.013 371.937 654.785 374.814L684.049 392.262L683.598 393.004Z" fill="#FFE1B3"/>
<path d="M354.225 521.354L353.774 520.611L383.038 503.164C387.81 500.287 391.682 493.419 391.682 487.666V480.427C391.682 474.487 395.734 467.156 400.777 464.186L406.899 460.566L407.35 461.309L401.227 464.928C396.455 467.805 392.583 474.673 392.583 480.427V487.666C392.583 493.605 388.531 500.937 383.488 503.906L354.225 521.354Z" fill="#FFE1B3"/>
<path d="M342.879 514.579L342.429 513.837L371.693 496.389C376.465 493.512 380.337 486.645 380.337 480.891V473.652C380.337 467.712 384.389 460.381 389.431 457.411L395.554 453.792L396.004 454.534L389.881 458.153C385.109 461.03 381.237 467.898 381.237 473.652V480.891C381.237 486.83 377.185 494.162 372.143 497.132L342.879 514.579Z" fill="#FFE1B3"/>
<path d="M331.534 507.804L331.084 507.062L360.348 489.615C365.12 486.738 368.992 479.87 368.992 474.116V466.877C368.992 460.938 373.044 453.606 378.086 450.636L384.209 447.017L384.659 447.759L378.536 451.379C373.764 454.256 369.892 461.123 369.892 466.877V474.116C369.892 480.056 365.84 487.387 360.798 490.357L331.534 507.804Z" fill="#FFE1B3"/>
<path d="M320.099 501.122L319.648 500.38L348.912 482.932C353.684 480.055 357.556 473.188 357.556 467.434V460.195C357.556 454.256 361.608 446.924 366.65 443.954L372.773 440.335L373.223 441.077L367.101 444.697C362.328 447.574 358.457 454.441 358.457 460.195V467.434C358.457 473.373 354.405 480.705 349.362 483.675L320.099 501.122Z" fill="#FFE1B3"/>
<path d="M308.754 494.347L308.303 493.605L337.567 476.158C342.339 473.281 346.211 466.413 346.211 460.659V453.42C346.211 447.481 350.263 440.149 355.305 437.179L361.428 433.56L361.878 434.302L355.756 437.922C350.983 440.799 347.112 447.666 347.112 453.42V460.659C347.112 466.599 343.06 473.93 338.017 476.9L308.754 494.347Z" fill="#FFE1B3"/>
<path d="M297.408 487.573L296.958 486.83L326.222 469.476C330.994 466.599 334.866 459.731 334.866 453.977V446.738C334.866 440.799 338.918 433.467 343.96 430.498L350.083 426.878L350.533 427.621L344.41 431.24C339.638 434.117 335.766 440.985 335.766 446.738V453.977C335.766 459.917 331.714 467.248 326.672 470.218L297.408 487.573Z" fill="#FFE1B3"/>
<path d="M285.973 480.798L285.523 480.055L314.787 462.608C319.559 459.731 323.431 452.864 323.431 447.11V439.871C323.431 433.931 327.482 426.6 332.525 423.63L338.648 420.01L339.098 420.753L332.975 424.372C328.203 427.249 324.331 434.117 324.331 439.871V447.11C324.331 453.049 320.279 460.381 315.237 463.351L285.973 480.798Z" fill="#FFE1B3"/>
<path d="M274.628 474.023L274.177 473.281L303.441 455.833C308.213 452.956 312.085 446.089 312.085 440.335V433.096C312.085 427.157 316.137 419.825 321.179 416.855L327.302 413.236L327.752 413.978L321.63 417.598C316.857 420.475 312.986 427.342 312.986 433.096V440.335C312.986 446.274 308.934 453.606 303.891 456.576L274.628 474.023Z" fill="#FFE1B3"/>
<path d="M216.01 494.719L215.83 494.626L91.4823 421.031L91.9325 420.196L216.1 493.698L262.832 466.506L292.096 449.151C296.868 446.274 300.74 439.407 300.74 433.653V426.414C300.74 420.475 304.792 413.143 309.834 410.173L315.957 406.554L316.407 407.296L310.284 410.916C305.512 413.793 301.64 420.66 301.64 426.414V433.653C301.64 439.592 297.588 446.924 292.546 449.894L263.282 467.248L216.01 494.719Z" fill="#FFE1B3"/>
<path d="M251.847 460.566L251.397 459.824L280.66 442.377C285.433 439.5 289.304 432.632 289.304 426.878V419.639C289.304 413.7 293.356 406.368 298.399 403.398L304.521 399.779L304.972 400.521L298.849 404.141C294.077 407.018 290.205 413.885 290.205 419.639V426.878C290.205 432.818 286.153 440.149 281.111 443.119L251.847 460.566Z" fill="#FFE1B3"/>
<path d="M240.502 453.792L240.052 453.049L269.315 435.602C274.087 432.725 277.959 425.857 277.959 420.103V412.865C277.959 406.925 282.011 399.593 287.054 396.624L293.176 393.004L293.627 393.747L287.504 397.366C282.731 400.243 278.86 407.111 278.86 412.865V420.103C278.86 426.043 274.808 433.374 269.765 436.344L240.502 453.792Z" fill="#FFE1B3"/>
<path d="M229.157 447.017L228.707 446.274L257.97 428.827C262.742 425.95 266.614 419.082 266.614 413.329V406.09C266.614 400.15 270.666 392.819 275.708 389.849L281.831 386.229L282.281 386.972L276.159 390.591C271.386 393.468 267.515 400.336 267.515 406.09V413.329C267.515 419.268 263.463 426.6 258.42 429.569L229.157 447.017Z" fill="#FFE1B3"/>
<path d="M217.721 440.242L217.271 439.5L246.535 422.052C251.307 419.175 255.179 412.308 255.179 406.554V399.315C255.179 393.375 259.23 386.044 264.273 383.074L270.396 379.455L270.846 380.197L264.723 383.816C259.951 386.693 256.079 393.561 256.079 399.315V406.554C256.079 412.493 252.027 419.825 246.985 422.795L217.721 440.242Z" fill="#FFE1B3"/>
<path d="M206.376 433.56L205.925 432.818L235.189 415.37C239.961 412.493 243.833 405.626 243.833 399.872V392.633C243.833 386.693 247.885 379.362 252.927 376.392L259.05 372.773L259.5 373.515L253.378 377.135C248.605 380.011 244.734 386.879 244.734 392.633V399.872C244.734 405.811 240.682 413.143 235.639 416.113L206.376 433.56Z" fill="#FFE1B3"/>
<path d="M195.031 426.785L194.58 426.043L223.844 408.595C228.616 405.718 232.488 398.851 232.488 393.097V385.858C232.488 379.919 236.54 372.587 241.582 369.617L247.705 365.998L248.155 366.74L242.032 370.36C237.26 373.237 233.388 380.104 233.388 385.858V393.097C233.388 399.036 229.337 406.368 224.294 409.338L195.031 426.785Z" fill="#FFE1B3"/>
<path d="M183.595 420.011L183.145 419.268L212.409 401.821C217.181 398.944 221.053 392.076 221.053 386.322V379.083C221.053 373.144 225.105 365.812 230.147 362.842L236.27 359.223L236.72 359.966L230.597 363.585C225.825 366.462 221.953 373.329 221.953 379.083V386.322C221.953 392.262 217.901 399.593 212.859 402.563L183.595 420.011Z" fill="#FFE1B3"/>
<path d="M172.25 413.236L171.8 412.493L201.063 395.046C205.835 392.169 209.707 385.301 209.707 379.547V372.309C209.707 366.369 213.759 359.037 218.801 356.068L224.924 352.448L225.375 353.191L219.252 356.81C214.479 359.687 210.608 366.555 210.608 372.309V379.547C210.608 385.487 206.556 392.819 201.513 395.788L172.25 413.236Z" fill="#FFE1B3"/>
<path d="M160.905 406.461L160.454 405.718L189.718 388.271C194.49 385.394 198.362 378.527 198.362 372.773V365.534C198.362 359.594 202.414 352.263 207.456 349.293L213.579 345.673L214.029 346.416L207.907 350.035C203.134 352.912 199.263 359.78 199.263 365.534V372.773C199.263 378.712 195.211 386.044 190.168 389.014L160.905 406.461Z" fill="#FFE1B3"/>
<path d="M149.469 399.779L149.019 399.036L178.283 381.589C183.055 378.712 186.927 371.845 186.927 366.091V358.852C186.927 352.912 190.979 345.581 196.021 342.611L202.144 338.992L202.594 339.734L196.471 343.353C191.699 346.23 187.827 353.098 187.827 358.852V366.091C187.827 372.03 183.775 379.362 178.733 382.332L149.469 399.779Z" fill="#FFE1B3"/>
<path d="M138.124 393.004L137.674 392.262L166.937 374.814C171.71 371.937 175.581 365.07 175.581 359.316V352.077C175.581 346.137 179.633 338.806 184.676 335.836L190.798 332.217L191.249 332.959L185.126 336.579C180.354 339.455 176.482 346.323 176.482 352.077V359.316C176.482 365.255 172.43 372.587 167.388 375.557L138.124 393.004Z" fill="#FFE1B3"/>
<path d="M61.5887 438.943L61.4086 438.85L0 402.377L0.630294 402.006L61.5887 365.719L61.7688 365.812L123.177 402.377L122.547 402.749L61.5887 438.943ZM1.80084 402.377L61.6787 438.015L121.467 402.377L61.5887 366.74L1.80084 402.377Z" fill="#FFE1B3"/>
<path d="M61.5886 340.384L19.629 315.419V365.348L61.5886 390.313L103.548 365.348V315.419L61.5886 340.384Z" fill="#FFE1B3"/>
<path d="M61.5886 390.313L19.629 365.348V315.419L61.5886 340.384V390.313Z" fill="#FFE1B3"/>
<path d="M103.548 365.348L61.5887 390.313V340.384L103.548 315.419V365.348Z" fill="#FFD99E"/>
<path d="M61.5886 340.384L19.629 315.419L61.5886 290.454L103.548 315.419L61.5886 340.384Z" fill="#FFE1B3"/>
<path d="M61.5886 340.384L19.629 315.419V317.554L61.5886 342.518L103.548 317.554V315.419L61.5886 340.384Z" fill="white"/>
<path d="M411.222 213.055L369.352 188.09V238.019L411.222 262.891L453.181 238.019V188.09L411.222 213.055Z" fill="#FFE1B3"/>
<path d="M411.222 262.891L369.352 238.019V188.09L411.222 213.055V262.891Z" fill="#FFE1B3"/>
<path d="M453.181 238.019L411.222 262.891V213.055L453.181 188.09V238.019Z" fill="#FFD99E"/>
<path d="M411.222 213.055L369.352 188.09L411.222 163.126L453.181 188.09L411.222 213.055Z" fill="#FFE1B3"/>
<path d="M411.222 213.055L371.153 189.204L369.352 190.225L411.222 215.189L453.181 190.225L451.38 189.204L411.222 213.055Z" fill="white"/>
<path d="M465.697 245.073L423.828 220.108V270.037L465.697 294.909L507.657 270.037V220.108L465.697 245.073Z" fill="#FFE1B3"/>
<path d="M465.697 294.909L423.828 270.037V220.108L465.697 245.073V294.909Z" fill="#FFE1B3"/>
<path d="M507.657 270.037L465.697 294.909V245.073L507.657 220.108V270.037Z" fill="#FFD99E"/>
<path d="M465.697 245.073L423.828 220.108L465.697 195.143L507.657 220.108L465.697 245.073Z" fill="#FFE1B3"/>
<path d="M465.697 245.073L425.628 221.222L423.828 222.243L465.697 247.207L507.657 222.243L505.856 221.222L465.697 245.073Z" fill="white"/>
<path d="M520.173 277.09L478.213 252.126V302.055L520.173 327.02L562.132 302.055V252.126L520.173 277.09Z" fill="#FFE1B3"/>
<path d="M520.172 327.02L478.213 302.055V252.126L520.172 277.09V327.02Z" fill="#FFE1B3"/>
<path d="M562.132 302.055L520.172 327.02V277.09L562.132 252.126V302.055Z" fill="#FFD99E"/>
<path d="M520.173 277.09L478.213 252.126L520.173 227.161L562.132 252.126L520.173 277.09Z" fill="#FFE1B3"/>
<path d="M520.173 277.09L480.104 253.239L478.213 254.26L520.173 279.225L562.132 254.26V252.126L520.173 277.09Z" fill="white"/>
<path d="M356.836 247.207L314.877 222.242V272.172L356.836 297.136L398.706 272.172V222.242L356.836 247.207Z" fill="#FFE1B3"/>
<path d="M356.836 297.136L314.877 272.172V222.242L356.836 247.207V297.136Z" fill="#FFE1B3"/>
<path d="M398.706 272.172L356.836 297.136V247.207L398.706 222.242V272.172Z" fill="#FFD99E"/>
<path d="M356.836 247.207L314.877 222.243L356.836 197.371L398.706 222.243L356.836 247.207Z" fill="#FFE1B3"/>
<path d="M356.836 247.207L316.678 223.356L314.877 224.47L356.836 249.342L398.706 224.47L396.905 223.356L356.836 247.207Z" fill="white"/>
<path d="M411.222 279.225L369.352 254.26V304.19L411.222 329.154L453.181 304.19V254.26L411.222 279.225Z" fill="#FFE1B3"/>
<path d="M411.222 329.154L369.352 304.19V254.26L411.222 279.225V329.154Z" fill="#FFE1B3"/>
<path d="M453.181 304.19L411.222 329.154V279.225L453.181 254.26V304.19Z" fill="#FFD99E"/>
<path d="M411.222 279.225L369.352 254.26L411.222 229.389L453.181 254.26L411.222 279.225Z" fill="#FFE1B3"/>
<path d="M411.222 279.225L371.153 255.374L369.352 256.488L411.222 281.452L453.181 256.488L451.38 255.374L411.222 279.225Z" fill="white"/>
<path d="M465.697 311.243L423.828 286.371V336.207L465.697 361.172L507.657 336.207V286.371L465.697 311.243Z" fill="#FFE1B3"/>
<path d="M465.697 361.172L423.828 336.207V286.371L465.697 311.243V361.172Z" fill="#FFE1B3"/>
<path d="M507.657 336.207L465.697 361.172V311.243L507.657 286.371V336.207Z" fill="#FFD99E"/>
<path d="M465.697 311.243L423.828 286.371L465.697 261.406L507.657 286.371L465.697 311.243Z" fill="#FFE1B3"/>
<path d="M465.697 311.243L425.628 287.392L423.828 288.506L465.697 313.47L507.657 288.506V286.371L465.697 311.243Z" fill="white"/>
<path d="M302.361 281.452L260.401 256.488V306.324L302.361 331.289L344.23 306.324V256.488L302.361 281.452Z" fill="#FFE1B3"/>
<path d="M302.361 331.289L260.401 306.324V256.488L302.361 281.452V331.289Z" fill="#FFE1B3"/>
<path d="M344.23 306.324L302.361 331.289V281.452L344.23 256.488V306.324Z" fill="#FFD99E"/>
<path d="M302.361 281.452L260.401 256.488L302.361 231.523L344.23 256.488L302.361 281.452Z" fill="#FFE1B3"/>
<path d="M302.361 281.452L260.401 256.488V258.622L302.361 283.587L344.23 258.622L342.43 257.509L302.361 281.452Z" fill="white"/>
<path d="M356.836 313.47L314.877 288.505V338.342L356.836 363.307L398.706 338.342V288.505L356.836 313.47Z" fill="#FFE1B3"/>
<path d="M356.836 363.307L314.877 338.342V288.505L356.836 313.47V363.307Z" fill="#FFE1B3"/>
<path d="M398.706 338.342L356.836 363.307V313.47L398.706 288.505V338.342Z" fill="#FFD99E"/>
<path d="M356.836 313.47L314.877 288.506L356.836 263.541L398.706 288.506L356.836 313.47Z" fill="#FFE1B3"/>
<path d="M356.836 313.47L314.877 288.505V290.64L356.836 315.605L398.706 290.64L396.905 289.619L356.836 313.47Z" fill="white"/>
<path d="M411.222 345.488L369.352 320.523V370.453L411.222 395.324L453.181 370.453V320.523L411.222 345.488Z" fill="#FFE1B3"/>
<path d="M411.222 395.324L369.352 370.453V320.523L411.222 345.488V395.324Z" fill="#FFE1B3"/>
<path d="M453.181 370.453L411.222 395.324V345.488L453.181 320.523V370.453Z" fill="#FFD99E"/>
<path d="M411.222 345.488L369.352 320.523L411.222 295.559L453.181 320.523L411.222 345.488Z" fill="#FFE1B3"/>
<path d="M411.222 345.488L369.352 320.523V322.658L411.222 347.623L453.181 322.658V320.523L411.222 345.488Z" fill="white"/>
<path d="M411.222 146.792L369.352 121.827V171.757L411.222 196.721L453.181 171.757V121.827L411.222 146.792Z" fill="#FFE1B3"/>
<path d="M411.222 196.721L369.352 171.757V121.827L411.222 146.792V196.721Z" fill="#FFE1B3"/>
<path d="M453.181 171.757L411.222 196.721V146.792L453.181 121.827V171.757Z" fill="#FFD99E"/>
<path d="M411.222 146.792L369.352 121.827L411.222 96.9554L453.181 121.827L411.222 146.792Z" fill="#FFE1B3"/>
<path d="M411.222 146.792L371.153 122.941L369.352 124.055L411.222 149.019L453.181 124.055L451.38 122.941L411.222 146.792Z" fill="white"/>
<path opacity="0.7" d="M411.222 337.321L382.678 320.338L411.222 303.262L439.855 320.338L411.222 337.321Z" fill="#FFCD80"/>
<path opacity="0.7" d="M356.836 305.303L328.203 288.32L356.836 271.244L385.38 288.32L356.836 305.303Z" fill="#FFCD80"/>
<path opacity="0.7" d="M465.697 303.169L437.154 286.092L465.697 269.109L494.33 286.092L465.697 303.169Z" fill="#FFCD80"/>
<path opacity="0.7" d="M520.263 269.388L491.719 252.311L520.263 235.328L548.896 252.311L520.263 269.388Z" fill="#FFCD80"/>
<path opacity="0.7" d="M302.361 273.284L273.728 256.301L302.361 239.225L330.904 256.301L302.361 273.284Z" fill="#FFCD80"/>
<path d="M465.697 178.81L423.828 153.938V203.774L465.697 228.739L507.657 203.774V153.938L465.697 178.81Z" fill="#FFE1B3"/>
<path d="M465.697 228.739L423.828 203.774V153.938L465.697 178.81V228.739Z" fill="#FFE1B3"/>
<path d="M507.657 203.774L465.697 228.739V178.81L507.657 153.938V203.774Z" fill="#FFD99E"/>
<path d="M465.697 178.81L423.828 153.938L465.697 128.973L507.657 153.938L465.697 178.81Z" fill="#FFE1B3"/>
<path d="M465.697 178.81L425.628 154.959L423.828 156.072L465.697 181.037L507.657 156.072L505.856 154.959L465.697 178.81Z" fill="white"/>
<path d="M520.173 210.827L478.213 185.956V235.792L520.173 260.757L562.132 235.792V185.956L520.173 210.827Z" fill="#FFE1B3"/>
<path d="M520.172 260.757L478.213 235.792V185.956L520.172 210.827V260.757Z" fill="#FFE1B3"/>
<path d="M562.132 235.792L520.172 260.757V210.827L562.132 185.956V235.792Z" fill="#FFD99E"/>
<path d="M520.173 210.827L478.213 185.956L520.173 160.991L562.132 185.956L520.173 210.827Z" fill="#FFE1B3"/>
<path d="M520.173 210.827L480.104 186.977L478.213 188.09L520.173 213.055L562.132 188.09V185.956L520.173 210.827Z" fill="white"/>
<path d="M356.836 181.037L314.877 156.072V205.909L356.836 230.873L398.706 205.909V156.072L356.836 181.037Z" fill="#FFE1B3"/>
<path d="M356.836 230.873L314.877 205.909V156.072L356.836 181.037V230.873Z" fill="#FFE1B3"/>
<path d="M398.706 205.909L356.836 230.873V181.037L398.706 156.072V205.909Z" fill="#FFD99E"/>
<path d="M356.836 181.037L314.877 156.072L356.836 131.108L398.706 156.072L356.836 181.037Z" fill="#FFE1B3"/>
<path d="M356.836 181.037L316.678 157.186L314.877 158.207L356.836 183.172L398.706 158.207L396.905 157.186L356.836 181.037Z" fill="white"/>
<path d="M411.222 213.055L369.352 188.09V238.019L411.222 262.891L453.181 238.019V188.09L411.222 213.055Z" fill="#FFE1B3"/>
<path d="M411.222 262.891L369.352 238.019V188.09L411.222 213.055V262.891Z" fill="#FFE1B3"/>
<path d="M453.181 238.019L411.222 262.891V213.055L453.181 188.09V238.019Z" fill="#FFD99E"/>
<path d="M411.222 213.055L369.352 188.09L411.222 163.126L453.181 188.09L411.222 213.055Z" fill="#FFE1B3"/>
<path d="M411.222 213.055L371.153 189.204L369.352 190.225L411.222 215.189L453.181 190.225L451.38 189.204L411.222 213.055Z" fill="white"/>
<path d="M465.697 245.073L423.828 220.108V270.037L465.697 294.909L507.657 270.037V220.108L465.697 245.073Z" fill="#FFE1B3"/>
<path d="M465.697 294.909L423.828 270.037V220.108L465.697 245.073V294.909Z" fill="#FFE1B3"/>
<path d="M507.657 270.037L465.697 294.909V245.073L507.657 220.108V270.037Z" fill="#FFD99E"/>
<path d="M465.697 245.073L423.828 220.108L465.697 195.143L507.657 220.108L465.697 245.073Z" fill="#FFE1B3"/>
<path d="M465.697 245.073L425.628 221.222L423.828 222.242L465.697 247.207L507.657 222.242V220.108L465.697 245.073Z" fill="white"/>
<path d="M302.361 215.189L260.401 190.225V240.154L302.361 265.118L344.23 240.154V190.225L302.361 215.189Z" fill="#FFE1B3"/>
<path d="M302.361 265.118L260.401 240.154V190.225L302.361 215.189V265.118Z" fill="#FFE1B3"/>
<path d="M344.23 240.154L302.361 265.118V215.189L344.23 190.225V240.154Z" fill="#FFD99E"/>
<path d="M302.361 215.189L260.401 190.225L302.361 165.26L344.23 190.225L302.361 215.189Z" fill="#FFE1B3"/>
<path d="M302.361 215.189L262.202 191.338L260.401 192.452L302.361 217.324L344.23 192.452L342.43 191.338L302.361 215.189Z" fill="white"/>
<path d="M356.836 247.207L314.877 222.242V272.172L356.836 297.136L398.706 272.172V222.242L356.836 247.207Z" fill="#FFE1B3"/>
<path d="M356.836 297.136L314.877 272.172V222.242L356.836 247.207V297.136Z" fill="#FFE1B3"/>
<path d="M398.706 272.172L356.836 297.136V247.207L398.706 222.242V272.172Z" fill="#FFD99E"/>
<path d="M356.836 247.207L314.877 222.243L356.836 197.371L398.706 222.243L356.836 247.207Z" fill="#FFE1B3"/>
<path d="M356.836 247.207L314.877 222.242V224.47L356.836 249.342L398.706 224.47L396.905 223.356L356.836 247.207Z" fill="white"/>
<path d="M411.222 279.225L369.352 254.26V304.19L411.222 329.154L453.181 304.19V254.26L411.222 279.225Z" fill="#FFE1B3"/>
<path d="M411.222 329.154L369.352 304.19V254.26L411.222 279.225V329.154Z" fill="#FFE1B3"/>
<path d="M453.181 304.19L411.222 329.154V279.225L453.181 254.26V304.19Z" fill="#FFD99E"/>
<path d="M411.222 279.225L369.352 254.26L411.222 229.389L453.181 254.26L411.222 279.225Z" fill="#FFE1B3"/>
<path d="M411.222 279.225L369.352 254.26V256.488L411.222 281.452L453.181 256.488V254.26L411.222 279.225Z" fill="white"/>
<path opacity="0.7" d="M520.263 203.403L491.719 186.42L520.263 169.344L548.896 186.42L520.263 203.403Z" fill="#FFCD80"/>
<path opacity="0.7" d="M302.361 207.393L273.728 190.316L302.361 173.333L330.904 190.316L302.361 207.393Z" fill="#FFCD80"/>
<path d="M411.222 80.6217L369.352 55.6571V105.586L411.222 130.458L453.181 105.586V55.6571L411.222 80.6217Z" fill="#FFE1B3"/>
<path d="M411.222 130.458L369.352 105.586V55.6571L411.222 80.6217V130.458Z" fill="#FFE1B3"/>
<path d="M453.181 105.586L411.222 130.458V80.6217L453.181 55.6571V105.586Z" fill="#FFD99E"/>
<path d="M411.222 80.6217L369.352 55.6571L411.222 30.6924L453.181 55.6571L411.222 80.6217Z" fill="#FFE1B3"/>
<path d="M411.222 80.6218L369.352 55.6571V57.7917L411.222 82.7563L453.181 57.7917V55.6571L411.222 80.6218Z" fill="white"/>
<path d="M465.697 112.639L423.828 87.6749V137.604L465.697 162.476L507.657 137.604V87.6749L465.697 112.639Z" fill="#FFE1B3"/>
<path d="M465.697 162.476L423.828 137.604V87.6749L465.697 112.639V162.476Z" fill="#FFE1B3"/>
<path d="M507.657 137.604L465.697 162.476V112.639L507.657 87.6749V137.604Z" fill="#FFD99E"/>
<path d="M465.697 112.64L423.828 87.6749L465.697 62.7103L507.657 87.6749L465.697 112.64Z" fill="#FFE1B3"/>
<path d="M465.697 112.64L423.828 87.6749V89.8094L465.697 114.774L507.657 89.8094V87.6749L465.697 112.64Z" fill="white"/>
<path d="M520.173 144.657L478.213 119.693V169.622L520.173 194.587L562.132 169.622V119.693L520.173 144.657Z" fill="#FFE1B3"/>
<path d="M520.172 194.587L478.213 169.622V119.693L520.172 144.657V194.587Z" fill="#FFE1B3"/>
<path d="M562.132 169.622L520.172 194.587V144.657L562.132 119.693V169.622Z" fill="#FFD99E"/>
<path d="M520.173 144.657L478.213 119.693L520.173 94.7281L562.132 119.693L520.173 144.657Z" fill="#FFE1B3"/>
<path d="M520.173 144.657L478.213 119.693V121.827L520.173 146.792L562.132 121.827V119.693L520.173 144.657Z" fill="white"/>
<path d="M356.836 114.774L314.877 89.8094V139.739L356.836 164.703L398.706 139.739V89.8094L356.836 114.774Z" fill="#FFE1B3"/>
<path d="M356.836 164.703L314.877 139.739V89.8094L356.836 114.774V164.703Z" fill="#FFE1B3"/>
<path d="M398.706 139.739L356.836 164.703V114.774L398.706 89.8094V139.739Z" fill="#FFD99E"/>
<path d="M356.836 114.774L314.877 89.8094L356.836 64.9376L398.706 89.8094L356.836 114.774Z" fill="#FFE1B3"/>
<path d="M356.836 114.774L314.877 89.8094V92.0367L356.836 116.909L398.706 92.0367V89.8094L356.836 114.774Z" fill="white"/>
<path d="M302.361 149.019L260.401 124.055V173.891L302.361 198.856L344.23 173.891V124.055L302.361 149.019Z" fill="#FFE1B3"/>
<path d="M302.361 198.856L260.401 173.891V124.055L302.361 149.019V198.856Z" fill="#FFE1B3"/>
<path d="M344.23 173.891L302.361 198.856V149.019L344.23 124.055V173.891Z" fill="#FFD99E"/>
<path d="M302.361 149.019L260.401 124.055L302.361 99.09L344.23 124.055L302.361 149.019Z" fill="#FFE1B3"/>
<path d="M302.361 149.019L260.401 124.055V126.189L302.361 151.154L344.23 126.189V124.055L302.361 149.019Z" fill="white"/>
<path d="M566.83 272.103L566.383 271.358L663.596 213.568L663.775 213.754L763.759 270.776L763.305 271.609L663.592 214.589L566.83 272.103Z" fill="#FFE1B3"/>
<path opacity="0.4" d="M607.451 244.157C607.439 247.404 609.952 250.013 613.104 250.027C616.257 250.042 618.789 247.456 618.801 244.209C618.813 240.962 616.3 238.353 613.147 238.338C609.995 238.324 607.463 240.91 607.451 244.157Z" fill="#FFE1B3"/>
<path d="M610.694 244.17C610.689 245.561 611.766 246.679 613.117 246.686C614.468 246.692 615.554 245.584 615.559 244.192C615.564 242.801 614.487 241.683 613.136 241.677C611.784 241.671 610.699 242.779 610.694 244.17Z" fill="#FFE1B3"/>
<path d="M104.349 38.8936L100.581 0L69.5186 22.7545L73.357 61.6481L108.187 77.7871L139.179 54.9599L104.349 38.8936Z" fill="#FFE1B3"/>
<path d="M73.357 61.6481L69.5186 22.7545L100.581 0L104.349 38.8936L73.357 61.6481Z" fill="#FFE1B3"/>
<path d="M108.187 77.7871L73.3571 61.6481L104.349 38.8935L139.179 54.9599L108.187 77.7871Z" fill="#FFD99E"/>
<path d="M104.349 38.8936L100.581 0L135.412 16.0663L139.179 54.9598L104.349 38.8936Z" fill="#FFE1B3"/>
<path d="M104.349 38.8936L100.581 0L99.2308 0.945068L102.998 39.8386L137.828 55.9049L139.179 54.9599L104.349 38.8936Z" fill="white"/>
<path opacity="0.4" d="M141.702 108.688C141.702 111.233 143.692 113.268 146.18 113.268C148.668 113.268 150.658 111.233 150.658 108.688C150.658 106.144 148.668 104.108 146.18 104.108C143.692 104.108 141.702 106.144 141.702 108.688Z" fill="#FFE1B3"/>
<path d="M146.109 110.651C147.169 110.651 148.028 109.772 148.028 108.688C148.028 107.604 147.169 106.725 146.109 106.725C145.049 106.725 144.19 107.604 144.19 108.688C144.19 109.772 145.049 110.651 146.109 110.651Z" fill="#FFE1B3"/>
<path opacity="0.4" d="M40.6203 131.937C44.4675 131.937 47.5864 128.747 47.5864 124.812C47.5864 120.878 44.4675 117.688 40.6203 117.688C36.773 117.688 33.6542 120.878 33.6542 124.812C33.6542 128.747 36.773 131.937 40.6203 131.937Z" fill="#FFE1B3"/>
<path d="M37.5638 124.812C37.5638 126.557 38.9143 127.938 40.6203 127.938C42.3263 127.938 43.6769 126.557 43.6769 124.812C43.6769 123.068 42.3263 121.686 40.6203 121.686C38.9143 121.686 37.5638 123.068 37.5638 124.812Z" fill="#FFE1B3"/>
<path opacity="0.4" d="M23.9122 58.2102C23.9122 60.9001 26.0447 63.0083 28.6036 63.0083C31.1626 63.0083 33.295 60.8274 33.295 58.2102C33.295 55.5931 31.1626 53.4122 28.6036 53.4122C26.0447 53.4122 23.9122 55.5931 23.9122 58.2102Z" fill="#FFE1B3"/>
<path d="M26.6133 58.2095C26.6133 59.3727 27.5374 60.3178 28.6747 60.3178C29.8121 60.3178 30.7362 59.3727 30.7362 58.2095C30.7362 57.0463 29.8121 56.1012 28.6747 56.1012C27.5374 56.1739 26.6133 57.0463 26.6133 58.2095Z" fill="#FFE1B3"/>
<path opacity="0.4" d="M108.187 126.713C86.3649 126.713 64.5426 121.842 47.9805 112.028C31.8448 102.505 22.9596 89.7823 22.9596 76.2605C22.9596 62.7386 31.8448 50.0164 47.9805 40.4929C81.1759 20.8644 135.269 20.8644 168.465 40.4929C184.6 50.0164 193.486 62.7386 193.486 76.2605C193.486 89.7823 184.6 102.505 168.465 112.028C151.832 121.842 130.009 126.713 108.187 126.713ZM108.187 26.4622C86.507 26.4622 64.827 31.333 48.3359 41.0745C32.4135 50.4526 23.5993 62.9567 23.5993 76.2605C23.5993 89.4915 32.3424 101.996 48.3359 111.446C81.3891 130.93 135.127 130.93 168.109 111.446C184.032 102.068 192.846 89.5642 192.846 76.2605C192.846 63.0294 184.103 50.5253 168.109 41.0745C151.547 31.333 129.867 26.4622 108.187 26.4622Z" fill="#FFE1B3"/>
<path opacity="0.2" d="M108.187 140.235C80.5361 140.235 52.8141 133.983 31.7738 121.551C11.3021 109.484 0 93.3445 0 76.1877C0 59.0309 11.3021 42.9646 31.7738 30.824C73.9255 5.96118 142.52 5.96118 184.672 30.824C205.143 42.8919 216.445 59.0309 216.445 76.1877C216.445 93.3445 205.143 109.411 184.672 121.551C163.56 134.056 135.838 140.235 108.187 140.235ZM108.187 12.9402C80.6072 12.9402 53.0984 19.1196 32.1292 31.551C11.8707 43.5462 0.710822 59.3944 0.710822 76.2604C0.710822 93.1264 11.8707 109.047 32.1292 120.97C74.0677 145.76 142.378 145.76 184.316 120.97C204.575 108.975 215.734 93.1264 215.734 76.2604C215.734 59.3944 204.575 43.4735 184.316 31.551C163.276 19.1196 135.767 12.9402 108.187 12.9402Z" fill="#FFE1B3"/>
<path d="M108.187 116.099C90.9851 116.099 73.7833 112.246 60.7041 104.54C47.9804 96.9795 40.9433 87.0198 40.9433 76.3332C40.9433 65.6465 47.9804 55.6142 60.7041 48.1262C86.8624 32.6415 129.441 32.6415 155.67 48.1262C168.394 55.6869 175.431 65.7192 175.431 76.3332C175.431 87.0198 168.394 97.0522 155.67 104.54C142.591 112.246 125.389 116.099 108.187 116.099ZM108.187 37.0761C91.1273 37.0761 74.0676 40.9291 61.0595 48.5624C48.5491 55.9776 41.6541 65.7919 41.6541 76.1878C41.6541 86.5836 48.5491 96.3979 61.0595 103.813C87.0756 119.152 129.298 119.152 155.315 103.813L155.457 104.104L155.315 103.813C167.825 96.3979 174.72 86.5836 174.72 76.1878C174.72 65.7919 167.825 55.9776 155.315 48.5624C142.306 40.9291 125.247 37.0761 108.187 37.0761Z" fill="#FFE1B3"/>
<defs>
<linearGradient id="paint0_linear" x1="73.4438" y1="395.049" x2="649.406" y2="395.049" gradientUnits="userSpaceOnUse">
<stop stop-color="#FFC469"/>
<stop offset="0.1766" stop-color="#FFC770"/>
<stop offset="0.4347" stop-color="#FFCF84"/>
<stop offset="0.7414" stop-color="#FFDBA4"/>
<stop offset="1" stop-color="#FFE8C4"/>
</linearGradient>
<linearGradient id="paint1_linear" x1="75.3986" y1="409.649" x2="651.361" y2="409.649" gradientUnits="userSpaceOnUse">
<stop stop-color="#FFC469"/>
<stop offset="0.1766" stop-color="#FFC770"/>
<stop offset="0.4347" stop-color="#FFCF84"/>
<stop offset="0.7414" stop-color="#FFDBA4"/>
<stop offset="1" stop-color="#FFE8C4"/>
</linearGradient>
<linearGradient id="paint2_linear" x1="238.397" y1="329.432" x2="584.104" y2="329.432" gradientUnits="userSpaceOnUse">
<stop stop-color="#FFE1B3"/>
<stop offset="0.2125" stop-color="#FFDFAE"/>
<stop offset="0.463" stop-color="#FFD9A0"/>
<stop offset="0.7316" stop-color="#FFD088"/>
<stop offset="1" stop-color="#FFC469"/>
</linearGradient>
<linearGradient id="paint3_linear" x1="411.248" y1="265.033" x2="584.105" y2="265.033" gradientUnits="userSpaceOnUse">
<stop stop-color="#FFE1B3"/>
<stop offset="0.2125" stop-color="#FFDFAE"/>
<stop offset="0.463" stop-color="#FFD9A0"/>
<stop offset="0.7316" stop-color="#FFD088"/>
<stop offset="1" stop-color="#FFC469"/>
</linearGradient>
<linearGradient id="paint4_linear" x1="238.397" y1="265.031" x2="411.253" y2="265.031" gradientUnits="userSpaceOnUse">
<stop stop-color="#FFE1B3"/>
<stop offset="0.2125" stop-color="#FFDFAE"/>
<stop offset="0.463" stop-color="#FFD9A0"/>
<stop offset="0.7316" stop-color="#FFD088"/>
<stop offset="1" stop-color="#FFC469"/>
</linearGradient>
<linearGradient id="paint5_linear" x1="238.397" y1="303.494" x2="584.104" y2="303.494" gradientUnits="userSpaceOnUse">
<stop stop-color="#FFE1B3"/>
<stop offset="0.2125" stop-color="#FFDFAE"/>
<stop offset="0.463" stop-color="#FFD9A0"/>
<stop offset="0.7316" stop-color="#FFD088"/>
<stop offset="1" stop-color="#FFC469"/>
</linearGradient>
<linearGradient id="paint6_linear" x1="411.253" y1="367.893" x2="584.105" y2="367.893" gradientUnits="userSpaceOnUse">
<stop stop-color="#FFE1B3"/>
<stop offset="0.2125" stop-color="#FFDFAE"/>
<stop offset="0.463" stop-color="#FFD9A0"/>
<stop offset="0.7316" stop-color="#FFD088"/>
<stop offset="1" stop-color="#FFC469"/>
</linearGradient>
<linearGradient id="paint7_linear" x1="238.397" y1="367.892" x2="411.253" y2="367.892" gradientUnits="userSpaceOnUse">
<stop stop-color="#FFE1B3"/>
<stop offset="0.2125" stop-color="#FFDFAE"/>
<stop offset="0.463" stop-color="#FFD9A0"/>
<stop offset="0.7316" stop-color="#FFD088"/>
<stop offset="1" stop-color="#FFC469"/>
</linearGradient>
</defs>
</svg>
