<svg width="76" height="78" viewBox="0 0 76 78" fill="none" xmlns="http://www.w3.org/2000/svg">
<ellipse cx="37.9753" cy="39" rx="37.9753" ry="38.2197" fill="#FBB03B" fill-opacity="0.1"/>
<path d="M38.3027 71.4219C56.0801 71.4219 70.6416 56.8604 70.6416 39.0831C70.6416 21.3419 56.0801 6.78033 38.3027 6.78033C20.5254 6.78033 6 21.3419 6 39.0831C6 56.8604 20.5254 71.4219 38.3027 71.4219ZM26.9209 21.1612C29.3779 14.2237 33.208 9.52643 37.3633 8.91217V22.2452C33.5332 22.1729 30.0283 21.8116 26.9209 21.1612ZM39.2422 8.91217C43.3975 9.52643 47.2275 14.2237 49.6846 21.1612C46.5771 21.8116 43.1084 22.1729 39.2422 22.2452V8.91217ZM44.0479 9.3819C49.9736 10.502 55.2852 13.3926 59.4404 17.4395C57.2725 18.8126 54.6348 19.8965 51.5996 20.6915C49.6846 15.4522 47.0469 11.586 44.0479 9.3819ZM17.165 17.4395C21.3203 13.3926 26.6318 10.502 32.5576 9.3819C29.5947 11.586 26.9209 15.4522 25.0059 20.6915C21.9707 19.8965 19.333 18.8126 17.165 17.4395ZM54.4902 38.0714C54.418 32.1094 53.5508 26.834 52.1416 22.3897C55.5381 21.4503 58.4287 20.2217 60.7051 18.7403C65.3662 23.8712 68.293 30.628 68.5459 38.0714H54.4902ZM8.05957 38.0714C8.3125 30.628 11.2393 23.8712 15.9365 18.7403C18.1768 20.2217 21.0674 21.4503 24.4639 22.3897C23.0547 26.834 22.1875 32.1094 22.1152 38.0714H8.05957ZM24.0664 38.0714C24.1387 32.5069 25.0059 27.2676 26.3428 22.8594C29.7031 23.5821 33.3887 24.0518 37.3633 24.088V38.0714H24.0664ZM39.2422 38.0714V24.088C43.2168 24.0518 46.9385 23.5821 50.2627 22.8594C51.5996 27.2676 52.4668 32.5069 52.5391 38.0714H39.2422ZM8.05957 39.9503H22.1152C22.1875 45.9483 23.0547 51.3321 24.4639 55.8126C21.0674 56.7159 18.1768 57.9805 15.9365 59.462C11.2031 54.2589 8.27637 47.4297 8.05957 39.9503ZM24.0664 39.9503H37.3633V54.0782C33.3887 54.1505 29.7031 54.584 26.3428 55.3428C24.9697 50.8624 24.1387 45.587 24.0664 39.9503ZM39.2422 54.0782V39.9503H52.5391C52.4668 45.587 51.6357 50.8624 50.2627 55.3428C46.9385 54.584 43.2168 54.1505 39.2422 54.0782ZM52.1416 55.8126C53.5508 51.3321 54.418 45.9483 54.4902 39.9503H68.5459C68.3652 47.4297 65.4023 54.2589 60.6689 59.462C58.4287 57.9805 55.5381 56.7159 52.1416 55.8126ZM39.2422 55.9571C43.1084 55.9932 46.5771 56.3907 49.6846 57.0411C47.2275 63.9786 43.3975 68.6758 39.2422 69.2901V55.9571ZM26.9209 57.0411C30.0283 56.3907 33.5332 55.9932 37.3633 55.9571V69.2901C33.208 68.6758 29.3779 63.9786 26.9209 57.0411ZM17.165 60.7628C19.333 59.3897 21.9707 58.3057 25.0059 57.4747C26.9209 62.7139 29.5586 66.6163 32.5576 68.8204C26.6318 67.6641 21.3203 64.8096 17.165 60.7628ZM51.5996 57.4747C54.6348 58.3057 57.2725 59.3897 59.4404 60.7628C55.2852 64.8096 49.9736 67.6641 44.0479 68.8204C47.0469 66.6163 49.6846 62.7139 51.5996 57.4747Z" fill="#EFA340"/>
</svg>
