<svg width="84" height="80" viewBox="0 0 84 80" fill="none" xmlns="http://www.w3.org/2000/svg">
<mask id="mask0" mask-type="alpha" maskUnits="userSpaceOnUse" x="0" y="0" width="84" height="80">
<rect width="84" height="80" rx="4" fill="#C4C4C4"/>
</mask>
<g mask="url(#mask0)">
<rect width="20" height="24" fill="#388B69"/>
<rect y="16" width="4" height="8" fill="#391721"/>
<rect x="6" y="8" width="2" height="8" fill="#5E9F32"/>
<rect x="12" y="8" width="2" height="8" fill="#391721"/>
<rect y="24" width="20" height="56" fill="#4E3936"/>
<path fill-rule="evenodd" clip-rule="evenodd" d="M6 24H8V32H6V24ZM12 24H14V32H12V24ZM12 40H8V48H12V40ZM16 40H18V48H16V40ZM4 48H0V56H4V48ZM0 64H4V72H0V64ZM12 64H8V72H12V64ZM18 64H20V72H18V64ZM18 72V80H16V72H18Z" fill="#694841"/>
<path fill-rule="evenodd" clip-rule="evenodd" d="M16 24H14V32H12V40H14V32H16V24ZM16 48H18V56H16V48ZM14 56H12V64H14V56ZM4 56H6V64H4V56ZM20 72H18V80H20V72Z" fill="#391721"/>
<path fill-rule="evenodd" clip-rule="evenodd" d="M6 16H16V24H6V16ZM4 72H6V80H4V72ZM14 48H12V56H14V48Z" fill="#505F75"/>
<rect x="8" y="16" width="4" height="8" fill="#391721"/>
<rect x="12" y="16" width="2" height="8" fill="#4E3936"/>
<rect x="20" width="8" height="8" fill="#83C158"/>
<rect x="20" y="8" width="8" height="8" fill="#6CAD42"/>
<rect x="20" y="16" width="8" height="8" fill="#7F583B"/>
<rect x="20" y="24" width="8" height="8" fill="#A17551"/>
<rect x="20" y="32" width="8" height="8" fill="#7F583B"/>
<rect x="20" y="40" width="8" height="8" fill="#A17551"/>
<rect x="20" y="48" width="8" height="8" fill="#7F583B"/>
<rect x="20" y="56" width="8" height="8" fill="#7F583B"/>
<rect x="20" y="64" width="8" height="8" fill="#C59068"/>
<rect x="20" y="72" width="8" height="8" fill="#A17551"/>
<rect x="28" width="8" height="8" fill="#6EAE44"/>
<rect x="28" y="8" width="8" height="8" fill="#7BB84F"/>
<rect x="28" y="16" width="8" height="8" fill="#83C158"/>
<rect x="28" y="24" width="8" height="8" fill="#7F583B"/>
<rect x="28" y="32" width="8" height="8" fill="#A17551"/>
<rect x="28" y="40" width="8" height="8" fill="#C59068"/>
<rect x="28" y="48" width="8" height="8" fill="#593820"/>
<rect x="28" y="56" width="8" height="8" fill="#A17551"/>
<rect x="28" y="64" width="8" height="8" fill="#7F583B"/>
<rect x="28" y="72" width="8" height="8" fill="#C59068"/>
<rect x="36" width="8" height="8" fill="#7BB84F"/>
<rect x="36" y="8" width="8" height="8" fill="#6CAD42"/>
<rect x="36" y="16" width="8" height="8" fill="#505F75"/>
<rect x="36" y="24" width="8" height="8" fill="#593820"/>
<rect x="36" y="32" width="8" height="8" fill="#A17551"/>
<rect x="36" y="40" width="8" height="8" fill="#7F583B"/>
<rect x="36" y="48" width="8" height="8" fill="#A17551"/>
<rect x="36" y="56" width="8" height="8" fill="#7F583B"/>
<rect x="36" y="64" width="8" height="8" fill="#A17551"/>
<rect x="36" y="72" width="8" height="8" fill="#7F583B"/>
<rect x="44" width="8" height="8" fill="#83C158"/>
<rect x="44" y="8" width="8" height="8" fill="#593820"/>
<rect x="44" y="16" width="8" height="8" fill="#7F583B"/>
<rect x="44" y="24" width="8" height="8" fill="#C59068"/>
<rect x="44" y="32" width="8" height="8" fill="#593820"/>
<rect x="44" y="40" width="8" height="8" fill="#A17551"/>
<rect x="44" y="48" width="8" height="8" fill="#757575"/>
<rect x="44" y="56" width="8" height="8" fill="#593820"/>
<rect x="44" y="64" width="8" height="8" fill="#A17551"/>
<rect x="44" y="72" width="8" height="8" fill="#A17551"/>
<rect x="52" width="8" height="8" fill="#7BB84F"/>
<rect x="52" y="8" width="8" height="8" fill="#8DCB63"/>
<rect x="52" y="16" width="8" height="8" fill="#593820"/>
<rect x="52" y="24" width="8" height="8" fill="#7F583B"/>
<rect x="52" y="32" width="8" height="8" fill="#A17551"/>
<rect x="52" y="40" width="8" height="8" fill="#C59068"/>
<rect x="52" y="48" width="8" height="8" fill="#A17551"/>
<rect x="52" y="56" width="8" height="8" fill="#A17551"/>
<rect x="52" y="64" width="8" height="8" fill="#C59068"/>
<rect x="52" y="72" width="8" height="8" fill="#A17551"/>
<rect x="60" width="8" height="8" fill="#71AF44"/>
<rect x="60" y="8" width="8" height="8" fill="#A7D579"/>
<rect x="60" y="16" width="8" height="8" fill="#757575"/>
<rect x="60" y="24" width="8" height="8" fill="#C59068"/>
<rect x="60" y="32" width="8" height="8" fill="#7F583B"/>
<rect x="60" y="40" width="8" height="8" fill="#A17551"/>
<rect x="60" y="48" width="8" height="8" fill="#7F583B"/>
<rect x="60" y="56" width="8" height="8" fill="#A17551"/>
<rect x="60" y="64" width="8" height="8" fill="#7F583B"/>
<rect x="60" y="72" width="8" height="8" fill="#A17551"/>
<rect x="68" width="8" height="8" fill="#6BAA3F"/>
<rect x="68" y="8" width="8" height="8" fill="#5E9F32"/>
<rect x="68" y="16" width="8" height="8" fill="#71AF44"/>
<rect x="68" y="24" width="8" height="8" fill="#A17551"/>
<rect x="68" y="32" width="8" height="8" fill="#7F583B"/>
<rect x="68" y="40" width="8" height="8" fill="#A17551"/>
<rect x="68" y="48" width="8" height="8" fill="#A17551"/>
<rect x="68" y="56" width="8" height="8" fill="#593820"/>
<rect x="68" y="64" width="8" height="8" fill="#7F583B"/>
<rect x="68" y="72" width="8" height="8" fill="#757575"/>
<rect x="76" width="8" height="8" fill="#79B74D"/>
<rect x="76" y="8" width="8" height="8" fill="#83C158"/>
<rect x="76" y="16" width="8" height="8" fill="#593820"/>
<rect x="76" y="24" width="8" height="8" fill="#7F583B"/>
<rect x="76" y="32" width="8" height="8" fill="#A17551"/>
<rect x="76" y="40" width="8" height="8" fill="#7F583B"/>
<rect x="76" y="48" width="8" height="8" fill="#C59068"/>
<rect x="76" y="56" width="8" height="8" fill="#A17551"/>
<rect x="76" y="64" width="8" height="8" fill="#C59068"/>
<rect x="76" y="72" width="8" height="8" fill="#A17551"/>
</g>
</svg>
