<svg width="522" height="522" viewBox="0 0 522 522" fill="none" xmlns="http://www.w3.org/2000/svg">
<circle opacity="0.2" cx="261" cy="261" r="261" fill="#EE5356"/>
<path d="M261.25 504.366L302.17 479.802V38.4642L261.25 62.9701V504.366Z" fill="#C62126"/>
<path d="M138.662 332.709L179.525 308.145L220.387 332.709L302.17 381.72V430.79L138.662 332.709Z" fill="#FAD5D5"/>
<path d="M220.385 38.4642L261.248 13.9005L302.168 38.4642L261.248 62.9701L220.385 38.4642Z" fill="#FAD5D5"/>
<path d="M383.894 136.546V185.558L343.032 210.063V161.052L383.894 136.546Z" fill="#C62126"/>
<path d="M302.17 234.627L261.25 259.133L343.032 308.145L383.895 283.639L302.17 234.627Z" fill="url(#paint0_linear)"/>
<path d="M383.894 283.639V479.802L343.032 504.366V308.145L383.894 283.639Z" fill="#C62126"/>
<path d="M343.031 210.063V160.82L261.306 111.982V62.9701L220.386 38.4642V87.4761L138.834 38.4642V234.627L220.559 283.639V381.894L138.834 332.709V381.72L220.559 430.79V479.802L261.48 504.366V455.585L343.205 504.655V308.145L261.306 259.075V160.82L343.031 210.063Z" fill="#F78182"/>
<path d="M179.524 111.982L220.386 136.546V185.558L179.524 210.063V111.982Z" fill="#C62126"/>
<path d="M220.386 185.558V234.627L179.524 210.063L220.386 185.558Z" fill="#F7B4B5"/>
<path d="M261.25 308.145L302.17 332.709V381.72L261.25 406.284V308.145Z" fill="#C62126"/>
<path d="M302.17 381.72V430.79L261.25 406.284L302.17 381.72Z" fill="#F7B4B5"/>
<path d="M138.662 38.4642L179.525 13.9005L220.387 38.4642V87.4761L138.662 38.4642Z" fill="#FAD5D5"/>
<path d="M302.17 87.4761L383.895 136.546L343.032 161.052L261.25 111.982L302.17 87.4761Z" fill="#FAD5D5"/>
<defs>
<linearGradient id="paint0_linear" x1="300.148" y1="234.627" x2="383.895" y2="284.113" gradientUnits="userSpaceOnUse">
<stop stop-color="#F7B4B5"/>
<stop offset="1" stop-color="#FAD5D5"/>
</linearGradient>
</defs>
</svg>
