<svg width="217" height="150" viewBox="0 0 217 150" fill="none" xmlns="http://www.w3.org/2000/svg">
<path opacity="0.4" d="M108.187 135.536C86.3649 135.536 64.5426 130.665 47.9805 120.851C31.8448 111.328 22.9596 98.6054 22.9596 85.0835C22.9596 71.5616 31.8448 58.8395 47.9805 49.316C81.1759 29.6875 135.269 29.6875 168.465 49.316C184.6 58.8395 193.486 71.5616 193.486 85.0835C193.486 98.6054 184.6 111.328 168.465 120.851C151.832 130.665 130.009 135.536 108.187 135.536ZM108.187 35.2852C86.507 35.2852 64.827 40.156 48.3359 49.8976C32.4135 59.2757 23.5993 71.7797 23.5993 85.0835C23.5993 98.3146 32.3424 110.819 48.3359 120.269C81.3891 139.753 135.127 139.753 168.109 120.269C184.032 110.891 192.846 98.3873 192.846 85.0835C192.846 71.8524 184.103 59.3484 168.109 49.8976C151.547 40.156 129.867 35.2852 108.187 35.2852Z" fill="#535A62"/>
<path opacity="0.2" d="M108.187 149.058C80.5361 149.058 52.8141 142.806 31.7738 130.375C11.3021 118.307 0 102.168 0 85.0108C0 67.854 11.3021 51.7877 31.7738 39.6471C73.9255 14.7843 142.52 14.7843 184.672 39.6471C205.143 51.715 216.445 67.854 216.445 85.0108C216.445 102.168 205.143 118.234 184.672 130.375C163.56 142.879 135.838 149.058 108.187 149.058ZM108.187 21.7633C80.6072 21.7633 53.0984 27.9427 32.1292 40.3741C11.8707 52.3693 0.710822 68.2175 0.710822 85.0835C0.710822 101.949 11.8707 117.87 32.1292 129.793C74.0677 154.583 142.378 154.583 184.316 129.793C204.575 117.798 215.734 101.949 215.734 85.0835C215.734 68.2175 204.575 52.2966 184.316 40.3741C163.276 27.9427 135.767 21.7633 108.187 21.7633Z" fill="#535A62"/>
<path d="M108.187 124.922C90.9852 124.922 73.7833 121.069 60.7042 113.363C47.9805 105.803 40.9434 95.8429 40.9434 85.1563C40.9434 74.4696 47.9805 64.4373 60.7042 56.9494C86.8624 41.4646 129.441 41.4646 155.67 56.9494C168.394 64.51 175.431 74.5423 175.431 85.1563C175.431 95.8429 168.394 105.875 155.67 113.363C142.591 121.069 125.389 124.922 108.187 124.922ZM108.187 45.8992C91.1274 45.8992 74.0676 49.7522 61.0596 57.3855C48.5491 64.8008 41.6542 74.615 41.6542 85.0109C41.6542 95.4067 48.5491 105.221 61.0596 112.636C87.0757 127.976 129.298 127.976 155.315 112.636L155.457 112.927L155.315 112.636C167.825 105.221 174.72 95.4067 174.72 85.0109C174.72 74.615 167.825 64.8008 155.315 57.3855C142.307 49.7522 125.247 45.8992 108.187 45.8992Z" fill="#535A62"/>
<path d="M107.96 49.9293L66 24.9647V74.894L107.96 99.8586L149.919 74.894V24.9647L107.96 49.9293Z" fill="#FFE1B3"/>
<path d="M107.96 99.8586L66 74.894V24.9647L107.96 49.9293V99.8586Z" fill="#2D343E"/>
<path d="M149.919 74.894L107.96 99.8586V49.9293L149.919 24.9647V74.894Z" fill="#1E232D"/>
<path d="M107.96 49.9292L66 24.9646L107.96 0L149.919 24.9646L107.96 49.9292Z" fill="#353D48"/>
<path d="M107.96 49.9293L66 24.9647V27.0992L107.96 52.0639L149.919 27.0992V24.9647L107.96 49.9293Z" fill="#3F4650"/>
</svg>
