<svg width="48" height="48" viewBox="0 0 48 48" fill="none" xmlns="http://www.w3.org/2000/svg">
<path d="M34 36C32.0949 36.0126 30.2106 35.604 28.4818 34.8034C26.7531 34.0028 25.2226 32.8301 24 31.369C22.7774 32.8301 21.2469 34.0028 19.5182 34.8034C17.7894 35.604 15.9051 36.0126 14 36C10.8174 36 7.76515 34.7357 5.51472 32.4853C3.26428 30.2349 2 27.1826 2 24C2 20.8174 3.26428 17.7652 5.51472 15.5147C7.76515 13.2643 10.8174 12 14 12C15.9051 11.9878 17.7894 12.3967 19.5181 13.1975C21.2468 13.9982 22.7773 15.171 24 16.632C25.2227 15.171 26.7532 13.9982 28.4819 13.1975C30.2106 12.3967 32.0949 11.9878 34 12C37.1826 12 40.2348 13.2643 42.4853 15.5147C44.7357 17.7652 46 20.8174 46 24C46 27.1826 44.7357 30.2349 42.4853 32.4853C40.2348 34.7357 37.1826 36 34 36ZM28.55 24C30.521 27.307 32.164 28 34 28C35.0609 28 36.0783 27.5786 36.8284 26.8284C37.5786 26.0783 38 25.0609 38 24C38 22.9392 37.5786 21.9217 36.8284 21.1716C36.0783 20.4214 35.0609 20 34 20C32.1 20 30.512 20.684 28.55 24ZM14 20C12.9391 20 11.9217 20.4214 11.1716 21.1716C10.4214 21.9217 10 22.9392 10 24C10 25.0609 10.4214 26.0783 11.1716 26.8284C11.9217 27.5786 12.9391 28 14 28C15.836 28 17.479 27.3 19.45 24C17.488 20.684 15.9 20 14 20Z" fill="url(#paint0_linear)"/>
<path opacity="0.8" d="M34 12C32.0929 11.9929 30.2078 12.4069 28.4792 13.2125C26.7506 14.018 25.2212 15.1952 24 16.66C25.4393 18.3392 26.6437 20.2063 27.58 22.21C27.92 22.88 28.24 23.47 28.56 24C30.25 21.13 31.8 20 34 20H35V12H34ZM20.43 25.79C20.09 25.12 19.77 24.52 19.45 23.99C17.75 26.84 16.17 28 14 28H13V36H14C15.9036 36.0132 17.7866 35.6049 19.5138 34.8044C21.241 34.0039 22.7696 32.831 23.99 31.37C22.5567 29.6794 21.3591 27.8023 20.43 25.79Z" fill="url(#paint1_linear)"/>
<defs>
<linearGradient id="paint0_linear" x1="24" y1="12" x2="24" y2="36" gradientUnits="userSpaceOnUse">
<stop stop-color="#A8AAB5"/>
<stop offset="1" stop-color="#626D91"/>
</linearGradient>
<linearGradient id="paint1_linear" x1="13.722" y1="34.643" x2="33.673" y2="13.984" gradientUnits="userSpaceOnUse">
<stop stop-color="#A8AAB5" stop-opacity="0"/>
<stop offset="0.52" stop-color="#010A21"/>
<stop offset="1" stop-color="#A8AAB5" stop-opacity="0"/>
</linearGradient>
</defs>
</svg>
