<?xml version="1.0" encoding="UTF-8"?>
<svg width="408px" height="51px" viewBox="0 0 408 51" version="1.1" xmlns="http://www.w3.org/2000/svg" xmlns:xlink="http://www.w3.org/1999/xlink">
    <!-- Generator: Sketch 53.2 (72643) - https://sketchapp.com -->
    <title>Belong_Logo_2019_RGB_Blue</title>
    <desc>Created with Sketch.</desc>
    <g id="Page-1" stroke="none" stroke-width="1" fill="none" fill-rule="evenodd">
        <g id="Belong_Logo_2019_RGB_Blue" fill="#52B5E6" fill-rule="nonzero">
            <path d="M0.4,1.2 L23,1.2 C28.6,1.2 32.9,2.7 35.7,5.5 C37.9,7.7 39,10.4 39,13.8 L39,13.9 C39,19.4 36.1,22.4 32.6,24.4 C38.2,26.6 41.7,29.8 41.7,36.3 L41.7,36.4 C41.7,45.3 34.5,49.7 23.5,49.7 L0.4,49.7 L0.4,1.2 Z M28.4,15.5 C28.4,12.3 25.9,10.5 21.4,10.5 L10.8,10.5 L10.8,20.8 L20.7,20.8 C25.4,20.8 28.4,19.3 28.4,15.7 L28.4,15.5 Z M23.1,29.7 L10.8,29.7 L10.8,40.4 L23.5,40.4 C28.2,40.4 31.1,38.7 31.1,35.1 L31.1,35 C31.1,31.7 28.6,29.7 23.1,29.7 Z" id="Shape"></path>
            <polygon id="Path" points="110.3 49.8 73.6 49.8 73.6 40.3 99.6 40.3 99.6 30.4 76.7 30.4 76.7 20.9 99.6 20.9 99.6 10.7 73.3 10.7 73.3 1.2 110.3 1.2"></polygon>
            <polygon id="Path" points="147.1 1.2 157.8 1.2 157.8 40.1 182 40.1 182 49.8 147.1 49.8"></polygon>
            <path d="M204.9,25.6 L204.9,25.5 C204.9,11.7 215.8,0.4 230.8,0.4 C245.8,0.4 256.6,11.6 256.6,25.4 L256.6,25.5 C256.6,39.3 245.7,50.6 230.7,50.6 C215.7,50.6 204.9,39.4 204.9,25.6 Z M245.4,25.6 L245.4,25.5 C245.4,17.2 239.3,10.2 230.7,10.2 C222.1,10.2 216.1,17 216.1,25.3 L216.1,25.4 C216.1,33.7 222.2,40.7 230.8,40.7 C239.4,40.7 245.4,33.9 245.4,25.6 Z" id="Shape"></path>
            <polygon id="Path" points="287.8 1.2 297.7 1.2 320.5 31.1 320.5 1.2 331 1.2 331 49.8 321.9 49.8 298.4 18.9 298.4 49.8 287.8 49.8 287.8 1.2"></polygon>
            <path d="M396.6,16.3 C396.4,15.3 396,14.4 395.5,13.6 C395,12.8 394.3,12.1 393.4,11.6 C392.6,11 391.6,10.6 390.5,10.3 C389.4,10 388.2,9.9 387,9.9 C383.2,9.9 380.3,11.2 378.3,13.9 C376.4,16.6 375.4,20.5 375.4,25.6 C375.4,30.8 376.3,34.7 378.2,37.4 C380.1,40.1 383,41.4 386.8,41.4 C388.6,41.4 390.1,41.2 391.4,40.7 C392.7,40.2 393.8,39.6 394.6,38.8 C395.4,38 396.1,37.1 396.5,36.1 C396.9,35.1 397.1,34 397.1,33 L397.1,30.5 L386.2,30.5 L386.2,21.4 L407.5,21.4 L407.5,31 C407.5,33.7 407.1,36.2 406.3,38.6 C405.5,41 404.3,43.1 402.6,44.9 C400.9,46.7 398.8,48.1 396.1,49.2 C393.5,50.3 390.4,50.8 386.7,50.8 C383.1,50.8 379.9,50.2 377.2,49 C374.5,47.8 372.2,46.1 370.3,43.9 C368.5,41.7 367.1,39.1 366.1,36 C365.2,32.9 364.7,29.5 364.7,25.6 C364.7,21.8 365.2,18.3 366.1,15.3 C367.1,12.2 368.5,9.6 370.4,7.4 C372.3,5.2 374.6,3.6 377.3,2.4 C380.1,1.2 383.2,0.6 386.8,0.6 C389.7,0.6 392.4,1 394.7,1.8 C397.1,2.6 399.1,3.8 400.8,5.2 C402.5,6.6 403.9,8.3 405,10.2 C406.1,12.1 406.8,14.2 407.1,16.4 L396.6,16.4 L396.6,16.3 Z" id="Path"></path>
        </g>
    </g>
</svg>