<svg width="80" height="80" viewBox="0 0 80 80" fill="none" xmlns="http://www.w3.org/2000/svg">
<path d="M52 0H4C1.79 0 0 1.79 0 4V76C0 78.21 1.79 80 4 80H52C54.21 80 56 78.21 56 76V4C56 1.79 54.21 0 52 0Z" fill="url(#paint0_linear)"/>
<path d="M28 72C31.3137 72 34 69.3137 34 66C34 62.6863 31.3137 60 28 60C24.6863 60 22 62.6863 22 66C22 69.3137 24.6863 72 28 72Z" fill="url(#paint1_radial)"/>
<path d="M28 70C30.2091 70 32 68.2091 32 66C32 63.7909 30.2091 62 28 62C25.7909 62 24 63.7909 24 66C24 68.2091 25.7909 70 28 70Z" fill="#50E6FF"/>
<path d="M47 20H9C8.448 20 8 19.552 8 19V9C8 8.448 8.448 8 9 8H47C47.552 8 48 8.448 48 9V19C48 19.552 47.552 20 47 20Z" fill="url(#paint2_linear)"/>
<path d="M42 16C43.1046 16 44 15.1046 44 14C44 12.8954 43.1046 12 42 12C40.8954 12 40 12.8954 40 14C40 15.1046 40.8954 16 42 16Z" fill="#50E6FF"/>
<path d="M47 36H9C8.448 36 8 35.552 8 35V25C8 24.448 8.448 24 9 24H47C47.552 24 48 24.448 48 25V35C48 35.552 47.552 36 47 36Z" fill="url(#paint3_linear)"/>
<path d="M42 32C43.1046 32 44 31.1046 44 30C44 28.8954 43.1046 28 42 28C40.8954 28 40 28.8954 40 30C40 31.1046 40.8954 32 42 32Z" fill="#50E6FF"/>
<path d="M47 52H9C8.448 52 8 51.552 8 51V41C8 40.448 8.448 40 9 40H47C47.552 40 48 40.448 48 41V51C48 51.552 47.552 52 47 52Z" fill="url(#paint4_linear)"/>
<path d="M42 48C43.1046 48 44 47.1046 44 46C44 44.8954 43.1046 44 42 44C40.8954 44 40 44.8954 40 46C40 47.1046 40.8954 48 42 48Z" fill="#50E6FF"/>
<defs>
<linearGradient id="paint0_linear" x1="1.034" y1="2.684" x2="53.092" y2="74.722" gradientUnits="userSpaceOnUse">
<stop stop-color="#2AA4F4"/>
<stop offset="1" stop-color="#007AD9"/>
</linearGradient>
<radialGradient id="paint1_radial" cx="0" cy="0" r="1" gradientUnits="userSpaceOnUse" gradientTransform="translate(28 66) scale(6)">
<stop offset="0.582" stop-opacity="0.2"/>
<stop offset="1" stop-opacity="0"/>
</radialGradient>
<linearGradient id="paint2_linear" x1="8" y1="14" x2="48" y2="14" gradientUnits="userSpaceOnUse">
<stop stop-color="#1D59B3"/>
<stop offset="1" stop-color="#195BBC"/>
</linearGradient>
<linearGradient id="paint3_linear" x1="8" y1="30" x2="48" y2="30" gradientUnits="userSpaceOnUse">
<stop stop-color="#1D59B3"/>
<stop offset="1" stop-color="#195BBC"/>
</linearGradient>
<linearGradient id="paint4_linear" x1="8" y1="46" x2="48" y2="46" gradientUnits="userSpaceOnUse">
<stop stop-color="#1D59B3"/>
<stop offset="1" stop-color="#195BBC"/>
</linearGradient>
</defs>
</svg>
