<svg width="84" height="80" viewBox="0 0 84 80" fill="none" xmlns="http://www.w3.org/2000/svg">
<path d="M65.6663 37.2609L22.598 54.729C22.0324 54.9584 21.3764 54.7081 21.1359 54.1682L13.3192 36.6882C13.0535 36.0938 13.3441 35.4075 13.967 35.1543L56.9315 17.7288C57.4971 17.4994 58.1532 17.7497 58.3937 18.2896L66.2552 35.8683C66.496 36.407 66.2322 37.0303 65.6663 37.2609Z" fill="#52BF8D"/>
<path d="M17.9662 33.5337L26.7009 53.0658L61.5648 38.9244L52.83 19.3923L17.9662 33.5337ZM37.6955 45.1456C33.7312 46.7537 29.1484 44.9963 27.4599 41.2208C25.7713 37.4452 27.6166 33.0807 31.5809 31.4725C35.5452 29.8644 40.128 31.6218 41.8166 35.3974C43.5051 39.1729 41.6598 43.5375 37.6955 45.1456ZM56.665 37.45C55.8157 37.7945 54.8341 37.4177 54.4724 36.6089C54.1107 35.8 54.5063 34.8651 55.3556 34.5206C56.2048 34.1762 57.1865 34.5529 57.5482 35.3618C57.9099 36.1706 57.5156 37.1058 56.665 37.45ZM52.5641 39.1137C51.7148 39.4582 50.7331 39.0814 50.3714 38.2726C50.0098 37.4637 50.4054 36.5288 51.2546 36.1843C52.1039 35.8399 53.0856 36.2166 53.4473 37.0255C53.809 37.8343 53.4134 38.7693 52.5641 39.1137Z" fill="#107C42"/>
<path d="M67.198 53.2139L16.6769 58.0054C16.0124 58.0684 15.4211 57.6063 15.3547 56.9746L13.202 36.3906C13.1341 35.7381 13.6338 35.1552 14.3202 35.0909L64.8026 30.3032C65.4671 30.2403 66.0584 30.7024 66.1249 31.3341L68.2804 51.9546C68.3478 52.5878 67.8625 53.1509 67.198 53.2139Z" fill="#59D19A"/>
<path d="M19.0937 34.6374L21.4888 57.5493L62.3863 53.6705L59.9911 30.7587L19.0937 34.6374ZM35.5646 52.7437C30.9141 53.1848 26.769 49.9525 26.3058 45.5235C25.8426 41.0944 29.2366 37.1467 33.8871 36.7056C38.5376 36.2644 42.6827 39.4967 43.1459 43.9258C43.6091 48.3548 40.2139 52.3023 35.5646 52.7437ZM57.8173 50.6337C56.8207 50.7276 55.9328 50.0355 55.8329 49.086C55.7344 48.1368 56.4611 47.2912 57.4581 47.1961C58.455 47.101 59.3426 47.7943 59.4424 48.7438C59.541 49.693 58.8143 50.5386 57.8173 50.6337ZM53.0055 51.0901C52.0089 51.184 51.121 50.4919 51.0211 49.5424C50.9226 48.5932 51.6493 47.7476 52.6463 47.6525C53.6432 47.5574 54.5308 48.2507 54.6306 49.2002C54.7292 50.1494 54.0025 50.995 53.0055 51.0901Z" fill="#21A366"/>
<path opacity="0.05" d="M67.1902 45.9521L16.3239 34.1972C14.1825 35.0875 13.3929 35.3509 13.2163 36.0072L11.9747 40.8803L67.8816 53.8L69.1148 48.9596C69.4555 47.6224 68.5942 46.2766 67.1902 45.9521Z" fill="black"/>
<path opacity="0.07" d="M67.6714 46.7039L15.556 34.6604C14.1339 35.0249 13.3851 35.3606 13.212 36.024L12.1289 40.2751L68.0357 53.1949L69.1148 48.9595C69.3701 47.9576 68.7234 46.9471 67.6714 46.7039Z" fill="black"/>
<path d="M61.9862 71.6579L8.62062 59.3254C7.91924 59.1633 7.48813 58.4897 7.65832 57.8217L13.208 36.0398C13.3781 35.3718 14.0855 34.9613 14.7869 35.1233L68.1525 47.4559C68.8539 47.6179 69.285 48.2916 69.1148 48.9596L63.5652 70.7415C63.395 71.4094 62.6876 71.82 61.9862 71.6579Z" fill="#61E3A7"/>
<path d="M19.8693 36.2979L13.7031 60.4999L56.9038 70.4834L63.0701 46.2813L19.8693 36.2979ZM29.8753 60.3932C24.9631 59.258 21.9473 54.5453 23.1392 49.8671C24.3312 45.1888 29.2795 42.3166 34.1917 43.4517C39.1039 44.5869 42.1197 49.2996 40.9278 53.9779C39.7358 58.6562 34.7875 61.5284 29.8753 60.3932ZM53.3816 65.8254C52.3295 65.5823 51.6829 64.5717 51.9382 63.5698C52.1934 62.5678 53.2545 61.9519 54.3065 62.1951C55.3586 62.4382 56.0053 63.4487 55.75 64.4507C55.4947 65.4526 54.4337 66.0685 53.3816 65.8254ZM48.2992 64.6509C47.2471 64.4077 46.6004 63.3972 46.8557 62.3953C47.111 61.3933 48.172 60.7774 49.2241 61.0205C50.2762 61.2637 50.9228 62.2742 50.6675 63.2761C50.4123 64.2781 49.3512 64.894 48.2992 64.6509Z" fill="#33C481"/>
<path d="M29.4 8H4.2C1.8795 8 0 9.79 0 12V76C0 78.21 1.8795 80 4.2 80H29.4C31.7205 80 33.6 78.21 33.6 76V12C33.6 9.79 31.7205 8 29.4 8Z" fill="url(#paint0_linear)"/>
<path d="M16.8 72C20.2794 72 23.1 69.3137 23.1 66C23.1 62.6863 20.2794 60 16.8 60C13.3206 60 10.5 62.6863 10.5 66C10.5 69.3137 13.3206 72 16.8 72Z" fill="url(#paint1_radial)"/>
<path d="M16.8 70C19.1196 70 21 68.2091 21 66C21 63.7909 19.1196 62 16.8 62C14.4804 62 12.6 63.7909 12.6 66C12.6 68.2091 14.4804 70 16.8 70Z" fill="#FAD5D5"/>
<path d="M28.35 22H5.25001C4.67041 22 4.20001 21.552 4.20001 21V15C4.20001 14.448 4.67041 14 5.25001 14H28.35C28.9296 14 29.4 14.448 29.4 15V21C29.4 21.552 28.9296 22 28.35 22Z" fill="#991E21"/>
<path d="M25.2 20C26.3598 20 27.3 19.1046 27.3 18C27.3 16.8954 26.3598 16 25.2 16C24.0402 16 23.1 16.8954 23.1 18C23.1 19.1046 24.0402 20 25.2 20Z" fill="#FAD5D5"/>
<path d="M28.35 34H5.25001C4.67041 34 4.20001 33.552 4.20001 33V27C4.20001 26.448 4.67041 26 5.25001 26H28.35C28.9296 26 29.4 26.448 29.4 27V33C29.4 33.552 28.9296 34 28.35 34Z" fill="#991E21"/>
<path d="M25.2 32C26.3598 32 27.3 31.1046 27.3 30C27.3 28.8954 26.3598 28 25.2 28C24.0402 28 23.1 28.8954 23.1 30C23.1 31.1046 24.0402 32 25.2 32Z" fill="#FAD5D5"/>
<defs>
<linearGradient id="paint0_linear" x1="8.1879" y1="9.888" x2="24.6295" y2="81.6888" gradientUnits="userSpaceOnUse">
<stop stop-color="#EE5356"/>
<stop offset="1" stop-color="#DE272D"/>
</linearGradient>
<radialGradient id="paint1_radial" cx="0" cy="0" r="1" gradientUnits="userSpaceOnUse" gradientTransform="translate(16.8 66) scale(6.3 6)">
<stop offset="0.582" stop-opacity="0.2"/>
<stop offset="1" stop-opacity="0"/>
</radialGradient>
</defs>
</svg>
