<svg width="14" height="14" viewBox="0 0 14 14" fill="none" xmlns="http://www.w3.org/2000/svg">
<path fill-rule="evenodd" clip-rule="evenodd" d="M1.21799 2.09202C1 2.51984 1 3.0799 1 4.2V9.8C1 10.9201 1 11.4802 1.21799 11.908C1.40973 12.2843 1.71569 12.5903 2.09202 12.782C2.51984 13 3.0799 13 4.2 13H5.79999H8.19999H9.8C10.9201 13 11.4802 13 11.908 12.782C12.2843 12.5903 12.5903 12.2843 12.782 11.908C13 11.4802 13 10.9201 13 9.8V4.2C13 3.0799 13 2.51984 12.782 2.09202C12.5903 1.71569 12.2843 1.40973 11.908 1.21799C11.4802 1 10.9201 1 9.8 1H4.2C3.0799 1 2.51984 1 2.09202 1.21799C1.71569 1.40973 1.40973 1.71569 1.21799 2.09202ZM11.7448 11.6673C11.8022 11.6032 11.8515 11.5316 11.891 11.454C12 11.2401 12 10.9601 12 10.4V3.6C12 3.03995 12 2.75992 11.891 2.54601C11.7951 2.35785 11.6422 2.20487 11.454 2.10899C11.2401 2 10.9601 2 10.4 2H3.6C3.03995 2 2.75992 2 2.54601 2.10899C2.35785 2.20487 2.20487 2.35785 2.10899 2.54601C2 2.75992 2 3.03995 2 3.6V10.4C2 10.9601 2 11.2401 2.10899 11.454C2.14853 11.5316 2.19779 11.6032 2.25522 11.6673C3.21084 10.0713 4.978 9 7 9C9.022 9 10.7892 10.0713 11.7448 11.6673ZM9 5.75C9 6.99264 8.10457 8 7 8C5.89543 8 5 6.99264 5 5.75C5 4.50736 5.89543 3.5 7 3.5C8.10457 3.5 9 4.50736 9 5.75Z" fill="#A5AAB2"/>
</svg>
