<svg width="14" height="14" viewBox="0 0 14 14" fill="none" xmlns="http://www.w3.org/2000/svg">
<path fill-rule="evenodd" clip-rule="evenodd" d="M2.21799 2.09202C2 2.51984 2 3.0799 2 4.2V9.8C2 10.9201 2 11.4802 2.21799 11.908C2.40973 12.2843 2.71569 12.5903 3.09202 12.782C3.51984 13 4.0799 13 5.2 13H8.8C9.9201 13 10.4802 13 10.908 12.782C11.2843 12.5903 11.5903 12.2843 11.782 11.908C12 11.4802 12 10.9201 12 9.8V4.2C12 3.0799 12 2.51984 11.782 2.09202C11.5903 1.71569 11.2843 1.40973 10.908 1.21799C10.4802 1 9.9201 1 8.8 1H5.2C4.0799 1 3.51984 1 3.09202 1.21799C2.71569 1.40973 2.40973 1.71569 2.21799 2.09202ZM4.6 2H5.4C5.96005 2 6.24008 2 6.45399 2.10899C6.64215 2.20487 6.79513 2.35785 6.89101 2.54601C7 2.75992 7 3.03995 7 3.6V7.48223C7 7.65367 7 7.73939 6.96389 7.79102C6.93236 7.8361 6.88365 7.8662 6.82923 7.87425C6.76691 7.88345 6.69024 7.84512 6.5369 7.76845L6.53689 7.76845L5.14311 7.07155C5.09064 7.04532 5.0644 7.0322 5.03688 7.02704C5.01251 7.02246 4.98749 7.02246 4.96312 7.02704C4.9356 7.0322 4.90936 7.04532 4.85689 7.07155L3.46311 7.76845L3.4631 7.76845C3.30976 7.84512 3.23309 7.88345 3.17077 7.87425C3.11635 7.8662 3.06764 7.8361 3.03611 7.79102C3 7.73939 3 7.65367 3 7.48223V3.6C3 3.03995 3 2.75992 3.10899 2.54601C3.20487 2.35785 3.35785 2.20487 3.54601 2.10899C3.75992 2 4.03995 2 4.6 2Z" fill="#A5AAB2"/>
</svg>
