<svg width="186" height="27" viewBox="0 0 186 27" fill="none" xmlns="http://www.w3.org/2000/svg">
<path d="M1.30347 2.15413L0 0H32L16 26.3941L2.60907 4.30613H5.416L16 21.7627L27.8859 2.15413H9.728L16 12.5019L20.968 4.30773H23.7739L16 17.1344L6.91787 2.15413H1.30347Z" fill="#EFA340"/>
<path d="M45 22L50.952 5.2H48L43.728 17.872H43.632L39.216 5.2H36.24L42.264 22H45ZM59.8874 17.776C59.5034 18.352 59.3114 18.664 58.7354 19.168C58.1834 19.672 57.4634 19.936 56.5274 19.936C54.5834 19.936 53.4314 18.568 53.3594 16.456H62.2394V15.64C62.2394 13.6 61.6874 11.968 60.6074 10.744C59.5274 9.52 58.1594 8.92 56.4554 8.92C54.7514 8.92 53.3594 9.544 52.2554 10.768C51.1514 11.992 50.5994 13.6 50.5994 15.64C50.5994 17.68 51.1514 19.312 52.2554 20.536C53.3834 21.76 54.8234 22.36 56.5754 22.36C58.8554 22.36 60.6314 21.376 61.8554 19.384L59.8874 17.776ZM53.3834 14.392C53.4794 12.76 54.6314 11.344 56.4554 11.344C58.3994 11.344 59.4794 12.592 59.5754 14.392H53.3834ZM67.2757 22V14.92C67.2757 12.808 68.0197 11.752 69.5077 11.752C69.7237 11.752 70.0597 11.824 70.5157 11.944L70.9477 9.28C70.5637 9.112 70.1797 9.04 69.8197 9.04C68.7397 9.04 67.6837 9.664 67.1797 10.624H67.1317V9.28H64.5397V22H67.2757ZM71.805 17.752C71.973 19.048 72.525 20.152 73.461 21.04C74.397 21.928 75.717 22.36 77.469 22.36C79.125 22.36 80.397 21.976 81.237 21.184C82.101 20.392 82.533 19.48 82.533 18.472C82.533 17.488 82.245 16.696 81.669 16.096C81.117 15.496 80.061 14.968 78.525 14.536C76.869 14.08 75.837 13.744 75.405 13.528C74.997 13.312 74.781 12.976 74.781 12.568C74.781 11.824 75.597 11.2 76.965 11.2C78.429 11.2 79.389 11.896 79.869 13.312L82.173 12.64C81.501 10.168 79.773 8.92 76.965 8.92C75.501 8.92 74.373 9.304 73.533 10.048C72.693 10.792 72.285 11.656 72.285 12.688C72.285 14.536 73.581 15.568 76.557 16.408C78.021 16.816 78.981 17.152 79.413 17.368C79.845 17.584 80.061 17.944 80.061 18.424C80.061 19.408 79.077 20.056 77.373 20.056C75.549 20.056 74.517 19.096 74.301 17.152L71.805 17.752ZM94.3174 22V13.768C94.3174 10.432 92.2534 8.92 89.1814 8.92C86.3974 8.92 84.6454 10.432 84.0934 12.616L86.4214 13.504C86.8054 12.136 87.5014 11.272 89.2534 11.272C90.7894 11.272 91.5814 11.92 91.5814 12.784C91.5814 13.24 91.3654 13.576 90.9334 13.816C90.5014 14.032 89.5894 14.32 88.1734 14.68C85.0294 15.448 83.8534 16.456 83.8534 18.64C83.8534 20.752 85.3654 22.36 88.3414 22.36C89.4934 22.36 90.4774 22.024 91.0294 21.616C91.6054 21.16 91.8214 20.92 91.9414 20.728H91.9894V22H94.3174ZM88.7254 16.624C91.2214 15.928 91.5094 15.64 91.6294 15.304H91.6774V17.848C91.6774 19.024 90.6214 19.984 88.5814 19.984C87.1894 19.984 86.4934 19.48 86.4934 18.448C86.4934 17.608 86.9254 17.08 88.7254 16.624ZM97.8078 17.752C97.8078 20.704 98.8638 22 101.936 22H103.16V19.36H102.152C100.808 19.36 100.496 18.88 100.496 17.464V11.632H103.664V9.28H100.472V6.16H97.8798V9.28H95.8878V11.632H97.8078V17.752ZM108.616 22V9.28H105.88V22H108.616ZM108.664 7.192V4.48H105.832V7.192H108.664ZM114.615 22V4.48H111.783V22H114.615ZM126.183 17.776C125.799 18.352 125.607 18.664 125.031 19.168C124.479 19.672 123.759 19.936 122.823 19.936C120.879 19.936 119.727 18.568 119.655 16.456H128.535V15.64C128.535 13.6 127.983 11.968 126.903 10.744C125.823 9.52 124.455 8.92 122.751 8.92C121.047 8.92 119.655 9.544 118.551 10.768C117.447 11.992 116.895 13.6 116.895 15.64C116.895 17.68 117.447 19.312 118.551 20.536C119.679 21.76 121.119 22.36 122.871 22.36C125.151 22.36 126.927 21.376 128.151 19.384L126.183 17.776ZM119.679 14.392C119.775 12.76 120.927 11.344 122.751 11.344C124.695 11.344 125.775 12.592 125.871 14.392H119.679ZM133.908 22V10.12H133.956L140.7 22H143.58V5.2H140.748V17.08H140.7L134.028 5.2H131.076V22H133.908ZM152.023 19.888C150.103 19.888 148.831 18.4 148.831 15.64C148.831 12.928 150.103 11.392 152.023 11.392C153.919 11.392 155.191 12.952 155.191 15.64C155.191 18.328 153.919 19.888 152.023 19.888ZM146.119 15.64C146.119 17.752 146.671 19.408 147.775 20.584C148.903 21.76 150.319 22.36 152.023 22.36C153.727 22.36 155.143 21.76 156.223 20.584C157.327 19.408 157.879 17.752 157.879 15.64C157.879 13.552 157.303 11.92 156.175 10.72C155.047 9.52 153.679 8.92 152.023 8.92C150.367 8.92 148.975 9.52 147.823 10.72C146.695 11.92 146.119 13.552 146.119 15.64ZM168.193 17.128C168.193 18.664 167.017 19.888 165.289 19.888C163.249 19.888 162.073 18.4 162.073 15.64C162.073 12.88 163.249 11.392 165.289 11.392C167.089 11.392 168.193 12.688 168.193 14.248V17.128ZM170.929 22V4.48H168.193V10.504H168.145C167.281 9.448 166.177 8.92 164.833 8.92C163.321 8.92 162.025 9.52 160.945 10.744C159.865 11.968 159.337 13.6 159.337 15.64C159.337 17.68 159.841 19.312 160.825 20.536C161.833 21.76 163.177 22.36 164.857 22.36C165.505 22.36 166.129 22.24 166.681 21.976C167.257 21.712 167.641 21.496 167.833 21.328C168.049 21.136 168.217 20.944 168.337 20.776H168.385V22H170.929ZM182.499 17.776C182.115 18.352 181.923 18.664 181.347 19.168C180.795 19.672 180.075 19.936 179.139 19.936C177.195 19.936 176.043 18.568 175.971 16.456H184.851V15.64C184.851 13.6 184.299 11.968 183.219 10.744C182.139 9.52 180.771 8.92 179.067 8.92C177.363 8.92 175.971 9.544 174.867 10.768C173.763 11.992 173.211 13.6 173.211 15.64C173.211 17.68 173.763 19.312 174.867 20.536C175.995 21.76 177.435 22.36 179.187 22.36C181.467 22.36 183.243 21.376 184.467 19.384L182.499 17.776ZM175.995 14.392C176.091 12.76 177.243 11.344 179.067 11.344C181.011 11.344 182.091 12.592 182.187 14.392H175.995Z" fill="#EFA340"/>
</svg>
