<svg width="202" height="255" viewBox="0 0 202 255" fill="none" xmlns="http://www.w3.org/2000/svg">
<g opacity="0.1">
<path opacity="0.1" d="M164.75 126.288L175.576 53.5361L107.14 80.5297L96.3135 153.282L153.849 198.926L222.286 171.932L164.75 126.288Z" fill="#FFE1B3"/>
<path opacity="0.1" d="M96.3135 153.282L107.14 80.5297L175.577 53.5361L164.75 126.288L96.3135 153.282Z" fill="#FFE1B3"/>
<path opacity="0.1" d="M153.849 198.926L96.3135 153.282L164.75 126.288L222.286 171.932L153.849 198.926Z" fill="#FFD99E"/>
<path opacity="0.1" d="M164.75 126.288L175.577 53.5359L233.112 99.1798L222.286 171.932L164.75 126.288Z" fill="#FFE1B3"/>
<path opacity="0.1" d="M164.75 126.288L175.577 53.5361L172.565 54.6763L161.739 127.428L219.349 173.187L222.286 171.932L164.75 126.288Z" fill="white"/>
</g>
<path d="M99.3241 126.141L41.0437 172.759L110.515 199.957L168.72 153.223L157.529 79.4062L88.0165 52.3994L99.3241 126.141Z" fill="#FFE1B3"/>
<path d="M168.72 153.223L110.515 199.957L41.0437 172.759L99.3241 126.141L168.72 153.223Z" fill="#FFE1B3"/>
<path d="M157.529 79.4062L168.72 153.223L99.3237 126.141L88.0161 52.3995L157.529 79.4062Z" fill="#FFD99E"/>
<path d="M99.3239 126.141L41.0435 172.759L29.7358 99.018L88.0162 52.3999L99.3239 126.141Z" fill="#FFE1B3"/>
<path d="M99.3239 126.141L41.0435 172.759L43.9931 173.988L102.274 127.37L90.9659 53.6284L88.0163 52.3998L99.3239 126.141Z" fill="white"/>
</svg>
